<svg xmlns="http://www.w3.org/2000/svg" class="ilu mt-al" viewBox="0 0 320 200"><style>:root{--il-line:#252B31;--il-edge:rgba(18,22,27,.5);--il-m1:#F1F3F5;--il-m2:#C9CFD5;--il-m3:#4A5159;--il-w1:#DCE1E6;--il-w2:#B4BCC4;--il-w3:#8A949E;--il-t:#D8BE84;--il-h1:#FFC98A;--il-hot:#E4602A;--il-f:#BFE1F0;--il-fl:#2B8BBE;--il-rb:#2A2E33;--il-yel:#E7C267;--il-pcb:#2D6A4E;--il-sand:#D9CCB2;--il-gw:#E6E0D5;--il-rb2:#3A3F45;--il-gl:#CFE5F1;--il-cu:#D08652;--il-bg:#2A2F35;--il-sh:rgba(10,14,18,.16);--il-cr:#E8EBEE;--il-sec0:#FFFFFF}@media (prefers-color-scheme:dark){:root:not([data-theme="light"]){--il-line:#C7CFD6;--il-edge:rgba(0,0,0,.55);--il-bg:#0C0E10;--il-sh:rgba(0,0,0,.5);--il-cr:#2A2F35;--il-sec0:#0E1012;--il-f:#1C4A5E;--il-fl:#6CC4EC;--il-h1:#8A3E1C;--il-hot:#FF8A50;--il-gl:#27445A}}:root[data-theme="dark"]{--il-line:#C7CFD6;--il-edge:rgba(0,0,0,.55);--il-bg:#0C0E10;--il-sh:rgba(0,0,0,.5);--il-cr:#2A2F35;--il-sec0:#0E1012;--il-f:#1C4A5E;--il-fl:#6CC4EC;--il-h1:#8A3E1C;--il-hot:#FF8A50;--il-gl:#27445A}.ilu{display:block;width:100%;height:auto;stroke-width:.85;stroke-linejoin:round;stroke-linecap:round;overflow:hidden}.ilu .o{fill:none;stroke:var(--il-line)}.ilu .thin{stroke-width:.8;opacity:.7}.ilu .dash{stroke-dasharray:4 3}.ilu .m{fill:var(--il-m1);stroke:var(--il-line)}.ilu .m2{fill:var(--il-m2);stroke:var(--il-line)}.ilu .m3{fill:var(--il-m3);stroke:var(--il-line)}.ilu .w{fill:var(--il-w1);stroke:var(--il-line)}.ilu .w2{fill:var(--il-w2);stroke:var(--il-line)}.ilu .w3{fill:var(--il-w3);stroke:var(--il-line)}.ilu .t{fill:var(--il-t);stroke:var(--il-line)}.ilu .h{fill:var(--il-h1);stroke:var(--il-hot)}.ilu .hl{fill:none;stroke:var(--il-hot);stroke-width:1.5}.ilu .fl{fill:var(--il-f);stroke:var(--il-fl)}.ilu .fo{fill:none;stroke:var(--il-fl);stroke-width:1.2}.ilu .fdot{fill:var(--il-fl);stroke:none}.ilu .a{fill:none;stroke:var(--accent);stroke-width:1.8}.ilu .af{fill:var(--accent);stroke:none}.ilu .sh{fill:var(--il-sh);stroke:none}.ilu .bg{fill:var(--il-bg);stroke:var(--il-line)}.ilu .bgline{stroke:var(--il-bg);stroke-width:2}.ilu .rb{fill:var(--il-rb);stroke:var(--il-line)}.ilu .rb2{fill:var(--il-rb2);stroke:var(--il-line)}.ilu .rbline{fill:none;stroke:var(--il-bg);stroke-width:1.2}.ilu .gl{fill:var(--il-gl);stroke:var(--il-line);fill-opacity:.9}.ilu .gl2{fill:var(--il-gl);stroke:var(--il-line)}.ilu .cu{fill:var(--il-cu);stroke:var(--il-line)}.ilu .cuwire{fill:none;stroke:var(--il-cu);stroke-width:3}.ilu .cr{fill:var(--il-cr);stroke:var(--il-line)}.ilu .ball{fill:var(--il-cr);stroke:var(--il-line)}.ilu .wire{fill:none;stroke:var(--il-w3);stroke-width:7}.ilu .arm{fill:none;stroke:var(--il-m3);stroke-width:10}.ilu .arm2{fill:none;stroke:var(--il-m3);stroke-width:7}.ilu .cable{fill:none;stroke:var(--il-rb);stroke-width:4}.ilu .cable3{fill:none;stroke:var(--il-rb);stroke-width:8}.ilu .belt{fill:none;stroke:var(--il-rb);stroke-width:3}.ilu .chan{fill:none;stroke:var(--il-bg);stroke-width:4}.ilu .tube1{fill:none;stroke:var(--il-line);stroke-width:10}.ilu .tube2{fill:none;stroke:var(--il-w1);stroke-width:7}.ilu .web{fill:none;stroke:var(--il-rb2);stroke-width:12}.ilu .led{fill:none;stroke:var(--il-t);stroke-width:5}.ilu .frit{fill:none;stroke:var(--il-rb);stroke-width:7;stroke-opacity:.85}.ilu .zig{fill:none;stroke:var(--il-m3);stroke-width:3}.ilu .gridl{stroke:var(--il-cr);stroke-width:2}.ilu .fin{stroke:var(--il-w3);stroke-width:.8}.ilu .d{fill:var(--il-line);stroke:none}.ilu text{fill:var(--ink2);stroke:none;font:500 11px var(--f-body);letter-spacing:.02em}.ilu text.al{fill:var(--accent);font-weight:600}.ilu text.sm{font-size:9.5px;fill:var(--muted)}.ilu .gw,.ilu .gwr{fill:var(--il-gw);stroke:var(--il-line)}.ilu .grit{fill:none;stroke:var(--il-line);stroke-dasharray:1 3;opacity:.6}.ilu .gline{stroke:var(--il-line);stroke-width:.8;opacity:.6}.ilu .chip{fill:none;stroke:var(--il-w3);stroke-width:1.8}.ilu .grain{fill:var(--il-line);opacity:.45;stroke:none}.ilu .bub{fill:none;stroke:var(--il-fl)}.ilu .tankw{fill:none;stroke:var(--il-line);stroke-width:2.2}.ilu .hotin{fill:var(--il-h1);stroke:none;opacity:.6}.ilu .warmin{fill:var(--il-h1);stroke:none;opacity:.3}.ilu .coolin{fill:var(--il-f);stroke:none;opacity:.7}.ilu .bolt{fill:var(--il-yel);stroke:var(--il-line)}.ilu .bg2{fill:var(--il-m1);stroke:var(--il-line)}.ilu .beam{stroke:var(--il-hot);stroke-width:3;fill:none}.ilu .kerf{stroke:var(--il-bg);stroke-width:2.5;fill:none}.ilu .bgline2{stroke:var(--il-bg);stroke-width:7;fill:none}.ilu .jet{stroke:var(--il-fl);stroke-width:3;stroke-dasharray:6 3;fill:none}.ilu .jet2{stroke:var(--il-fl);stroke-width:4;fill:none}.ilu .hatch{stroke:var(--il-w3);stroke-width:.8}.ilu .pour{fill:none;stroke:var(--il-hot);stroke-width:6}.ilu .shell{fill:var(--il-m1);stroke:var(--il-line)}.ilu .sand,.ilu .board{fill:var(--il-sand);stroke:var(--il-line)}.ilu .gridbar{stroke:var(--il-m3);stroke-width:6;fill:none}.ilu .shot,.ilu .pwd{fill:var(--il-m3);stroke:none}.ilu .coilcu{fill:none;stroke:var(--il-cu);stroke-width:3.2}.ilu .wire2{fill:none;stroke:var(--il-w3);stroke-width:4}.ilu .strip{fill:none;stroke:var(--il-w2);stroke-width:5}.ilu rect.strip{fill:var(--il-w2);stroke:var(--il-line);stroke-width:1.3}.ilu .sheet{fill:none;stroke:var(--il-w3);stroke-width:5}.ilu .sheet2{fill:var(--il-w2);stroke:var(--il-line)}.ilu .hotsheet{fill:none;stroke:var(--il-hot);stroke-width:5}.ilu .mesh{fill:var(--il-m1);stroke:var(--il-line);stroke-dasharray:2 2}.ilu .paste{fill:none;stroke:var(--il-m3);stroke-width:5}.ilu .lens{fill:var(--il-gl);stroke:var(--il-line)}.ilu .uv{stroke:var(--accent);stroke-dasharray:4 3;fill:none}.ilu .basket{fill:none;stroke:var(--il-line);stroke-dasharray:3 2}.ilu .bead{fill:none;stroke:var(--il-w3);stroke-width:5}.ilu .bead2,.ilu .bead3{fill:none;stroke:var(--il-m3);stroke-width:6}.ilu .ebeam{stroke:var(--accent);stroke-width:3;stroke-dasharray:2 2;fill:none}.ilu .foil{stroke:var(--il-cu);stroke-width:2}.ilu .hplate{fill:var(--il-h1);stroke:var(--il-hot)}.ilu .crack{fill:none;stroke:var(--il-hot);stroke-width:2.2}.ilu .resin{fill:var(--il-h1);stroke:var(--il-line)}.ilu .screw{stroke:var(--il-m3);stroke-width:6;fill:none}.ilu .parison{fill:var(--il-w1);stroke:var(--il-line)}.ilu .rbx{fill:var(--il-rb);stroke:var(--il-line)}.ilu .rbstrip{fill:none;stroke:var(--il-rb);stroke-width:8}.ilu .uvwave{fill:none;stroke:var(--il-hot)}.ilu .cordl{stroke:var(--il-cu)}.ilu .beadw{fill:none;stroke:var(--il-w3);stroke-width:6}.ilu .pourf{fill:none;stroke:var(--il-w2);stroke-width:6}.ilu .foamf,.ilu .padm{fill:var(--il-w2);stroke:var(--il-line)}.ilu .skin{fill:none;stroke:var(--il-w3);stroke-width:4}.ilu .chipd{fill:var(--il-rb);stroke:var(--il-line)}.ilu .glp{fill:var(--il-gl);stroke:var(--il-line)}.ilu .glsheet{fill:none;stroke:var(--il-fl);stroke-width:4}.ilu .rail{fill:none;stroke:var(--il-m3);stroke-width:5}.ilu .needle{stroke:var(--il-line);stroke-width:2}.ilu .stitch{fill:none;stroke:var(--accent);stroke-dasharray:4 3;stroke-width:1.6}.ilu .thread{stroke:var(--il-w2);stroke-width:2.2}.ilu .thread2{stroke:var(--il-hot);stroke-width:2.2}.ilu .slurry,.ilu .slurryp{fill:var(--il-rb2);stroke:var(--il-line)}.ilu .foilstrip{fill:none;stroke:var(--il-cu);stroke-width:3}.ilu .slurryl{fill:none;stroke:var(--il-rb2);stroke-width:5}.ilu .slurryl2{fill:none;stroke:var(--il-rb2);stroke-width:9}.ilu .windl0{fill:none;stroke:var(--il-cu);stroke-width:3}.ilu .windl1{fill:none;stroke:var(--il-m1);stroke-width:3}.ilu .windl2{fill:none;stroke:var(--il-rb2);stroke-width:3}.ilu .cuwire2{fill:none;stroke:var(--il-cu);stroke-width:6}.ilu .pcb,.ilu .okl{fill:var(--il-pcb);stroke:var(--il-line)}.ilu .wafer{fill:var(--il-m2);stroke:var(--il-line)}.ilu .wirebond{fill:none;stroke:var(--il-cu);stroke-width:1.6}.ilu .fringe{stroke:var(--accent);opacity:.7}.ilu .ring{fill:var(--il-t);stroke:var(--il-line)}.ilu .laserl{stroke:var(--il-hot);stroke-width:1.4;stroke-dasharray:5 3;fill:none}.ilu .zebra,.ilu .filt{fill:var(--il-cr);stroke:var(--il-line)}.ilu .ray{stroke:var(--accent);stroke-dasharray:4 3;fill:none}.ilu .wave{fill:none;stroke:var(--accent)}.ilu .yoke{fill:none;stroke:var(--il-m3);stroke-width:10}.ilu .indic{stroke:var(--accent);stroke-width:3;fill:none}.ilu .he{fill:var(--accent);opacity:.6;stroke:none}.ilu .beamf{fill:var(--il-yel);opacity:.55;stroke:none}.ilu .loc{fill:var(--il-line);stroke:none}.ilu .clampl{stroke:var(--il-hot);stroke-width:2.4}.ilu .clamph{fill:var(--il-hot);stroke:none}.ilu .leadd{fill:var(--ink2);stroke:none}.ilu .leadl{stroke:var(--ink2);stroke-width:.8;opacity:.8}.ilu .bal{fill:var(--surface);stroke:var(--accent);stroke-width:1.4}.ilu text.balt{fill:var(--accent);font-weight:700;font-size:10.5px}.ilu text.tol{fill:var(--ink2);font-size:10.5px}.ilu text.ttl{fill:var(--ink);font-weight:600;font-size:12px}.ilu .cl{stroke:var(--il-line);stroke-dasharray:14 3 2 3;stroke-width:.8;opacity:.7}.ilu .hid{fill:none;stroke:var(--il-line);stroke-dasharray:5 3;stroke-width:.9;opacity:.8}.ilu .mf{fill:none;stroke:var(--accent);stroke-width:4;stroke-linecap:round}.ilu .mfa{fill:var(--il-t);stroke:var(--accent);stroke-width:2}.ilu .rgh{fill:var(--il-w3);stroke:none}.ilu .done{stroke:var(--il-line);stroke-width:2.6;fill:none}.ilu .cut{fill:var(--il-w2);stroke:var(--il-line)}.ilu .ins{fill:var(--il-yel);stroke:var(--il-line)}.ilu .cool{stroke:var(--il-fl);stroke-dasharray:3 3}.ilu .cutl{stroke:var(--accent);stroke-width:2.4;stroke-dasharray:5 3}.ilu .poro{fill:var(--il-hot);stroke:none}.ilu .mfring{fill:none;stroke:var(--il-hot);stroke-width:1.5;stroke-dasharray:3 2}.ilu .xim{fill:#1D242B;stroke:var(--il-line)}.ilu .ximd{fill:#FFFFFF;stroke:none}.ilu .coat{fill:none;stroke:var(--il-hot);stroke-width:5}.ilu .hatchx{stroke:var(--accent);stroke-width:.8;opacity:.8}.ilu .jetl{fill:none;stroke:var(--il-fl);stroke-width:4;stroke-dasharray:8 4}.ilu .pres{fill:none;stroke:var(--il-fl);stroke-width:4.5}.ilu .tbg{fill:var(--surface);stroke:none;opacity:.94}.ilu .tbl{stroke:var(--line);stroke-width:1}.ilu .void{fill:var(--il-sec0);stroke:var(--il-line)}.ilu .hotband{fill:var(--il-hot);opacity:.35;stroke:none}.ilu .flash{fill:var(--il-hot);opacity:.25;stroke:var(--il-hot)}.ilu .cutframe{fill:none;stroke:var(--accent);stroke-width:2.2;stroke-dasharray:5 3}.ilu .orbit{fill:none;stroke:var(--accent);stroke-dasharray:3 3}.ilu .hotarc{fill:none;stroke:var(--il-hot);stroke-width:6;opacity:.8}.ilu .mfo{fill:none;stroke:var(--accent);stroke-width:2.4}.ilu .stem{stroke:var(--il-m3);stroke-width:5}.ilu .hotgrp .w,.ilu .hotgrp .w2,.ilu .hotgrp .w3,.ilu .hotgrp .rb,.ilu .hotgrp .m{fill:var(--il-h1);stroke:var(--il-hot)}:root{--il-ws1-old:#ECD9B4;--il-ws2:#DEC38F;--il-ws3:#C9A86F;--il-ws4:#AB8A55;--il-ts1:#BCC8F4;--il-ts2:#A5B3EA;--il-ts3:#8C9ADA;--il-ts4:#7382C6;--il-gs1:#B3BDE2;--il-gs2:#9CA7D0;--il-gs3:#8591BC;--il-gs4:#6E7AA5;--il-ms1:#D9E1DC;--il-ms2:#C2CDC6;--il-ms3:#A7B4AC;--il-ms4:#8B9990;--il-hs1:#F6B592;--il-hs2:#EE9B72;--il-hs3:#DF7C52;--il-hs4:#C9613A}.ilu .el{fill:none;stroke:var(--il-line);stroke-width:.75;stroke-linejoin:round}.ilu .ws1{fill:var(--il-ws1);stroke:var(--il-ws1);stroke-width:.5}.ilu .ws2{fill:var(--il-ws2);stroke:var(--il-ws2);stroke-width:.5}.ilu .ws3{fill:var(--il-ws3);stroke:var(--il-ws3);stroke-width:.5}.ilu .ws4{fill:var(--il-ws4);stroke:var(--il-ws4);stroke-width:.5}.ilu .ts1{fill:var(--il-ts1);stroke:var(--il-ts1);stroke-width:.5}.ilu .ts2{fill:var(--il-ts2);stroke:var(--il-ts2);stroke-width:.5}.ilu .ts3{fill:var(--il-ts3);stroke:var(--il-ts3);stroke-width:.5}.ilu .ts4{fill:var(--il-ts4);stroke:var(--il-ts4);stroke-width:.5}.ilu .gws1{fill:var(--il-gs1);stroke:var(--il-gs1);stroke-width:.5}.ilu .gws2{fill:var(--il-gs2);stroke:var(--il-gs2);stroke-width:.5}.ilu .gws3{fill:var(--il-gs3);stroke:var(--il-gs3);stroke-width:.5}.ilu .gws4{fill:var(--il-gs4);stroke:var(--il-gs4);stroke-width:.5}.ilu .ms1{fill:var(--il-ms1);stroke:var(--il-ms1);stroke-width:.5}.ilu .ms2{fill:var(--il-ms2);stroke:var(--il-ms2);stroke-width:.5}.ilu .ms3{fill:var(--il-ms3);stroke:var(--il-ms3);stroke-width:.5}.ilu .ms4{fill:var(--il-ms4);stroke:var(--il-ms4);stroke-width:.5}.ilu .hs1{fill:var(--il-hs1);stroke:var(--il-hs1);stroke-width:.5}.ilu .hs2{fill:var(--il-hs2);stroke:var(--il-hs2);stroke-width:.5}.ilu .hs3{fill:var(--il-hs3);stroke:var(--il-hs3);stroke-width:.5}.ilu .hs4{fill:var(--il-hs4);stroke:var(--il-hs4);stroke-width:.5}.ilu .gw{fill:var(--il-gw);stroke:var(--il-line)}.ilu .grit2{fill:none;stroke:var(--il-line);stroke-width:1.1;opacity:.35;stroke-linecap:round}.ilu .mfe{fill:none;stroke:var(--accent);stroke-width:1.8;stroke-linejoin:round}.ilu .chbd{fill:none;stroke:var(--il-t);stroke-width:4.5;stroke-linejoin:round;opacity:.9}.ilu .probe{fill:none;stroke:var(--il-m3);stroke-width:3.2;stroke-linecap:round;stroke-linejoin:round}.ilu .x{stroke:var(--il-line);stroke-width:.7}.ilu .gr{fill:none;stroke:var(--il-line);stroke-width:.5;opacity:.55}.ilu .m,.ilu .m2,.ilu .m3,.ilu .w,.ilu .w2,.ilu .w3,.ilu .t,.ilu .gw,.ilu .gwr,.ilu .bg,.ilu .cu,.ilu .alu,.ilu .shell,.ilu .bg2,.ilu .cr,.ilu .ball,.ilu .cut,.ilu .ring,.ilu .rb,.ilu .rb2,.ilu .rbx,.ilu .chipd{stroke:var(--il-edge)}.ilu .w{fill:url(#g-st)}.ilu .w2{fill:url(#g-st2)}.ilu .w3{fill:url(#g-st3)}.ilu.mt-al .w{fill:url(#g-al)}.ilu.mt-al .w2{fill:url(#g-al2)}.ilu.mt-al .w3{fill:url(#g-al3)}.ilu.mt-fe .w{fill:url(#g-fe)}.ilu.mt-fe .w2{fill:url(#g-fe2)}.ilu.mt-fe .w3{fill:url(#g-fe3)}.ilu.mt-pl .w{fill:url(#g-pl)}.ilu.mt-pl .w2{fill:url(#g-pl2)}.ilu.mt-pl .w3{fill:url(#g-pl3)}.ilu.mt-cu .w{fill:url(#g-cu)}.ilu.mt-cu .w2{fill:url(#g-cu2)}.ilu.mt-cu .w3{fill:url(#g-cu3)}.ilu .alu{fill:url(#g-al)}.ilu .cu{fill:url(#g-cu)}.ilu .m{fill:url(#g-m)}.ilu .m2{fill:url(#g-m2)}.ilu .m3{fill:url(#g-m3)}.ilu .shell,.ilu .bg2{fill:url(#g-m)}.ilu .t,.ilu .ring{fill:url(#g-t)}.ilu .gw,.ilu .gwr{fill:url(#g-gw)}.ilu .bg{fill:url(#g-bg)}.ilu .h,.ilu .hplate{fill:url(#g-hot);stroke:var(--il-hot)}.ilu .sh{fill:url(#g-sh)}.ilu .cut{fill:url(#p-cut)}.ilu .ball,.ilu .cr{fill:url(#g-ball)}.ilu .rb,.ilu .rbx,.ilu .chipd{fill:url(#g-rb)}.ilu .fl{fill:var(--il-f);fill-opacity:.7}.ilu .gl,.ilu .gl2,.ilu .glp,.ilu .lens{fill:var(--il-gl);fill-opacity:.55}.ilu .void{fill:var(--il-sec0)}:root{--ws1:#F2F4F6;--ws2:#CAD1D8;--ws3:#9FA8B1;--ws4:#77818B;--al1:#F8F8F6;--al2:#DADBD8;--al3:#B5B7B4;--al4:#8F918E;--fe1:#B8BDC2;--fe2:#8E949A;--fe3:#6B7177;--fe4:#4F555B;--pl1:#62666C;--pl2:#44484D;--pl3:#2F3236;--pl4:#1F2124;--cu1:#F6CDA8;--cu2:#DE9D6B;--cu3:#B97540;--cu4:#8A5229;--ts1:#F7E9C4;--ts2:#E3C98E;--ts3:#C1A060;--ts4:#957842;--gs1:#F5F2EC;--gs2:#DED8CD;--gs3:#C0B8A9;--gs4:#9D9485;--ms1:#F3F5F7;--ms2:#D4D9DE;--ms3:#ABB2B9;--ms4:#80888F;--hs1:#FFDCA4;--hs2:#FFB46B;--hs3:#F2853F;--hs4:#CF622B}.ilu .ws1{fill:var(--ws1);stroke:var(--ws1)}.ilu .ws2{fill:var(--ws2);stroke:var(--ws2)}.ilu .ws3{fill:var(--ws3);stroke:var(--ws3)}.ilu .ws4{fill:var(--ws4);stroke:var(--ws4)}.ilu.mt-al .ws1,.ilu .als1{fill:var(--al1);stroke:var(--al1)}.ilu.mt-al .ws2,.ilu .als2{fill:var(--al2);stroke:var(--al2)}.ilu.mt-al .ws3,.ilu .als3{fill:var(--al3);stroke:var(--al3)}.ilu.mt-al .ws4,.ilu .als4{fill:var(--al4);stroke:var(--al4)}.ilu.mt-fe .ws1{fill:var(--fe1);stroke:var(--fe1)}.ilu.mt-fe .ws2{fill:var(--fe2);stroke:var(--fe2)}.ilu.mt-fe .ws3{fill:var(--fe3);stroke:var(--fe3)}.ilu.mt-fe .ws4{fill:var(--fe4);stroke:var(--fe4)}.ilu.mt-pl .ws1{fill:var(--pl1);stroke:var(--pl1)}.ilu.mt-pl .ws2{fill:var(--pl2);stroke:var(--pl2)}.ilu.mt-pl .ws3{fill:var(--pl3);stroke:var(--pl3)}.ilu.mt-pl .ws4{fill:var(--pl4);stroke:var(--pl4)}.ilu .cus1{fill:var(--cu1);stroke:var(--cu1)}.ilu .cus2{fill:var(--cu2);stroke:var(--cu2)}.ilu .cus3{fill:var(--cu3);stroke:var(--cu3)}.ilu .cus4{fill:var(--cu4);stroke:var(--cu4)}.ilu .ts1{fill:var(--ts1);stroke:var(--ts1)}.ilu .ts2{fill:var(--ts2);stroke:var(--ts2)}.ilu .ts3{fill:var(--ts3);stroke:var(--ts3)}.ilu .ts4{fill:var(--ts4);stroke:var(--ts4)}.ilu .gws1{fill:var(--gs1);stroke:var(--gs1)}.ilu .gws2{fill:var(--gs2);stroke:var(--gs2)}.ilu .gws3{fill:var(--gs3);stroke:var(--gs3)}.ilu .gws4{fill:var(--gs4);stroke:var(--gs4)}.ilu .ms1{fill:var(--ms1);stroke:var(--ms1)}.ilu .ms2{fill:var(--ms2);stroke:var(--ms2)}.ilu .ms3{fill:var(--ms3);stroke:var(--ms3)}.ilu .ms4{fill:var(--ms4);stroke:var(--ms4)}.ilu .hs1{fill:var(--hs1);stroke:var(--hs1)}.ilu .hs2{fill:var(--hs2);stroke:var(--hs2)}.ilu .hs3{fill:var(--hs3);stroke:var(--hs3)}.ilu .hs4{fill:var(--hs4);stroke:var(--hs4)}.ilu .ws1,.ilu .ws2,.ilu .ws3,.ilu .ws4,.ilu .ts1,.ilu .ts2,.ilu .ts3,.ilu .ts4,.ilu .gws1,.ilu .gws2,.ilu .gws3,.ilu .gws4,.ilu .ms1,.ilu .ms2,.ilu .ms3,.ilu .ms4,.ilu .hs1,.ilu .hs2,.ilu .hs3,.ilu .hs4,.ilu .als1,.ilu .als2,.ilu .als3,.ilu .als4,.ilu .cus1,.ilu .cus2,.ilu .cus3,.ilu .cus4{stroke-width:.5}.ilu .alus1{fill:var(--al1);stroke:var(--al1)}.ilu .alus2{fill:var(--al2);stroke:var(--al2)}.ilu .alus3{fill:var(--al3);stroke:var(--al3)}.ilu .alus4{fill:var(--al4);stroke:var(--al4)}.ilu .alus1,.ilu .alus2,.ilu .alus3,.ilu .alus4{stroke-width:.5}.ilu .x{stroke:var(--il-edge);stroke-width:.55}.ilu .el{stroke:var(--il-edge);stroke-width:.6}.ilu .gr{stroke:var(--il-edge);stroke-width:.45;opacity:.6}.ilu .grit2{stroke:#6B6357;opacity:.35}.ilu .wire{stroke:#B97540}.ilu .wire2,.ilu .skin,.ilu .sheet,.ilu .bead,.ilu .beadw{stroke:#9AA3AC}.ilu .hatch{stroke:var(--il-edge)}.ilu .strip{stroke:#B4BCC4}.ilu rect.strip{fill:url(#g-st2)}.ilu .sheet2{fill:url(#g-st2)}.ilu .parison,.ilu .foamf,.ilu .padm{fill:url(#g-pl)}.ilu .chip{stroke:#C1A060}.ilu .rgh{fill:#9FA8B1}.ilu .hotgrp .w,.ilu .hotgrp .w2,.ilu .hotgrp .w3,.ilu .hotgrp .rb,.ilu .hotgrp .m{fill:url(#g-hot);stroke:var(--il-hot)}:root{--pt1:#F6F5F1;--pt2:#E1E0DA;--pt3:#C3C2BB;--pt4:#9E9D96;--dk1:#6C727A;--dk2:#50555C;--dk3:#3B3F45;--dk4:#2A2D31}.ilu .pt{fill:url(#g-pt);stroke:var(--il-edge)}.ilu .dk{fill:url(#g-dk);stroke:var(--il-edge)}.ilu .pts1{fill:var(--pt1);stroke:var(--pt1)}.ilu .pts2{fill:var(--pt2);stroke:var(--pt2)}.ilu .pts3{fill:var(--pt3);stroke:var(--pt3)}.ilu .pts4{fill:var(--pt4);stroke:var(--pt4)}.ilu .dks1{fill:var(--dk1);stroke:var(--dk1)}.ilu .dks2{fill:var(--dk2);stroke:var(--dk2)}.ilu .dks3{fill:var(--dk3);stroke:var(--dk3)}.ilu .dks4{fill:var(--dk4);stroke:var(--dk4)}.ilu .pts1,.ilu .pts2,.ilu .pts3,.ilu .pts4,.ilu .dks1,.ilu .dks2,.ilu .dks3,.ilu .dks4{stroke-width:.5}.ilu .thread{fill:none;stroke:rgba(18,22,27,.35);stroke-width:.7}.ilu .wire{fill:none}.ilu .tslot{fill:none;stroke:rgba(18,22,27,.45);stroke-width:1.6}.ilu .mgrid{fill:none;stroke:rgba(255,255,255,.18);stroke-width:1}.ilu .hobt{fill:none;stroke:rgba(80,60,20,.55);stroke-width:1}.ilu .gwt{fill:none;stroke:rgba(110,95,70,.45);stroke-width:1}.ilu .spark{stroke:#FF8A3D;stroke-width:1.4;stroke-linecap:round}.ilu .kerf{fill:none;stroke:#3A3F46;stroke-width:1.6}.ilu path.wire{stroke:#B97540;stroke-width:1.4}.ilu .fl{fill:var(--il-fl);fill-opacity:.35}.ilu .fls1,.ilu .fls2,.ilu .fls3,.ilu .fls4{fill:var(--il-fl);fill-opacity:.25;stroke:none}.ilu .cutw{fill:#2B2F35;opacity:.85}.ilu .ball{fill:url(#g-ball);stroke:rgba(18,22,27,.45);stroke-width:.5}.ilu .scr{fill:none;stroke:rgba(18,22,27,.35);stroke-width:.8}.ilu .scrn{fill:#13232E;stroke:#0B0D10}.ilu .scrl{fill:#3FA7D6;opacity:.7}.ilu .scrg{fill:none;stroke:#7FD3A8;stroke-width:1.2}.ilu .key{fill:#2C3036;stroke:#6E757D;stroke-width:.6}.ilu .kbtn{fill:#E6E6E2;stroke:#555;stroke-width:.6}.ilu .mpg{fill:#2C3036;stroke:#9AA1A8}.ilu .mpg2{fill:#4A5058;stroke:#9AA1A8}.ilu .estop{fill:#D8332A;stroke:#F2C230;stroke-width:3}.ilu .knob{fill:#C9CDD2;stroke:#555}.ilu .pipe{fill:none;stroke:#7E8790;stroke-width:5;stroke-linejoin:round;stroke-linecap:round}.ilu .spray{stroke:#3F9FD1;stroke-width:1.4;opacity:.8}.ilu .chipc{fill:none;stroke:#B98A3E;stroke-width:1.6}.ilu .heatg{fill:#FF7A3D;opacity:.28}.ilu .heatg2{fill:#FF9A55;opacity:.18}.ilu .ghost{fill:none;stroke:#E4602A;stroke-width:1.4;stroke-dasharray:5 4}.ilu .sensor{fill:#2D5BFF;stroke:#fff;stroke-width:1.2}.ilu .win{fill:#1E2A33;opacity:.75;stroke:rgba(255,255,255,.4);stroke-width:.8}.ilu .fence{fill:none;stroke:#E8B931;stroke-width:3}.ilu .probeball{fill:#C8302A;stroke:#7A1A16;stroke-width:.6}text,.bal,.balt,.leadl,.leadd,.a,.af{display:none}svg{--accent:#2D5BFF;--ink2:#3A3A3F}@media (prefers-color-scheme:dark){svg{--accent:#86A0FF;--ink2:#D2D2D7}}</style><svg><defs>
<linearGradient id="g-st" x1="0" y1="0" x2=".3" y2="1"><stop offset="0" stop-color="#EEF1F4"/><stop offset=".16" stop-color="#FFFFFF"/><stop offset=".46" stop-color="#D3D9DF"/><stop offset=".84" stop-color="#9BA4AD"/><stop offset="1" stop-color="#BAC1C8"/></linearGradient>
<linearGradient id="g-st2" x1="0" y1="0" x2=".3" y2="1"><stop offset="0" stop-color="#D5DBE1"/><stop offset=".22" stop-color="#E2E6EA"/><stop offset=".6" stop-color="#A8B1BA"/><stop offset="1" stop-color="#8A949E"/></linearGradient>
<linearGradient id="g-st3" x1="0" y1="0" x2=".3" y2="1"><stop offset="0" stop-color="#A1AAB3"/><stop offset="1" stop-color="#6E7882"/></linearGradient>
<linearGradient id="g-al" x1="0" y1="0" x2=".3" y2="1"><stop offset="0" stop-color="#F6F6F4"/><stop offset=".15" stop-color="#FFFFFF"/><stop offset=".5" stop-color="#E2E3E0"/><stop offset=".86" stop-color="#B9BBB8"/><stop offset="1" stop-color="#D0D2CF"/></linearGradient>
<linearGradient id="g-al2" x1="0" y1="0" x2=".3" y2="1"><stop offset="0" stop-color="#E3E4E1"/><stop offset=".6" stop-color="#B8BAB7"/><stop offset="1" stop-color="#9EA09D"/></linearGradient>
<linearGradient id="g-al3" x1="0" y1="0" x2=".3" y2="1"><stop offset="0" stop-color="#A9ABA8"/><stop offset="1" stop-color="#7E807D"/></linearGradient>
<linearGradient id="g-fe" x1="0" y1="0" x2=".3" y2="1"><stop offset="0" stop-color="#B9BEC3"/><stop offset=".18" stop-color="#C9CDD1"/><stop offset=".55" stop-color="#8F959B"/><stop offset="1" stop-color="#6A7076"/></linearGradient>
<linearGradient id="g-fe2" x1="0" y1="0" x2=".3" y2="1"><stop offset="0" stop-color="#8E949A"/><stop offset="1" stop-color="#62686E"/></linearGradient>
<linearGradient id="g-fe3" x1="0" y1="0" x2=".3" y2="1"><stop offset="0" stop-color="#60666C"/><stop offset="1" stop-color="#43494F"/></linearGradient>
<linearGradient id="g-pl" x1="0" y1="0" x2=".3" y2="1"><stop offset="0" stop-color="#70747A"/><stop offset=".45" stop-color="#43474C"/><stop offset="1" stop-color="#26292C"/></linearGradient>
<linearGradient id="g-pl2" x1="0" y1="0" x2=".3" y2="1"><stop offset="0" stop-color="#4C5055"/><stop offset="1" stop-color="#2B2E32"/></linearGradient>
<linearGradient id="g-pl3" x1="0" y1="0" x2=".3" y2="1"><stop offset="0" stop-color="#35383C"/><stop offset="1" stop-color="#1C1E21"/></linearGradient>
<linearGradient id="g-cu" x1="0" y1="0" x2=".3" y2="1"><stop offset="0" stop-color="#FBDCC0"/><stop offset=".25" stop-color="#F2B687"/><stop offset=".7" stop-color="#C77F4E"/><stop offset="1" stop-color="#9B5B2F"/></linearGradient>
<linearGradient id="g-cu2" x1="0" y1="0" x2=".3" y2="1"><stop offset="0" stop-color="#DA9764"/><stop offset="1" stop-color="#9C5C30"/></linearGradient>
<linearGradient id="g-cu3" x1="0" y1="0" x2=".3" y2="1"><stop offset="0" stop-color="#A9693B"/><stop offset="1" stop-color="#6F3E1E"/></linearGradient>
<linearGradient id="g-pt" x1="0" y1="0" x2=".25" y2="1"><stop offset="0" stop-color="#FAFAF7"/><stop offset=".55" stop-color="#EDECE7"/><stop offset="1" stop-color="#D9D8D1"/></linearGradient>
<linearGradient id="g-dk" x1="0" y1="0" x2=".25" y2="1"><stop offset="0" stop-color="#6A7078"/><stop offset=".6" stop-color="#4A4F56"/><stop offset="1" stop-color="#35393E"/></linearGradient>
<linearGradient id="g-m" x1="0" y1="0" x2=".2" y2="1"><stop offset="0" stop-color="#FFFFFF"/><stop offset=".55" stop-color="#EEF0F2"/><stop offset="1" stop-color="#D5D9DD"/></linearGradient>
<linearGradient id="g-m2" x1="0" y1="0" x2=".2" y2="1"><stop offset="0" stop-color="#E1E5E9"/><stop offset="1" stop-color="#B5BBC1"/></linearGradient>
<linearGradient id="g-m3" x1="0" y1="0" x2=".2" y2="1"><stop offset="0" stop-color="#626970"/><stop offset=".5" stop-color="#3C4249"/><stop offset="1" stop-color="#2A2F35"/></linearGradient>
<linearGradient id="g-t" x1="0" y1="0" x2=".3" y2="1"><stop offset="0" stop-color="#F8EBC8"/><stop offset=".14" stop-color="#FFF7E3"/><stop offset=".48" stop-color="#E6CC92"/><stop offset=".86" stop-color="#BF9F62"/><stop offset="1" stop-color="#D3B97E"/></linearGradient>
<linearGradient id="g-gw" x1="0" y1="0" x2=".3" y2="1"><stop offset="0" stop-color="#F8F5F0"/><stop offset=".5" stop-color="#E4DED3"/><stop offset="1" stop-color="#C6BEAF"/></linearGradient>
<linearGradient id="g-bg" x1="0" y1="0" x2=".3" y2="1"><stop offset="0" stop-color="#3B4148"/><stop offset="1" stop-color="#16191C"/></linearGradient>
<linearGradient id="g-rb" x1="0" y1="0" x2=".3" y2="1"><stop offset="0" stop-color="#50545A"/><stop offset="1" stop-color="#1D1F22"/></linearGradient>
<linearGradient id="g-hot" x1="0" y1="0" x2=".3" y2="1"><stop offset="0" stop-color="#FFEAB5"/><stop offset=".45" stop-color="#FFB15A"/><stop offset="1" stop-color="#EE7430"/></linearGradient>
<radialGradient id="g-sh" cx=".5" cy=".5" r=".5"><stop offset="0" stop-color="#000" stop-opacity=".3"/><stop offset=".6" stop-color="#000" stop-opacity=".1"/><stop offset="1" stop-color="#000" stop-opacity="0"/></radialGradient>
<radialGradient id="g-ball" cx=".5" cy=".5" r=".55" fx=".34" fy=".3"><stop offset="0" stop-color="#FFFFFF"/><stop offset=".45" stop-color="#D6DCE1"/><stop offset="1" stop-color="#848E98"/></radialGradient>
<pattern id="p-cut" width="6" height="6" patternUnits="userSpaceOnUse" patternTransform="rotate(45)"><rect width="6" height="6" fill="#C9CFD5"/><line x1="0" y1="0" x2="0" y2="6" stroke="#7F8891" stroke-width="1.1"/></pattern>
</defs></svg>
<ellipse class="sh" cx="160" cy="172" rx="115.3" ry="8"/><path class="ws1" d="M90.4 27.6 L100.2 27.3 L105.5 18 L95.5 18.4ZM100.2 27.3 L109.9 27.5 L115.5 18.1 L105.5 18ZM85.3 36.8 L94.9 36.7 L100.2 27.3 L90.4 27.6ZM109.9 27.5 L119.7 28.2 L125.5 18.7 L115.5 18.1ZM94.9 36.7 L104.4 37 L109.9 27.5 L100.2 27.3ZM80.3 46.1 L89.5 46.1 L94.9 36.7 L85.3 36.8ZM119.7 28.2 L129.5 29.3 L135.5 19.8 L125.5 18.7ZM104.4 37 L113.9 37.7 L119.7 28.2 L109.9 27.5ZM89.5 46.1 L98.8 46.6 L104.4 37 L94.9 36.7ZM75.2 55.6 L84.2 55.8 L89.5 46.1 L80.3 46.1ZM129.5 29.3 L134.4 30 L140.4 20.4 L135.5 19.8ZM113.9 37.7 L123.5 38.9 L129.5 29.3 L119.7 28.2ZM134.4 30 L139.3 29.6 L145.4 20 L140.4 20.4ZM98.8 46.6 L108.2 47.3 L113.9 37.7 L104.4 37ZM84.2 55.8 L93.3 56.3 L98.8 46.6 L89.5 46.1ZM139.3 29.6 L141.4 29.5 L147.6 19.9 L145.4 20ZM70.1 65.4 L78.9 65.6 L84.2 55.8 L75.2 55.6ZM123.5 38.9 L128.3 39.6 L134.4 30 L129.5 29.3ZM141.4 29.5 L148.5 32.6 L154.8 23.1 L147.6 19.9ZM148.5 32.6 L149 32.8 L155.4 23.2 L154.8 23.1ZM108.2 47.3 L117.5 48.5 L123.5 38.9 L113.9 37.7ZM128.3 39.6 L133.1 39.2 L139.3 29.6 L134.4 30ZM93.3 56.3 L102.4 57.1 L108.2 47.3 L98.8 46.6ZM149 32.8 L158.8 35.2 L165.4 25.6 L155.4 23.2ZM78.9 65.6 L87.7 66.2 L93.3 56.3 L84.2 55.8ZM133.1 39.2 L135.2 39.1 L141.4 29.5 L139.3 29.6ZM65 75.3 L73.6 75.7 L78.9 65.6 L70.1 65.4ZM117.5 48.5 L122.2 49.3 L128.3 39.6 L123.5 38.9ZM135.2 39.1 L142.1 42.3 L148.5 32.6 L141.4 29.5ZM142.1 42.3 L142.7 42.4 L149 32.8 L148.5 32.6ZM158.8 35.2 L168.7 38 L175.4 28.5 L165.4 25.6ZM102.4 57.1 L111.5 58.4 L117.5 48.5 L108.2 47.3ZM122.2 49.3 L126.9 48.9 L133.1 39.2 L128.3 39.6ZM87.7 66.2 L96.6 67.1 L102.4 57.1 L93.3 56.3ZM142.7 42.4 L152.3 44.8 L158.8 35.2 L149 32.8ZM73.6 75.7 L82.2 76.4 L87.7 66.2 L78.9 65.6ZM60 85.6 L68.3 86.1 L73.6 75.7 L65 75.3ZM126.9 48.9 L128.9 48.8 L135.2 39.1 L133.1 39.2ZM168.7 38 L178.5 41.3 L185.4 31.8 L175.4 28.5ZM111.5 58.4 L116.1 59.1 L122.2 49.3 L117.5 48.5ZM128.9 48.8 L135.7 52 L142.1 42.3 L135.2 39.1ZM135.7 52 L136.3 52.1 L142.7 42.4 L142.1 42.3ZM152.3 44.8 L161.9 47.6 L168.7 38 L158.8 35.2ZM96.6 67.1 L105.5 68.4 L111.5 58.4 L102.4 57.1ZM116.1 59.1 L120.7 58.8 L126.9 48.9 L122.2 49.3ZM178.5 41.3 L188.3 45 L195.4 35.6 L185.4 31.8ZM82.2 76.4 L90.9 77.4 L96.6 67.1 L87.7 66.2ZM136.3 52.1 L145.7 54.5 L152.3 44.8 L142.7 42.4ZM68.3 86.1 L76.7 86.9 L82.2 76.4 L73.6 75.7ZM54.9 96.3 L63 96.9 L68.3 86.1 L60 85.6ZM120.7 58.8 L122.7 58.7 L128.9 48.8 L126.9 48.9ZM161.9 47.6 L171.6 50.8 L178.5 41.3 L168.7 38ZM188.3 45 L198.1 49.1 L205.4 39.8 L195.4 35.6ZM105.5 68.4 L110 69.2 L116.1 59.1 L111.5 58.4ZM122.7 58.7 L129.3 61.9 L135.7 52 L128.9 48.8ZM129.3 61.9 L129.9 62 L136.3 52.1 L135.7 52ZM145.7 54.5 L155.2 57.3 L161.9 47.6 L152.3 44.8ZM90.9 77.4 L99.6 78.7 L105.5 68.4 L96.6 67.1ZM110 69.2 L114.5 68.9 L120.7 58.8 L116.1 59.1ZM171.6 50.8 L181.2 54.5 L188.3 45 L178.5 41.3ZM198.1 49.1 L208 53.7 L215.4 44.5 L205.4 39.8ZM76.7 86.9 L85.1 88 L90.9 77.4 L82.2 76.4ZM129.9 62 L139.1 64.4 L145.7 54.5 L136.3 52.1ZM63 96.9 L71.1 97.7 L76.7 86.9 L68.3 86.1ZM49.8 107.3 L57.6 108 L63 96.9 L54.9 96.3ZM208 53.7 L208.6 54 L216 44.8 L215.4 44.5ZM114.5 68.9 L116.5 68.8 L122.7 58.7 L120.7 58.8ZM155.2 57.3 L164.6 60.5 L171.6 50.8 L161.9 47.6ZM208.6 54 L215.7 55.8 L223.2 46.7 L216 44.8ZM181.2 54.5 L190.9 58.5 L198.1 49.1 L188.3 45ZM99.6 78.7 L103.9 79.6 L110 69.2 L105.5 68.4ZM116.5 68.8 L123 72 L129.3 61.9 L122.7 58.7Z"/><path class="ws2" d="M215.7 55.8 L217.8 57.5 L225.4 48.4 L223.2 46.7Z"/><path class="ws1" d="M123 72 L123.5 72.1 L129.9 62 L129.3 61.9ZM139.1 64.4 L148.4 67.1 L155.2 57.3 L145.7 54.5Z"/><path class="ws2" d="M217.8 57.5 L222.8 61.4 L230.4 52.4 L225.4 48.4Z"/><path class="ws1" d="M85.1 88 L93.6 89.4 L99.6 78.7 L90.9 77.4ZM222.8 61.4 L227.7 64.2 L235.3 55.3 L230.4 52.4ZM103.9 79.6 L108.3 79.2 L114.5 68.9 L110 69.2ZM164.6 60.5 L174.1 64 L181.2 54.5 L171.6 50.8ZM190.9 58.5 L200.6 63 L208 53.7 L198.1 49.1ZM71.1 97.7 L79.3 98.9 L85.1 88 L76.7 86.9ZM44.7 118.9 L52.3 119.7 L57.6 108 L49.8 107.3ZM57.6 108 L65.6 109 L71.1 97.7 L63 96.9ZM123.5 72.1 L132.6 74.5 L139.1 64.4 L129.9 62ZM227.7 64.2 L237.6 70.1 L245.3 61.3 L235.3 55.3ZM200.6 63 L201.2 63.3 L208.6 54 L208 53.7Z"/><path class="ws2" d="M44.7 122.7 L52.3 123.5 L52.3 119.7 L44.7 118.9Z"/><path class="ws1" d="M108.3 79.2 L110.3 79.1 L116.5 68.8 L114.5 68.9ZM148.4 67.1 L157.7 70.3 L164.6 60.5 L155.2 57.3ZM93.6 89.4 L97.9 90.2 L103.9 79.6 L99.6 78.7ZM201.2 63.3 L208.2 65 L215.7 55.8 L208.6 54ZM174.1 64 L183.7 68 L190.9 58.5 L181.2 54.5ZM237.6 70.1 L247.4 76.4 L255.3 67.9 L245.3 61.3ZM110.3 79.1 L116.6 82.3 L123 72 L116.5 68.8Z"/><path class="ws2" d="M208.2 65 L210.3 66.7 L217.8 57.5 L215.7 55.8Z"/><path class="ws1" d="M116.6 82.3 L117.1 82.5 L123.5 72.1 L123 72Z"/><path class="ws2" d="M247.4 76.4 L257.3 83.2 L265.3 74.8 L255.3 67.9ZM210.3 66.7 L215.2 70.5 L222.8 61.4 L217.8 57.5Z"/><path class="ws1" d="M132.6 74.5 L141.7 77.2 L148.4 67.1 L139.1 64.4ZM79.3 98.9 L87.6 100.4 L93.6 89.4 L85.1 88Z"/><path class="ws4" d="M267.2 94.2 L275.3 86.1 L275.3 82.3 L267.2 90.4Z"/><path class="ws1" d="M215.2 70.5 L220.1 73.2 L227.7 64.2 L222.8 61.4ZM65.6 109 L73.6 110.3 L79.3 98.9 L71.1 97.7ZM97.9 90.2 L102.1 89.9 L108.3 79.2 L103.9 79.6ZM52.3 119.7 L60 120.8 L65.6 109 L57.6 108ZM157.7 70.3 L167.1 73.8 L174.1 64 L164.6 60.5ZM183.7 68 L193.2 72.4 L200.6 63 L190.9 58.5Z"/><path class="ws2" d="M257.3 83.2 L267.2 90.4 L275.3 82.3 L265.3 74.8Z"/><path class="ws1" d="M117.1 82.5 L126 84.8 L132.6 74.5 L123.5 72.1Z"/><path class="ws2" d="M52.3 123.5 L60 124.6 L60 120.8 L52.3 119.7Z"/><path class="ws1" d="M220.1 73.2 L229.8 78.9 L237.6 70.1 L227.7 64.2ZM193.2 72.4 L193.8 72.6 L201.2 63.3 L200.6 63ZM102.1 89.9 L104 89.8 L110.3 79.1 L108.3 79.2ZM141.7 77.2 L150.8 80.3 L157.7 70.3 L148.4 67.1ZM87.6 100.4 L91.8 101.2 L97.9 90.2 L93.6 89.4ZM229.8 78.9 L239.6 85 L247.4 76.4 L237.6 70.1ZM193.8 72.6 L200.7 74.3 L208.2 65 L201.2 63.3ZM167.1 73.8 L176.4 77.6 L183.7 68 L174.1 64ZM104 89.8 L110.2 93 L116.6 82.3 L110.3 79.1Z"/><path class="ws2" d="M239.6 85 L249.4 91.6 L257.3 83.2 L247.4 76.4ZM200.7 74.3 L202.8 75.9 L210.3 66.7 L208.2 65Z"/><path class="ws1" d="M110.2 93 L110.8 93.1 L117.1 82.5 L116.6 82.3ZM73.6 110.3 L81.6 111.8 L87.6 100.4 L79.3 98.9Z"/><path class="ws2" d="M202.8 75.9 L207.6 79.6 L215.2 70.5 L210.3 66.7Z"/><path class="ws1" d="M126 84.8 L134.9 87.5 L141.7 77.2 L132.6 74.5ZM60 120.8 L67.8 122.1 L73.6 110.3 L65.6 109Z"/><path class="ws4" d="M259.2 102.4 L267.2 94.2 L267.2 90.4 L259.2 98.6Z"/><path class="ws1" d="M91.8 101.2 L96 100.9 L102.1 89.9 L97.9 90.2ZM207.6 79.6 L212.4 82.3 L220.1 73.2 L215.2 70.5Z"/><path class="ws2" d="M249.4 91.6 L259.2 98.6 L267.2 90.4 L257.3 83.2Z"/><path class="ws1" d="M150.8 80.3 L160 83.7 L167.1 73.8 L157.7 70.3ZM176.4 77.6 L185.8 81.9 L193.2 72.4 L183.7 68Z"/><path class="ws2" d="M60 124.6 L67.8 125.9 L67.8 122.1 L60 120.8Z"/><path class="ws1" d="M110.8 93.1 L119.4 95.5 L126 84.8 L117.1 82.5ZM212.4 82.3 L222 87.8 L229.8 78.9 L220.1 73.2ZM185.8 81.9 L186.4 82.2 L193.8 72.6 L193.2 72.4ZM96 100.9 L97.8 100.8 L104 89.8 L102.1 89.9ZM81.6 111.8 L85.7 112.6 L91.8 101.2 L87.6 100.4ZM134.9 87.5 L143.9 90.5 L150.8 80.3 L141.7 77.2ZM222 87.8 L231.7 93.8 L239.6 85 L229.8 78.9ZM186.4 82.2 L193.2 83.7 L200.7 74.3 L193.8 72.6ZM160 83.7 L169.2 87.5 L176.4 77.6 L167.1 73.8ZM97.8 100.8 L103.9 104 L110.2 93 L104 89.8ZM67.8 122.1 L75.6 123.7 L81.6 111.8 L73.6 110.3Z"/><path class="ws2" d="M231.7 93.8 L241.4 100.1 L249.4 91.6 L239.6 85Z"/><path class="ws1" d="M103.9 104 L104.4 104.2 L110.8 93.1 L110.2 93Z"/><path class="ws2" d="M193.2 83.7 L195.3 85.3 L202.8 75.9 L200.7 74.3Z"/><path class="ws1" d="M119.4 95.5 L128.2 98.2 L134.9 87.5 L126 84.8Z"/><path class="ws4" d="M251.1 110.7 L259.2 102.4 L259.2 98.6 L251.1 106.9Z"/><path class="ws2" d="M195.3 85.3 L200 89 L207.6 79.6 L202.8 75.9Z"/><path class="ws1" d="M85.7 112.6 L89.8 112.4 L96 100.9 L91.8 101.2Z"/><path class="ws3" d="M67.8 125.9 L75.6 127.5 L75.6 123.7 L67.8 122.1Z"/><path class="ws1" d="M200 89 L204.8 91.5 L212.4 82.3 L207.6 79.6Z"/><path class="ws2" d="M241.4 100.1 L251.1 106.9 L259.2 98.6 L249.4 91.6Z"/><path class="ws1" d="M143.9 90.5 L152.9 93.9 L160 83.7 L150.8 80.3ZM169.2 87.5 L178.5 91.6 L185.8 81.9 L176.4 77.6ZM104.4 104.2 L112.9 106.5 L119.4 95.5 L110.8 93.1ZM204.8 91.5 L214.3 96.9 L222 87.8 L212.4 82.3ZM89.8 112.4 L91.6 112.3 L97.8 100.8 L96 100.9ZM178.5 91.6 L179 91.9 L186.4 82.2 L185.8 81.9ZM75.6 123.7 L79.6 124.5 L85.7 112.6 L81.6 111.8ZM128.2 98.2 L137 101.1 L143.9 90.5 L134.9 87.5ZM214.3 96.9 L223.8 102.7 L231.7 93.8 L222 87.8ZM91.6 112.3 L97.5 115.5 L103.9 104 L97.8 100.8ZM179 91.9 L185.7 93.4 L193.2 83.7 L186.4 82.2Z"/><path class="ws3" d="M75.6 127.5 L79.6 128.4 L79.6 124.5 L75.6 123.7Z"/><path class="ws1" d="M152.9 93.9 L162 97.6 L169.2 87.5 L160 83.7ZM97.5 115.5 L98 115.6 L104.4 104.2 L103.9 104Z"/><path class="ws2" d="M223.8 102.7 L233.4 108.8 L241.4 100.1 L231.7 93.8Z"/><path class="ws1" d="M79.6 124.5 L83.6 124.3 L89.8 112.4 L85.7 112.6Z"/><path class="ws4" d="M243 119.1 L251.1 110.7 L251.1 106.9 L243 115.3Z"/><path class="ws2" d="M185.7 93.4 L187.8 94.9 L195.3 85.3 L193.2 83.7Z"/><path class="ws1" d="M112.9 106.5 L121.4 109.2 L128.2 98.2 L119.4 95.5Z"/><path class="ws2" d="M187.8 94.9 L192.4 98.5 L200 89 L195.3 85.3ZM233.4 108.8 L243 115.3 L251.1 106.9 L241.4 100.1Z"/><path class="ws1" d="M192.4 98.5 L197.1 101 L204.8 91.5 L200 89Z"/><path class="ws3" d="M79.6 128.4 L83.6 128.1 L83.6 124.3 L79.6 124.5Z"/><path class="ws1" d="M137 101.1 L145.8 104.4 L152.9 93.9 L143.9 90.5ZM162 97.6 L171.1 101.6 L178.5 91.6 L169.2 87.5ZM98 115.6 L106.3 118 L112.9 106.5 L104.4 104.2ZM83.6 124.3 L85.3 124.2 L91.6 112.3 L89.8 112.4ZM197.1 101 L206.5 106.2 L214.3 96.9 L204.8 91.5ZM171.1 101.6 L171.6 101.9 L179 91.9 L178.5 91.6Z"/><path class="ws3" d="M83.6 128.1 L85.3 128 L85.3 124.2 L83.6 124.3Z"/><path class="ws1" d="M121.4 109.2 L130 112.1 L137 101.1 L128.2 98.2ZM85.3 124.2 L91.1 127.4 L97.5 115.5 L91.6 112.3ZM206.5 106.2 L215.9 111.8 L223.8 102.7 L214.3 96.9ZM171.6 101.9 L178.2 103.3 L185.7 93.4 L179 91.9ZM145.8 104.4 L154.7 108 L162 97.6 L152.9 93.9ZM91.1 127.4 L91.6 127.6 L98 115.6 L97.5 115.5Z"/><path class="ws3" d="M85.3 128 L91.1 131.2 L91.1 127.4 L85.3 124.2Z"/><path class="ws1" d="M215.9 111.8 L225.4 117.7 L233.4 108.8 L223.8 102.7ZM106.3 118 L114.7 120.6 L121.4 109.2 L112.9 106.5Z"/><path class="ws4" d="M234.9 127.8 L243 119.1 L243 115.3 L234.9 123.9Z"/><path class="ws2" d="M178.2 103.3 L180.2 104.8 L187.8 94.9 L185.7 93.4ZM180.2 104.8 L184.9 108.3 L192.4 98.5 L187.8 94.9Z"/><path class="ws3" d="M91.1 131.2 L91.6 131.4 L91.6 127.6 L91.1 127.4Z"/><path class="ws2" d="M225.4 117.7 L234.9 123.9 L243 115.3 L233.4 108.8Z"/><path class="ws1" d="M184.9 108.3 L189.5 110.7 L197.1 101 L192.4 98.5ZM91.6 127.6 L99.7 129.9 L106.3 118 L98 115.6ZM130 112.1 L138.7 115.3 L145.8 104.4 L137 101.1ZM154.7 108 L163.7 112 L171.1 101.6 L162 97.6ZM189.5 110.7 L198.7 115.7 L206.5 106.2 L197.1 101Z"/><path class="ws3" d="M91.6 131.4 L99.7 133.7 L99.7 129.9 L91.6 127.6Z"/><path class="ws1" d="M163.7 112 L164.2 112.2 L171.6 101.9 L171.1 101.6ZM114.7 120.6 L123.1 123.5 L130 112.1 L121.4 109.2ZM198.7 115.7 L208.1 121.1 L215.9 111.8 L206.5 106.2ZM138.7 115.3 L147.5 118.8 L154.7 108 L145.8 104.4ZM164.2 112.2 L170.7 113.5 L178.2 103.3 L171.6 101.9ZM99.7 129.9 L107.9 132.5 L114.7 120.6 L106.3 118ZM208.1 121.1 L217.4 126.8 L225.4 117.7 L215.9 111.8Z"/><path class="ws4" d="M226.9 136.7 L234.9 127.8 L234.9 123.9 L226.9 132.9Z"/><path class="ws2" d="M170.7 113.5 L172.7 115 L180.2 104.8 L178.2 103.3ZM172.7 115 L177.3 118.4 L184.9 108.3 L180.2 104.8ZM217.4 126.8 L226.9 132.9 L234.9 123.9 L225.4 117.7Z"/><path class="ws3" d="M99.7 133.7 L107.9 136.3 L107.9 132.5 L99.7 129.9Z"/><path class="ws1" d="M177.3 118.4 L181.8 120.7 L189.5 110.7 L184.9 108.3ZM123.1 123.5 L131.6 126.6 L138.7 115.3 L130 112.1ZM147.5 118.8 L156.3 122.6 L163.7 112 L154.7 108ZM181.8 120.7 L191 125.6 L198.7 115.7 L189.5 110.7ZM156.3 122.6 L156.8 122.9 L164.2 112.2 L163.7 112ZM107.9 132.5 L116.2 135.3 L123.1 123.5 L114.7 120.6ZM191 125.6 L200.2 130.8 L208.1 121.1 L198.7 115.7ZM131.6 126.6 L140.2 130 L147.5 118.8 L138.7 115.3ZM156.8 122.9 L163.2 124.1 L170.7 113.5 L164.2 112.2Z"/><path class="ws3" d="M107.9 136.3 L116.2 139.1 L116.2 135.3 L107.9 132.5Z"/><path class="ws4" d="M218.8 145.9 L226.9 136.7 L226.9 132.9 L218.8 142.1Z"/><path class="ws1" d="M200.2 130.8 L209.5 136.3 L217.4 126.8 L208.1 121.1Z"/><path class="ws2" d="M163.2 124.1 L165.2 125.5 L172.7 115 L170.7 113.5ZM165.2 125.5 L169.7 128.9 L177.3 118.4 L172.7 115ZM209.5 136.3 L218.8 142.1 L226.9 132.9 L217.4 126.8Z"/><path class="ws1" d="M116.2 135.3 L124.6 138.4 L131.6 126.6 L123.1 123.5ZM169.7 128.9 L174.2 131.1 L181.8 120.7 L177.3 118.4ZM140.2 130 L148.9 133.7 L156.3 122.6 L147.5 118.8Z"/><path class="ws3" d="M116.2 139.1 L124.6 142.2 L124.6 138.4 L116.2 135.3Z"/><path class="ws1" d="M174.2 131.1 L183.2 135.8 L191 125.6 L181.8 120.7ZM148.9 133.7 L149.5 134 L156.8 122.9 L156.3 122.6ZM183.2 135.8 L192.3 140.8 L200.2 130.8 L191 125.6ZM124.6 138.4 L133 141.7 L140.2 130 L131.6 126.6ZM149.5 134 L155.8 135.1 L163.2 124.1 L156.8 122.9Z"/><path class="ws4" d="M210.7 155.5 L218.8 145.9 L218.8 142.1 L210.7 151.7Z"/><path class="ws1" d="M192.3 140.8 L201.5 146.1 L209.5 136.3 L200.2 130.8Z"/><path class="ws3" d="M124.6 142.2 L133 145.5 L133 141.7 L124.6 138.4Z"/><path class="ws2" d="M155.8 135.1 L157.7 136.5 L165.2 125.5 L163.2 124.1ZM157.7 136.5 L162.1 139.8 L169.7 128.9 L165.2 125.5ZM201.5 146.1 L210.7 151.7 L218.8 142.1 L209.5 136.3Z"/><path class="ws1" d="M162.1 139.8 L166.5 142 L174.2 131.1 L169.7 128.9ZM133 141.7 L141.5 145.3 L148.9 133.7 L140.2 130ZM166.5 142 L175.4 146.5 L183.2 135.8 L174.2 131.1Z"/><path class="ws3" d="M133 145.5 L141.5 149.1 L141.5 145.3 L133 141.7Z"/><path class="ws1" d="M141.5 145.3 L142.1 145.5 L149.5 134 L148.9 133.7ZM175.4 146.5 L184.4 151.3 L192.3 140.8 L183.2 135.8Z"/><path class="ws3" d="M141.5 149.1 L142.1 149.4 L142.1 145.5 L141.5 145.3Z"/><path class="ws1" d="M142.1 145.5 L148.3 146.5 L155.8 135.1 L149.5 134Z"/><path class="ws4" d="M202.6 165.5 L210.7 155.5 L210.7 151.7 L202.6 161.7Z"/><path class="ws1" d="M184.4 151.3 L193.5 156.3 L201.5 146.1 L192.3 140.8Z"/><path class="ws3" d="M142.1 149.4 L148.3 150.4 L148.3 146.5 L142.1 145.5Z"/><path class="ws2" d="M148.3 146.5 L150.2 147.9 L157.7 136.5 L155.8 135.1ZM193.5 156.3 L202.6 161.7 L210.7 151.7 L201.5 146.1ZM150.2 147.9 L154.5 151.2 L162.1 139.8 L157.7 136.5Z"/><path class="ws1" d="M154.5 151.2 L158.9 153.3 L166.5 142 L162.1 139.8Z"/><path class="ws3" d="M148.3 150.4 L150.2 151.8 L150.2 147.9 L148.3 146.5ZM150.2 151.8 L154.5 155 L154.5 151.2 L150.2 147.9ZM154.5 155 L158.9 157.1 L158.9 153.3 L154.5 151.2Z"/><path class="ws1" d="M158.9 153.3 L167.7 157.6 L175.4 146.5 L166.5 142Z"/><path class="ws3" d="M158.9 157.1 L167.7 161.4 L167.7 157.6 L158.9 153.3Z"/><path class="ws1" d="M167.7 157.6 L176.6 162.2 L184.4 151.3 L175.4 146.5Z"/><path class="ws4" d="M194.6 176 L202.6 165.5 L202.6 161.7 L194.6 172.2Z"/><path class="ws1" d="M176.6 162.2 L185.5 167 L193.5 156.3 L184.4 151.3Z"/><path class="ws3" d="M167.7 161.4 L176.6 166 L176.6 162.2 L167.7 157.6Z"/><path class="ws2" d="M185.5 167 L194.6 172.2 L202.6 161.7 L193.5 156.3Z"/><path class="ws3" d="M176.6 166 L185.5 170.9 L185.5 167 L176.6 162.2ZM185.5 170.9 L194.6 176 L194.6 172.2 L185.5 167Z"/><path class="el" d="M95.5 18.4 L90.4 27.6 L85.3 36.8 L80.3 46.1 L75.2 55.6 L70.1 65.4 L65 75.3 L60 85.6 L54.9 96.3 L49.8 107.3 L44.7 118.9 L52.3 119.7 L60 120.8 L67.8 122.1 L75.6 123.7 L79.6 124.5 L83.6 124.3 L85.3 124.2 L91.1 127.4 L91.6 127.6 L99.7 129.9 L107.9 132.5 L116.2 135.3 L124.6 138.4 L133 141.7 L141.5 145.3 L142.1 145.5 L148.3 146.5 L150.2 147.9 L154.5 151.2 L158.9 153.3 L167.7 157.6 L176.6 162.2 L185.5 167 L194.6 172.2 L202.6 161.7 L210.7 151.7 L218.8 142.1 L226.9 132.9 L234.9 123.9 L243 115.3 L251.1 106.9 L259.2 98.6 L267.2 90.4 L275.3 82.3"/><path class="gr" d="M85.3 124.2 L91.6 112.3 L97.8 100.8 L104 89.8 L110.3 79.1 L116.5 68.8 L122.7 58.7 L128.9 48.8 L135.2 39.1 L141.4 29.5 L147.6 19.9"/><path class="gr" d="M148.3 146.5 L155.8 135.1 L163.2 124.1 L170.7 113.5 L178.2 103.3 L185.7 93.4 L193.2 83.7 L200.7 74.3 L208.2 65 L215.7 55.8 L223.2 46.7"/></svg>