<svg xmlns="http://www.w3.org/2000/svg" class="ilu mt-al" viewBox="0 0 320 200"><style>:root{--il-line:#252B31;--il-edge:rgba(18,22,27,.5);--il-m1:#F1F3F5;--il-m2:#C9CFD5;--il-m3:#4A5159;--il-w1:#DCE1E6;--il-w2:#B4BCC4;--il-w3:#8A949E;--il-t:#D8BE84;--il-h1:#FFC98A;--il-hot:#E4602A;--il-f:#BFE1F0;--il-fl:#2B8BBE;--il-rb:#2A2E33;--il-yel:#E7C267;--il-pcb:#2D6A4E;--il-sand:#D9CCB2;--il-gw:#E6E0D5;--il-rb2:#3A3F45;--il-gl:#CFE5F1;--il-cu:#D08652;--il-bg:#2A2F35;--il-sh:rgba(10,14,18,.16);--il-cr:#E8EBEE;--il-sec0:#FFFFFF}@media (prefers-color-scheme:dark){:root:not([data-theme="light"]){--il-line:#C7CFD6;--il-edge:rgba(0,0,0,.55);--il-bg:#0C0E10;--il-sh:rgba(0,0,0,.5);--il-cr:#2A2F35;--il-sec0:#0E1012;--il-f:#1C4A5E;--il-fl:#6CC4EC;--il-h1:#8A3E1C;--il-hot:#FF8A50;--il-gl:#27445A}}:root[data-theme="dark"]{--il-line:#C7CFD6;--il-edge:rgba(0,0,0,.55);--il-bg:#0C0E10;--il-sh:rgba(0,0,0,.5);--il-cr:#2A2F35;--il-sec0:#0E1012;--il-f:#1C4A5E;--il-fl:#6CC4EC;--il-h1:#8A3E1C;--il-hot:#FF8A50;--il-gl:#27445A}.ilu{display:block;width:100%;height:auto;stroke-width:.85;stroke-linejoin:round;stroke-linecap:round;overflow:hidden}.ilu .o{fill:none;stroke:var(--il-line)}.ilu .thin{stroke-width:.8;opacity:.7}.ilu .dash{stroke-dasharray:4 3}.ilu .m{fill:var(--il-m1);stroke:var(--il-line)}.ilu .m2{fill:var(--il-m2);stroke:var(--il-line)}.ilu .m3{fill:var(--il-m3);stroke:var(--il-line)}.ilu .w{fill:var(--il-w1);stroke:var(--il-line)}.ilu .w2{fill:var(--il-w2);stroke:var(--il-line)}.ilu .w3{fill:var(--il-w3);stroke:var(--il-line)}.ilu .t{fill:var(--il-t);stroke:var(--il-line)}.ilu .h{fill:var(--il-h1);stroke:var(--il-hot)}.ilu .hl{fill:none;stroke:var(--il-hot);stroke-width:1.5}.ilu .fl{fill:var(--il-f);stroke:var(--il-fl)}.ilu .fo{fill:none;stroke:var(--il-fl);stroke-width:1.2}.ilu .fdot{fill:var(--il-fl);stroke:none}.ilu .a{fill:none;stroke:var(--accent);stroke-width:1.8}.ilu .af{fill:var(--accent);stroke:none}.ilu .sh{fill:var(--il-sh);stroke:none}.ilu .bg{fill:var(--il-bg);stroke:var(--il-line)}.ilu .bgline{stroke:var(--il-bg);stroke-width:2}.ilu .rb{fill:var(--il-rb);stroke:var(--il-line)}.ilu .rb2{fill:var(--il-rb2);stroke:var(--il-line)}.ilu .rbline{fill:none;stroke:var(--il-bg);stroke-width:1.2}.ilu .gl{fill:var(--il-gl);stroke:var(--il-line);fill-opacity:.9}.ilu .gl2{fill:var(--il-gl);stroke:var(--il-line)}.ilu .cu{fill:var(--il-cu);stroke:var(--il-line)}.ilu .cuwire{fill:none;stroke:var(--il-cu);stroke-width:3}.ilu .cr{fill:var(--il-cr);stroke:var(--il-line)}.ilu .ball{fill:var(--il-cr);stroke:var(--il-line)}.ilu .wire{fill:none;stroke:var(--il-w3);stroke-width:7}.ilu .arm{fill:none;stroke:var(--il-m3);stroke-width:10}.ilu .arm2{fill:none;stroke:var(--il-m3);stroke-width:7}.ilu .cable{fill:none;stroke:var(--il-rb);stroke-width:4}.ilu .cable3{fill:none;stroke:var(--il-rb);stroke-width:8}.ilu .belt{fill:none;stroke:var(--il-rb);stroke-width:3}.ilu .chan{fill:none;stroke:var(--il-bg);stroke-width:4}.ilu .tube1{fill:none;stroke:var(--il-line);stroke-width:10}.ilu .tube2{fill:none;stroke:var(--il-w1);stroke-width:7}.ilu .web{fill:none;stroke:var(--il-rb2);stroke-width:12}.ilu .led{fill:none;stroke:var(--il-t);stroke-width:5}.ilu .frit{fill:none;stroke:var(--il-rb);stroke-width:7;stroke-opacity:.85}.ilu .zig{fill:none;stroke:var(--il-m3);stroke-width:3}.ilu .gridl{stroke:var(--il-cr);stroke-width:2}.ilu .fin{stroke:var(--il-w3);stroke-width:.8}.ilu .d{fill:var(--il-line);stroke:none}.ilu text{fill:var(--ink2);stroke:none;font:500 11px var(--f-body);letter-spacing:.02em}.ilu text.al{fill:var(--accent);font-weight:600}.ilu text.sm{font-size:9.5px;fill:var(--muted)}.ilu .gw,.ilu .gwr{fill:var(--il-gw);stroke:var(--il-line)}.ilu .grit{fill:none;stroke:var(--il-line);stroke-dasharray:1 3;opacity:.6}.ilu .gline{stroke:var(--il-line);stroke-width:.8;opacity:.6}.ilu .chip{fill:none;stroke:var(--il-w3);stroke-width:1.8}.ilu .grain{fill:var(--il-line);opacity:.45;stroke:none}.ilu .bub{fill:none;stroke:var(--il-fl)}.ilu .tankw{fill:none;stroke:var(--il-line);stroke-width:2.2}.ilu .hotin{fill:var(--il-h1);stroke:none;opacity:.6}.ilu .warmin{fill:var(--il-h1);stroke:none;opacity:.3}.ilu .coolin{fill:var(--il-f);stroke:none;opacity:.7}.ilu .bolt{fill:var(--il-yel);stroke:var(--il-line)}.ilu .bg2{fill:var(--il-m1);stroke:var(--il-line)}.ilu .beam{stroke:var(--il-hot);stroke-width:3;fill:none}.ilu .kerf{stroke:var(--il-bg);stroke-width:2.5;fill:none}.ilu .bgline2{stroke:var(--il-bg);stroke-width:7;fill:none}.ilu .jet{stroke:var(--il-fl);stroke-width:3;stroke-dasharray:6 3;fill:none}.ilu .jet2{stroke:var(--il-fl);stroke-width:4;fill:none}.ilu .hatch{stroke:var(--il-w3);stroke-width:.8}.ilu .pour{fill:none;stroke:var(--il-hot);stroke-width:6}.ilu .shell{fill:var(--il-m1);stroke:var(--il-line)}.ilu .sand,.ilu .board{fill:var(--il-sand);stroke:var(--il-line)}.ilu .gridbar{stroke:var(--il-m3);stroke-width:6;fill:none}.ilu .shot,.ilu .pwd{fill:var(--il-m3);stroke:none}.ilu .coilcu{fill:none;stroke:var(--il-cu);stroke-width:3.2}.ilu .wire2{fill:none;stroke:var(--il-w3);stroke-width:4}.ilu .strip{fill:none;stroke:var(--il-w2);stroke-width:5}.ilu rect.strip{fill:var(--il-w2);stroke:var(--il-line);stroke-width:1.3}.ilu .sheet{fill:none;stroke:var(--il-w3);stroke-width:5}.ilu .sheet2{fill:var(--il-w2);stroke:var(--il-line)}.ilu .hotsheet{fill:none;stroke:var(--il-hot);stroke-width:5}.ilu .mesh{fill:var(--il-m1);stroke:var(--il-line);stroke-dasharray:2 2}.ilu .paste{fill:none;stroke:var(--il-m3);stroke-width:5}.ilu .lens{fill:var(--il-gl);stroke:var(--il-line)}.ilu .uv{stroke:var(--accent);stroke-dasharray:4 3;fill:none}.ilu .basket{fill:none;stroke:var(--il-line);stroke-dasharray:3 2}.ilu .bead{fill:none;stroke:var(--il-w3);stroke-width:5}.ilu .bead2,.ilu .bead3{fill:none;stroke:var(--il-m3);stroke-width:6}.ilu .ebeam{stroke:var(--accent);stroke-width:3;stroke-dasharray:2 2;fill:none}.ilu .foil{stroke:var(--il-cu);stroke-width:2}.ilu .hplate{fill:var(--il-h1);stroke:var(--il-hot)}.ilu .crack{fill:none;stroke:var(--il-hot);stroke-width:2.2}.ilu .resin{fill:var(--il-h1);stroke:var(--il-line)}.ilu .screw{stroke:var(--il-m3);stroke-width:6;fill:none}.ilu .parison{fill:var(--il-w1);stroke:var(--il-line)}.ilu .rbx{fill:var(--il-rb);stroke:var(--il-line)}.ilu .rbstrip{fill:none;stroke:var(--il-rb);stroke-width:8}.ilu .uvwave{fill:none;stroke:var(--il-hot)}.ilu .cordl{stroke:var(--il-cu)}.ilu .beadw{fill:none;stroke:var(--il-w3);stroke-width:6}.ilu .pourf{fill:none;stroke:var(--il-w2);stroke-width:6}.ilu .foamf,.ilu .padm{fill:var(--il-w2);stroke:var(--il-line)}.ilu .skin{fill:none;stroke:var(--il-w3);stroke-width:4}.ilu .chipd{fill:var(--il-rb);stroke:var(--il-line)}.ilu .glp{fill:var(--il-gl);stroke:var(--il-line)}.ilu .glsheet{fill:none;stroke:var(--il-fl);stroke-width:4}.ilu .rail{fill:none;stroke:var(--il-m3);stroke-width:5}.ilu .needle{stroke:var(--il-line);stroke-width:2}.ilu .stitch{fill:none;stroke:var(--accent);stroke-dasharray:4 3;stroke-width:1.6}.ilu .thread{stroke:var(--il-w2);stroke-width:2.2}.ilu .thread2{stroke:var(--il-hot);stroke-width:2.2}.ilu .slurry,.ilu .slurryp{fill:var(--il-rb2);stroke:var(--il-line)}.ilu .foilstrip{fill:none;stroke:var(--il-cu);stroke-width:3}.ilu .slurryl{fill:none;stroke:var(--il-rb2);stroke-width:5}.ilu .slurryl2{fill:none;stroke:var(--il-rb2);stroke-width:9}.ilu .windl0{fill:none;stroke:var(--il-cu);stroke-width:3}.ilu .windl1{fill:none;stroke:var(--il-m1);stroke-width:3}.ilu .windl2{fill:none;stroke:var(--il-rb2);stroke-width:3}.ilu .cuwire2{fill:none;stroke:var(--il-cu);stroke-width:6}.ilu .pcb,.ilu .okl{fill:var(--il-pcb);stroke:var(--il-line)}.ilu .wafer{fill:var(--il-m2);stroke:var(--il-line)}.ilu .wirebond{fill:none;stroke:var(--il-cu);stroke-width:1.6}.ilu .fringe{stroke:var(--accent);opacity:.7}.ilu .ring{fill:var(--il-t);stroke:var(--il-line)}.ilu .laserl{stroke:var(--il-hot);stroke-width:1.4;stroke-dasharray:5 3;fill:none}.ilu .zebra,.ilu .filt{fill:var(--il-cr);stroke:var(--il-line)}.ilu .ray{stroke:var(--accent);stroke-dasharray:4 3;fill:none}.ilu .wave{fill:none;stroke:var(--accent)}.ilu .yoke{fill:none;stroke:var(--il-m3);stroke-width:10}.ilu .indic{stroke:var(--accent);stroke-width:3;fill:none}.ilu .he{fill:var(--accent);opacity:.6;stroke:none}.ilu .beamf{fill:var(--il-yel);opacity:.55;stroke:none}.ilu .loc{fill:var(--il-line);stroke:none}.ilu .clampl{stroke:var(--il-hot);stroke-width:2.4}.ilu .clamph{fill:var(--il-hot);stroke:none}.ilu .leadd{fill:var(--ink2);stroke:none}.ilu .leadl{stroke:var(--ink2);stroke-width:.8;opacity:.8}.ilu .bal{fill:var(--surface);stroke:var(--accent);stroke-width:1.4}.ilu text.balt{fill:var(--accent);font-weight:700;font-size:10.5px}.ilu text.tol{fill:var(--ink2);font-size:10.5px}.ilu text.ttl{fill:var(--ink);font-weight:600;font-size:12px}.ilu .cl{stroke:var(--il-line);stroke-dasharray:14 3 2 3;stroke-width:.8;opacity:.7}.ilu .hid{fill:none;stroke:var(--il-line);stroke-dasharray:5 3;stroke-width:.9;opacity:.8}.ilu .mf{fill:none;stroke:var(--accent);stroke-width:4;stroke-linecap:round}.ilu .mfa{fill:var(--il-t);stroke:var(--accent);stroke-width:2}.ilu .rgh{fill:var(--il-w3);stroke:none}.ilu .done{stroke:var(--il-line);stroke-width:2.6;fill:none}.ilu .cut{fill:var(--il-w2);stroke:var(--il-line)}.ilu .ins{fill:var(--il-yel);stroke:var(--il-line)}.ilu .cool{stroke:var(--il-fl);stroke-dasharray:3 3}.ilu .cutl{stroke:var(--accent);stroke-width:2.4;stroke-dasharray:5 3}.ilu .poro{fill:var(--il-hot);stroke:none}.ilu .mfring{fill:none;stroke:var(--il-hot);stroke-width:1.5;stroke-dasharray:3 2}.ilu .xim{fill:#1D242B;stroke:var(--il-line)}.ilu .ximd{fill:#FFFFFF;stroke:none}.ilu .coat{fill:none;stroke:var(--il-hot);stroke-width:5}.ilu .hatchx{stroke:var(--accent);stroke-width:.8;opacity:.8}.ilu .jetl{fill:none;stroke:var(--il-fl);stroke-width:4;stroke-dasharray:8 4}.ilu .pres{fill:none;stroke:var(--il-fl);stroke-width:4.5}.ilu .tbg{fill:var(--surface);stroke:none;opacity:.94}.ilu .tbl{stroke:var(--line);stroke-width:1}.ilu .void{fill:var(--il-sec0);stroke:var(--il-line)}.ilu .hotband{fill:var(--il-hot);opacity:.35;stroke:none}.ilu .flash{fill:var(--il-hot);opacity:.25;stroke:var(--il-hot)}.ilu .cutframe{fill:none;stroke:var(--accent);stroke-width:2.2;stroke-dasharray:5 3}.ilu .orbit{fill:none;stroke:var(--accent);stroke-dasharray:3 3}.ilu .hotarc{fill:none;stroke:var(--il-hot);stroke-width:6;opacity:.8}.ilu .mfo{fill:none;stroke:var(--accent);stroke-width:2.4}.ilu .stem{stroke:var(--il-m3);stroke-width:5}.ilu .hotgrp .w,.ilu .hotgrp .w2,.ilu .hotgrp .w3,.ilu .hotgrp .rb,.ilu .hotgrp .m{fill:var(--il-h1);stroke:var(--il-hot)}:root{--il-ws1-old:#ECD9B4;--il-ws2:#DEC38F;--il-ws3:#C9A86F;--il-ws4:#AB8A55;--il-ts1:#BCC8F4;--il-ts2:#A5B3EA;--il-ts3:#8C9ADA;--il-ts4:#7382C6;--il-gs1:#B3BDE2;--il-gs2:#9CA7D0;--il-gs3:#8591BC;--il-gs4:#6E7AA5;--il-ms1:#D9E1DC;--il-ms2:#C2CDC6;--il-ms3:#A7B4AC;--il-ms4:#8B9990;--il-hs1:#F6B592;--il-hs2:#EE9B72;--il-hs3:#DF7C52;--il-hs4:#C9613A}.ilu .el{fill:none;stroke:var(--il-line);stroke-width:.75;stroke-linejoin:round}.ilu .ws1{fill:var(--il-ws1);stroke:var(--il-ws1);stroke-width:.5}.ilu .ws2{fill:var(--il-ws2);stroke:var(--il-ws2);stroke-width:.5}.ilu .ws3{fill:var(--il-ws3);stroke:var(--il-ws3);stroke-width:.5}.ilu .ws4{fill:var(--il-ws4);stroke:var(--il-ws4);stroke-width:.5}.ilu .ts1{fill:var(--il-ts1);stroke:var(--il-ts1);stroke-width:.5}.ilu .ts2{fill:var(--il-ts2);stroke:var(--il-ts2);stroke-width:.5}.ilu .ts3{fill:var(--il-ts3);stroke:var(--il-ts3);stroke-width:.5}.ilu .ts4{fill:var(--il-ts4);stroke:var(--il-ts4);stroke-width:.5}.ilu .gws1{fill:var(--il-gs1);stroke:var(--il-gs1);stroke-width:.5}.ilu .gws2{fill:var(--il-gs2);stroke:var(--il-gs2);stroke-width:.5}.ilu .gws3{fill:var(--il-gs3);stroke:var(--il-gs3);stroke-width:.5}.ilu .gws4{fill:var(--il-gs4);stroke:var(--il-gs4);stroke-width:.5}.ilu .ms1{fill:var(--il-ms1);stroke:var(--il-ms1);stroke-width:.5}.ilu .ms2{fill:var(--il-ms2);stroke:var(--il-ms2);stroke-width:.5}.ilu .ms3{fill:var(--il-ms3);stroke:var(--il-ms3);stroke-width:.5}.ilu .ms4{fill:var(--il-ms4);stroke:var(--il-ms4);stroke-width:.5}.ilu .hs1{fill:var(--il-hs1);stroke:var(--il-hs1);stroke-width:.5}.ilu .hs2{fill:var(--il-hs2);stroke:var(--il-hs2);stroke-width:.5}.ilu .hs3{fill:var(--il-hs3);stroke:var(--il-hs3);stroke-width:.5}.ilu .hs4{fill:var(--il-hs4);stroke:var(--il-hs4);stroke-width:.5}.ilu .gw{fill:var(--il-gw);stroke:var(--il-line)}.ilu .grit2{fill:none;stroke:var(--il-line);stroke-width:1.1;opacity:.35;stroke-linecap:round}.ilu .mfe{fill:none;stroke:var(--accent);stroke-width:1.8;stroke-linejoin:round}.ilu .chbd{fill:none;stroke:var(--il-t);stroke-width:4.5;stroke-linejoin:round;opacity:.9}.ilu .probe{fill:none;stroke:var(--il-m3);stroke-width:3.2;stroke-linecap:round;stroke-linejoin:round}.ilu .x{stroke:var(--il-line);stroke-width:.7}.ilu .gr{fill:none;stroke:var(--il-line);stroke-width:.5;opacity:.55}.ilu .m,.ilu .m2,.ilu .m3,.ilu .w,.ilu .w2,.ilu .w3,.ilu .t,.ilu .gw,.ilu .gwr,.ilu .bg,.ilu .cu,.ilu .alu,.ilu .shell,.ilu .bg2,.ilu .cr,.ilu .ball,.ilu .cut,.ilu .ring,.ilu .rb,.ilu .rb2,.ilu .rbx,.ilu .chipd{stroke:var(--il-edge)}.ilu .w{fill:url(#g-st)}.ilu .w2{fill:url(#g-st2)}.ilu .w3{fill:url(#g-st3)}.ilu.mt-al .w{fill:url(#g-al)}.ilu.mt-al .w2{fill:url(#g-al2)}.ilu.mt-al .w3{fill:url(#g-al3)}.ilu.mt-fe .w{fill:url(#g-fe)}.ilu.mt-fe .w2{fill:url(#g-fe2)}.ilu.mt-fe .w3{fill:url(#g-fe3)}.ilu.mt-pl .w{fill:url(#g-pl)}.ilu.mt-pl .w2{fill:url(#g-pl2)}.ilu.mt-pl .w3{fill:url(#g-pl3)}.ilu.mt-cu .w{fill:url(#g-cu)}.ilu.mt-cu .w2{fill:url(#g-cu2)}.ilu.mt-cu .w3{fill:url(#g-cu3)}.ilu .alu{fill:url(#g-al)}.ilu .cu{fill:url(#g-cu)}.ilu .m{fill:url(#g-m)}.ilu .m2{fill:url(#g-m2)}.ilu .m3{fill:url(#g-m3)}.ilu .shell,.ilu .bg2{fill:url(#g-m)}.ilu .t,.ilu .ring{fill:url(#g-t)}.ilu .gw,.ilu .gwr{fill:url(#g-gw)}.ilu .bg{fill:url(#g-bg)}.ilu .h,.ilu .hplate{fill:url(#g-hot);stroke:var(--il-hot)}.ilu .sh{fill:url(#g-sh)}.ilu .cut{fill:url(#p-cut)}.ilu .ball,.ilu .cr{fill:url(#g-ball)}.ilu .rb,.ilu .rbx,.ilu .chipd{fill:url(#g-rb)}.ilu .fl{fill:var(--il-f);fill-opacity:.7}.ilu .gl,.ilu .gl2,.ilu .glp,.ilu .lens{fill:var(--il-gl);fill-opacity:.55}.ilu .void{fill:var(--il-sec0)}:root{--ws1:#F2F4F6;--ws2:#CAD1D8;--ws3:#9FA8B1;--ws4:#77818B;--al1:#F8F8F6;--al2:#DADBD8;--al3:#B5B7B4;--al4:#8F918E;--fe1:#B8BDC2;--fe2:#8E949A;--fe3:#6B7177;--fe4:#4F555B;--pl1:#62666C;--pl2:#44484D;--pl3:#2F3236;--pl4:#1F2124;--cu1:#F6CDA8;--cu2:#DE9D6B;--cu3:#B97540;--cu4:#8A5229;--ts1:#F7E9C4;--ts2:#E3C98E;--ts3:#C1A060;--ts4:#957842;--gs1:#F5F2EC;--gs2:#DED8CD;--gs3:#C0B8A9;--gs4:#9D9485;--ms1:#F3F5F7;--ms2:#D4D9DE;--ms3:#ABB2B9;--ms4:#80888F;--hs1:#FFDCA4;--hs2:#FFB46B;--hs3:#F2853F;--hs4:#CF622B}.ilu .ws1{fill:var(--ws1);stroke:var(--ws1)}.ilu .ws2{fill:var(--ws2);stroke:var(--ws2)}.ilu .ws3{fill:var(--ws3);stroke:var(--ws3)}.ilu .ws4{fill:var(--ws4);stroke:var(--ws4)}.ilu.mt-al .ws1,.ilu .als1{fill:var(--al1);stroke:var(--al1)}.ilu.mt-al .ws2,.ilu .als2{fill:var(--al2);stroke:var(--al2)}.ilu.mt-al .ws3,.ilu .als3{fill:var(--al3);stroke:var(--al3)}.ilu.mt-al .ws4,.ilu .als4{fill:var(--al4);stroke:var(--al4)}.ilu.mt-fe .ws1{fill:var(--fe1);stroke:var(--fe1)}.ilu.mt-fe .ws2{fill:var(--fe2);stroke:var(--fe2)}.ilu.mt-fe .ws3{fill:var(--fe3);stroke:var(--fe3)}.ilu.mt-fe .ws4{fill:var(--fe4);stroke:var(--fe4)}.ilu.mt-pl .ws1{fill:var(--pl1);stroke:var(--pl1)}.ilu.mt-pl .ws2{fill:var(--pl2);stroke:var(--pl2)}.ilu.mt-pl .ws3{fill:var(--pl3);stroke:var(--pl3)}.ilu.mt-pl .ws4{fill:var(--pl4);stroke:var(--pl4)}.ilu .cus1{fill:var(--cu1);stroke:var(--cu1)}.ilu .cus2{fill:var(--cu2);stroke:var(--cu2)}.ilu .cus3{fill:var(--cu3);stroke:var(--cu3)}.ilu .cus4{fill:var(--cu4);stroke:var(--cu4)}.ilu .ts1{fill:var(--ts1);stroke:var(--ts1)}.ilu .ts2{fill:var(--ts2);stroke:var(--ts2)}.ilu .ts3{fill:var(--ts3);stroke:var(--ts3)}.ilu .ts4{fill:var(--ts4);stroke:var(--ts4)}.ilu .gws1{fill:var(--gs1);stroke:var(--gs1)}.ilu .gws2{fill:var(--gs2);stroke:var(--gs2)}.ilu .gws3{fill:var(--gs3);stroke:var(--gs3)}.ilu .gws4{fill:var(--gs4);stroke:var(--gs4)}.ilu .ms1{fill:var(--ms1);stroke:var(--ms1)}.ilu .ms2{fill:var(--ms2);stroke:var(--ms2)}.ilu .ms3{fill:var(--ms3);stroke:var(--ms3)}.ilu .ms4{fill:var(--ms4);stroke:var(--ms4)}.ilu .hs1{fill:var(--hs1);stroke:var(--hs1)}.ilu .hs2{fill:var(--hs2);stroke:var(--hs2)}.ilu .hs3{fill:var(--hs3);stroke:var(--hs3)}.ilu .hs4{fill:var(--hs4);stroke:var(--hs4)}.ilu .ws1,.ilu .ws2,.ilu .ws3,.ilu .ws4,.ilu .ts1,.ilu .ts2,.ilu .ts3,.ilu .ts4,.ilu .gws1,.ilu .gws2,.ilu .gws3,.ilu .gws4,.ilu .ms1,.ilu .ms2,.ilu .ms3,.ilu .ms4,.ilu .hs1,.ilu .hs2,.ilu .hs3,.ilu .hs4,.ilu .als1,.ilu .als2,.ilu .als3,.ilu .als4,.ilu .cus1,.ilu .cus2,.ilu .cus3,.ilu .cus4{stroke-width:.5}.ilu .alus1{fill:var(--al1);stroke:var(--al1)}.ilu .alus2{fill:var(--al2);stroke:var(--al2)}.ilu .alus3{fill:var(--al3);stroke:var(--al3)}.ilu .alus4{fill:var(--al4);stroke:var(--al4)}.ilu .alus1,.ilu .alus2,.ilu .alus3,.ilu .alus4{stroke-width:.5}.ilu .x{stroke:var(--il-edge);stroke-width:.55}.ilu .el{stroke:var(--il-edge);stroke-width:.6}.ilu .gr{stroke:var(--il-edge);stroke-width:.45;opacity:.6}.ilu .grit2{stroke:#6B6357;opacity:.35}.ilu .wire{stroke:#B97540}.ilu .wire2,.ilu .skin,.ilu .sheet,.ilu .bead,.ilu .beadw{stroke:#9AA3AC}.ilu .hatch{stroke:var(--il-edge)}.ilu .strip{stroke:#B4BCC4}.ilu rect.strip{fill:url(#g-st2)}.ilu .sheet2{fill:url(#g-st2)}.ilu .parison,.ilu .foamf,.ilu .padm{fill:url(#g-pl)}.ilu .chip{stroke:#C1A060}.ilu .rgh{fill:#9FA8B1}.ilu .hotgrp .w,.ilu .hotgrp .w2,.ilu .hotgrp .w3,.ilu .hotgrp .rb,.ilu .hotgrp .m{fill:url(#g-hot);stroke:var(--il-hot)}:root{--pt1:#F6F5F1;--pt2:#E1E0DA;--pt3:#C3C2BB;--pt4:#9E9D96;--dk1:#6C727A;--dk2:#50555C;--dk3:#3B3F45;--dk4:#2A2D31}.ilu .pt{fill:url(#g-pt);stroke:var(--il-edge)}.ilu .dk{fill:url(#g-dk);stroke:var(--il-edge)}.ilu .pts1{fill:var(--pt1);stroke:var(--pt1)}.ilu .pts2{fill:var(--pt2);stroke:var(--pt2)}.ilu .pts3{fill:var(--pt3);stroke:var(--pt3)}.ilu .pts4{fill:var(--pt4);stroke:var(--pt4)}.ilu .dks1{fill:var(--dk1);stroke:var(--dk1)}.ilu .dks2{fill:var(--dk2);stroke:var(--dk2)}.ilu .dks3{fill:var(--dk3);stroke:var(--dk3)}.ilu .dks4{fill:var(--dk4);stroke:var(--dk4)}.ilu .pts1,.ilu .pts2,.ilu .pts3,.ilu .pts4,.ilu .dks1,.ilu .dks2,.ilu .dks3,.ilu .dks4{stroke-width:.5}.ilu .thread{fill:none;stroke:rgba(18,22,27,.35);stroke-width:.7}.ilu .wire{fill:none}.ilu .tslot{fill:none;stroke:rgba(18,22,27,.45);stroke-width:1.6}.ilu .mgrid{fill:none;stroke:rgba(255,255,255,.18);stroke-width:1}.ilu .hobt{fill:none;stroke:rgba(80,60,20,.55);stroke-width:1}.ilu .gwt{fill:none;stroke:rgba(110,95,70,.45);stroke-width:1}.ilu .spark{stroke:#FF8A3D;stroke-width:1.4;stroke-linecap:round}.ilu .kerf{fill:none;stroke:#3A3F46;stroke-width:1.6}.ilu path.wire{stroke:#B97540;stroke-width:1.4}.ilu .fl{fill:var(--il-fl);fill-opacity:.35}.ilu .fls1,.ilu .fls2,.ilu .fls3,.ilu .fls4{fill:var(--il-fl);fill-opacity:.25;stroke:none}.ilu .cutw{fill:#2B2F35;opacity:.85}.ilu .ball{fill:url(#g-ball);stroke:rgba(18,22,27,.45);stroke-width:.5}.ilu .scr{fill:none;stroke:rgba(18,22,27,.35);stroke-width:.8}.ilu .scrn{fill:#13232E;stroke:#0B0D10}.ilu .scrl{fill:#3FA7D6;opacity:.7}.ilu .scrg{fill:none;stroke:#7FD3A8;stroke-width:1.2}.ilu .key{fill:#2C3036;stroke:#6E757D;stroke-width:.6}.ilu .kbtn{fill:#E6E6E2;stroke:#555;stroke-width:.6}.ilu .mpg{fill:#2C3036;stroke:#9AA1A8}.ilu .mpg2{fill:#4A5058;stroke:#9AA1A8}.ilu .estop{fill:#D8332A;stroke:#F2C230;stroke-width:3}.ilu .knob{fill:#C9CDD2;stroke:#555}.ilu .pipe{fill:none;stroke:#7E8790;stroke-width:5;stroke-linejoin:round;stroke-linecap:round}.ilu .spray{stroke:#3F9FD1;stroke-width:1.4;opacity:.8}.ilu .chipc{fill:none;stroke:#B98A3E;stroke-width:1.6}.ilu .heatg{fill:#FF7A3D;opacity:.28}.ilu .heatg2{fill:#FF9A55;opacity:.18}.ilu .ghost{fill:none;stroke:#E4602A;stroke-width:1.4;stroke-dasharray:5 4}.ilu .sensor{fill:#2D5BFF;stroke:#fff;stroke-width:1.2}.ilu .win{fill:#1E2A33;opacity:.75;stroke:rgba(255,255,255,.4);stroke-width:.8}.ilu .fence{fill:none;stroke:#E8B931;stroke-width:3}.ilu .probeball{fill:#C8302A;stroke:#7A1A16;stroke-width:.6}text,.bal,.balt,.leadl,.leadd,.a,.af{display:none}svg{--accent:#2D5BFF;--ink2:#3A3A3F}@media (prefers-color-scheme:dark){svg{--accent:#86A0FF;--ink2:#D2D2D7}}</style><svg><defs>
<linearGradient id="g-st" x1="0" y1="0" x2=".3" y2="1"><stop offset="0" stop-color="#EEF1F4"/><stop offset=".16" stop-color="#FFFFFF"/><stop offset=".46" stop-color="#D3D9DF"/><stop offset=".84" stop-color="#9BA4AD"/><stop offset="1" stop-color="#BAC1C8"/></linearGradient>
<linearGradient id="g-st2" x1="0" y1="0" x2=".3" y2="1"><stop offset="0" stop-color="#D5DBE1"/><stop offset=".22" stop-color="#E2E6EA"/><stop offset=".6" stop-color="#A8B1BA"/><stop offset="1" stop-color="#8A949E"/></linearGradient>
<linearGradient id="g-st3" x1="0" y1="0" x2=".3" y2="1"><stop offset="0" stop-color="#A1AAB3"/><stop offset="1" stop-color="#6E7882"/></linearGradient>
<linearGradient id="g-al" x1="0" y1="0" x2=".3" y2="1"><stop offset="0" stop-color="#F6F6F4"/><stop offset=".15" stop-color="#FFFFFF"/><stop offset=".5" stop-color="#E2E3E0"/><stop offset=".86" stop-color="#B9BBB8"/><stop offset="1" stop-color="#D0D2CF"/></linearGradient>
<linearGradient id="g-al2" x1="0" y1="0" x2=".3" y2="1"><stop offset="0" stop-color="#E3E4E1"/><stop offset=".6" stop-color="#B8BAB7"/><stop offset="1" stop-color="#9EA09D"/></linearGradient>
<linearGradient id="g-al3" x1="0" y1="0" x2=".3" y2="1"><stop offset="0" stop-color="#A9ABA8"/><stop offset="1" stop-color="#7E807D"/></linearGradient>
<linearGradient id="g-fe" x1="0" y1="0" x2=".3" y2="1"><stop offset="0" stop-color="#B9BEC3"/><stop offset=".18" stop-color="#C9CDD1"/><stop offset=".55" stop-color="#8F959B"/><stop offset="1" stop-color="#6A7076"/></linearGradient>
<linearGradient id="g-fe2" x1="0" y1="0" x2=".3" y2="1"><stop offset="0" stop-color="#8E949A"/><stop offset="1" stop-color="#62686E"/></linearGradient>
<linearGradient id="g-fe3" x1="0" y1="0" x2=".3" y2="1"><stop offset="0" stop-color="#60666C"/><stop offset="1" stop-color="#43494F"/></linearGradient>
<linearGradient id="g-pl" x1="0" y1="0" x2=".3" y2="1"><stop offset="0" stop-color="#70747A"/><stop offset=".45" stop-color="#43474C"/><stop offset="1" stop-color="#26292C"/></linearGradient>
<linearGradient id="g-pl2" x1="0" y1="0" x2=".3" y2="1"><stop offset="0" stop-color="#4C5055"/><stop offset="1" stop-color="#2B2E32"/></linearGradient>
<linearGradient id="g-pl3" x1="0" y1="0" x2=".3" y2="1"><stop offset="0" stop-color="#35383C"/><stop offset="1" stop-color="#1C1E21"/></linearGradient>
<linearGradient id="g-cu" x1="0" y1="0" x2=".3" y2="1"><stop offset="0" stop-color="#FBDCC0"/><stop offset=".25" stop-color="#F2B687"/><stop offset=".7" stop-color="#C77F4E"/><stop offset="1" stop-color="#9B5B2F"/></linearGradient>
<linearGradient id="g-cu2" x1="0" y1="0" x2=".3" y2="1"><stop offset="0" stop-color="#DA9764"/><stop offset="1" stop-color="#9C5C30"/></linearGradient>
<linearGradient id="g-cu3" x1="0" y1="0" x2=".3" y2="1"><stop offset="0" stop-color="#A9693B"/><stop offset="1" stop-color="#6F3E1E"/></linearGradient>
<linearGradient id="g-pt" x1="0" y1="0" x2=".25" y2="1"><stop offset="0" stop-color="#FAFAF7"/><stop offset=".55" stop-color="#EDECE7"/><stop offset="1" stop-color="#D9D8D1"/></linearGradient>
<linearGradient id="g-dk" x1="0" y1="0" x2=".25" y2="1"><stop offset="0" stop-color="#6A7078"/><stop offset=".6" stop-color="#4A4F56"/><stop offset="1" stop-color="#35393E"/></linearGradient>
<linearGradient id="g-m" x1="0" y1="0" x2=".2" y2="1"><stop offset="0" stop-color="#FFFFFF"/><stop offset=".55" stop-color="#EEF0F2"/><stop offset="1" stop-color="#D5D9DD"/></linearGradient>
<linearGradient id="g-m2" x1="0" y1="0" x2=".2" y2="1"><stop offset="0" stop-color="#E1E5E9"/><stop offset="1" stop-color="#B5BBC1"/></linearGradient>
<linearGradient id="g-m3" x1="0" y1="0" x2=".2" y2="1"><stop offset="0" stop-color="#626970"/><stop offset=".5" stop-color="#3C4249"/><stop offset="1" stop-color="#2A2F35"/></linearGradient>
<linearGradient id="g-t" x1="0" y1="0" x2=".3" y2="1"><stop offset="0" stop-color="#F8EBC8"/><stop offset=".14" stop-color="#FFF7E3"/><stop offset=".48" stop-color="#E6CC92"/><stop offset=".86" stop-color="#BF9F62"/><stop offset="1" stop-color="#D3B97E"/></linearGradient>
<linearGradient id="g-gw" x1="0" y1="0" x2=".3" y2="1"><stop offset="0" stop-color="#F8F5F0"/><stop offset=".5" stop-color="#E4DED3"/><stop offset="1" stop-color="#C6BEAF"/></linearGradient>
<linearGradient id="g-bg" x1="0" y1="0" x2=".3" y2="1"><stop offset="0" stop-color="#3B4148"/><stop offset="1" stop-color="#16191C"/></linearGradient>
<linearGradient id="g-rb" x1="0" y1="0" x2=".3" y2="1"><stop offset="0" stop-color="#50545A"/><stop offset="1" stop-color="#1D1F22"/></linearGradient>
<linearGradient id="g-hot" x1="0" y1="0" x2=".3" y2="1"><stop offset="0" stop-color="#FFEAB5"/><stop offset=".45" stop-color="#FFB15A"/><stop offset="1" stop-color="#EE7430"/></linearGradient>
<radialGradient id="g-sh" cx=".5" cy=".5" r=".5"><stop offset="0" stop-color="#000" stop-opacity=".3"/><stop offset=".6" stop-color="#000" stop-opacity=".1"/><stop offset="1" stop-color="#000" stop-opacity="0"/></radialGradient>
<radialGradient id="g-ball" cx=".5" cy=".5" r=".55" fx=".34" fy=".3"><stop offset="0" stop-color="#FFFFFF"/><stop offset=".45" stop-color="#D6DCE1"/><stop offset="1" stop-color="#848E98"/></radialGradient>
<pattern id="p-cut" width="6" height="6" patternUnits="userSpaceOnUse" patternTransform="rotate(45)"><rect width="6" height="6" fill="#C9CFD5"/><line x1="0" y1="0" x2="0" y2="6" stroke="#7F8891" stroke-width="1.1"/></pattern>
</defs></svg>
<ellipse class="sh" cx="160" cy="169" rx="140" ry="7"/><path class="ws1 x" d="M20 88.8 L24.8 94.3 L235 36.9 L230.3 31.4Z"/><path class="ws2 x" d="M25.8 90.6 L25.8 96.4 L236.1 39.1 L236.1 33.3Z"/><path class="ws1 x" d="M25.8 96.4 L29.2 100.3 L239.5 43 L236.1 39.1Z"/><path class="ws2 x" d="M25.8 82.8 L25.8 88.7 L236.1 31.3 L236.1 25.5Z"/><path class="ws1 x" d="M25.8 88.7 L29.2 92.6 L239.5 35.2 L236.1 31.3Z"/><path class="ws2 x" d="M30.3 85.7 L30.3 103.8 L240.5 46.4 L240.5 28.3Z"/><path class="ws1 x" d="M24.8 79.4 L30.3 85.7 L240.5 28.3 L235 22.1Z"/><path class="w" fill-rule="evenodd" d="M20 88.8 L24.8 94.3 L24.8 79.4 L30.3 85.7 L30.3 103.8 L24.8 97.5 L20 92ZM25.8 96.4 L29.2 100.3 L29.2 94.5 L25.8 90.6ZM25.8 88.7 L29.2 92.6 L29.2 86.8 L25.8 82.8Z"/><path class="ws2 x" d="M229.3 49.5 L278.5 105.9 L278.5 87.8 L229.3 31.4Z"/><path class="ws2 x" d="M278.5 105.9 L289.7 102.9 L289.7 84.8 L278.5 87.8Z"/><path class="w" fill-rule="evenodd" d="M278.5 87.8 L289.7 84.8 L240.5 28.3 L229.3 31.4Z"/><path class="ws2 x" d="M41.5 100.7 L90.7 157.1 L90.7 155.2 L41.5 98.8Z"/><path class="ws2 x" d="M90.7 157.1 L278.5 105.9 L278.5 104 L90.7 155.2Z"/><path class="w" fill-rule="evenodd" d="M90.7 155.2 L278.5 104 L229.3 47.5 L41.5 98.8Z"/><path class="ws3 x" d="M166.2 64.8 L215.4 121.2 L215.4 108.9 L166.2 52.5Z"/><path class="ws3 x" d="M215.4 121.2 L223.9 118.9 L223.9 106.6 L215.4 108.9Z"/><path class="w2" fill-rule="evenodd" d="M215.4 108.9 L223.9 106.6 L174.6 50.2 L166.2 52.5Z"/><path class="w3" d="M76.2 138.6 L130.9 123.6 L129.8 122.4 L75.1 137.3Z"/><path class="w3" d="M139.3 121.4 L200.9 104.5 L199.9 103.3 L138.2 120.1Z"/><path class="w3" d="M209.4 102.2 L264 87.3 L262.9 86.1 L208.3 101Z"/><path class="w3" d="M61.2 121.3 L115.8 106.4 L114.7 105.2 L60.1 120.1Z"/><path class="w3" d="M124.2 104.1 L185.9 87.3 L184.8 86 L123.1 102.9Z"/><path class="w3" d="M194.3 85 L249 70.1 L247.9 68.8 L193.2 83.7Z"/><path class="w3" d="M46.8 104.9 L101.5 89.9 L100.4 88.7 L45.7 103.6Z"/><path class="w3" d="M109.9 87.7 L171.6 70.8 L170.5 69.6 L108.8 86.4Z"/><path class="w3" d="M180 68.5 L234.6 53.6 L233.5 52.4 L178.9 67.3Z"/><path class="bg" d="M56.9 137.9 L56.7 136.7 L56.2 135.6 L55.7 135 L55.2 135.1 L55.1 135.9 L55.2 137 L55.7 138.2 L56.2 138.8 L56.7 138.7Z"/><path class="bg" d="M45.9 125.3 L45.7 124.2 L45.3 123 L44.8 122.4 L44.3 122.5 L44.1 123.3 L44.3 124.5 L44.8 125.6 L45.3 126.2 L45.7 126.1Z"/><path class="bg" d="M102.4 163.3 L103.3 162.9 L103.7 162.2 L103.5 161.6 L102.7 161 L101.5 160.8 L100.3 161 L99.4 161.4 L99 162 L99.3 162.7 L100.1 163.2 L101.2 163.4Z"/><path class="bg" d="M37.4 88.8 L38.4 88.4 L38.7 87.8 L38.5 87.1 L37.7 86.6 L36.6 86.4 L35.4 86.5 L34.5 86.9 L34.1 87.6 L34.3 88.2 L35.1 88.8 L36.3 89Z"/><path class="bg" d="M151.4 149.9 L152.4 149.5 L152.8 148.8 L152.5 148.2 L151.7 147.7 L150.6 147.4 L149.4 147.6 L148.5 148 L148.1 148.7 L148.3 149.3 L149.1 149.8 L150.3 150.1Z"/><path class="bg" d="M86.5 75.5 L87.4 75 L87.8 74.4 L87.6 73.7 L86.8 73.2 L85.6 73 L84.4 73.1 L83.5 73.6 L83.1 74.2 L83.4 74.9 L84.2 75.4 L85.3 75.6Z"/><path class="bg" d="M200.5 136.5 L201.4 136.1 L201.8 135.5 L201.6 134.8 L200.8 134.3 L199.6 134.1 L198.4 134.2 L197.5 134.6 L197.1 135.3 L197.4 135.9 L198.2 136.5 L199.3 136.7Z"/><path class="bg" d="M135.6 62.1 L136.5 61.6 L136.9 61 L136.6 60.3 L135.8 59.8 L134.7 59.6 L133.5 59.7 L132.6 60.2 L132.2 60.8 L132.4 61.5 L133.2 62 L134.4 62.2Z"/><path class="bg" d="M249.6 123.2 L250.5 122.7 L250.9 122.1 L250.6 121.4 L249.8 120.9 L248.7 120.7 L247.5 120.8 L246.6 121.3 L246.2 121.9 L246.4 122.6 L247.2 123.1 L248.4 123.3Z"/><path class="bg" d="M184.6 48.7 L185.5 48.3 L185.9 47.6 L185.7 47 L184.9 46.4 L183.8 46.2 L182.6 46.4 L181.6 46.8 L181.3 47.4 L181.5 48.1 L182.3 48.6 L183.4 48.8Z"/><path class="bg" d="M291.6 111.7 L292.5 111.3 L292.9 110.6 L292.7 109.9 L291.9 109.4 L290.7 109.2 L289.6 109.3 L288.6 109.8 L288.2 110.4 L288.5 111.1 L289.3 111.6 L290.4 111.8Z"/><path class="bg" d="M226.7 37.2 L227.6 36.8 L228 36.2 L227.7 35.5 L226.9 35 L225.8 34.8 L224.6 34.9 L223.7 35.3 L223.3 36 L223.5 36.6 L224.3 37.1 L225.5 37.4Z"/><path class="ws3 x" d="M96.1 83.9 L145.4 140.3 L145.4 128 L96.1 71.6Z"/><path class="ws3 x" d="M145.4 140.3 L153.8 138 L153.8 125.7 L145.4 128Z"/><path class="w2" fill-rule="evenodd" d="M145.4 128 L153.8 125.7 L104.5 69.3 L96.1 71.6Z"/><path class="ws2 x" d="M30.3 103.8 L79.5 160.2 L79.5 142.1 L30.3 85.7Z"/><path class="ws2 x" d="M79.5 160.2 L90.7 157.1 L90.7 139 L79.5 142.1Z"/><path class="w" fill-rule="evenodd" d="M79.5 142.1 L90.7 139 L41.5 82.6 L30.3 85.7Z"/><path class="ws2" d="M53.5 119 L52.9 118.6 L52.4 118.6 L44 120.9 L44.5 120.9 L45.1 121.3Z"/><path class="ws3" d="M54.6 125.4 L55 124.8 L46.5 127.1 L46.2 127.7Z"/><path class="ws2" d="M55 124.8 L55.1 123.8 L46.7 126.1 L46.5 127.1Z"/><path class="ws1" d="M54.1 120 L53.5 119 L45.1 121.3 L45.7 122.3Z"/><path class="ws1" d="M55.1 123.8 L55 122.5 L54.6 121.2 L46.2 123.5 L46.5 124.8 L46.7 126.1Z"/><path class="ws1" d="M54.6 121.2 L54.1 120 L45.7 122.3 L46.2 123.5Z"/><path class="w" fill-rule="evenodd" d="M46.7 126.1 L46.5 124.8 L46.2 123.5 L45.7 122.3 L45.1 121.3 L44.5 120.9 L44 120.9 L43.6 121.5 L43.5 122.5 L43.6 123.8 L44 125.1 L44.5 126.4 L45.1 127.3 L45.7 127.7 L46.2 127.7 L46.5 127.1Z"/><path class="el" d="M52.4 118.6L44 120.9M45.1 121.3 L44.5 120.9 L44 120.9M53.5 119 L52.9 118.6 L52.4 118.6M54.6 125.4L46.2 127.7M46.2 127.7 L46.5 127.1M54.6 125.4 L55 124.8M46.5 127.1 L46.7 126.1M55 124.8 L55.1 123.8M45.7 122.3 L45.1 121.3M54.1 120 L53.5 119M46.7 126.1 L46.5 124.8 L46.2 123.5M55.1 123.8 L55 122.5 L54.6 121.2M46.2 123.5 L45.7 122.3M54.6 121.2 L54.1 120"/><path class="ws2 x" d="M80.5 153.3 L80.5 159.1 L290.8 101.8 L290.8 96Z"/><path class="ws1 x" d="M80.5 159.1 L83.9 163 L294.2 105.7 L290.8 101.8Z"/><path class="ws2 x" d="M80.5 145.5 L80.5 151.4 L290.8 94 L290.8 88.2Z"/><path class="ws1 x" d="M80.5 151.4 L83.9 155.3 L294.2 97.9 L290.8 94Z"/><path class="ws1 x" d="M85 163.2 L89.7 168.7 L300 111.4 L295.2 105.9Z"/><path class="ws2 x" d="M85 148.4 L85 163.2 L295.2 105.9 L295.2 91Z"/><path class="ws1 x" d="M79.5 142.1 L85 148.4 L295.2 91 L289.7 84.8Z"/><path class="ws2 x" d="M89.7 168.7 L89.7 172 L300 114.6 L300 111.4Z"/><path class="w" fill-rule="evenodd" d="M89.7 172 L85 166.5 L79.5 160.2 L79.5 142.1 L85 148.4 L85 163.2 L89.7 168.7ZM83.9 157.2 L80.5 153.3 L80.5 159.1 L83.9 163ZM83.9 149.5 L80.5 145.5 L80.5 151.4 L83.9 155.3Z"/><path class="ws2" d="M64.4 131.6 L63.8 131.1 L63.3 131.2 L54.9 133.5 L55.4 133.4 L56 133.9Z"/><path class="ws3" d="M65.6 137.9 L65.9 137.4 L57.5 139.7 L57.1 140.2Z"/><path class="ws2" d="M65.9 137.4 L66 136.4 L57.6 138.7 L57.5 139.7Z"/><path class="ws1" d="M65 132.5 L64.4 131.6 L56 133.9 L56.6 134.8Z"/><path class="ws1" d="M66 136.4 L65.9 135.1 L65.6 133.7 L57.1 136 L57.5 137.4 L57.6 138.7Z"/><path class="ws1" d="M65.6 133.7 L65 132.5 L56.6 134.8 L57.1 136Z"/><path class="w" fill-rule="evenodd" d="M57.6 138.7 L57.5 137.4 L57.1 136 L56.6 134.8 L56 133.9 L55.4 133.4 L54.9 133.5 L54.6 134 L54.5 135 L54.6 136.3 L54.9 137.7 L55.4 138.9 L56 139.8 L56.6 140.3 L57.1 140.2 L57.5 139.7Z"/><path class="el" d="M63.3 131.2L54.9 133.5M56 133.9 L55.4 133.4 L54.9 133.5M64.4 131.6 L63.8 131.1 L63.3 131.2M65.6 137.9L57.1 140.2M57.1 140.2 L57.5 139.7M65.6 137.9 L65.9 137.4M57.5 139.7 L57.6 138.7M65.9 137.4 L66 136.4M56.6 134.8 L56 133.9M65 132.5 L64.4 131.6M57.6 138.7 L57.5 137.4 L57.1 136M66 136.4 L65.9 135.1 L65.6 133.7M57.1 136 L56.6 134.8M65.6 133.7 L65 132.5"/></svg>