<svg xmlns="http://www.w3.org/2000/svg" class="ilu mt-al" viewBox="0 0 320 200"><style>:root{--il-line:#252B31;--il-edge:rgba(18,22,27,.5);--il-m1:#F1F3F5;--il-m2:#C9CFD5;--il-m3:#4A5159;--il-w1:#DCE1E6;--il-w2:#B4BCC4;--il-w3:#8A949E;--il-t:#D8BE84;--il-h1:#FFC98A;--il-hot:#E4602A;--il-f:#BFE1F0;--il-fl:#2B8BBE;--il-rb:#2A2E33;--il-yel:#E7C267;--il-pcb:#2D6A4E;--il-sand:#D9CCB2;--il-gw:#E6E0D5;--il-rb2:#3A3F45;--il-gl:#CFE5F1;--il-cu:#D08652;--il-bg:#2A2F35;--il-sh:rgba(10,14,18,.16);--il-cr:#E8EBEE;--il-sec0:#FFFFFF}@media (prefers-color-scheme:dark){:root:not([data-theme="light"]){--il-line:#C7CFD6;--il-edge:rgba(0,0,0,.55);--il-bg:#0C0E10;--il-sh:rgba(0,0,0,.5);--il-cr:#2A2F35;--il-sec0:#0E1012;--il-f:#1C4A5E;--il-fl:#6CC4EC;--il-h1:#8A3E1C;--il-hot:#FF8A50;--il-gl:#27445A}}:root[data-theme="dark"]{--il-line:#C7CFD6;--il-edge:rgba(0,0,0,.55);--il-bg:#0C0E10;--il-sh:rgba(0,0,0,.5);--il-cr:#2A2F35;--il-sec0:#0E1012;--il-f:#1C4A5E;--il-fl:#6CC4EC;--il-h1:#8A3E1C;--il-hot:#FF8A50;--il-gl:#27445A}.ilu{display:block;width:100%;height:auto;stroke-width:.85;stroke-linejoin:round;stroke-linecap:round;overflow:hidden}.ilu .o{fill:none;stroke:var(--il-line)}.ilu .thin{stroke-width:.8;opacity:.7}.ilu .dash{stroke-dasharray:4 3}.ilu .m{fill:var(--il-m1);stroke:var(--il-line)}.ilu .m2{fill:var(--il-m2);stroke:var(--il-line)}.ilu .m3{fill:var(--il-m3);stroke:var(--il-line)}.ilu .w{fill:var(--il-w1);stroke:var(--il-line)}.ilu .w2{fill:var(--il-w2);stroke:var(--il-line)}.ilu .w3{fill:var(--il-w3);stroke:var(--il-line)}.ilu .t{fill:var(--il-t);stroke:var(--il-line)}.ilu .h{fill:var(--il-h1);stroke:var(--il-hot)}.ilu .hl{fill:none;stroke:var(--il-hot);stroke-width:1.5}.ilu .fl{fill:var(--il-f);stroke:var(--il-fl)}.ilu .fo{fill:none;stroke:var(--il-fl);stroke-width:1.2}.ilu .fdot{fill:var(--il-fl);stroke:none}.ilu .a{fill:none;stroke:var(--accent);stroke-width:1.8}.ilu .af{fill:var(--accent);stroke:none}.ilu .sh{fill:var(--il-sh);stroke:none}.ilu .bg{fill:var(--il-bg);stroke:var(--il-line)}.ilu .bgline{stroke:var(--il-bg);stroke-width:2}.ilu .rb{fill:var(--il-rb);stroke:var(--il-line)}.ilu .rb2{fill:var(--il-rb2);stroke:var(--il-line)}.ilu .rbline{fill:none;stroke:var(--il-bg);stroke-width:1.2}.ilu .gl{fill:var(--il-gl);stroke:var(--il-line);fill-opacity:.9}.ilu .gl2{fill:var(--il-gl);stroke:var(--il-line)}.ilu .cu{fill:var(--il-cu);stroke:var(--il-line)}.ilu .cuwire{fill:none;stroke:var(--il-cu);stroke-width:3}.ilu .cr{fill:var(--il-cr);stroke:var(--il-line)}.ilu .ball{fill:var(--il-cr);stroke:var(--il-line)}.ilu .wire{fill:none;stroke:var(--il-w3);stroke-width:7}.ilu .arm{fill:none;stroke:var(--il-m3);stroke-width:10}.ilu .arm2{fill:none;stroke:var(--il-m3);stroke-width:7}.ilu .cable{fill:none;stroke:var(--il-rb);stroke-width:4}.ilu .cable3{fill:none;stroke:var(--il-rb);stroke-width:8}.ilu .belt{fill:none;stroke:var(--il-rb);stroke-width:3}.ilu .chan{fill:none;stroke:var(--il-bg);stroke-width:4}.ilu .tube1{fill:none;stroke:var(--il-line);stroke-width:10}.ilu .tube2{fill:none;stroke:var(--il-w1);stroke-width:7}.ilu .web{fill:none;stroke:var(--il-rb2);stroke-width:12}.ilu .led{fill:none;stroke:var(--il-t);stroke-width:5}.ilu .frit{fill:none;stroke:var(--il-rb);stroke-width:7;stroke-opacity:.85}.ilu .zig{fill:none;stroke:var(--il-m3);stroke-width:3}.ilu .gridl{stroke:var(--il-cr);stroke-width:2}.ilu .fin{stroke:var(--il-w3);stroke-width:.8}.ilu .d{fill:var(--il-line);stroke:none}.ilu text{fill:var(--ink2);stroke:none;font:500 11px var(--f-body);letter-spacing:.02em}.ilu text.al{fill:var(--accent);font-weight:600}.ilu text.sm{font-size:9.5px;fill:var(--muted)}.ilu .gw,.ilu .gwr{fill:var(--il-gw);stroke:var(--il-line)}.ilu .grit{fill:none;stroke:var(--il-line);stroke-dasharray:1 3;opacity:.6}.ilu .gline{stroke:var(--il-line);stroke-width:.8;opacity:.6}.ilu .chip{fill:none;stroke:var(--il-w3);stroke-width:1.8}.ilu .grain{fill:var(--il-line);opacity:.45;stroke:none}.ilu .bub{fill:none;stroke:var(--il-fl)}.ilu .tankw{fill:none;stroke:var(--il-line);stroke-width:2.2}.ilu .hotin{fill:var(--il-h1);stroke:none;opacity:.6}.ilu .warmin{fill:var(--il-h1);stroke:none;opacity:.3}.ilu .coolin{fill:var(--il-f);stroke:none;opacity:.7}.ilu .bolt{fill:var(--il-yel);stroke:var(--il-line)}.ilu .bg2{fill:var(--il-m1);stroke:var(--il-line)}.ilu .beam{stroke:var(--il-hot);stroke-width:3;fill:none}.ilu .kerf{stroke:var(--il-bg);stroke-width:2.5;fill:none}.ilu .bgline2{stroke:var(--il-bg);stroke-width:7;fill:none}.ilu .jet{stroke:var(--il-fl);stroke-width:3;stroke-dasharray:6 3;fill:none}.ilu .jet2{stroke:var(--il-fl);stroke-width:4;fill:none}.ilu .hatch{stroke:var(--il-w3);stroke-width:.8}.ilu .pour{fill:none;stroke:var(--il-hot);stroke-width:6}.ilu .shell{fill:var(--il-m1);stroke:var(--il-line)}.ilu .sand,.ilu .board{fill:var(--il-sand);stroke:var(--il-line)}.ilu .gridbar{stroke:var(--il-m3);stroke-width:6;fill:none}.ilu .shot,.ilu .pwd{fill:var(--il-m3);stroke:none}.ilu .coilcu{fill:none;stroke:var(--il-cu);stroke-width:3.2}.ilu .wire2{fill:none;stroke:var(--il-w3);stroke-width:4}.ilu .strip{fill:none;stroke:var(--il-w2);stroke-width:5}.ilu rect.strip{fill:var(--il-w2);stroke:var(--il-line);stroke-width:1.3}.ilu .sheet{fill:none;stroke:var(--il-w3);stroke-width:5}.ilu .sheet2{fill:var(--il-w2);stroke:var(--il-line)}.ilu .hotsheet{fill:none;stroke:var(--il-hot);stroke-width:5}.ilu .mesh{fill:var(--il-m1);stroke:var(--il-line);stroke-dasharray:2 2}.ilu .paste{fill:none;stroke:var(--il-m3);stroke-width:5}.ilu .lens{fill:var(--il-gl);stroke:var(--il-line)}.ilu .uv{stroke:var(--accent);stroke-dasharray:4 3;fill:none}.ilu .basket{fill:none;stroke:var(--il-line);stroke-dasharray:3 2}.ilu .bead{fill:none;stroke:var(--il-w3);stroke-width:5}.ilu .bead2,.ilu .bead3{fill:none;stroke:var(--il-m3);stroke-width:6}.ilu .ebeam{stroke:var(--accent);stroke-width:3;stroke-dasharray:2 2;fill:none}.ilu .foil{stroke:var(--il-cu);stroke-width:2}.ilu .hplate{fill:var(--il-h1);stroke:var(--il-hot)}.ilu .crack{fill:none;stroke:var(--il-hot);stroke-width:2.2}.ilu .resin{fill:var(--il-h1);stroke:var(--il-line)}.ilu .screw{stroke:var(--il-m3);stroke-width:6;fill:none}.ilu .parison{fill:var(--il-w1);stroke:var(--il-line)}.ilu .rbx{fill:var(--il-rb);stroke:var(--il-line)}.ilu .rbstrip{fill:none;stroke:var(--il-rb);stroke-width:8}.ilu .uvwave{fill:none;stroke:var(--il-hot)}.ilu .cordl{stroke:var(--il-cu)}.ilu .beadw{fill:none;stroke:var(--il-w3);stroke-width:6}.ilu .pourf{fill:none;stroke:var(--il-w2);stroke-width:6}.ilu .foamf,.ilu .padm{fill:var(--il-w2);stroke:var(--il-line)}.ilu .skin{fill:none;stroke:var(--il-w3);stroke-width:4}.ilu .chipd{fill:var(--il-rb);stroke:var(--il-line)}.ilu .glp{fill:var(--il-gl);stroke:var(--il-line)}.ilu .glsheet{fill:none;stroke:var(--il-fl);stroke-width:4}.ilu .rail{fill:none;stroke:var(--il-m3);stroke-width:5}.ilu .needle{stroke:var(--il-line);stroke-width:2}.ilu .stitch{fill:none;stroke:var(--accent);stroke-dasharray:4 3;stroke-width:1.6}.ilu .thread{stroke:var(--il-w2);stroke-width:2.2}.ilu .thread2{stroke:var(--il-hot);stroke-width:2.2}.ilu .slurry,.ilu .slurryp{fill:var(--il-rb2);stroke:var(--il-line)}.ilu .foilstrip{fill:none;stroke:var(--il-cu);stroke-width:3}.ilu .slurryl{fill:none;stroke:var(--il-rb2);stroke-width:5}.ilu .slurryl2{fill:none;stroke:var(--il-rb2);stroke-width:9}.ilu .windl0{fill:none;stroke:var(--il-cu);stroke-width:3}.ilu .windl1{fill:none;stroke:var(--il-m1);stroke-width:3}.ilu .windl2{fill:none;stroke:var(--il-rb2);stroke-width:3}.ilu .cuwire2{fill:none;stroke:var(--il-cu);stroke-width:6}.ilu .pcb,.ilu .okl{fill:var(--il-pcb);stroke:var(--il-line)}.ilu .wafer{fill:var(--il-m2);stroke:var(--il-line)}.ilu .wirebond{fill:none;stroke:var(--il-cu);stroke-width:1.6}.ilu .fringe{stroke:var(--accent);opacity:.7}.ilu .ring{fill:var(--il-t);stroke:var(--il-line)}.ilu .laserl{stroke:var(--il-hot);stroke-width:1.4;stroke-dasharray:5 3;fill:none}.ilu .zebra,.ilu .filt{fill:var(--il-cr);stroke:var(--il-line)}.ilu .ray{stroke:var(--accent);stroke-dasharray:4 3;fill:none}.ilu .wave{fill:none;stroke:var(--accent)}.ilu .yoke{fill:none;stroke:var(--il-m3);stroke-width:10}.ilu .indic{stroke:var(--accent);stroke-width:3;fill:none}.ilu .he{fill:var(--accent);opacity:.6;stroke:none}.ilu .beamf{fill:var(--il-yel);opacity:.55;stroke:none}.ilu .loc{fill:var(--il-line);stroke:none}.ilu .clampl{stroke:var(--il-hot);stroke-width:2.4}.ilu .clamph{fill:var(--il-hot);stroke:none}.ilu .leadd{fill:var(--ink2);stroke:none}.ilu .leadl{stroke:var(--ink2);stroke-width:.8;opacity:.8}.ilu .bal{fill:var(--surface);stroke:var(--accent);stroke-width:1.4}.ilu text.balt{fill:var(--accent);font-weight:700;font-size:10.5px}.ilu text.tol{fill:var(--ink2);font-size:10.5px}.ilu text.ttl{fill:var(--ink);font-weight:600;font-size:12px}.ilu .cl{stroke:var(--il-line);stroke-dasharray:14 3 2 3;stroke-width:.8;opacity:.7}.ilu .hid{fill:none;stroke:var(--il-line);stroke-dasharray:5 3;stroke-width:.9;opacity:.8}.ilu .mf{fill:none;stroke:var(--accent);stroke-width:4;stroke-linecap:round}.ilu .mfa{fill:var(--il-t);stroke:var(--accent);stroke-width:2}.ilu .rgh{fill:var(--il-w3);stroke:none}.ilu .done{stroke:var(--il-line);stroke-width:2.6;fill:none}.ilu .cut{fill:var(--il-w2);stroke:var(--il-line)}.ilu .ins{fill:var(--il-yel);stroke:var(--il-line)}.ilu .cool{stroke:var(--il-fl);stroke-dasharray:3 3}.ilu .cutl{stroke:var(--accent);stroke-width:2.4;stroke-dasharray:5 3}.ilu .poro{fill:var(--il-hot);stroke:none}.ilu .mfring{fill:none;stroke:var(--il-hot);stroke-width:1.5;stroke-dasharray:3 2}.ilu .xim{fill:#1D242B;stroke:var(--il-line)}.ilu .ximd{fill:#FFFFFF;stroke:none}.ilu .coat{fill:none;stroke:var(--il-hot);stroke-width:5}.ilu .hatchx{stroke:var(--accent);stroke-width:.8;opacity:.8}.ilu .jetl{fill:none;stroke:var(--il-fl);stroke-width:4;stroke-dasharray:8 4}.ilu .pres{fill:none;stroke:var(--il-fl);stroke-width:4.5}.ilu .tbg{fill:var(--surface);stroke:none;opacity:.94}.ilu .tbl{stroke:var(--line);stroke-width:1}.ilu .void{fill:var(--il-sec0);stroke:var(--il-line)}.ilu .hotband{fill:var(--il-hot);opacity:.35;stroke:none}.ilu .flash{fill:var(--il-hot);opacity:.25;stroke:var(--il-hot)}.ilu .cutframe{fill:none;stroke:var(--accent);stroke-width:2.2;stroke-dasharray:5 3}.ilu .orbit{fill:none;stroke:var(--accent);stroke-dasharray:3 3}.ilu .hotarc{fill:none;stroke:var(--il-hot);stroke-width:6;opacity:.8}.ilu .mfo{fill:none;stroke:var(--accent);stroke-width:2.4}.ilu .stem{stroke:var(--il-m3);stroke-width:5}.ilu .hotgrp .w,.ilu .hotgrp .w2,.ilu .hotgrp .w3,.ilu .hotgrp .rb,.ilu .hotgrp .m{fill:var(--il-h1);stroke:var(--il-hot)}:root{--il-ws1-old:#ECD9B4;--il-ws2:#DEC38F;--il-ws3:#C9A86F;--il-ws4:#AB8A55;--il-ts1:#BCC8F4;--il-ts2:#A5B3EA;--il-ts3:#8C9ADA;--il-ts4:#7382C6;--il-gs1:#B3BDE2;--il-gs2:#9CA7D0;--il-gs3:#8591BC;--il-gs4:#6E7AA5;--il-ms1:#D9E1DC;--il-ms2:#C2CDC6;--il-ms3:#A7B4AC;--il-ms4:#8B9990;--il-hs1:#F6B592;--il-hs2:#EE9B72;--il-hs3:#DF7C52;--il-hs4:#C9613A}.ilu .el{fill:none;stroke:var(--il-line);stroke-width:.75;stroke-linejoin:round}.ilu .ws1{fill:var(--il-ws1);stroke:var(--il-ws1);stroke-width:.5}.ilu .ws2{fill:var(--il-ws2);stroke:var(--il-ws2);stroke-width:.5}.ilu .ws3{fill:var(--il-ws3);stroke:var(--il-ws3);stroke-width:.5}.ilu .ws4{fill:var(--il-ws4);stroke:var(--il-ws4);stroke-width:.5}.ilu .ts1{fill:var(--il-ts1);stroke:var(--il-ts1);stroke-width:.5}.ilu .ts2{fill:var(--il-ts2);stroke:var(--il-ts2);stroke-width:.5}.ilu .ts3{fill:var(--il-ts3);stroke:var(--il-ts3);stroke-width:.5}.ilu .ts4{fill:var(--il-ts4);stroke:var(--il-ts4);stroke-width:.5}.ilu .gws1{fill:var(--il-gs1);stroke:var(--il-gs1);stroke-width:.5}.ilu .gws2{fill:var(--il-gs2);stroke:var(--il-gs2);stroke-width:.5}.ilu .gws3{fill:var(--il-gs3);stroke:var(--il-gs3);stroke-width:.5}.ilu .gws4{fill:var(--il-gs4);stroke:var(--il-gs4);stroke-width:.5}.ilu .ms1{fill:var(--il-ms1);stroke:var(--il-ms1);stroke-width:.5}.ilu .ms2{fill:var(--il-ms2);stroke:var(--il-ms2);stroke-width:.5}.ilu .ms3{fill:var(--il-ms3);stroke:var(--il-ms3);stroke-width:.5}.ilu .ms4{fill:var(--il-ms4);stroke:var(--il-ms4);stroke-width:.5}.ilu .hs1{fill:var(--il-hs1);stroke:var(--il-hs1);stroke-width:.5}.ilu .hs2{fill:var(--il-hs2);stroke:var(--il-hs2);stroke-width:.5}.ilu .hs3{fill:var(--il-hs3);stroke:var(--il-hs3);stroke-width:.5}.ilu .hs4{fill:var(--il-hs4);stroke:var(--il-hs4);stroke-width:.5}.ilu .gw{fill:var(--il-gw);stroke:var(--il-line)}.ilu .grit2{fill:none;stroke:var(--il-line);stroke-width:1.1;opacity:.35;stroke-linecap:round}.ilu .mfe{fill:none;stroke:var(--accent);stroke-width:1.8;stroke-linejoin:round}.ilu .chbd{fill:none;stroke:var(--il-t);stroke-width:4.5;stroke-linejoin:round;opacity:.9}.ilu .probe{fill:none;stroke:var(--il-m3);stroke-width:3.2;stroke-linecap:round;stroke-linejoin:round}.ilu .x{stroke:var(--il-line);stroke-width:.7}.ilu .gr{fill:none;stroke:var(--il-line);stroke-width:.5;opacity:.55}.ilu .m,.ilu .m2,.ilu .m3,.ilu .w,.ilu .w2,.ilu .w3,.ilu .t,.ilu .gw,.ilu .gwr,.ilu .bg,.ilu .cu,.ilu .alu,.ilu .shell,.ilu .bg2,.ilu .cr,.ilu .ball,.ilu .cut,.ilu .ring,.ilu .rb,.ilu .rb2,.ilu .rbx,.ilu .chipd{stroke:var(--il-edge)}.ilu .w{fill:url(#g-st)}.ilu .w2{fill:url(#g-st2)}.ilu .w3{fill:url(#g-st3)}.ilu.mt-al .w{fill:url(#g-al)}.ilu.mt-al .w2{fill:url(#g-al2)}.ilu.mt-al .w3{fill:url(#g-al3)}.ilu.mt-fe .w{fill:url(#g-fe)}.ilu.mt-fe .w2{fill:url(#g-fe2)}.ilu.mt-fe .w3{fill:url(#g-fe3)}.ilu.mt-pl .w{fill:url(#g-pl)}.ilu.mt-pl .w2{fill:url(#g-pl2)}.ilu.mt-pl .w3{fill:url(#g-pl3)}.ilu.mt-cu .w{fill:url(#g-cu)}.ilu.mt-cu .w2{fill:url(#g-cu2)}.ilu.mt-cu .w3{fill:url(#g-cu3)}.ilu .alu{fill:url(#g-al)}.ilu .cu{fill:url(#g-cu)}.ilu .m{fill:url(#g-m)}.ilu .m2{fill:url(#g-m2)}.ilu .m3{fill:url(#g-m3)}.ilu .shell,.ilu .bg2{fill:url(#g-m)}.ilu .t,.ilu .ring{fill:url(#g-t)}.ilu .gw,.ilu .gwr{fill:url(#g-gw)}.ilu .bg{fill:url(#g-bg)}.ilu .h,.ilu .hplate{fill:url(#g-hot);stroke:var(--il-hot)}.ilu .sh{fill:url(#g-sh)}.ilu .cut{fill:url(#p-cut)}.ilu .ball,.ilu .cr{fill:url(#g-ball)}.ilu .rb,.ilu .rbx,.ilu .chipd{fill:url(#g-rb)}.ilu .fl{fill:var(--il-f);fill-opacity:.7}.ilu .gl,.ilu .gl2,.ilu .glp,.ilu .lens{fill:var(--il-gl);fill-opacity:.55}.ilu .void{fill:var(--il-sec0)}:root{--ws1:#F2F4F6;--ws2:#CAD1D8;--ws3:#9FA8B1;--ws4:#77818B;--al1:#F8F8F6;--al2:#DADBD8;--al3:#B5B7B4;--al4:#8F918E;--fe1:#B8BDC2;--fe2:#8E949A;--fe3:#6B7177;--fe4:#4F555B;--pl1:#62666C;--pl2:#44484D;--pl3:#2F3236;--pl4:#1F2124;--cu1:#F6CDA8;--cu2:#DE9D6B;--cu3:#B97540;--cu4:#8A5229;--ts1:#F7E9C4;--ts2:#E3C98E;--ts3:#C1A060;--ts4:#957842;--gs1:#F5F2EC;--gs2:#DED8CD;--gs3:#C0B8A9;--gs4:#9D9485;--ms1:#F3F5F7;--ms2:#D4D9DE;--ms3:#ABB2B9;--ms4:#80888F;--hs1:#FFDCA4;--hs2:#FFB46B;--hs3:#F2853F;--hs4:#CF622B}.ilu .ws1{fill:var(--ws1);stroke:var(--ws1)}.ilu .ws2{fill:var(--ws2);stroke:var(--ws2)}.ilu .ws3{fill:var(--ws3);stroke:var(--ws3)}.ilu .ws4{fill:var(--ws4);stroke:var(--ws4)}.ilu.mt-al .ws1,.ilu .als1{fill:var(--al1);stroke:var(--al1)}.ilu.mt-al .ws2,.ilu .als2{fill:var(--al2);stroke:var(--al2)}.ilu.mt-al .ws3,.ilu .als3{fill:var(--al3);stroke:var(--al3)}.ilu.mt-al .ws4,.ilu .als4{fill:var(--al4);stroke:var(--al4)}.ilu.mt-fe .ws1{fill:var(--fe1);stroke:var(--fe1)}.ilu.mt-fe .ws2{fill:var(--fe2);stroke:var(--fe2)}.ilu.mt-fe .ws3{fill:var(--fe3);stroke:var(--fe3)}.ilu.mt-fe .ws4{fill:var(--fe4);stroke:var(--fe4)}.ilu.mt-pl .ws1{fill:var(--pl1);stroke:var(--pl1)}.ilu.mt-pl .ws2{fill:var(--pl2);stroke:var(--pl2)}.ilu.mt-pl .ws3{fill:var(--pl3);stroke:var(--pl3)}.ilu.mt-pl .ws4{fill:var(--pl4);stroke:var(--pl4)}.ilu .cus1{fill:var(--cu1);stroke:var(--cu1)}.ilu .cus2{fill:var(--cu2);stroke:var(--cu2)}.ilu .cus3{fill:var(--cu3);stroke:var(--cu3)}.ilu .cus4{fill:var(--cu4);stroke:var(--cu4)}.ilu .ts1{fill:var(--ts1);stroke:var(--ts1)}.ilu .ts2{fill:var(--ts2);stroke:var(--ts2)}.ilu .ts3{fill:var(--ts3);stroke:var(--ts3)}.ilu .ts4{fill:var(--ts4);stroke:var(--ts4)}.ilu .gws1{fill:var(--gs1);stroke:var(--gs1)}.ilu .gws2{fill:var(--gs2);stroke:var(--gs2)}.ilu .gws3{fill:var(--gs3);stroke:var(--gs3)}.ilu .gws4{fill:var(--gs4);stroke:var(--gs4)}.ilu .ms1{fill:var(--ms1);stroke:var(--ms1)}.ilu .ms2{fill:var(--ms2);stroke:var(--ms2)}.ilu .ms3{fill:var(--ms3);stroke:var(--ms3)}.ilu .ms4{fill:var(--ms4);stroke:var(--ms4)}.ilu .hs1{fill:var(--hs1);stroke:var(--hs1)}.ilu .hs2{fill:var(--hs2);stroke:var(--hs2)}.ilu .hs3{fill:var(--hs3);stroke:var(--hs3)}.ilu .hs4{fill:var(--hs4);stroke:var(--hs4)}.ilu .ws1,.ilu .ws2,.ilu .ws3,.ilu .ws4,.ilu .ts1,.ilu .ts2,.ilu .ts3,.ilu .ts4,.ilu .gws1,.ilu .gws2,.ilu .gws3,.ilu .gws4,.ilu .ms1,.ilu .ms2,.ilu .ms3,.ilu .ms4,.ilu .hs1,.ilu .hs2,.ilu .hs3,.ilu .hs4,.ilu .als1,.ilu .als2,.ilu .als3,.ilu .als4,.ilu .cus1,.ilu .cus2,.ilu .cus3,.ilu .cus4{stroke-width:.5}.ilu .alus1{fill:var(--al1);stroke:var(--al1)}.ilu .alus2{fill:var(--al2);stroke:var(--al2)}.ilu .alus3{fill:var(--al3);stroke:var(--al3)}.ilu .alus4{fill:var(--al4);stroke:var(--al4)}.ilu .alus1,.ilu .alus2,.ilu .alus3,.ilu .alus4{stroke-width:.5}.ilu .x{stroke:var(--il-edge);stroke-width:.55}.ilu .el{stroke:var(--il-edge);stroke-width:.6}.ilu .gr{stroke:var(--il-edge);stroke-width:.45;opacity:.6}.ilu .grit2{stroke:#6B6357;opacity:.35}.ilu .wire{stroke:#B97540}.ilu .wire2,.ilu .skin,.ilu .sheet,.ilu .bead,.ilu .beadw{stroke:#9AA3AC}.ilu .hatch{stroke:var(--il-edge)}.ilu .strip{stroke:#B4BCC4}.ilu rect.strip{fill:url(#g-st2)}.ilu .sheet2{fill:url(#g-st2)}.ilu .parison,.ilu .foamf,.ilu .padm{fill:url(#g-pl)}.ilu .chip{stroke:#C1A060}.ilu .rgh{fill:#9FA8B1}.ilu .hotgrp .w,.ilu .hotgrp .w2,.ilu .hotgrp .w3,.ilu .hotgrp .rb,.ilu .hotgrp .m{fill:url(#g-hot);stroke:var(--il-hot)}:root{--pt1:#F6F5F1;--pt2:#E1E0DA;--pt3:#C3C2BB;--pt4:#9E9D96;--dk1:#6C727A;--dk2:#50555C;--dk3:#3B3F45;--dk4:#2A2D31}.ilu .pt{fill:url(#g-pt);stroke:var(--il-edge)}.ilu .dk{fill:url(#g-dk);stroke:var(--il-edge)}.ilu .pts1{fill:var(--pt1);stroke:var(--pt1)}.ilu .pts2{fill:var(--pt2);stroke:var(--pt2)}.ilu .pts3{fill:var(--pt3);stroke:var(--pt3)}.ilu .pts4{fill:var(--pt4);stroke:var(--pt4)}.ilu .dks1{fill:var(--dk1);stroke:var(--dk1)}.ilu .dks2{fill:var(--dk2);stroke:var(--dk2)}.ilu .dks3{fill:var(--dk3);stroke:var(--dk3)}.ilu .dks4{fill:var(--dk4);stroke:var(--dk4)}.ilu .pts1,.ilu .pts2,.ilu .pts3,.ilu .pts4,.ilu .dks1,.ilu .dks2,.ilu .dks3,.ilu .dks4{stroke-width:.5}.ilu .thread{fill:none;stroke:rgba(18,22,27,.35);stroke-width:.7}.ilu .wire{fill:none}.ilu .tslot{fill:none;stroke:rgba(18,22,27,.45);stroke-width:1.6}.ilu .mgrid{fill:none;stroke:rgba(255,255,255,.18);stroke-width:1}.ilu .hobt{fill:none;stroke:rgba(80,60,20,.55);stroke-width:1}.ilu .gwt{fill:none;stroke:rgba(110,95,70,.45);stroke-width:1}.ilu .spark{stroke:#FF8A3D;stroke-width:1.4;stroke-linecap:round}.ilu .kerf{fill:none;stroke:#3A3F46;stroke-width:1.6}.ilu path.wire{stroke:#B97540;stroke-width:1.4}.ilu .fl{fill:var(--il-fl);fill-opacity:.35}.ilu .fls1,.ilu .fls2,.ilu .fls3,.ilu .fls4{fill:var(--il-fl);fill-opacity:.25;stroke:none}.ilu .cutw{fill:#2B2F35;opacity:.85}.ilu .ball{fill:url(#g-ball);stroke:rgba(18,22,27,.45);stroke-width:.5}.ilu .scr{fill:none;stroke:rgba(18,22,27,.35);stroke-width:.8}.ilu .scrn{fill:#13232E;stroke:#0B0D10}.ilu .scrl{fill:#3FA7D6;opacity:.7}.ilu .scrg{fill:none;stroke:#7FD3A8;stroke-width:1.2}.ilu .key{fill:#2C3036;stroke:#6E757D;stroke-width:.6}.ilu .kbtn{fill:#E6E6E2;stroke:#555;stroke-width:.6}.ilu .mpg{fill:#2C3036;stroke:#9AA1A8}.ilu .mpg2{fill:#4A5058;stroke:#9AA1A8}.ilu .estop{fill:#D8332A;stroke:#F2C230;stroke-width:3}.ilu .knob{fill:#C9CDD2;stroke:#555}.ilu .pipe{fill:none;stroke:#7E8790;stroke-width:5;stroke-linejoin:round;stroke-linecap:round}.ilu .spray{stroke:#3F9FD1;stroke-width:1.4;opacity:.8}.ilu .chipc{fill:none;stroke:#B98A3E;stroke-width:1.6}.ilu .heatg{fill:#FF7A3D;opacity:.28}.ilu .heatg2{fill:#FF9A55;opacity:.18}.ilu .ghost{fill:none;stroke:#E4602A;stroke-width:1.4;stroke-dasharray:5 4}.ilu .sensor{fill:#2D5BFF;stroke:#fff;stroke-width:1.2}.ilu .win{fill:#1E2A33;opacity:.75;stroke:rgba(255,255,255,.4);stroke-width:.8}.ilu .fence{fill:none;stroke:#E8B931;stroke-width:3}.ilu .probeball{fill:#C8302A;stroke:#7A1A16;stroke-width:.6}text,.bal,.balt,.leadl,.leadd,.a,.af{display:none}svg{--accent:#2D5BFF;--ink2:#3A3A3F}@media (prefers-color-scheme:dark){svg{--accent:#86A0FF;--ink2:#D2D2D7}}</style><svg><defs>
<linearGradient id="g-st" x1="0" y1="0" x2=".3" y2="1"><stop offset="0" stop-color="#EEF1F4"/><stop offset=".16" stop-color="#FFFFFF"/><stop offset=".46" stop-color="#D3D9DF"/><stop offset=".84" stop-color="#9BA4AD"/><stop offset="1" stop-color="#BAC1C8"/></linearGradient>
<linearGradient id="g-st2" x1="0" y1="0" x2=".3" y2="1"><stop offset="0" stop-color="#D5DBE1"/><stop offset=".22" stop-color="#E2E6EA"/><stop offset=".6" stop-color="#A8B1BA"/><stop offset="1" stop-color="#8A949E"/></linearGradient>
<linearGradient id="g-st3" x1="0" y1="0" x2=".3" y2="1"><stop offset="0" stop-color="#A1AAB3"/><stop offset="1" stop-color="#6E7882"/></linearGradient>
<linearGradient id="g-al" x1="0" y1="0" x2=".3" y2="1"><stop offset="0" stop-color="#F6F6F4"/><stop offset=".15" stop-color="#FFFFFF"/><stop offset=".5" stop-color="#E2E3E0"/><stop offset=".86" stop-color="#B9BBB8"/><stop offset="1" stop-color="#D0D2CF"/></linearGradient>
<linearGradient id="g-al2" x1="0" y1="0" x2=".3" y2="1"><stop offset="0" stop-color="#E3E4E1"/><stop offset=".6" stop-color="#B8BAB7"/><stop offset="1" stop-color="#9EA09D"/></linearGradient>
<linearGradient id="g-al3" x1="0" y1="0" x2=".3" y2="1"><stop offset="0" stop-color="#A9ABA8"/><stop offset="1" stop-color="#7E807D"/></linearGradient>
<linearGradient id="g-fe" x1="0" y1="0" x2=".3" y2="1"><stop offset="0" stop-color="#B9BEC3"/><stop offset=".18" stop-color="#C9CDD1"/><stop offset=".55" stop-color="#8F959B"/><stop offset="1" stop-color="#6A7076"/></linearGradient>
<linearGradient id="g-fe2" x1="0" y1="0" x2=".3" y2="1"><stop offset="0" stop-color="#8E949A"/><stop offset="1" stop-color="#62686E"/></linearGradient>
<linearGradient id="g-fe3" x1="0" y1="0" x2=".3" y2="1"><stop offset="0" stop-color="#60666C"/><stop offset="1" stop-color="#43494F"/></linearGradient>
<linearGradient id="g-pl" x1="0" y1="0" x2=".3" y2="1"><stop offset="0" stop-color="#70747A"/><stop offset=".45" stop-color="#43474C"/><stop offset="1" stop-color="#26292C"/></linearGradient>
<linearGradient id="g-pl2" x1="0" y1="0" x2=".3" y2="1"><stop offset="0" stop-color="#4C5055"/><stop offset="1" stop-color="#2B2E32"/></linearGradient>
<linearGradient id="g-pl3" x1="0" y1="0" x2=".3" y2="1"><stop offset="0" stop-color="#35383C"/><stop offset="1" stop-color="#1C1E21"/></linearGradient>
<linearGradient id="g-cu" x1="0" y1="0" x2=".3" y2="1"><stop offset="0" stop-color="#FBDCC0"/><stop offset=".25" stop-color="#F2B687"/><stop offset=".7" stop-color="#C77F4E"/><stop offset="1" stop-color="#9B5B2F"/></linearGradient>
<linearGradient id="g-cu2" x1="0" y1="0" x2=".3" y2="1"><stop offset="0" stop-color="#DA9764"/><stop offset="1" stop-color="#9C5C30"/></linearGradient>
<linearGradient id="g-cu3" x1="0" y1="0" x2=".3" y2="1"><stop offset="0" stop-color="#A9693B"/><stop offset="1" stop-color="#6F3E1E"/></linearGradient>
<linearGradient id="g-pt" x1="0" y1="0" x2=".25" y2="1"><stop offset="0" stop-color="#FAFAF7"/><stop offset=".55" stop-color="#EDECE7"/><stop offset="1" stop-color="#D9D8D1"/></linearGradient>
<linearGradient id="g-dk" x1="0" y1="0" x2=".25" y2="1"><stop offset="0" stop-color="#6A7078"/><stop offset=".6" stop-color="#4A4F56"/><stop offset="1" stop-color="#35393E"/></linearGradient>
<linearGradient id="g-m" x1="0" y1="0" x2=".2" y2="1"><stop offset="0" stop-color="#FFFFFF"/><stop offset=".55" stop-color="#EEF0F2"/><stop offset="1" stop-color="#D5D9DD"/></linearGradient>
<linearGradient id="g-m2" x1="0" y1="0" x2=".2" y2="1"><stop offset="0" stop-color="#E1E5E9"/><stop offset="1" stop-color="#B5BBC1"/></linearGradient>
<linearGradient id="g-m3" x1="0" y1="0" x2=".2" y2="1"><stop offset="0" stop-color="#626970"/><stop offset=".5" stop-color="#3C4249"/><stop offset="1" stop-color="#2A2F35"/></linearGradient>
<linearGradient id="g-t" x1="0" y1="0" x2=".3" y2="1"><stop offset="0" stop-color="#F8EBC8"/><stop offset=".14" stop-color="#FFF7E3"/><stop offset=".48" stop-color="#E6CC92"/><stop offset=".86" stop-color="#BF9F62"/><stop offset="1" stop-color="#D3B97E"/></linearGradient>
<linearGradient id="g-gw" x1="0" y1="0" x2=".3" y2="1"><stop offset="0" stop-color="#F8F5F0"/><stop offset=".5" stop-color="#E4DED3"/><stop offset="1" stop-color="#C6BEAF"/></linearGradient>
<linearGradient id="g-bg" x1="0" y1="0" x2=".3" y2="1"><stop offset="0" stop-color="#3B4148"/><stop offset="1" stop-color="#16191C"/></linearGradient>
<linearGradient id="g-rb" x1="0" y1="0" x2=".3" y2="1"><stop offset="0" stop-color="#50545A"/><stop offset="1" stop-color="#1D1F22"/></linearGradient>
<linearGradient id="g-hot" x1="0" y1="0" x2=".3" y2="1"><stop offset="0" stop-color="#FFEAB5"/><stop offset=".45" stop-color="#FFB15A"/><stop offset="1" stop-color="#EE7430"/></linearGradient>
<radialGradient id="g-sh" cx=".5" cy=".5" r=".5"><stop offset="0" stop-color="#000" stop-opacity=".3"/><stop offset=".6" stop-color="#000" stop-opacity=".1"/><stop offset="1" stop-color="#000" stop-opacity="0"/></radialGradient>
<radialGradient id="g-ball" cx=".5" cy=".5" r=".55" fx=".34" fy=".3"><stop offset="0" stop-color="#FFFFFF"/><stop offset=".45" stop-color="#D6DCE1"/><stop offset="1" stop-color="#848E98"/></radialGradient>
<pattern id="p-cut" width="6" height="6" patternUnits="userSpaceOnUse" patternTransform="rotate(45)"><rect width="6" height="6" fill="#C9CFD5"/><line x1="0" y1="0" x2="0" y2="6" stroke="#7F8891" stroke-width="1.1"/></pattern>
</defs></svg>
<ellipse class="sh" cx="150" cy="188" rx="104" ry="9"/><path class="cus4 x" d="M142.5 97.2 L137.9 98.2 L133.9 99.8 L130.2 102.2 L126.9 105.6 L124 109.7 L121.6 114.8 L119.8 120.6 L118.8 127.3 L118.6 134.7 L119.3 142.7 L121 151.3 L124 160.4 L128.4 169.8 L137.2 181 L137.2 181 L137.4 181 L137.5 180.9 L137.5 180.9 L137.5 180.9 L137.5 180.9 L137.4 181 L137.2 181 L137.2 181 L140 178.6 L139.7 174.3 L139.1 169.8 L138.5 165.2 L137.9 160.5 L137.3 155.8 L136.8 150.9 L136.4 146.1 L136.1 141.1 L135.8 136 L135.7 130.7 L135.6 125.3 L135.6 119.4 L136.1 112.5Z"/><path class="cus2" d="M141.9 97.3 L137.5 98.3 L133.5 99.9 L129.8 102.4 L126.5 105.7 L123.7 109.8 L121.3 114.9 L119.6 120.7 L118.6 127.3 L118.4 134.7 L119.1 142.8 L120.9 151.4 L123.9 160.4 L128.4 169.8 L137.2 181 L137.2 181 L137.2 181 L137.2 181 L137.2 181 L137.2 181 L137.2 181 L137.2 181 L137.2 181 L137.2 181 L139.9 178.6 L139.6 174.3 L139 169.9 L138.3 165.3 L137.7 160.6 L137.1 155.8 L136.6 151 L136.1 146.1 L135.8 141.2 L135.5 136.1 L135.3 130.9 L135.2 125.4 L135.2 119.5 L135.5 112.7 L135.5 112.7 L136.1 111.2 L136.8 109.4 L137.5 107.4 L138.4 105.1 L139.4 102.7 L140.5 100.1 L141.9 97.3Z"/><path class="cus1" opacity="0.18" d="M137 108.8 L137.1 108.4 L135.7 112.7 L136.1 111.3ZM136.1 111.3 L135.7 112.7 L134.9 115.8 L134.9 116.1ZM134.9 116.1 L134.9 115.8 L134.4 122.3 L134.5 121.6ZM134.5 121.6 L134.4 122.3 L135.2 124.5 L135.2 123.7ZM131.5 141.2 L133.4 143.6 L133.4 141ZM133.4 141 L133.4 143.6 L136.1 146.1 L135.8 141.5ZM127.4 140.6 L128 141.5 L128 140.9ZM128 140.9 L128 141.5 L130.7 145.3 L130.7 141.4ZM131.5 141.2 L130.7 141.4 L130.7 145.3 L133.6 148.5 L133.4 143.6ZM133.4 143.6 L133.6 148.5 L136.6 151 L136.1 146.1ZM122.9 138.3 L125.3 142.7 L125.4 139.8ZM127.4 140.6 L125.4 139.8 L125.3 142.7 L128.1 146.8 L128 141.5ZM128 141.5 L128.1 146.8 L131 150.4 L130.7 145.3ZM130.7 145.3 L131 150.4 L134 153.4 L133.6 148.5ZM133.6 148.5 L134 153.4 L137.1 155.8 L136.6 151ZM118.4 133.1 L118.4 134.7 L120.6 139.7 L120.6 136.5ZM120.6 136.5 L120.6 139.7 L123.1 144.4 L122.8 138.2ZM122.9 138.3 L122.8 138.2 L123.1 144.4 L125.7 148.6 L125.3 142.7ZM125.3 142.7 L125.7 148.6 L128.6 152.3 L128.1 146.8ZM128.1 146.8 L128.6 152.3 L131.5 155.6 L131 150.4ZM131 150.4 L131.5 155.6 L134.6 158.3 L134 153.4ZM134 153.4 L134.6 158.3 L137.7 160.6 L137.1 155.8ZM118.4 134.7 L119.1 142.8 L121.5 147.1 L120.6 139.7ZM120.6 139.7 L121.5 147.1 L124 151.1 L123.1 144.4ZM123.1 144.4 L124 151.1 L126.7 154.7 L125.7 148.6ZM125.7 148.6 L126.7 154.7 L129.5 158 L128.6 152.3ZM128.6 152.3 L129.5 158 L132.4 160.8 L131.5 155.6ZM131.5 155.6 L132.4 160.8 L134.9 162.9 L135.2 162.7 L134.6 158.3ZM134.6 158.3 L135.2 162.7 L138 162.7 L137.7 160.6ZM119.1 142.8 L120.9 151.4 L123.2 154.9 L121.5 147.1ZM121.5 147.1 L123.2 154.9 L125.7 158.1 L124 151.1ZM124 151.1 L125.7 158.1 L128.2 161.1 L126.7 154.7ZM126.7 154.7 L128.2 161.1 L130.8 163.7 L129.5 158ZM129.5 158 L130.8 163.7 L132.1 164.8 L133.1 164.3 L132.4 160.8ZM134.9 162.9 L132.4 160.8 L133.1 164.3ZM120.9 151.4 L123.9 160.4 L126 163 L123.2 154.9ZM123.2 154.9 L126 163 L128.2 165.4 L125.7 158.1ZM125.7 158.1 L128.2 165.4 L128.9 166.1 L129.8 165.9 L128.2 161.1ZM128.2 161.1 L129.8 165.9 L131.3 165.3 L130.8 163.7ZM132.1 164.8 L130.8 163.7 L131.3 165.3ZM123.9 160.4 L125.6 164 L127.2 165.5 L126 163ZM126 163 L127.2 165.5 L128.5 166.1 L128.2 165.4ZM128.9 166.1 L128.2 165.4 L128.5 166.1Z"/><path class="cus4" opacity="0.15" d="M136.8 109.2 L136.6 110 L136.8 109.4ZM136.7 109.7 L136.8 109.4 L136.6 110 L134.9 116.4 L134.9 116.7ZM134.9 116.7 L134.9 116.4 L134.6 120.9 L134.7 120.1ZM134.7 120.1 L134.6 120.9 L135.2 123 L135.2 122.2Z"/><path class="cus1" opacity="0.36" d="M137.1 108.4 L137.3 108 L135.3 114.1 L135.7 112.7ZM135.7 112.7 L135.3 114.1 L134.9 115.5 L134.9 115.8ZM134.9 115.8 L134.9 115.5 L134.3 123 L134.4 122.3ZM134.4 122.3 L134.3 123 L135.2 125.3 L135.2 124.5ZM133 126.6 L133.8 128.5 L133.9 126.9ZM133.9 126.9 L133.8 128.5 L135.3 130.9 L135.2 127.5ZM126.6 105.6 L126.5 105.7 L126.6 107.7ZM128 119.6 L128.5 122 L128.6 121.7ZM128.6 121.7 L128.5 122 L129.9 126.5 L130.4 124.8ZM130.4 124.8 L129.9 126.5 L131.6 130.4 L132.2 126.6ZM133 126.6 L132.2 126.6 L131.6 130.4 L133.5 133.6 L133.8 128.5ZM133.8 128.5 L133.5 133.6 L135.5 136.1 L135.3 130.9ZM126.6 107.7 L126.5 105.7 L123.7 109.8 L124.4 115.9 L126.6 111.8ZM126.6 111.8 L124.4 115.9 L125.5 121.5 L127.2 117.4ZM128 119.6 L127.2 117.4 L125.5 121.5 L127 126.7 L128.5 122ZM128.5 122 L127 126.7 L128.9 131.3 L129.9 126.5ZM129.9 126.5 L128.9 131.3 L131 135.3 L131.6 130.4ZM131.6 130.4 L131 135.3 L133.4 138.6 L133.5 133.6ZM133.5 133.6 L133.4 138.6 L135.8 141.2 L135.5 136.1ZM123.7 109.8 L121.3 114.9 L122.5 120.9 L124.4 115.9ZM124.4 115.9 L122.5 120.9 L124.1 126.5 L125.5 121.5ZM125.5 121.5 L124.1 126.5 L126 131.7 L127 126.7ZM127 126.7 L126 131.7 L128.3 136.3 L128.9 131.3ZM128.9 131.3 L128.3 136.3 L130.7 140.3 L131 135.3ZM131 135.3 L130.7 140.3 L131.5 141.2 L133.4 141 L133.4 138.6ZM133.4 138.6 L133.4 141 L135.8 141.5 L135.8 141.2ZM121.3 114.9 L119.6 120.7 L121.2 126.6 L122.5 120.9ZM122.5 120.9 L121.2 126.6 L123.1 132 L124.1 126.5ZM124.1 126.5 L123.1 132 L125.4 137 L126 131.7ZM126 131.7 L125.4 137 L127.4 140.6 L128 140.9 L128.3 136.3ZM128.3 136.3 L128 140.9 L130.7 141.4 L130.7 140.3ZM131.5 141.2 L130.7 140.3 L130.7 141.4ZM119.6 120.7 L118.6 127.3 L120.5 132.9 L121.2 126.6ZM121.2 126.6 L120.5 132.9 L122.8 138 L123.1 132ZM123.1 132 L122.8 138 L122.9 138.3 L125.4 139.8 L125.4 137ZM127.4 140.6 L125.4 137 L125.4 139.8ZM118.6 127.3 L118.4 133.1 L120.6 136.5 L120.5 132.9ZM120.5 132.9 L120.6 136.5 L122.8 138.2 L122.8 138ZM122.9 138.3 L122.8 138 L122.8 138.2Z"/><path class="cus4" opacity="0.31" d="M136.5 110.1 L136.7 109.7 L134.9 116.7 L134.9 116.9ZM134.9 116.9 L134.9 116.7 L134.7 120.1 L134.7 119.4ZM134.7 119.4 L134.7 120.1 L135.2 122.2 L135.2 121.4Z"/><path class="cus1" opacity="0.54" d="M141.4 98.5 L141.9 97.3 L137.5 98.3 L136.4 102.2 L137.9 101.4ZM137.9 101.4 L136.4 102.2 L136.2 103.2ZM137.3 108 L137.4 107.6 L134.9 114.4 L134.9 115.3 L135.3 114.1ZM135.3 114.1 L134.9 115.3 L134.9 115.5ZM137.5 98.3 L133.5 99.9 L132.8 104.7 L136.4 102.2ZM136.2 103.2 L136.4 102.2 L132.8 104.7 L132.5 109.2 L134.5 107.1ZM134.5 107.1 L132.5 109.2 L132.5 113.4 L133.8 111.4ZM133.8 111.4 L132.5 113.4 L132.9 117.1 L134 114.6ZM134.9 114.4 L134 114.6 L132.9 117.1 L133.5 120.5 L134.9 115.3ZM134.9 115.5 L134.9 115.3 L133.5 120.5 L134.3 123.2 L134.3 123ZM134.3 123 L134.3 123.2 L135.2 125.4 L135.2 125.3ZM133.5 99.9 L129.8 102.4 L129.6 107.7 L132.8 104.7ZM132.8 104.7 L129.6 107.7 L129.7 112.8 L132.5 109.2ZM132.5 109.2 L129.7 112.8 L130.3 117.5 L132.5 113.4ZM132.5 113.4 L130.3 117.5 L131.2 121.8 L132.9 117.1ZM132.9 117.1 L131.2 121.8 L132.4 125.4 L133.5 120.5ZM133.5 120.5 L132.4 125.4 L133 126.6 L133.9 126.9 L134.3 123.2ZM134.3 123.2 L133.9 126.9 L135.2 127.5 L135.2 125.4ZM129.8 102.4 L126.6 105.6 L126.6 107.7 L126.7 111.5 L129.6 107.7ZM129.6 107.7 L126.7 111.5 L127.4 116.9 L129.7 112.8ZM129.7 112.8 L127.4 116.9 L128 119.6 L128.6 121.7 L130.3 117.5ZM130.3 117.5 L128.6 121.7 L130.4 124.8 L131.2 121.8ZM131.2 121.8 L130.4 124.8 L132.2 126.6 L132.4 125.4ZM133 126.6 L132.4 125.4 L132.2 126.6ZM126.6 107.7 L126.6 111.8 L126.7 111.5ZM126.7 111.5 L126.6 111.8 L127.2 117.4 L127.4 116.9ZM128 119.6 L127.4 116.9 L127.2 117.4Z"/><path class="cus4" opacity="0.46" d="M136.4 110.5 L136.5 110.1 L134.9 116.9 L134.9 117.2ZM134.9 117.2 L134.9 116.9 L134.7 119.4 L134.8 118.7ZM134.8 118.7 L134.7 119.4 L135.2 121.4 L135.2 120.7Z"/><path class="cus1" opacity="0.72" d="M141.4 98.5 L137.9 101.4 L140.5 100.1ZM140.5 100.1 L137.9 101.4 L136.2 103.2 L135.6 105.9 L139.4 102.7ZM139.4 102.7 L135.6 105.9 L135.1 109.4 L138.4 105.1ZM138.4 105.1 L135.1 109.4 L134.9 112.5 L137.5 107.4ZM137.4 107.6 L137.5 107.4 L134.9 112.5 L134.9 114.4ZM136.2 103.2 L134.5 107.1 L135.6 105.9ZM135.6 105.9 L134.5 107.1 L133.8 111.4 L135.1 109.4ZM135.1 109.4 L133.8 111.4 L134 114.6 L134.9 112.5ZM134.9 114.4 L134.9 112.5 L134 114.6Z"/><path class="cus4" opacity="0.61" d="M136.2 111 L136.4 110.5 L134.9 117.2 L135 117.5ZM135 117.5 L134.9 117.2 L134.8 118.7 L134.9 118ZM134.9 118 L134.8 118.7 L135.2 120.7 L135.2 119.9Z"/><path class="cus4" opacity="0.77" d="M136.2 111 L135 117.5 L135 117.6 L136.1 111.2ZM136.1 111.2 L135 117.6 L135.2 119.5 L135.5 112.7ZM135 117.5 L134.9 118 L135 117.6ZM135 117.6 L134.9 118 L135.2 119.9 L135.2 119.5Z"/><path class="el" d="M141.9 97.3 L137.5 98.3 L133.5 99.9 L129.8 102.4 L126.5 105.7 L123.7 109.8 L121.3 114.9 L119.6 120.7 L118.6 127.3 L118.4 134.7 L119.1 142.8 L120.9 151.4 L123.9 160.4 L128.4 169.8 L137.2 181 L137.2 181 L137.2 181 L137.2 181 L137.2 181 L137.2 181 L137.2 181 L137.2 181 L137.2 181 L137.2 181 L139.9 178.6 L139.6 174.3 L139 169.9 L138.3 165.3 L137.7 160.6 L137.1 155.8 L136.6 151 L136.1 146.1 L135.8 141.2 L135.5 136.1 L135.3 130.9 L135.2 125.4 L135.2 119.5 L135.5 112.7"/><path class="gr" d="M126.5 105.7 L126.7 111.5 L127.4 116.9 L128.5 122 L129.9 126.5 L131.6 130.4 L133.5 133.6 L135.5 136.1M119.6 120.7 L121.2 126.6 L123.1 132 L125.4 137 L128 141.5 L130.7 145.3 L133.6 148.5 L136.6 151M119.1 142.8 L121.5 147.1 L124 151.1 L126.7 154.7 L129.5 158 L132.4 160.8 L135.3 163.2 L138.3 165.3"/><path class="cus4 x" d="M145 82.2 L142 75.9 L138.7 70.9 L134.9 66.7 L130.7 63.2 L126.1 60.4 L121.1 58.6 L115.8 57.6 L110.4 57.8 L104.8 59.2 L99.2 61.9 L93.7 66.2 L88.6 72.2 L83.9 80.4 L80 95.9 L80 95.9 L80.2 95.8 L80.3 95.8 L80.3 95.8 L80.3 95.8 L80.3 95.8 L80.2 95.8 L80 95.9 L80 95.9 L82.8 102 L85.5 102.6 L88.3 102.5 L91.1 102.3 L94 102 L97 101.7 L100.1 101.4 L103.3 101.2 L106.6 101 L110 100.8 L113.6 100.5 L117.5 100.2 L121.7 99.7 L127 99.1Z"/><path class="cus2" d="M144.5 82.4 L141.5 76.1 L138.3 71 L134.5 66.8 L130.3 63.3 L125.7 60.5 L120.8 58.7 L115.6 57.7 L110.1 57.9 L104.6 59.2 L99 62 L93.6 66.2 L88.5 72.2 L83.9 80.4 L80 95.9 L80 95.9 L80 95.9 L80 95.9 L80 95.9 L80 95.9 L80 95.9 L80 95.9 L80 95.9 L80 95.9 L82.7 102 L85.4 102.6 L88.1 102.6 L90.9 102.4 L93.8 102.1 L96.8 101.8 L99.8 101.5 L103 101.3 L106.3 101.1 L109.7 100.9 L113.2 100.7 L117 100.4 L121.3 99.8 L126.5 99.2 L126.5 99.2 L128.4 96.4 L130.5 93.7 L132.9 91.1 L135.5 88.6 L138.3 86.3 L141.3 84.2 L144.5 82.4Z"/><path class="cus1" opacity="0.18" d="M133.8 90.2 L129.4 86.3 L127.8 88.2 L132.9 91.1ZM132.9 91.1 L127.8 88.2 L125.4 91.7 L129.3 93.3 L130.5 93.7ZM130.5 93.8 L130.5 93.7 L129.3 93.3ZM129.4 86.3 L126.4 81.8 L123.4 86 L127.8 88.2ZM125.4 91.7 L127.8 88.2 L123.4 86 L121.3 89.9ZM123.8 77.2 L122.3 79.2 L126.2 81.5ZM126.4 81.8 L126.2 81.5 L122.3 79.2 L119.2 84.2 L123.4 86ZM121.3 89.9 L123.4 86 L119.2 84.2 L117.3 88.4ZM123.8 77.2 L121.6 72.2 L118.2 77.2 L122.3 79.2ZM122.3 79.2 L118.2 77.2 L115.2 82.8 L119.2 84.2ZM117.3 88.4 L119.2 84.2 L115.2 82.8 L113.4 87.1ZM119.9 67 L117.4 70.2 L121.5 71.9ZM121.6 72.2 L121.5 71.9 L117.4 70.2 L114 75.8 L118.2 77.2ZM118.2 77.2 L114 75.8 L111.2 81.8 L115.2 82.8ZM113.4 87.1 L115.2 82.8 L111.2 81.8 L109.7 85.9ZM120.7 58.8 L116.6 63.6 L119.1 64.4ZM119.9 67 L119.1 64.4 L116.6 63.6 L113 69.1 L117.4 70.2ZM117.4 70.2 L113 69.1 L109.8 75.1 L114 75.8ZM114 75.8 L109.8 75.1 L107.3 81.3 L111.2 81.8ZM109.7 85.9 L111.2 81.8 L107.3 81.3 L106.2 84.9ZM120.7 58.8 L120.7 58.6 L115.6 57.7 L111.8 63 L116.6 63.6ZM116.6 63.6 L111.8 63 L108.5 68.8 L113 69.1ZM113 69.1 L108.5 68.8 L105.7 74.9 L109.8 75.1ZM109.8 75.1 L105.7 74.9 L103.4 81.3 L107.3 81.3ZM106.2 84.9 L107.3 81.3 L103.4 81.3 L102.8 83.8ZM115.6 57.7 L110.1 57.9 L106.8 63.4 L111.8 63ZM111.8 63 L106.8 63.4 L104 69.3 L108.5 68.8ZM108.5 68.8 L104 69.3 L101.6 75.4 L105.7 74.9ZM105.7 74.9 L101.6 75.4 L99.6 81.8 L103.4 81.3ZM102.8 83.8 L103.4 81.3 L99.6 81.8 L99.5 82.4ZM110.1 57.9 L104.6 59.2 L101.8 64.8 L106.8 63.4ZM106.8 63.4 L101.8 64.8 L99.5 70.6 L104 69.3ZM104 69.3 L99.5 70.6 L97.5 76.7 L101.6 75.4ZM101.6 75.4 L97.5 76.7 L96.5 80.7 L98.7 82.1 L99.6 81.8ZM99.5 82.4 L99.6 81.8 L98.7 82.1ZM104.6 59.2 L99 62 L96.9 67.4 L101.8 64.8ZM101.8 64.8 L96.9 67.4 L95 72.9 L99.5 70.6ZM99.5 70.6 L95 72.9 L93.8 77.6 L94.2 78.3 L97.5 76.7ZM96.5 80.7 L97.5 76.7 L94.2 78.3ZM99 62 L93.6 66.2 L93.3 67.4 L92.5 70.8 L96.9 67.4ZM96.9 67.4 L92.5 70.8 L92.7 74.7 L95 72.9ZM93.8 77.6 L95 72.9 L92.7 74.7ZM93.3 67.4 L93.6 66.2 L93.5 66.4Z"/><path class="cus4" opacity="0.15" d="M139.7 77.2 L137.6 78.6 L139.9 82.1ZM140.9 84.5 L139.9 82.1 L137.6 78.6 L134 81.4 L138.3 86.3ZM137.2 87.2 L138.3 86.3 L134 81.4 L133.8 81.7ZM139.7 77.2 L140.6 74.7 L138.3 71 L134 74.1 L137.6 78.6ZM137.6 78.6 L134 74.1 L132.4 75.5 L133.5 81 L134 81.4ZM133.8 81.7 L134 81.4 L133.5 81ZM138.3 71 L134.5 66.8 L133.5 67.6 L131.8 72 L134 74.1ZM132.4 75.5 L134 74.1 L131.8 72ZM133.5 67.6 L134.5 66.8 L133.9 66.3Z"/><path class="cus1" opacity="0.36" d="M125.4 91.7 L125.3 92 L129.3 93.3ZM130.5 93.8 L129.3 93.3 L125.3 92 L123.1 95.9 L128.4 96.4ZM128.4 96.4 L123.1 95.9 L121.3 99.8 L126.5 99.2ZM125.4 91.7 L121.3 89.9 L120.8 90.6 L125.3 92ZM125.3 92 L120.8 90.6 L118.7 95.5 L123.1 95.9ZM123.1 95.9 L118.7 95.5 L117 100.4 L121.3 99.8ZM121.3 89.9 L117.3 88.4 L116.7 89.5 L120.8 90.6ZM120.8 90.6 L116.7 89.5 L114.7 95.1 L118.7 95.5ZM118.7 95.5 L114.7 95.1 L113.2 100.7 L117 100.4ZM117.3 88.4 L113.4 87.1 L112.8 88.7 L116.7 89.5ZM116.7 89.5 L112.8 88.7 L110.9 94.7 L114.7 95.1ZM114.7 95.1 L110.9 94.7 L109.7 100.9 L113.2 100.7ZM113.4 87.1 L109.7 85.9 L109 88.1 L112.8 88.7ZM112.8 88.7 L109 88.1 L107.3 94.6 L110.9 94.7ZM110.9 94.7 L107.3 94.6 L106.3 101.1 L109.7 100.9ZM109.7 85.9 L106.2 84.9 L105.3 87.9 L109 88.1ZM109 88.1 L105.3 87.9 L103.8 94.5 L107.3 94.6ZM107.3 94.6 L103.8 94.5 L103 101.3 L106.3 101.1ZM106.2 84.9 L102.8 83.8 L101.7 88 L105.3 87.9ZM105.3 87.9 L101.7 88 L100.5 94.7 L103.8 94.5ZM103.8 94.5 L100.5 94.7 L99.8 101.5 L103 101.3ZM102.8 83.8 L99.5 82.4 L98.2 88.4 L101.7 88ZM101.7 88 L98.2 88.4 L97.3 95.1 L100.5 94.7ZM100.5 94.7 L97.3 95.1 L96.8 101.8 L99.8 101.5ZM96.5 80.7 L96 82.9 L98.7 82.1ZM99.5 82.4 L98.7 82.1 L96 82.9 L94.8 89.2 L98.2 88.4ZM98.2 88.4 L94.8 89.2 L94.1 95.6 L97.3 95.1ZM97.3 95.1 L94.1 95.6 L93.8 102.1 L96.8 101.8ZM93.8 77.6 L93.6 78.6 L94.2 78.3ZM96.5 80.7 L94.2 78.3 L93.6 78.6 L92.4 84.5 L96 82.9ZM96 82.9 L92.4 84.5 L91.6 90.4 L94.8 89.2ZM94.8 89.2 L91.6 90.4 L91.1 96.4 L94.1 95.6ZM94.1 95.6 L91.1 96.4 L90.9 102.4 L93.8 102.1ZM93.3 67.4 L92.1 71.2 L92.5 70.8ZM92.5 70.8 L92.1 71.2 L90.8 76.3 L92.7 74.7ZM93.8 77.6 L92.7 74.7 L90.8 76.3 L89.8 81.4 L93.6 78.6ZM93.6 78.6 L89.8 81.4 L89 86.7 L92.4 84.5ZM92.4 84.5 L89 86.7 L88.5 92 L91.6 90.4ZM91.6 90.4 L88.5 92 L88.2 97.3 L91.1 96.4ZM91.1 96.4 L88.2 97.3 L88.1 102.6 L90.9 102.4ZM93.3 67.4 L93.5 66.4 L88.5 72.2 L87.6 76.5 L92.1 71.2ZM92.1 71.2 L87.6 76.5 L86.8 80.7 L90.8 76.3ZM90.8 76.3 L86.8 80.7 L86.2 85.1 L89.8 81.4ZM89.8 81.4 L86.2 85.1 L85.8 89.4 L89 86.7ZM89 86.7 L85.8 89.4 L85.5 93.8 L88.5 92ZM88.5 92 L85.5 93.8 L85.4 98.2 L88.2 97.3ZM88.2 97.3 L85.4 98.2 L85.4 102.6 L88.1 102.6ZM88.5 72.2 L83.9 80.4 L83.5 83.5 L87.6 76.5ZM87.6 76.5 L83.5 83.5 L83.1 86.6 L86.8 80.7ZM86.8 80.7 L83.1 86.6 L82.9 89.7 L86.2 85.1ZM86.2 85.1 L82.9 89.7 L82.7 92.7 L85.8 89.4ZM85.8 89.4 L82.7 92.7 L82.7 95.8 L85.5 93.8ZM85.5 93.8 L82.7 95.8 L82.6 98.9 L85.4 98.2ZM85.4 98.2 L82.6 98.9 L82.7 102 L85.4 102.6ZM83.9 80.4 L80 95.9 L80 95.9 L83.5 83.5ZM83.5 83.5 L80 95.9 L80 95.9 L83.1 86.6ZM83.1 86.6 L80 95.9 L80 95.9 L82.9 89.7ZM82.9 89.7 L80 95.9 L80 95.9 L82.7 92.7ZM82.7 92.7 L80 95.9 L80 95.9 L82.7 95.8ZM82.7 95.8 L80 95.9 L80 95.9 L82.6 98.9ZM82.6 98.9 L80 95.9 L80 95.9 L82.7 102Z"/><path class="cus4" opacity="0.31" d="M144.5 82.4 L141.5 76.1 L139.7 77.2 L139.9 82.1 L141.3 84.2ZM140.9 84.5 L141.3 84.2 L139.9 82.1ZM139.7 77.2 L141.5 76.1 L140.6 74.7Z"/><path class="el" d="M144.5 82.4 L141.5 76.1 L138.3 71 L134.5 66.8 L130.3 63.3 L125.7 60.5 L120.8 58.7 L115.6 57.7 L110.1 57.9 L104.6 59.2 L99 62 L93.6 66.2 L88.5 72.2 L83.9 80.4 L80 95.9 L80 95.9 L80 95.9 L80 95.9 L80 95.9 L80 95.9 L80 95.9 L80 95.9 L80 95.9 L80 95.9 L82.7 102 L85.4 102.6 L88.1 102.6 L90.9 102.4 L93.8 102.1 L96.8 101.8 L99.8 101.5 L103 101.3 L106.3 101.1 L109.7 100.9 L113.2 100.7 L117 100.4 L121.3 99.8 L126.5 99.2"/><path class="gr" d="M130.3 63.3 L125.8 67.4 L121.7 72 L118.2 77.2 L115.2 82.8 L112.8 88.7 L110.9 94.7 L109.7 100.9M115.6 57.7 L111.8 63 L108.5 68.8 L105.7 74.9 L103.4 81.3 L101.7 88 L100.5 94.7 L99.8 101.5M99 62 L96.9 67.4 L95 72.9 L93.6 78.6 L92.4 84.5 L91.6 90.4 L91.1 96.4 L90.9 102.4"/><path class="cus1" d="M126.4 88.3 L127.6 87.9 L152.1 76.9 L150.6 77.4Z"/><path class="el" d="M126.4 88.3L150.6 77.4M150.6 77.4 L152.1 76.9M126.4 88.3 L127.6 87.9"/><path class="cus4" d="M138.3 112.3 L137.3 113.1 L136.3 113.8 L135.1 114.2 L161.2 109 L162.6 108.5 L163.9 107.7 L165.1 106.7Z"/><path class="el" d="M135.1 114.2L161.2 109M165.1 106.7 L163.9 107.7 L162.6 108.5 L161.2 109M138.3 112.3 L137.3 113.1 L136.3 113.8 L135.1 114.2"/><path class="cus1" d="M127.6 87.9 L128.8 87.7 L130.1 87.8 L131.4 88.1 L156.6 77.1 L155.1 76.8 L153.5 76.7 L152.1 76.9Z"/><path class="el" d="M152.1 76.9 L153.5 76.7 L155.1 76.8 L156.6 77.1M127.6 87.9 L128.8 87.7 L130.1 87.8 L131.4 88.1"/><path class="cus4" d="M140.4 108.7 L139.9 110.1 L139.1 111.3 L138.3 112.3 L165.1 106.7 L166.2 105.5 L167 104 L167.7 102.3Z"/><path class="el" d="M167.7 102.3 L167 104 L166.2 105.5 L165.1 106.7M140.4 108.7 L139.9 110.1 L139.1 111.3 L138.3 112.3"/><path class="cus1" d="M131.4 88.1 L132.6 88.6 L133.9 89.3 L135.1 90.2 L161.2 79.7 L159.7 78.6 L158.2 77.7 L156.6 77.1Z"/><path class="el" d="M156.6 77.1 L158.2 77.7 L159.7 78.6 L161.2 79.7M131.4 88.1 L132.6 88.6 L133.9 89.3 L135.1 90.2"/><path class="cus4" d="M141.2 104 L141.1 105.6 L140.8 107.2 L140.4 108.7 L167.7 102.3 L168.2 100.5 L168.5 98.6 L168.6 96.5Z"/><path class="el" d="M168.6 96.5 L168.5 98.6 L168.2 100.5 L167.7 102.3M141.2 104 L141.1 105.6 L140.8 107.2 L140.4 108.7"/><path class="cus2" d="M135.1 90.2 L136.3 91.3 L137.3 92.5 L138.3 93.9 L165.1 84.3 L163.9 82.5 L162.6 81 L161.2 79.7Z"/><path class="el" d="M161.2 79.7 L162.6 81 L163.9 82.5 L165.1 84.3M135.1 90.2 L136.3 91.3 L137.3 92.5 L138.3 93.9"/><path class="cus4" d="M140.4 98.8 L140.8 100.5 L141.1 102.3 L141.2 104 L168.6 96.5 L168.5 94.4 L168.2 92.3 L167.7 90.2Z"/><path class="el" d="M167.7 90.2 L168.2 92.3 L168.5 94.4 L168.6 96.5M140.4 98.8 L140.8 100.5 L141.1 102.3 L141.2 104"/><path class="cus3" d="M138.3 93.9 L139.1 95.5 L139.9 97.1 L140.4 98.8 L167.7 90.2 L167 88.1 L166.2 86.1 L165.1 84.3Z"/><path class="el" d="M165.1 84.3 L166.2 86.1 L167 88.1 L167.7 90.2M138.3 93.9 L139.1 95.5 L139.9 97.1 L140.4 98.8"/><path class="cu" fill-rule="evenodd" d="M121.5 98.1 L121.6 96.4 L121.9 94.9 L122.3 93.4 L122.9 92 L123.6 90.8 L124.4 89.8 L125.4 89 L126.4 88.3 L127.6 87.9 L128.8 87.7 L130.1 87.8 L131.4 88.1 L132.6 88.6 L133.9 89.3 L135.1 90.2 L136.3 91.3 L137.3 92.5 L138.3 93.9 L139.1 95.5 L139.9 97.1 L140.4 98.8 L140.8 100.5 L141.1 102.3 L141.2 104 L141.1 105.6 L140.8 107.2 L140.4 108.7 L139.9 110.1 L139.1 111.3 L138.3 112.3 L137.3 113.1 L136.3 113.8 L135.1 114.2 L133.9 114.3 L132.6 114.3 L131.4 114 L130.1 113.5 L128.8 112.8 L127.6 111.9 L126.4 110.8 L125.4 109.6 L124.4 108.2 L123.6 106.6 L122.9 105 L122.3 103.3 L121.9 101.6 L121.6 99.8Z"/><path class="cus2 x" d="M138.4 103.2 L138.2 100.7 L137.5 98.2 L136.3 95.9 L134.8 93.9 L133.1 92.5 L131.2 91.6 L129.4 91.3 L127.6 91.8 L126.1 92.8 L125 94.5 L124.3 96.6 L124 98.9 L124.3 101.5 L125 104 L126.1 106.3 L127.6 108.3 L129.4 109.7 L131.2 110.6 L133.1 110.8 L134.8 110.4 L136.3 109.3 L137.5 107.7 L138.2 105.6Z"/><path class="bg" d="M135.8 102.5 L135.6 100.4 L134.8 98.4 L133.7 96.8 L132.3 95.6 L130.8 94.9 L129.4 95 L128.1 95.7 L127.2 97 L126.7 98.7 L126.7 100.7 L127.2 102.8 L128.1 104.6 L129.4 106.1 L130.8 107 L132.3 107.3 L133.7 106.9 L134.8 105.9 L135.6 104.4Z"/><path class="m3" d="M136.1 102.1 L135.8 100 L135 98.1 L133.8 96.5 L132.3 95.5 L130.8 95.3 L129.4 95.7 L128.4 96.9 L127.8 98.6 L127.8 100.7 L128.4 102.7 L129.4 104.5 L130.8 105.8 L132.3 106.4 L133.8 106.3 L135 105.5 L135.8 104Z"/><path class="cus4 x" d="M153 108.4 L153.6 115.2 L154.3 121.2 L155.4 127.1 L157 132.8 L159.2 138.3 L162.1 143.5 L165.5 148.3 L169.5 152.5 L174.1 156 L179.3 158.5 L184.8 159.9 L190.8 159.8 L197 157.8 L203.9 150 L203.9 150 L204 150 L204.1 149.9 L204.2 149.9 L204.2 149.9 L204.1 149.9 L204 150 L203.9 150 L203.9 150 L200.4 143.1 L196.4 140.3 L192.3 137.9 L188.2 135.5 L184.1 133.2 L180 130.8 L175.9 128.3 L171.8 125.7 L167.7 123.1 L163.6 120.3 L159.5 117.4 L155.3 114.5 L151.1 111.3 L146.6 107.6Z"/><path class="cus2" d="M152.5 108.6 L153.1 115.3 L153.8 121.4 L155 127.2 L156.7 132.9 L158.9 138.4 L161.8 143.6 L165.3 148.4 L169.3 152.6 L174 156 L179.1 158.5 L184.7 159.9 L190.7 159.8 L196.9 157.8 L203.8 150 L203.8 150 L203.8 150 L203.8 150 L203.8 150 L203.8 150 L203.8 150 L203.8 150 L203.8 150 L203.8 150 L200.4 143.2 L196.3 140.3 L192.1 137.9 L188 135.6 L183.9 133.3 L179.8 130.9 L175.6 128.4 L171.5 125.8 L167.4 123.2 L163.3 120.4 L159.1 117.6 L154.9 114.6 L150.6 111.5 L146.1 107.7 L146.1 107.7 L147.5 108.7 L148.6 109.4 L149.6 109.8 L150.5 109.9 L151.2 109.8 L151.9 109.3 L152.5 108.6Z"/><path class="cus1" opacity="0.18" d="M153.7 120.2 L153.8 121.1 L154.7 122.2 L154.4 121.2ZM154.4 121.2 L154.7 122.2 L154.7 122.2 L155.4 122.4 L155.2 121.9ZM155.2 121.9 L155.4 122.4 L155.7 122.2ZM154.5 124.8 L155 127.2 L156.4 127.9 L154.8 122.7ZM154.7 122.2 L154.8 122.7 L156.4 127.9 L157.7 127.9 L155.4 122.4ZM155.7 122.2 L155.4 122.4 L157.7 127.9 L157.9 127.7ZM155 127.2 L156.7 132.9 L158.5 133.3 L156.4 127.9ZM156.4 127.9 L158.5 133.3 L159.2 133.2 L158.4 129.3 L157.7 127.9ZM157.9 127.7 L157.7 127.9 L158.4 129.3ZM156.7 132.9 L158.6 137.7 L159.6 135.4 L158.5 133.3ZM159.2 133.2 L158.5 133.3 L159.6 135.4Z"/><path class="cus4" opacity="0.15" d="M153.4 118.3 L153.6 119.3 L154.2 120.2 L154 119.2ZM154 119.2 L154.2 120.2 L154.9 120.9 L154.5 119.9ZM154.5 119.9 L154.9 120.9 L155.7 121.5 L155.2 120.4ZM155.2 120.4 L155.7 121.5 L155.9 120.4 L154.8 118.6ZM154.8 118.6 L155.9 120.4 L156.2 120.1 L156.1 119.3 L154.7 117.5ZM154.7 117.5 L156.1 119.3 L155.7 117.2 L155.1 116.5ZM155.1 116.5 L155.7 117.2 L155.5 116.6ZM156.2 120.1 L159.5 125.2 L159.7 123.5 L156.1 119.3ZM156.1 119.3 L159.7 123.5 L159.7 120.8 L155.7 117.2ZM155.5 116.6 L155.7 117.2 L159.7 120.8 L159.5 120.1ZM162.4 130.4 L162.7 129.9 L160.8 127.4ZM159.5 125.2 L160.8 127.4 L162.7 129.9 L163.4 127.3 L159.7 123.5ZM159.7 123.5 L163.4 127.3 L163.6 124.1 L159.7 120.8ZM159.5 120.1 L159.7 120.8 L163.6 124.1 L163.6 124ZM162.4 130.4 L165 135.9 L166.2 133.8 L162.7 129.9ZM162.7 129.9 L166.2 133.8 L167.1 130.8 L163.4 127.3ZM163.4 127.3 L167.1 130.8 L167.4 127.9 L163.9 124.4 L163.6 124.1ZM163.6 124 L163.6 124.1 L163.9 124.4ZM167 141.3 L168.3 140 L165.3 136.6ZM165 135.9 L165.3 136.6 L168.3 140 L169.8 137.4 L166.2 133.8ZM166.2 133.8 L169.8 137.4 L170.8 134.1 L167.1 130.8ZM167.4 127.9 L167.1 130.8 L170.8 134.1 L171.2 132ZM168.5 146.9 L170 145.8 L167.6 143.2ZM167 141.3 L167.6 143.2 L170 145.8 L172 143.5 L168.3 140ZM168.3 140 L172 143.5 L173.5 140.5 L169.8 137.4ZM169.8 137.4 L173.5 140.5 L174.7 137 L170.8 134.1ZM171.2 132 L170.8 134.1 L174.7 137 L174.8 136.5ZM167.9 151.1 L169.3 152.6 L171.8 151.1 L168.8 148.4ZM168.5 146.9 L168.8 148.4 L171.8 151.1 L174 149.1 L170 145.8ZM170 145.8 L174 149.1 L175.9 146.5 L172 143.5ZM172 143.5 L175.9 146.5 L177.5 143.3 L173.5 140.5ZM173.5 140.5 L177.5 143.3 L178.1 141.4 L175.5 137.5 L174.7 137ZM174.8 136.5 L174.7 137 L175.5 137.5ZM169.3 152.6 L174 156 L176.3 154.2 L171.8 151.1ZM171.8 151.1 L176.3 154.2 L178.3 151.8 L174 149.1ZM174 149.1 L178.3 151.8 L180.1 148.9 L175.9 146.5ZM175.9 146.5 L180.1 148.9 L181.1 146.7 L180.1 144.8 L177.5 143.3ZM178.1 141.4 L177.5 143.3 L180.1 144.8ZM174 156 L179.1 158.5 L181.2 156.3 L176.3 154.2ZM176.3 154.2 L181.2 156.3 L183 153.7 L178.3 151.8ZM178.3 151.8 L183 153.7 L183.5 152.7 L182.6 150 L180.1 148.9ZM181.1 146.7 L180.1 148.9 L182.6 150ZM179.1 158.5 L183.9 159.7 L184.7 157.1 L181.2 156.3ZM181.2 156.3 L184.7 157.1 L184 154 L183 153.7ZM183.5 152.7 L183 153.7 L184 154Z"/><path class="cus1" opacity="0.36" d="M153.8 121.1 L153.8 121.4 L154.7 122.2 L154.7 122.2ZM154.7 122.2 L154.7 122.2 L154.7 122.2ZM153.8 121.4 L154.5 124.8 L154.8 122.7 L154.7 122.2ZM154.7 122.2 L154.7 122.2 L154.8 122.7Z"/><path class="cus4" opacity="0.31" d="M152.5 114.8 L152.5 114.8 L152.5 114.8ZM152.5 114.8 L152.5 114.8 L151.8 113.3 L149.6 111ZM149.6 111 L151.8 113.3 L150.6 111.5 L146.9 108.5ZM153.3 117.4 L153.4 118.3 L154 119.2 L153.7 118.2ZM153.7 118.2 L154 119.2 L154.5 119.9 L154.2 119ZM154.2 119 L154.5 119.9 L155.2 120.4 L154.6 119.3ZM154.6 119.3 L155.2 120.4 L154.8 118.6 L153.7 116.9ZM152.5 114.8 L153.7 116.9 L154.8 118.6 L154.7 117.5 L152.5 114.8ZM152.5 114.8 L154.7 117.5 L155.1 116.5 L151.8 113.3ZM151.8 113.3 L155.1 116.5 L155.5 116.6 L154.9 114.6 L150.6 111.5ZM155.5 116.6 L159.5 120.1 L159.1 117.6 L154.9 114.6ZM159.5 120.1 L163.6 124 L163.3 120.4 L159.1 117.6ZM167.4 127.9 L167.5 127.3 L163.9 124.4ZM163.6 124 L163.9 124.4 L167.5 127.3 L167.4 123.2 L163.3 120.4ZM167.4 127.9 L171.2 132 L171.4 130.2 L167.5 127.3ZM167.5 127.3 L171.4 130.2 L171.5 125.8 L167.4 123.2ZM171.2 132 L174.8 136.5 L175.4 132.9 L171.4 130.2ZM171.4 130.2 L175.4 132.9 L175.6 128.4 L171.5 125.8ZM178.1 141.4 L178.7 139.6 L175.5 137.5ZM174.8 136.5 L175.5 137.5 L178.7 139.6 L179.4 135.4 L175.4 132.9ZM175.4 132.9 L179.4 135.4 L179.8 130.9 L175.6 128.4ZM181.1 146.7 L181.6 145.6 L180.1 144.8ZM178.1 141.4 L180.1 144.8 L181.6 145.6 L182.7 141.9 L178.7 139.6ZM178.7 139.6 L182.7 141.9 L183.5 137.7 L179.4 135.4ZM179.4 135.4 L183.5 137.7 L183.9 133.3 L179.8 130.9ZM183.5 152.7 L184.5 150.8 L182.6 150ZM181.1 146.7 L182.6 150 L184.5 150.8 L185.8 147.4 L181.6 145.6ZM181.6 145.6 L185.8 147.4 L186.9 143.8 L182.7 141.9ZM182.7 141.9 L186.9 143.8 L187.6 139.8 L183.5 137.7ZM183.5 137.7 L187.6 139.8 L188 135.6 L183.9 133.3ZM183.9 159.7 L184.7 159.9 L186.4 157.5 L184.7 157.1ZM184.7 157.1 L186.4 157.5 L187.9 154.9 L184 154ZM183.5 152.7 L184 154 L187.9 154.9 L189.1 152 L184.5 150.8ZM184.5 150.8 L189.1 152 L190.2 148.8 L185.8 147.4ZM185.8 147.4 L190.2 148.8 L191.1 145.4 L186.9 143.8ZM186.9 143.8 L191.1 145.4 L191.7 141.7 L187.6 139.8ZM187.6 139.8 L191.7 141.7 L192.1 137.9 L188 135.6ZM184.7 159.9 L190.7 159.8 L191.9 157.5 L186.4 157.5ZM186.4 157.5 L191.9 157.5 L193 155 L187.9 154.9ZM187.9 154.9 L193 155 L193.9 152.4 L189.1 152ZM189.1 152 L193.9 152.4 L194.7 149.6 L190.2 148.8ZM190.2 148.8 L194.7 149.6 L195.4 146.6 L191.1 145.4ZM191.1 145.4 L195.4 146.6 L195.9 143.6 L191.7 141.7ZM191.7 141.7 L195.9 143.6 L196.3 140.3 L192.1 137.9ZM190.7 159.8 L196.9 157.8 L197.6 155.9 L191.9 157.5ZM191.9 157.5 L197.6 155.9 L198.2 154 L193 155ZM193 155 L198.2 154 L198.8 151.9 L193.9 152.4ZM193.9 152.4 L198.8 151.9 L199.3 149.8 L194.7 149.6ZM194.7 149.6 L199.3 149.8 L199.7 147.7 L195.4 146.6ZM195.4 146.6 L199.7 147.7 L200.1 145.5 L195.9 143.6ZM195.9 143.6 L200.1 145.5 L200.4 143.2 L196.3 140.3ZM196.9 157.8 L200.1 154.2 L202.3 151.5 L197.6 155.9ZM197.6 155.9 L202.3 151.5 L203.8 150 L203.8 150 L198.2 154ZM198.2 154 L203.8 150 L203.8 150 L198.8 151.9ZM198.8 151.9 L203.8 150 L203.8 150 L199.3 149.8ZM199.3 149.8 L203.8 150 L203.8 150 L199.7 147.7ZM199.7 147.7 L203.8 150 L203.8 150 L200.1 145.5ZM200.1 145.5 L203.8 150 L203.8 150 L200.4 143.2Z"/><path class="cus4" opacity="0.46" d="M153.1 116 L153 115.9 L152.2 114.4ZM152.2 114.4 L153 115.9 L152.5 114.8 L152.5 114.8 L149.8 111ZM148 109 L149.8 111 L152.5 114.8 L149.6 111 L147.5 108.7ZM147.5 108.7 L149.6 111 L146.9 108.5 L146.1 107.7ZM153.2 116.5 L153.3 117.4 L153.7 118.2 L153.5 117.3ZM153.5 117.3 L153.7 118.2 L154.2 119 L153.9 118ZM153.9 118 L154.2 119 L154.6 119.3 L154.1 118.1ZM153.1 116 L154.1 118.1 L154.6 119.3 L153.7 116.9 L153 115.9ZM152.5 114.8 L153 115.9 L153.7 116.9ZM200.1 154.2 L203.8 150 L203.8 150 L202.3 151.5ZM202.3 151.5 L203.8 150 L203.8 150Z"/><path class="cus4" opacity="0.61" d="M153.2 116.3 L153.1 116 L152.2 114.4 L150.1 110.7ZM149.3 109.7 L150.1 110.7 L152.2 114.4 L149.8 111 L148.6 109.4ZM148 109 L148.6 109.4 L149.8 111ZM153.1 115.5 L153.2 116.5 L153.5 117.3 L153.3 116.3ZM153.3 116.3 L153.5 117.3 L153.9 118 L153.5 117.1ZM153.5 117.1 L153.9 118 L154.1 118.1 L153.6 117ZM153.1 116 L153.2 116.3 L153.6 117 L154.1 118.1Z"/><path class="cus4" opacity="0.77" d="M152.5 108.6 L153.1 115.3 L153.3 116.2 L151.9 109.3ZM151.9 109.3 L153.3 116.2 L153.4 116.6 L151.2 109.8ZM151.2 109.8 L153.4 116.6 L153.3 116.5 L150.5 109.9ZM150.5 109.9 L153.3 116.5 L153.2 116.3 L150.1 110.7 L149.6 109.8ZM149.3 109.7 L149.6 109.8 L150.1 110.7ZM153.1 115.3 L153.1 115.5 L153.3 116.3 L153.3 116.2ZM153.3 116.2 L153.3 116.3 L153.5 117.1 L153.4 116.6ZM153.4 116.6 L153.5 117.1 L153.6 117 L153.3 116.5ZM153.2 116.3 L153.3 116.5 L153.6 117Z"/><path class="el" d="M152.5 108.6 L153.1 115.3 L153.8 121.4 L155 127.2 L156.7 132.9 L158.9 138.4 L161.8 143.6 L165.3 148.4 L169.3 152.6 L174 156 L179.1 158.5 L184.7 159.9 L190.7 159.8 L196.9 157.8 L203.8 150 L203.8 150 L203.8 150 L203.8 150 L203.8 150 L203.8 150 L203.8 150 L203.8 150 L203.8 150 L203.8 150 L200.4 143.2 L196.3 140.3 L192.1 137.9 L188 135.6 L183.9 133.3 L179.8 130.9 L175.6 128.4 L171.5 125.8 L167.4 123.2 L163.3 120.4 L159.1 117.6 L154.9 114.6 L150.6 111.5 L146.1 107.7"/><path class="gr" d="M156.7 132.9 L158.5 133.3 L160.2 132.9 L161.6 131.8 L162.7 129.9 L163.4 127.3 L163.6 124.1 L163.3 120.4M165.3 148.4 L167.8 147.4 L170 145.8 L172 143.5 L173.5 140.5 L174.7 137 L175.4 132.9 L175.6 128.4M179.1 158.5 L181.2 156.3 L183 153.7 L184.5 150.8 L185.8 147.4 L186.9 143.8 L187.6 139.8 L188 135.6"/><path class="cus4 x" d="M157.1 84.2 L160.1 79.2 L162 74.5 L163 69.5 L163.2 64.2 L162.6 58.6 L161.3 52.6 L159 46.4 L155.9 40.1 L151.8 33.8 L146.8 27.8 L140.7 22.1 L133.5 17.1 L124.9 13.1 L111.3 12.3 L111.3 12.3 L111.5 12.2 L111.6 12.2 L111.6 12.2 L111.6 12.2 L111.6 12.2 L111.5 12.2 L111.3 12.3 L111.3 12.3 L107.9 19.2 L108.7 24.2 L110 29 L111.5 33.8 L113.1 38.6 L114.8 43.4 L116.5 48.2 L118.2 53.2 L120 58.2 L121.8 63.3 L123.8 68.6 L126 73.9 L128.6 79.5 L131.9 85.8Z"/><path class="cus2" d="M156.6 84.3 L159.6 79.3 L161.6 74.6 L162.6 69.7 L162.9 64.3 L162.3 58.7 L161 52.7 L158.8 46.5 L155.7 40.2 L151.7 33.9 L146.6 27.8 L140.6 22.1 L133.4 17.1 L124.8 13.2 L111.3 12.3 L111.3 12.3 L111.3 12.3 L111.3 12.3 L111.3 12.3 L111.3 12.3 L111.3 12.3 L111.3 12.3 L111.3 12.3 L111.3 12.3 L107.8 19.3 L108.6 24.3 L109.9 29.1 L111.4 33.8 L112.9 38.6 L114.5 43.4 L116.2 48.3 L117.9 53.3 L119.7 58.3 L121.5 63.4 L123.4 68.7 L125.6 74.1 L128.2 79.6 L131.4 86 L131.4 86 L134.9 84.8 L138.5 84 L142.2 83.4 L145.8 83.2 L149.5 83.3 L153.1 83.7 L156.6 84.3Z"/><path class="cus1" opacity="0.18" d="M113.9 12.5 L111.3 12.3 L111.3 12.3 L111.5 12.3ZM111.5 12.3 L111.3 12.3 L111.3 12.3Z"/><path class="cus4" opacity="0.15" d="M123.3 62.7 L121.5 63.4 L121.8 64.3ZM129.1 55 L125.4 56 L126.4 59.2ZM123.3 62.7 L126.4 59.2 L125.4 56 L119.7 58.3 L121.5 63.4ZM134 48.7 L129.6 49.3 L130.7 52.4ZM129.1 55 L130.7 52.4 L129.6 49.3 L123.6 50.9 L125.4 56ZM125.4 56 L123.6 50.9 L117.9 53.3 L119.7 58.3ZM139.7 43 L133.8 43.2 L135.3 47ZM134 48.7 L135.3 47 L133.8 43.2 L127.7 44.2 L129.6 49.3ZM129.6 49.3 L127.7 44.2 L121.9 45.9 L123.6 50.9ZM123.6 50.9 L121.9 45.9 L116.2 48.3 L117.9 53.3ZM146.1 38.2 L143.5 37.9 L144.2 39.3ZM144.2 39.3 L143.5 37.9 L137.5 37.7 L139.9 42.7ZM139.7 43 L139.9 42.7 L137.5 37.7 L131.5 38.1 L133.8 43.2ZM133.8 43.2 L131.5 38.1 L125.7 39.3 L127.7 44.2ZM127.7 44.2 L125.7 39.3 L120.1 41 L120 41.1 L121.9 45.9ZM121.9 45.9 L120 41.1 L115.5 46.3 L116.2 48.3ZM153.1 36.2 L151.7 33.9 L145.9 32.9 L148.3 36.6ZM146.1 38.2 L148.3 36.6 L145.9 32.9 L140.1 32.5 L143.5 37.9ZM143.5 37.9 L140.1 32.5 L134.4 32.6 L137.5 37.7ZM137.5 37.7 L134.4 32.6 L128.8 33.2 L131.5 38.1ZM131.5 38.1 L128.8 33.2 L123.5 34.4 L123.4 34.6 L125.7 39.3ZM120.1 41 L125.7 39.3 L123.4 34.6ZM151.7 33.9 L146.6 27.8 L141.3 27.3 L145.9 32.9ZM145.9 32.9 L141.3 27.3 L136.1 27.3 L140.1 32.5ZM140.1 32.5 L136.1 27.3 L130.9 27.7 L134.4 32.6ZM134.4 32.6 L130.9 27.7 L127.5 28.3 L126.5 29.6 L128.8 33.2ZM123.5 34.4 L128.8 33.2 L126.5 29.6ZM146.6 27.8 L140.6 22.1 L136 22.1 L141.3 27.3ZM141.3 27.3 L136 22.1 L132.4 22.4 L131.8 22.9 L136.1 27.3ZM136.1 27.3 L131.8 22.9 L129.3 25.8 L130.9 27.7ZM127.5 28.3 L130.9 27.7 L129.3 25.8ZM140.6 22.1 L137.3 19.9 L134.1 20.8 L136 22.1ZM132.4 22.4 L136 22.1 L134.1 20.8Z"/><path class="cus4" opacity="0.31" d="M127.7 73.3 L125.6 74.1 L126 74.9ZM133.7 65.5 L128.7 66.7 L130 70.7ZM127.7 73.3 L130 70.7 L128.7 66.7 L123.4 68.7 L125.6 74.1ZM140.3 59.2 L138.9 59.2 L139 60ZM139 60 L138.9 59.2 L132.9 59.8 L134.2 64.8ZM133.7 65.5 L134.2 64.8 L132.9 59.8 L127.1 61.3 L128.7 66.7ZM128.7 66.7 L127.1 61.3 L123.3 62.7 L121.8 64.3 L123.4 68.7ZM148.6 54.5 L143.7 53.8 L144.3 56.3ZM140.3 59.2 L144.3 56.3 L143.7 53.8 L137.5 53.7 L138.9 59.2ZM138.9 59.2 L137.5 53.7 L131.3 54.5 L132.9 59.8ZM132.9 59.8 L131.3 54.5 L129.1 55 L126.4 59.2 L127.1 61.3ZM123.3 62.7 L127.1 61.3 L126.4 59.2ZM161 52.8 L161 52.7 L154.8 50.5 L155.2 52.1ZM155.2 52.1 L154.8 50.5 L148.4 49.1 L149.8 53.8ZM148.6 54.5 L149.8 53.8 L148.4 49.1 L142.1 48.3 L143.7 53.8ZM143.7 53.8 L142.1 48.3 L135.8 48.4 L137.5 53.7ZM137.5 53.7 L135.8 48.4 L134 48.7 L130.7 52.4 L131.3 54.5ZM129.1 55 L131.3 54.5 L130.7 52.4ZM161 52.7 L158.8 46.5 L152.6 44.6 L154.8 50.5ZM154.8 50.5 L152.6 44.6 L146.3 43.4 L148.4 49.1ZM148.4 49.1 L146.3 43.4 L140 43 L142.1 48.3ZM142.1 48.3 L140 43 L139.7 43 L135.3 47 L135.8 48.4ZM134 48.7 L135.8 48.4 L135.3 47ZM158.8 46.5 L155.7 40.2 L149.6 38.7 L152.6 44.6ZM152.6 44.6 L149.6 38.7 L146.1 38.2 L144.2 39.3 L146.3 43.4ZM146.3 43.4 L144.2 39.3 L139.9 42.7 L140 43ZM139.7 43 L140 43 L139.9 42.7ZM155.7 40.2 L153.1 36.2 L148.3 36.6 L149.6 38.7ZM146.1 38.2 L149.6 38.7 L148.3 36.6Z"/><path class="cus4" opacity="0.46" d="M132.8 78 L132.5 78.1 L132.7 78.6ZM132.7 78.6 L132.5 78.1 L128.2 79.6 L130.7 84.7ZM139.1 70.7 L135.6 71.1 L136.1 73.2ZM132.8 78 L136.1 73.2 L135.6 71.1 L130.5 72.2 L132.5 78.1ZM132.5 78.1 L130.5 72.2 L127.7 73.3 L126 74.9 L128.2 79.6ZM148.7 65.4 L145.7 65 L145.8 66.2ZM145.8 66.2 L145.7 65 L140 64.8 L140.7 69.2ZM139.1 70.7 L140.7 69.2 L140 64.8 L134.3 65.3 L135.6 71.1ZM135.6 71.1 L134.3 65.3 L133.7 65.5 L130 70.7 L130.5 72.2ZM127.7 73.3 L130.5 72.2 L130 70.7ZM162.8 65 L162.9 64.3 L157 62 L157.1 63.7ZM157.1 63.7 L157 62 L151 60.3 L151.4 64.4ZM148.7 65.4 L151.4 64.4 L151 60.3 L145 59.4 L145.7 65ZM145.7 65 L145 59.4 L140.3 59.2 L139 60 L140 64.8ZM140 64.8 L139 60 L134.2 64.8 L134.3 65.3ZM133.7 65.5 L134.3 65.3 L134.2 64.8ZM162.9 64.3 L162.3 58.7 L156.2 56.3 L157 62ZM157 62 L156.2 56.3 L150 54.7 L151 60.3ZM151 60.3 L150 54.7 L148.6 54.5 L144.3 56.3 L145 59.4ZM140.3 59.2 L145 59.4 L144.3 56.3ZM162.3 58.7 L161 52.8 L155.2 52.1 L156.2 56.3ZM156.2 56.3 L155.2 52.1 L149.8 53.8 L150 54.7ZM148.6 54.5 L150 54.7 L149.8 53.8Z"/><path class="cus4" opacity="0.61" d="M140.6 76.7 L137 77.1 L138.3 82.8ZM138 84.1 L138.3 82.8 L137 77.1 L132.8 78 L132.7 78.6 L134.9 84.8ZM134.9 84.8 L132.7 78.6 L130.7 84.7 L131.4 86ZM153.5 71.9 L151.4 71.4 L151.3 72.3ZM151.3 72.3 L151.4 71.4 L146.2 70.7 L146.2 73.4ZM146.2 73.4 L146.2 70.7 L140.9 70.5 L141.5 75.8ZM140.6 76.7 L141.5 75.8 L140.9 70.5 L139.1 70.7 L136.1 73.2 L137 77.1ZM132.8 78 L137 77.1 L136.1 73.2ZM161.9 73 L162.6 69.7 L157.1 67.4 L156.7 71.7ZM153.5 71.9 L156.7 71.7 L157.1 67.4 L151.5 65.9 L151.4 71.4ZM151.4 71.4 L151.5 65.9 L148.7 65.4 L145.8 66.2 L146.2 70.7ZM146.2 70.7 L145.8 66.2 L140.7 69.2 L140.9 70.5ZM139.1 70.7 L140.9 70.5 L140.7 69.2ZM162.6 69.7 L162.8 65 L157.1 63.7 L157.1 67.4ZM157.1 67.4 L157.1 63.7 L151.4 64.4 L151.5 65.9ZM148.7 65.4 L151.5 65.9 L151.4 64.4Z"/><path class="cus4" opacity="0.77" d="M156.6 84.3 L159.6 79.3 L155.3 78 L153.1 83.7ZM153.1 83.7 L155.3 78 L150.8 77 L149.5 83.3ZM149.5 83.3 L150.8 77 L146.2 76.5 L145.8 83.2ZM145.8 83.2 L146.2 76.5 L141.6 76.6 L142.2 83.4ZM142.2 83.4 L141.6 76.6 L140.6 76.7 L138.3 82.8 L138.5 84ZM138 84.1 L138.5 84 L138.3 82.8ZM159.6 79.3 L161.6 74.6 L156.6 72.8 L155.3 78ZM155.3 78 L156.6 72.8 L153.5 71.9 L151.3 72.3 L150.8 77ZM150.8 77 L151.3 72.3 L146.2 73.4 L146.2 76.5ZM146.2 76.5 L146.2 73.4 L141.5 75.8 L141.6 76.6ZM140.6 76.7 L141.6 76.6 L141.5 75.8ZM161.6 74.6 L161.9 73 L156.7 71.7 L156.6 72.8ZM153.5 71.9 L156.6 72.8 L156.7 71.7Z"/><path class="el" d="M156.6 84.3 L159.6 79.3 L161.6 74.6 L162.6 69.7 L162.9 64.3 L162.3 58.7 L161 52.7 L158.8 46.5 L155.7 40.2 L151.7 33.9 L146.6 27.8 L140.6 22.1 L133.4 17.1 L124.8 13.2 L111.3 12.3 L111.3 12.3 L111.3 12.3 L111.3 12.3 L111.3 12.3 L111.3 12.3 L111.3 12.3 L111.3 12.3 L111.3 12.3 L111.3 12.3 L107.8 19.3 L108.6 24.3 L109.9 29.1 L111.4 33.8 L112.9 38.6 L114.5 43.4 L116.2 48.3 L117.9 53.3 L119.7 58.3 L121.5 63.4 L123.4 68.7 L125.6 74.1 L128.2 79.6 L131.4 86"/><path class="gr" d="M162.9 64.3 L157 62 L151 60.3 L145 59.4 L138.9 59.2 L132.9 59.8 L127.1 61.3 L121.5 63.4M158.8 46.5 L152.6 44.6 L146.3 43.4 L140 43 L133.8 43.2 L127.7 44.2 L121.9 45.9 L116.2 48.3M146.6 27.8 L141.3 27.3 L136.1 27.3 L130.9 27.7 L125.8 28.6 L120.9 29.9 L116 31.6 L111.4 33.8"/><path class="cus4 x" d="M162.1 100.4 L167.3 103.4 L171.6 105.6 L175.6 106.9 L179.5 107.3 L183.1 106.7 L186.6 105.1 L189.7 102.4 L192.5 98.6 L194.7 93.7 L196.3 87.4 L197 80 L196.6 71.2 L194.8 61 L187.9 45.7 L187.9 45.7 L188 45.7 L188.1 45.7 L188.2 45.6 L188.2 45.6 L188.1 45.7 L188 45.7 L187.9 45.7 L187.9 45.7 L180.6 44.6 L177.3 47.6 L174.3 50.9 L171.5 54.3 L168.8 57.8 L166 61.3 L163.3 64.8 L160.5 68.3 L157.8 71.9 L155 75.4 L152.2 79 L149.4 82.7 L146.8 86.7 L144 91.1Z"/><path class="cus2" d="M161.5 100.5 L166.8 103.6 L171.2 105.8 L175.2 107 L179.1 107.4 L182.8 106.8 L186.3 105.2 L189.5 102.5 L192.3 98.7 L194.5 93.7 L196.1 87.5 L196.9 80 L196.5 71.3 L194.7 61 L187.8 45.8 L187.8 45.8 L187.8 45.8 L187.8 45.8 L187.8 45.8 L187.8 45.8 L187.8 45.8 L187.8 45.8 L187.8 45.8 L187.8 45.8 L180.6 44.7 L177.2 47.6 L174.2 50.9 L171.4 54.4 L168.6 57.9 L165.8 61.4 L163.1 64.9 L160.3 68.4 L157.4 72 L154.6 75.5 L151.8 79.1 L149 82.9 L146.3 86.8 L143.5 91.2 L143.5 91.2 L146.7 92.4 L149.7 93.6 L152.5 95 L155.1 96.4 L157.5 97.8 L159.6 99.2 L161.5 100.5Z"/><path class="cus4" opacity="0.31" d="M175.2 64.4 L173.3 62.3 L172.8 63ZM172.8 63 L173.3 62.3 L168.6 57.9 L167.4 59.4ZM185.7 70.3 L183.6 67.5 L183.1 68.6ZM183.1 68.6 L183.6 67.5 L179.8 62.9 L178.3 65.8ZM175.2 64.4 L178.3 65.8 L179.8 62.9 L175.7 58.5 L173.3 62.3ZM173.3 62.3 L175.7 58.5 L171.4 54.4 L168.6 57.9ZM193.3 74 L191.4 71 L191.1 73.2ZM191.1 73.2 L191.4 71 L188.3 66.7 L187.4 71.2ZM185.7 70.3 L187.4 71.2 L188.3 66.7 L185.1 62.5 L183.6 67.5ZM183.6 67.5 L185.1 62.5 L181.6 58.4 L179.8 62.9ZM179.8 62.9 L181.6 58.4 L178 54.6 L175.7 58.5ZM175.7 58.5 L178 54.6 L174.2 50.9 L171.4 54.4ZM196.7 76.2 L196.5 71.3 L194.1 67.6 L194.2 74.2ZM193.3 74 L194.2 74.2 L194.1 67.6 L191.6 64 L191.4 71ZM191.4 71 L191.6 64 L189 60.5 L188.3 66.7ZM188.3 66.7 L189 60.5 L186.2 57.1 L185.1 62.5ZM185.1 62.5 L186.2 57.1 L183.3 53.8 L181.6 58.4ZM181.6 58.4 L183.3 53.8 L180.3 50.6 L178 54.6ZM178 54.6 L180.3 50.6 L177.2 47.6 L174.2 50.9ZM196.5 71.3 L194.7 61 L192.8 58.5 L194.1 67.6ZM194.1 67.6 L192.8 58.5 L190.9 56.1 L191.6 64ZM191.6 64 L190.9 56.1 L189 53.7 L189 60.5ZM189 60.5 L189 53.7 L186.9 51.3 L186.2 57.1ZM186.2 57.1 L186.9 51.3 L184.9 49.1 L183.3 53.8ZM183.3 53.8 L184.9 49.1 L182.7 46.8 L180.3 50.6ZM180.3 50.6 L182.7 46.8 L180.6 44.7 L177.2 47.6ZM194.7 61 L187.8 45.8 L187.8 45.8 L192.8 58.5ZM192.8 58.5 L187.8 45.8 L187.8 45.8 L190.9 56.1ZM190.9 56.1 L187.8 45.8 L187.8 45.8 L189 53.7ZM189 53.7 L187.8 45.8 L187.8 45.8 L186.9 51.3ZM186.9 51.3 L187.8 45.8 L187.8 45.8 L184.9 49.1ZM184.9 49.1 L187.8 45.8 L187.8 45.8 L182.7 46.8ZM182.7 46.8 L187.8 45.8 L187.8 45.8 L180.6 44.7Z"/><path class="cus4" opacity="0.46" d="M162 100.8 L166.8 103.6 L165.7 102.2ZM165.7 102.2 L166.8 103.6 L171.2 105.8 L169.4 102.5 L166.4 101.7ZM166.4 101.7 L169.4 102.5 L168.1 100.6ZM171.2 105.8 L175.2 107 L173.4 103 L169.4 102.5ZM168.1 100.6 L169.4 102.5 L173.4 103 L171.1 98.8 L169.9 98.9ZM169.9 98.9 L171.1 98.8 L170.3 97.6ZM175.2 107 L179.1 107.4 L177.3 102.7 L173.4 103ZM173.4 103 L177.3 102.7 L174.8 97.9 L171.1 98.8ZM170.3 97.6 L171.1 98.8 L174.8 97.9 L171.8 93.1 L170.9 93.5ZM170.9 93.5 L171.8 93.1 L170.2 90.9ZM179.1 107.4 L182.8 106.8 L180.9 101.6 L177.3 102.7ZM177.3 102.7 L180.9 101.6 L178.3 96.3 L174.8 97.9ZM174.8 97.9 L178.3 96.3 L175.2 91 L171.8 93.1ZM170.2 90.9 L171.8 93.1 L175.2 91 L171.5 85.9 L169.3 87.5ZM169.3 87.5 L171.5 85.9 L167.3 80.9 L165.9 82.1ZM165.9 82.1 L167.3 80.9 L162.6 76.2 L161.4 77.4ZM161.4 77.4 L162.6 76.2 L157.4 72 L156.3 73.4ZM182.8 106.8 L186.3 105.2 L184.2 99.7 L180.9 101.6ZM180.9 101.6 L184.2 99.7 L181.5 94 L178.3 96.3ZM178.3 96.3 L181.5 94 L178.2 88.5 L175.2 91ZM175.2 91 L178.2 88.5 L174.4 83 L171.5 85.9ZM171.5 85.9 L174.4 83 L170.2 77.8 L167.3 80.9ZM167.3 80.9 L170.2 77.8 L165.4 72.9 L162.6 76.2ZM162.6 76.2 L165.4 72.9 L160.3 68.4 L157.4 72ZM186.3 105.2 L189.5 102.5 L187.2 96.8 L184.2 99.7ZM184.2 99.7 L187.2 96.8 L184.3 91 L181.5 94ZM181.5 94 L184.3 91 L181 85.3 L178.2 88.5ZM178.2 88.5 L181 85.3 L177.2 79.8 L174.4 83ZM174.4 83 L177.2 79.8 L172.9 74.5 L170.2 77.8ZM170.2 77.8 L172.9 74.5 L168.2 69.5 L165.4 72.9ZM165.4 72.9 L168.2 69.5 L163.1 64.9 L160.3 68.4ZM189.5 102.5 L192.3 98.7 L189.8 92.9 L187.2 96.8ZM187.2 96.8 L189.8 92.9 L186.8 87.2 L184.3 91ZM184.3 91 L186.8 87.2 L183.4 81.6 L181 85.3ZM181 85.3 L183.4 81.6 L179.6 76.1 L177.2 79.8ZM177.2 79.8 L179.6 76.1 L175.4 70.9 L172.9 74.5ZM172.9 74.5 L175.4 70.9 L170.8 66 L168.2 69.5ZM168.2 69.5 L170.8 66 L165.8 61.4 L163.1 64.9ZM192.3 98.7 L194.5 93.7 L191.9 88.1 L189.8 92.9ZM189.8 92.9 L191.9 88.1 L188.9 82.6 L186.8 87.2ZM186.8 87.2 L188.9 82.6 L185.5 77.2 L183.4 81.6ZM183.4 81.6 L185.5 77.2 L181.8 72 L179.6 76.1ZM179.6 76.1 L181.8 72 L177.7 67 L175.4 70.9ZM175.4 70.9 L177.7 67 L175.2 64.4 L172.8 63 L170.8 66ZM170.8 66 L172.8 63 L167.4 59.4 L165.8 61.4ZM194.5 93.7 L196.1 87.5 L193.4 82.3 L191.9 88.1ZM191.9 88.1 L193.4 82.3 L190.4 77.2 L188.9 82.6ZM188.9 82.6 L190.4 77.2 L187.2 72.3 L185.5 77.2ZM185.5 77.2 L187.2 72.3 L185.7 70.3 L183.1 68.6 L181.8 72ZM181.8 72 L183.1 68.6 L178.3 65.8 L177.7 67ZM175.2 64.4 L177.7 67 L178.3 65.8ZM196.1 87.5 L196.9 80 L194.2 75.5 L193.4 82.3ZM193.4 82.3 L194.2 75.5 L193.3 74 L191.1 73.2 L190.4 77.2ZM190.4 77.2 L191.1 73.2 L187.4 71.2 L187.2 72.3ZM185.7 70.3 L187.2 72.3 L187.4 71.2ZM196.9 80 L196.7 76.2 L194.2 74.2 L194.2 75.5ZM193.3 74 L194.2 75.5 L194.2 74.2Z"/><path class="cus4" opacity="0.61" d="M161.5 100.5 L162 100.8 L165.7 102.2 L164.9 101.2 L159.6 99.2ZM157.6 97.9 L159.6 99.2 L164.9 101.2 L162.7 98.8 L157.9 97.9ZM157.9 97.9 L162.7 98.8 L161.3 97.3ZM165.7 102.2 L166.4 101.7 L164.9 101.2ZM164.9 101.2 L166.4 101.7 L168.1 100.6 L167.1 99.1 L162.7 98.8ZM161.3 97.3 L162.7 98.8 L167.1 99.1 L164.3 95.6 L161.7 96ZM161.7 96 L164.3 95.6 L161.1 92.1 L160.7 92.3ZM160.7 92.3 L161.1 92.1 L160.1 91.2ZM168.1 100.6 L169.9 98.9 L167.1 99.1ZM167.1 99.1 L169.9 98.9 L170.3 97.6 L168.2 94.6 L164.3 95.6ZM164.3 95.6 L168.2 94.6 L164.8 90.4 L161.1 92.1ZM160.1 91.2 L161.1 92.1 L164.8 90.4 L160.9 86.3 L158.5 88ZM158.5 88 L160.9 86.3 L156.5 82.5 L155 84.1ZM155 84.1 L156.5 82.5 L151.8 79.1 L150.5 80.8ZM170.3 97.6 L170.9 93.5 L168.2 94.6ZM168.2 94.6 L170.9 93.5 L170.2 90.9 L168.3 88.3 L164.8 90.4ZM164.8 90.4 L168.3 88.3 L164.2 83.7 L160.9 86.3ZM160.9 86.3 L164.2 83.7 L159.6 79.4 L156.5 82.5ZM156.5 82.5 L159.6 79.4 L154.6 75.5 L151.8 79.1ZM170.2 90.9 L169.3 87.5 L168.3 88.3ZM168.3 88.3 L169.3 87.5 L165.9 82.1 L164.2 83.7ZM164.2 83.7 L165.9 82.1 L161.4 77.4 L159.6 79.4ZM159.6 79.4 L161.4 77.4 L156.3 73.4 L154.6 75.5Z"/><path class="cus4" opacity="0.77" d="M157.6 97.9 L157.9 97.9 L157.5 97.8ZM157.5 97.8 L157.9 97.9 L161.3 97.3 L160.1 96.2 L155.1 96.4ZM155.1 96.4 L160.1 96.2 L157.2 93.6 L152.5 95ZM152.5 95 L157.2 93.6 L153.9 91.2 L149.7 93.6ZM149.7 93.6 L153.9 91.2 L150.2 88.9 L146.7 92.4ZM146.7 92.4 L150.2 88.9 L146.3 86.8 L143.5 91.2ZM161.3 97.3 L161.7 96 L160.1 96.2ZM160.1 96.2 L161.7 96 L160.7 92.3 L157.2 93.6ZM157.2 93.6 L160.7 92.3 L160.1 91.2 L157.5 88.8 L153.9 91.2ZM153.9 91.2 L157.5 88.8 L153.4 85.7 L150.2 88.9ZM150.2 88.9 L153.4 85.7 L149 82.9 L146.3 86.8ZM160.1 91.2 L158.5 88 L157.5 88.8ZM157.5 88.8 L158.5 88 L155 84.1 L153.4 85.7ZM153.4 85.7 L155 84.1 L150.5 80.8 L149 82.9Z"/><path class="el" d="M161.5 100.5 L166.8 103.6 L171.2 105.8 L175.2 107 L179.1 107.4 L182.8 106.8 L186.3 105.2 L189.5 102.5 L192.3 98.7 L194.5 93.7 L196.1 87.5 L196.9 80 L196.5 71.3 L194.7 61 L187.8 45.8 L187.8 45.8 L187.8 45.8 L187.8 45.8 L187.8 45.8 L187.8 45.8 L187.8 45.8 L187.8 45.8 L187.8 45.8 L187.8 45.8 L180.6 44.7 L177.2 47.6 L174.2 50.9 L171.4 54.4 L168.6 57.9 L165.8 61.4 L163.1 64.9 L160.3 68.4 L157.4 72 L154.6 75.5 L151.8 79.1 L149 82.9 L146.3 86.8 L143.5 91.2"/><path class="gr" d="M179.1 107.4 L177.3 102.7 L174.8 97.9 L171.8 93.1 L168.3 88.3 L164.2 83.7 L159.6 79.4 L154.6 75.5M189.5 102.5 L187.2 96.8 L184.3 91 L181 85.3 L177.2 79.8 L172.9 74.5 L168.2 69.5 L163.1 64.9M196.1 87.5 L193.4 82.3 L190.4 77.2 L187.2 72.3 L183.6 67.5 L179.8 62.9 L175.7 58.5 L171.4 54.4"/><path class="m3" d="M283.5 192.6 L284.6 179.6 L285.5 179.6 L286.4 179.6 L287.3 179.6 L288.5 192.6 L289.8 192.6 L289.2 178.5 L290.1 170.5 L291.2 178.4 L292.3 178.2 L291.2 169.5 L289.4 168.2 L282.6 168.2 L280.8 169.5 L279.7 178.2 L280.8 178.4 L281.9 170.5 L282.8 178.5 L282.1 192.6Z"/><circle class="m3" cx="286" cy="165.6" r="2.5"/><path class="o thin" d="M283.5 192.6 L284.6 179.6 L285.5 179.6 L286.4 179.6 L287.3 179.6 L288.5 192.6 L289.8 192.6 L289.2 178.5 L290.1 170.5 L291.2 178.4 L292.3 178.2 L291.2 169.5 L289.4 168.2 L282.6 168.2 L280.8 169.5 L279.7 178.2 L280.8 178.4 L281.9 170.5 L282.8 178.5 L282.1 192.6Z"/><circle class="o thin" cx="286" cy="165.6" r="2.5"/></svg>