<svg xmlns="http://www.w3.org/2000/svg" class="ilu " viewBox="0 0 320 200"><style>:root{--il-line:#252B31;--il-edge:rgba(18,22,27,.5);--il-m1:#F1F3F5;--il-m2:#C9CFD5;--il-m3:#4A5159;--il-w1:#DCE1E6;--il-w2:#B4BCC4;--il-w3:#8A949E;--il-t:#D8BE84;--il-h1:#FFC98A;--il-hot:#E4602A;--il-f:#BFE1F0;--il-fl:#2B8BBE;--il-rb:#2A2E33;--il-yel:#E7C267;--il-pcb:#2D6A4E;--il-sand:#D9CCB2;--il-gw:#E6E0D5;--il-rb2:#3A3F45;--il-gl:#CFE5F1;--il-cu:#D08652;--il-bg:#2A2F35;--il-sh:rgba(10,14,18,.16);--il-cr:#E8EBEE;--il-sec0:#FFFFFF}@media (prefers-color-scheme:dark){:root:not([data-theme="light"]){--il-line:#C7CFD6;--il-edge:rgba(0,0,0,.55);--il-bg:#0C0E10;--il-sh:rgba(0,0,0,.5);--il-cr:#2A2F35;--il-sec0:#0E1012;--il-f:#1C4A5E;--il-fl:#6CC4EC;--il-h1:#8A3E1C;--il-hot:#FF8A50;--il-gl:#27445A}}:root[data-theme="dark"]{--il-line:#C7CFD6;--il-edge:rgba(0,0,0,.55);--il-bg:#0C0E10;--il-sh:rgba(0,0,0,.5);--il-cr:#2A2F35;--il-sec0:#0E1012;--il-f:#1C4A5E;--il-fl:#6CC4EC;--il-h1:#8A3E1C;--il-hot:#FF8A50;--il-gl:#27445A}.ilu{display:block;width:100%;height:auto;stroke-width:.85;stroke-linejoin:round;stroke-linecap:round;overflow:hidden}.ilu .o{fill:none;stroke:var(--il-line)}.ilu .thin{stroke-width:.8;opacity:.7}.ilu .dash{stroke-dasharray:4 3}.ilu .m{fill:var(--il-m1);stroke:var(--il-line)}.ilu .m2{fill:var(--il-m2);stroke:var(--il-line)}.ilu .m3{fill:var(--il-m3);stroke:var(--il-line)}.ilu .w{fill:var(--il-w1);stroke:var(--il-line)}.ilu .w2{fill:var(--il-w2);stroke:var(--il-line)}.ilu .w3{fill:var(--il-w3);stroke:var(--il-line)}.ilu .t{fill:var(--il-t);stroke:var(--il-line)}.ilu .h{fill:var(--il-h1);stroke:var(--il-hot)}.ilu .hl{fill:none;stroke:var(--il-hot);stroke-width:1.5}.ilu .fl{fill:var(--il-f);stroke:var(--il-fl)}.ilu .fo{fill:none;stroke:var(--il-fl);stroke-width:1.2}.ilu .fdot{fill:var(--il-fl);stroke:none}.ilu .a{fill:none;stroke:var(--accent);stroke-width:1.8}.ilu .af{fill:var(--accent);stroke:none}.ilu .sh{fill:var(--il-sh);stroke:none}.ilu .bg{fill:var(--il-bg);stroke:var(--il-line)}.ilu .bgline{stroke:var(--il-bg);stroke-width:2}.ilu .rb{fill:var(--il-rb);stroke:var(--il-line)}.ilu .rb2{fill:var(--il-rb2);stroke:var(--il-line)}.ilu .rbline{fill:none;stroke:var(--il-bg);stroke-width:1.2}.ilu .gl{fill:var(--il-gl);stroke:var(--il-line);fill-opacity:.9}.ilu .gl2{fill:var(--il-gl);stroke:var(--il-line)}.ilu .cu{fill:var(--il-cu);stroke:var(--il-line)}.ilu .cuwire{fill:none;stroke:var(--il-cu);stroke-width:3}.ilu .cr{fill:var(--il-cr);stroke:var(--il-line)}.ilu .ball{fill:var(--il-cr);stroke:var(--il-line)}.ilu .wire{fill:none;stroke:var(--il-w3);stroke-width:7}.ilu .arm{fill:none;stroke:var(--il-m3);stroke-width:10}.ilu .arm2{fill:none;stroke:var(--il-m3);stroke-width:7}.ilu .cable{fill:none;stroke:var(--il-rb);stroke-width:4}.ilu .cable3{fill:none;stroke:var(--il-rb);stroke-width:8}.ilu .belt{fill:none;stroke:var(--il-rb);stroke-width:3}.ilu .chan{fill:none;stroke:var(--il-bg);stroke-width:4}.ilu .tube1{fill:none;stroke:var(--il-line);stroke-width:10}.ilu .tube2{fill:none;stroke:var(--il-w1);stroke-width:7}.ilu .web{fill:none;stroke:var(--il-rb2);stroke-width:12}.ilu .led{fill:none;stroke:var(--il-t);stroke-width:5}.ilu .frit{fill:none;stroke:var(--il-rb);stroke-width:7;stroke-opacity:.85}.ilu .zig{fill:none;stroke:var(--il-m3);stroke-width:3}.ilu .gridl{stroke:var(--il-cr);stroke-width:2}.ilu .fin{stroke:var(--il-w3);stroke-width:.8}.ilu .d{fill:var(--il-line);stroke:none}.ilu text{fill:var(--ink2);stroke:none;font:500 11px var(--f-body);letter-spacing:.02em}.ilu text.al{fill:var(--accent);font-weight:600}.ilu text.sm{font-size:9.5px;fill:var(--muted)}.ilu .gw,.ilu .gwr{fill:var(--il-gw);stroke:var(--il-line)}.ilu .grit{fill:none;stroke:var(--il-line);stroke-dasharray:1 3;opacity:.6}.ilu .gline{stroke:var(--il-line);stroke-width:.8;opacity:.6}.ilu .chip{fill:none;stroke:var(--il-w3);stroke-width:1.8}.ilu .grain{fill:var(--il-line);opacity:.45;stroke:none}.ilu .bub{fill:none;stroke:var(--il-fl)}.ilu .tankw{fill:none;stroke:var(--il-line);stroke-width:2.2}.ilu .hotin{fill:var(--il-h1);stroke:none;opacity:.6}.ilu .warmin{fill:var(--il-h1);stroke:none;opacity:.3}.ilu .coolin{fill:var(--il-f);stroke:none;opacity:.7}.ilu .bolt{fill:var(--il-yel);stroke:var(--il-line)}.ilu .bg2{fill:var(--il-m1);stroke:var(--il-line)}.ilu .beam{stroke:var(--il-hot);stroke-width:3;fill:none}.ilu .kerf{stroke:var(--il-bg);stroke-width:2.5;fill:none}.ilu .bgline2{stroke:var(--il-bg);stroke-width:7;fill:none}.ilu .jet{stroke:var(--il-fl);stroke-width:3;stroke-dasharray:6 3;fill:none}.ilu .jet2{stroke:var(--il-fl);stroke-width:4;fill:none}.ilu .hatch{stroke:var(--il-w3);stroke-width:.8}.ilu .pour{fill:none;stroke:var(--il-hot);stroke-width:6}.ilu .shell{fill:var(--il-m1);stroke:var(--il-line)}.ilu .sand,.ilu .board{fill:var(--il-sand);stroke:var(--il-line)}.ilu .gridbar{stroke:var(--il-m3);stroke-width:6;fill:none}.ilu .shot,.ilu .pwd{fill:var(--il-m3);stroke:none}.ilu .coilcu{fill:none;stroke:var(--il-cu);stroke-width:3.2}.ilu .wire2{fill:none;stroke:var(--il-w3);stroke-width:4}.ilu .strip{fill:none;stroke:var(--il-w2);stroke-width:5}.ilu rect.strip{fill:var(--il-w2);stroke:var(--il-line);stroke-width:1.3}.ilu .sheet{fill:none;stroke:var(--il-w3);stroke-width:5}.ilu .sheet2{fill:var(--il-w2);stroke:var(--il-line)}.ilu .hotsheet{fill:none;stroke:var(--il-hot);stroke-width:5}.ilu .mesh{fill:var(--il-m1);stroke:var(--il-line);stroke-dasharray:2 2}.ilu .paste{fill:none;stroke:var(--il-m3);stroke-width:5}.ilu .lens{fill:var(--il-gl);stroke:var(--il-line)}.ilu .uv{stroke:var(--accent);stroke-dasharray:4 3;fill:none}.ilu .basket{fill:none;stroke:var(--il-line);stroke-dasharray:3 2}.ilu .bead{fill:none;stroke:var(--il-w3);stroke-width:5}.ilu .bead2,.ilu .bead3{fill:none;stroke:var(--il-m3);stroke-width:6}.ilu .ebeam{stroke:var(--accent);stroke-width:3;stroke-dasharray:2 2;fill:none}.ilu .foil{stroke:var(--il-cu);stroke-width:2}.ilu .hplate{fill:var(--il-h1);stroke:var(--il-hot)}.ilu .crack{fill:none;stroke:var(--il-hot);stroke-width:2.2}.ilu .resin{fill:var(--il-h1);stroke:var(--il-line)}.ilu .screw{stroke:var(--il-m3);stroke-width:6;fill:none}.ilu .parison{fill:var(--il-w1);stroke:var(--il-line)}.ilu .rbx{fill:var(--il-rb);stroke:var(--il-line)}.ilu .rbstrip{fill:none;stroke:var(--il-rb);stroke-width:8}.ilu .uvwave{fill:none;stroke:var(--il-hot)}.ilu .cordl{stroke:var(--il-cu)}.ilu .beadw{fill:none;stroke:var(--il-w3);stroke-width:6}.ilu .pourf{fill:none;stroke:var(--il-w2);stroke-width:6}.ilu .foamf,.ilu .padm{fill:var(--il-w2);stroke:var(--il-line)}.ilu .skin{fill:none;stroke:var(--il-w3);stroke-width:4}.ilu .chipd{fill:var(--il-rb);stroke:var(--il-line)}.ilu .glp{fill:var(--il-gl);stroke:var(--il-line)}.ilu .glsheet{fill:none;stroke:var(--il-fl);stroke-width:4}.ilu .rail{fill:none;stroke:var(--il-m3);stroke-width:5}.ilu .needle{stroke:var(--il-line);stroke-width:2}.ilu .stitch{fill:none;stroke:var(--accent);stroke-dasharray:4 3;stroke-width:1.6}.ilu .thread{stroke:var(--il-w2);stroke-width:2.2}.ilu .thread2{stroke:var(--il-hot);stroke-width:2.2}.ilu .slurry,.ilu .slurryp{fill:var(--il-rb2);stroke:var(--il-line)}.ilu .foilstrip{fill:none;stroke:var(--il-cu);stroke-width:3}.ilu .slurryl{fill:none;stroke:var(--il-rb2);stroke-width:5}.ilu .slurryl2{fill:none;stroke:var(--il-rb2);stroke-width:9}.ilu .windl0{fill:none;stroke:var(--il-cu);stroke-width:3}.ilu .windl1{fill:none;stroke:var(--il-m1);stroke-width:3}.ilu .windl2{fill:none;stroke:var(--il-rb2);stroke-width:3}.ilu .cuwire2{fill:none;stroke:var(--il-cu);stroke-width:6}.ilu .pcb,.ilu .okl{fill:var(--il-pcb);stroke:var(--il-line)}.ilu .wafer{fill:var(--il-m2);stroke:var(--il-line)}.ilu .wirebond{fill:none;stroke:var(--il-cu);stroke-width:1.6}.ilu .fringe{stroke:var(--accent);opacity:.7}.ilu .ring{fill:var(--il-t);stroke:var(--il-line)}.ilu .laserl{stroke:var(--il-hot);stroke-width:1.4;stroke-dasharray:5 3;fill:none}.ilu .zebra,.ilu .filt{fill:var(--il-cr);stroke:var(--il-line)}.ilu .ray{stroke:var(--accent);stroke-dasharray:4 3;fill:none}.ilu .wave{fill:none;stroke:var(--accent)}.ilu .yoke{fill:none;stroke:var(--il-m3);stroke-width:10}.ilu .indic{stroke:var(--accent);stroke-width:3;fill:none}.ilu .he{fill:var(--accent);opacity:.6;stroke:none}.ilu .beamf{fill:var(--il-yel);opacity:.55;stroke:none}.ilu .loc{fill:var(--il-line);stroke:none}.ilu .clampl{stroke:var(--il-hot);stroke-width:2.4}.ilu .clamph{fill:var(--il-hot);stroke:none}.ilu .leadd{fill:var(--ink2);stroke:none}.ilu .leadl{stroke:var(--ink2);stroke-width:.8;opacity:.8}.ilu .bal{fill:var(--surface);stroke:var(--accent);stroke-width:1.4}.ilu text.balt{fill:var(--accent);font-weight:700;font-size:10.5px}.ilu text.tol{fill:var(--ink2);font-size:10.5px}.ilu text.ttl{fill:var(--ink);font-weight:600;font-size:12px}.ilu .cl{stroke:var(--il-line);stroke-dasharray:14 3 2 3;stroke-width:.8;opacity:.7}.ilu .hid{fill:none;stroke:var(--il-line);stroke-dasharray:5 3;stroke-width:.9;opacity:.8}.ilu .mf{fill:none;stroke:var(--accent);stroke-width:4;stroke-linecap:round}.ilu .mfa{fill:var(--il-t);stroke:var(--accent);stroke-width:2}.ilu .rgh{fill:var(--il-w3);stroke:none}.ilu .done{stroke:var(--il-line);stroke-width:2.6;fill:none}.ilu .cut{fill:var(--il-w2);stroke:var(--il-line)}.ilu .ins{fill:var(--il-yel);stroke:var(--il-line)}.ilu .cool{stroke:var(--il-fl);stroke-dasharray:3 3}.ilu .cutl{stroke:var(--accent);stroke-width:2.4;stroke-dasharray:5 3}.ilu .poro{fill:var(--il-hot);stroke:none}.ilu .mfring{fill:none;stroke:var(--il-hot);stroke-width:1.5;stroke-dasharray:3 2}.ilu .xim{fill:#1D242B;stroke:var(--il-line)}.ilu .ximd{fill:#FFFFFF;stroke:none}.ilu .coat{fill:none;stroke:var(--il-hot);stroke-width:5}.ilu .hatchx{stroke:var(--accent);stroke-width:.8;opacity:.8}.ilu .jetl{fill:none;stroke:var(--il-fl);stroke-width:4;stroke-dasharray:8 4}.ilu .pres{fill:none;stroke:var(--il-fl);stroke-width:4.5}.ilu .tbg{fill:var(--surface);stroke:none;opacity:.94}.ilu .tbl{stroke:var(--line);stroke-width:1}.ilu .void{fill:var(--il-sec0);stroke:var(--il-line)}.ilu .hotband{fill:var(--il-hot);opacity:.35;stroke:none}.ilu .flash{fill:var(--il-hot);opacity:.25;stroke:var(--il-hot)}.ilu .cutframe{fill:none;stroke:var(--accent);stroke-width:2.2;stroke-dasharray:5 3}.ilu .orbit{fill:none;stroke:var(--accent);stroke-dasharray:3 3}.ilu .hotarc{fill:none;stroke:var(--il-hot);stroke-width:6;opacity:.8}.ilu .mfo{fill:none;stroke:var(--accent);stroke-width:2.4}.ilu .stem{stroke:var(--il-m3);stroke-width:5}.ilu .hotgrp .w,.ilu .hotgrp .w2,.ilu .hotgrp .w3,.ilu .hotgrp .rb,.ilu .hotgrp .m{fill:var(--il-h1);stroke:var(--il-hot)}:root{--il-ws1-old:#ECD9B4;--il-ws2:#DEC38F;--il-ws3:#C9A86F;--il-ws4:#AB8A55;--il-ts1:#BCC8F4;--il-ts2:#A5B3EA;--il-ts3:#8C9ADA;--il-ts4:#7382C6;--il-gs1:#B3BDE2;--il-gs2:#9CA7D0;--il-gs3:#8591BC;--il-gs4:#6E7AA5;--il-ms1:#D9E1DC;--il-ms2:#C2CDC6;--il-ms3:#A7B4AC;--il-ms4:#8B9990;--il-hs1:#F6B592;--il-hs2:#EE9B72;--il-hs3:#DF7C52;--il-hs4:#C9613A}.ilu .el{fill:none;stroke:var(--il-line);stroke-width:.75;stroke-linejoin:round}.ilu .ws1{fill:var(--il-ws1);stroke:var(--il-ws1);stroke-width:.5}.ilu .ws2{fill:var(--il-ws2);stroke:var(--il-ws2);stroke-width:.5}.ilu .ws3{fill:var(--il-ws3);stroke:var(--il-ws3);stroke-width:.5}.ilu .ws4{fill:var(--il-ws4);stroke:var(--il-ws4);stroke-width:.5}.ilu .ts1{fill:var(--il-ts1);stroke:var(--il-ts1);stroke-width:.5}.ilu .ts2{fill:var(--il-ts2);stroke:var(--il-ts2);stroke-width:.5}.ilu .ts3{fill:var(--il-ts3);stroke:var(--il-ts3);stroke-width:.5}.ilu .ts4{fill:var(--il-ts4);stroke:var(--il-ts4);stroke-width:.5}.ilu .gws1{fill:var(--il-gs1);stroke:var(--il-gs1);stroke-width:.5}.ilu .gws2{fill:var(--il-gs2);stroke:var(--il-gs2);stroke-width:.5}.ilu .gws3{fill:var(--il-gs3);stroke:var(--il-gs3);stroke-width:.5}.ilu .gws4{fill:var(--il-gs4);stroke:var(--il-gs4);stroke-width:.5}.ilu .ms1{fill:var(--il-ms1);stroke:var(--il-ms1);stroke-width:.5}.ilu .ms2{fill:var(--il-ms2);stroke:var(--il-ms2);stroke-width:.5}.ilu .ms3{fill:var(--il-ms3);stroke:var(--il-ms3);stroke-width:.5}.ilu .ms4{fill:var(--il-ms4);stroke:var(--il-ms4);stroke-width:.5}.ilu .hs1{fill:var(--il-hs1);stroke:var(--il-hs1);stroke-width:.5}.ilu .hs2{fill:var(--il-hs2);stroke:var(--il-hs2);stroke-width:.5}.ilu .hs3{fill:var(--il-hs3);stroke:var(--il-hs3);stroke-width:.5}.ilu .hs4{fill:var(--il-hs4);stroke:var(--il-hs4);stroke-width:.5}.ilu .gw{fill:var(--il-gw);stroke:var(--il-line)}.ilu .grit2{fill:none;stroke:var(--il-line);stroke-width:1.1;opacity:.35;stroke-linecap:round}.ilu .mfe{fill:none;stroke:var(--accent);stroke-width:1.8;stroke-linejoin:round}.ilu .chbd{fill:none;stroke:var(--il-t);stroke-width:4.5;stroke-linejoin:round;opacity:.9}.ilu .probe{fill:none;stroke:var(--il-m3);stroke-width:3.2;stroke-linecap:round;stroke-linejoin:round}.ilu .x{stroke:var(--il-line);stroke-width:.7}.ilu .gr{fill:none;stroke:var(--il-line);stroke-width:.5;opacity:.55}.ilu .m,.ilu .m2,.ilu .m3,.ilu .w,.ilu .w2,.ilu .w3,.ilu .t,.ilu .gw,.ilu .gwr,.ilu .bg,.ilu .cu,.ilu .alu,.ilu .shell,.ilu .bg2,.ilu .cr,.ilu .ball,.ilu .cut,.ilu .ring,.ilu .rb,.ilu .rb2,.ilu .rbx,.ilu .chipd{stroke:var(--il-edge)}.ilu .w{fill:url(#g-st)}.ilu .w2{fill:url(#g-st2)}.ilu .w3{fill:url(#g-st3)}.ilu.mt-al .w{fill:url(#g-al)}.ilu.mt-al .w2{fill:url(#g-al2)}.ilu.mt-al .w3{fill:url(#g-al3)}.ilu.mt-fe .w{fill:url(#g-fe)}.ilu.mt-fe .w2{fill:url(#g-fe2)}.ilu.mt-fe .w3{fill:url(#g-fe3)}.ilu.mt-pl .w{fill:url(#g-pl)}.ilu.mt-pl .w2{fill:url(#g-pl2)}.ilu.mt-pl .w3{fill:url(#g-pl3)}.ilu.mt-cu .w{fill:url(#g-cu)}.ilu.mt-cu .w2{fill:url(#g-cu2)}.ilu.mt-cu .w3{fill:url(#g-cu3)}.ilu .alu{fill:url(#g-al)}.ilu .cu{fill:url(#g-cu)}.ilu .m{fill:url(#g-m)}.ilu .m2{fill:url(#g-m2)}.ilu .m3{fill:url(#g-m3)}.ilu .shell,.ilu .bg2{fill:url(#g-m)}.ilu .t,.ilu .ring{fill:url(#g-t)}.ilu .gw,.ilu .gwr{fill:url(#g-gw)}.ilu .bg{fill:url(#g-bg)}.ilu .h,.ilu .hplate{fill:url(#g-hot);stroke:var(--il-hot)}.ilu .sh{fill:url(#g-sh)}.ilu .cut{fill:url(#p-cut)}.ilu .ball,.ilu .cr{fill:url(#g-ball)}.ilu .rb,.ilu .rbx,.ilu .chipd{fill:url(#g-rb)}.ilu .fl{fill:var(--il-f);fill-opacity:.7}.ilu .gl,.ilu .gl2,.ilu .glp,.ilu .lens{fill:var(--il-gl);fill-opacity:.55}.ilu .void{fill:var(--il-sec0)}:root{--ws1:#F2F4F6;--ws2:#CAD1D8;--ws3:#9FA8B1;--ws4:#77818B;--al1:#F8F8F6;--al2:#DADBD8;--al3:#B5B7B4;--al4:#8F918E;--fe1:#B8BDC2;--fe2:#8E949A;--fe3:#6B7177;--fe4:#4F555B;--pl1:#62666C;--pl2:#44484D;--pl3:#2F3236;--pl4:#1F2124;--cu1:#F6CDA8;--cu2:#DE9D6B;--cu3:#B97540;--cu4:#8A5229;--ts1:#F7E9C4;--ts2:#E3C98E;--ts3:#C1A060;--ts4:#957842;--gs1:#F5F2EC;--gs2:#DED8CD;--gs3:#C0B8A9;--gs4:#9D9485;--ms1:#F3F5F7;--ms2:#D4D9DE;--ms3:#ABB2B9;--ms4:#80888F;--hs1:#FFDCA4;--hs2:#FFB46B;--hs3:#F2853F;--hs4:#CF622B}.ilu .ws1{fill:var(--ws1);stroke:var(--ws1)}.ilu .ws2{fill:var(--ws2);stroke:var(--ws2)}.ilu .ws3{fill:var(--ws3);stroke:var(--ws3)}.ilu .ws4{fill:var(--ws4);stroke:var(--ws4)}.ilu.mt-al .ws1,.ilu .als1{fill:var(--al1);stroke:var(--al1)}.ilu.mt-al .ws2,.ilu .als2{fill:var(--al2);stroke:var(--al2)}.ilu.mt-al .ws3,.ilu .als3{fill:var(--al3);stroke:var(--al3)}.ilu.mt-al .ws4,.ilu .als4{fill:var(--al4);stroke:var(--al4)}.ilu.mt-fe .ws1{fill:var(--fe1);stroke:var(--fe1)}.ilu.mt-fe .ws2{fill:var(--fe2);stroke:var(--fe2)}.ilu.mt-fe .ws3{fill:var(--fe3);stroke:var(--fe3)}.ilu.mt-fe .ws4{fill:var(--fe4);stroke:var(--fe4)}.ilu.mt-pl .ws1{fill:var(--pl1);stroke:var(--pl1)}.ilu.mt-pl .ws2{fill:var(--pl2);stroke:var(--pl2)}.ilu.mt-pl .ws3{fill:var(--pl3);stroke:var(--pl3)}.ilu.mt-pl .ws4{fill:var(--pl4);stroke:var(--pl4)}.ilu .cus1{fill:var(--cu1);stroke:var(--cu1)}.ilu .cus2{fill:var(--cu2);stroke:var(--cu2)}.ilu .cus3{fill:var(--cu3);stroke:var(--cu3)}.ilu .cus4{fill:var(--cu4);stroke:var(--cu4)}.ilu .ts1{fill:var(--ts1);stroke:var(--ts1)}.ilu .ts2{fill:var(--ts2);stroke:var(--ts2)}.ilu .ts3{fill:var(--ts3);stroke:var(--ts3)}.ilu .ts4{fill:var(--ts4);stroke:var(--ts4)}.ilu .gws1{fill:var(--gs1);stroke:var(--gs1)}.ilu .gws2{fill:var(--gs2);stroke:var(--gs2)}.ilu .gws3{fill:var(--gs3);stroke:var(--gs3)}.ilu .gws4{fill:var(--gs4);stroke:var(--gs4)}.ilu .ms1{fill:var(--ms1);stroke:var(--ms1)}.ilu .ms2{fill:var(--ms2);stroke:var(--ms2)}.ilu .ms3{fill:var(--ms3);stroke:var(--ms3)}.ilu .ms4{fill:var(--ms4);stroke:var(--ms4)}.ilu .hs1{fill:var(--hs1);stroke:var(--hs1)}.ilu .hs2{fill:var(--hs2);stroke:var(--hs2)}.ilu .hs3{fill:var(--hs3);stroke:var(--hs3)}.ilu .hs4{fill:var(--hs4);stroke:var(--hs4)}.ilu .ws1,.ilu .ws2,.ilu .ws3,.ilu .ws4,.ilu .ts1,.ilu .ts2,.ilu .ts3,.ilu .ts4,.ilu .gws1,.ilu .gws2,.ilu .gws3,.ilu .gws4,.ilu .ms1,.ilu .ms2,.ilu .ms3,.ilu .ms4,.ilu .hs1,.ilu .hs2,.ilu .hs3,.ilu .hs4,.ilu .als1,.ilu .als2,.ilu .als3,.ilu .als4,.ilu .cus1,.ilu .cus2,.ilu .cus3,.ilu .cus4{stroke-width:.5}.ilu .alus1{fill:var(--al1);stroke:var(--al1)}.ilu .alus2{fill:var(--al2);stroke:var(--al2)}.ilu .alus3{fill:var(--al3);stroke:var(--al3)}.ilu .alus4{fill:var(--al4);stroke:var(--al4)}.ilu .alus1,.ilu .alus2,.ilu .alus3,.ilu .alus4{stroke-width:.5}.ilu .x{stroke:var(--il-edge);stroke-width:.55}.ilu .el{stroke:var(--il-edge);stroke-width:.6}.ilu .gr{stroke:var(--il-edge);stroke-width:.45;opacity:.6}.ilu .grit2{stroke:#6B6357;opacity:.35}.ilu .wire{stroke:#B97540}.ilu .wire2,.ilu .skin,.ilu .sheet,.ilu .bead,.ilu .beadw{stroke:#9AA3AC}.ilu .hatch{stroke:var(--il-edge)}.ilu .strip{stroke:#B4BCC4}.ilu rect.strip{fill:url(#g-st2)}.ilu .sheet2{fill:url(#g-st2)}.ilu .parison,.ilu .foamf,.ilu .padm{fill:url(#g-pl)}.ilu .chip{stroke:#C1A060}.ilu .rgh{fill:#9FA8B1}.ilu .hotgrp .w,.ilu .hotgrp .w2,.ilu .hotgrp .w3,.ilu .hotgrp .rb,.ilu .hotgrp .m{fill:url(#g-hot);stroke:var(--il-hot)}:root{--pt1:#F6F5F1;--pt2:#E1E0DA;--pt3:#C3C2BB;--pt4:#9E9D96;--dk1:#6C727A;--dk2:#50555C;--dk3:#3B3F45;--dk4:#2A2D31}.ilu .pt{fill:url(#g-pt);stroke:var(--il-edge)}.ilu .dk{fill:url(#g-dk);stroke:var(--il-edge)}.ilu .pts1{fill:var(--pt1);stroke:var(--pt1)}.ilu .pts2{fill:var(--pt2);stroke:var(--pt2)}.ilu .pts3{fill:var(--pt3);stroke:var(--pt3)}.ilu .pts4{fill:var(--pt4);stroke:var(--pt4)}.ilu .dks1{fill:var(--dk1);stroke:var(--dk1)}.ilu .dks2{fill:var(--dk2);stroke:var(--dk2)}.ilu .dks3{fill:var(--dk3);stroke:var(--dk3)}.ilu .dks4{fill:var(--dk4);stroke:var(--dk4)}.ilu .pts1,.ilu .pts2,.ilu .pts3,.ilu .pts4,.ilu .dks1,.ilu .dks2,.ilu .dks3,.ilu .dks4{stroke-width:.5}.ilu .thread{fill:none;stroke:rgba(18,22,27,.35);stroke-width:.7}.ilu .wire{fill:none}.ilu .tslot{fill:none;stroke:rgba(18,22,27,.45);stroke-width:1.6}.ilu .mgrid{fill:none;stroke:rgba(255,255,255,.18);stroke-width:1}.ilu .hobt{fill:none;stroke:rgba(80,60,20,.55);stroke-width:1}.ilu .gwt{fill:none;stroke:rgba(110,95,70,.45);stroke-width:1}.ilu .spark{stroke:#FF8A3D;stroke-width:1.4;stroke-linecap:round}.ilu .kerf{fill:none;stroke:#3A3F46;stroke-width:1.6}.ilu path.wire{stroke:#B97540;stroke-width:1.4}.ilu .fl{fill:var(--il-fl);fill-opacity:.35}.ilu .fls1,.ilu .fls2,.ilu .fls3,.ilu .fls4{fill:var(--il-fl);fill-opacity:.25;stroke:none}.ilu .cutw{fill:#2B2F35;opacity:.85}.ilu .ball{fill:url(#g-ball);stroke:rgba(18,22,27,.45);stroke-width:.5}.ilu .scr{fill:none;stroke:rgba(18,22,27,.35);stroke-width:.8}.ilu .scrn{fill:#13232E;stroke:#0B0D10}.ilu .scrl{fill:#3FA7D6;opacity:.7}.ilu .scrg{fill:none;stroke:#7FD3A8;stroke-width:1.2}.ilu .key{fill:#2C3036;stroke:#6E757D;stroke-width:.6}.ilu .kbtn{fill:#E6E6E2;stroke:#555;stroke-width:.6}.ilu .mpg{fill:#2C3036;stroke:#9AA1A8}.ilu .mpg2{fill:#4A5058;stroke:#9AA1A8}.ilu .estop{fill:#D8332A;stroke:#F2C230;stroke-width:3}.ilu .knob{fill:#C9CDD2;stroke:#555}.ilu .pipe{fill:none;stroke:#7E8790;stroke-width:5;stroke-linejoin:round;stroke-linecap:round}.ilu .spray{stroke:#3F9FD1;stroke-width:1.4;opacity:.8}.ilu .chipc{fill:none;stroke:#B98A3E;stroke-width:1.6}.ilu .heatg{fill:#FF7A3D;opacity:.28}.ilu .heatg2{fill:#FF9A55;opacity:.18}.ilu .ghost{fill:none;stroke:#E4602A;stroke-width:1.4;stroke-dasharray:5 4}.ilu .sensor{fill:#2D5BFF;stroke:#fff;stroke-width:1.2}.ilu .win{fill:#1E2A33;opacity:.75;stroke:rgba(255,255,255,.4);stroke-width:.8}.ilu .fence{fill:none;stroke:#E8B931;stroke-width:3}.ilu .probeball{fill:#C8302A;stroke:#7A1A16;stroke-width:.6}text,.bal,.balt,.leadl,.leadd,.a,.af{display:none}svg{--accent:#2D5BFF;--ink2:#3A3A3F}@media (prefers-color-scheme:dark){svg{--accent:#86A0FF;--ink2:#D2D2D7}}</style><svg><defs>
<linearGradient id="g-st" x1="0" y1="0" x2=".3" y2="1"><stop offset="0" stop-color="#EEF1F4"/><stop offset=".16" stop-color="#FFFFFF"/><stop offset=".46" stop-color="#D3D9DF"/><stop offset=".84" stop-color="#9BA4AD"/><stop offset="1" stop-color="#BAC1C8"/></linearGradient>
<linearGradient id="g-st2" x1="0" y1="0" x2=".3" y2="1"><stop offset="0" stop-color="#D5DBE1"/><stop offset=".22" stop-color="#E2E6EA"/><stop offset=".6" stop-color="#A8B1BA"/><stop offset="1" stop-color="#8A949E"/></linearGradient>
<linearGradient id="g-st3" x1="0" y1="0" x2=".3" y2="1"><stop offset="0" stop-color="#A1AAB3"/><stop offset="1" stop-color="#6E7882"/></linearGradient>
<linearGradient id="g-al" x1="0" y1="0" x2=".3" y2="1"><stop offset="0" stop-color="#F6F6F4"/><stop offset=".15" stop-color="#FFFFFF"/><stop offset=".5" stop-color="#E2E3E0"/><stop offset=".86" stop-color="#B9BBB8"/><stop offset="1" stop-color="#D0D2CF"/></linearGradient>
<linearGradient id="g-al2" x1="0" y1="0" x2=".3" y2="1"><stop offset="0" stop-color="#E3E4E1"/><stop offset=".6" stop-color="#B8BAB7"/><stop offset="1" stop-color="#9EA09D"/></linearGradient>
<linearGradient id="g-al3" x1="0" y1="0" x2=".3" y2="1"><stop offset="0" stop-color="#A9ABA8"/><stop offset="1" stop-color="#7E807D"/></linearGradient>
<linearGradient id="g-fe" x1="0" y1="0" x2=".3" y2="1"><stop offset="0" stop-color="#B9BEC3"/><stop offset=".18" stop-color="#C9CDD1"/><stop offset=".55" stop-color="#8F959B"/><stop offset="1" stop-color="#6A7076"/></linearGradient>
<linearGradient id="g-fe2" x1="0" y1="0" x2=".3" y2="1"><stop offset="0" stop-color="#8E949A"/><stop offset="1" stop-color="#62686E"/></linearGradient>
<linearGradient id="g-fe3" x1="0" y1="0" x2=".3" y2="1"><stop offset="0" stop-color="#60666C"/><stop offset="1" stop-color="#43494F"/></linearGradient>
<linearGradient id="g-pl" x1="0" y1="0" x2=".3" y2="1"><stop offset="0" stop-color="#70747A"/><stop offset=".45" stop-color="#43474C"/><stop offset="1" stop-color="#26292C"/></linearGradient>
<linearGradient id="g-pl2" x1="0" y1="0" x2=".3" y2="1"><stop offset="0" stop-color="#4C5055"/><stop offset="1" stop-color="#2B2E32"/></linearGradient>
<linearGradient id="g-pl3" x1="0" y1="0" x2=".3" y2="1"><stop offset="0" stop-color="#35383C"/><stop offset="1" stop-color="#1C1E21"/></linearGradient>
<linearGradient id="g-cu" x1="0" y1="0" x2=".3" y2="1"><stop offset="0" stop-color="#FBDCC0"/><stop offset=".25" stop-color="#F2B687"/><stop offset=".7" stop-color="#C77F4E"/><stop offset="1" stop-color="#9B5B2F"/></linearGradient>
<linearGradient id="g-cu2" x1="0" y1="0" x2=".3" y2="1"><stop offset="0" stop-color="#DA9764"/><stop offset="1" stop-color="#9C5C30"/></linearGradient>
<linearGradient id="g-cu3" x1="0" y1="0" x2=".3" y2="1"><stop offset="0" stop-color="#A9693B"/><stop offset="1" stop-color="#6F3E1E"/></linearGradient>
<linearGradient id="g-pt" x1="0" y1="0" x2=".25" y2="1"><stop offset="0" stop-color="#FAFAF7"/><stop offset=".55" stop-color="#EDECE7"/><stop offset="1" stop-color="#D9D8D1"/></linearGradient>
<linearGradient id="g-dk" x1="0" y1="0" x2=".25" y2="1"><stop offset="0" stop-color="#6A7078"/><stop offset=".6" stop-color="#4A4F56"/><stop offset="1" stop-color="#35393E"/></linearGradient>
<linearGradient id="g-m" x1="0" y1="0" x2=".2" y2="1"><stop offset="0" stop-color="#FFFFFF"/><stop offset=".55" stop-color="#EEF0F2"/><stop offset="1" stop-color="#D5D9DD"/></linearGradient>
<linearGradient id="g-m2" x1="0" y1="0" x2=".2" y2="1"><stop offset="0" stop-color="#E1E5E9"/><stop offset="1" stop-color="#B5BBC1"/></linearGradient>
<linearGradient id="g-m3" x1="0" y1="0" x2=".2" y2="1"><stop offset="0" stop-color="#626970"/><stop offset=".5" stop-color="#3C4249"/><stop offset="1" stop-color="#2A2F35"/></linearGradient>
<linearGradient id="g-t" x1="0" y1="0" x2=".3" y2="1"><stop offset="0" stop-color="#F8EBC8"/><stop offset=".14" stop-color="#FFF7E3"/><stop offset=".48" stop-color="#E6CC92"/><stop offset=".86" stop-color="#BF9F62"/><stop offset="1" stop-color="#D3B97E"/></linearGradient>
<linearGradient id="g-gw" x1="0" y1="0" x2=".3" y2="1"><stop offset="0" stop-color="#F8F5F0"/><stop offset=".5" stop-color="#E4DED3"/><stop offset="1" stop-color="#C6BEAF"/></linearGradient>
<linearGradient id="g-bg" x1="0" y1="0" x2=".3" y2="1"><stop offset="0" stop-color="#3B4148"/><stop offset="1" stop-color="#16191C"/></linearGradient>
<linearGradient id="g-rb" x1="0" y1="0" x2=".3" y2="1"><stop offset="0" stop-color="#50545A"/><stop offset="1" stop-color="#1D1F22"/></linearGradient>
<linearGradient id="g-hot" x1="0" y1="0" x2=".3" y2="1"><stop offset="0" stop-color="#FFEAB5"/><stop offset=".45" stop-color="#FFB15A"/><stop offset="1" stop-color="#EE7430"/></linearGradient>
<radialGradient id="g-sh" cx=".5" cy=".5" r=".5"><stop offset="0" stop-color="#000" stop-opacity=".3"/><stop offset=".6" stop-color="#000" stop-opacity=".1"/><stop offset="1" stop-color="#000" stop-opacity="0"/></radialGradient>
<radialGradient id="g-ball" cx=".5" cy=".5" r=".55" fx=".34" fy=".3"><stop offset="0" stop-color="#FFFFFF"/><stop offset=".45" stop-color="#D6DCE1"/><stop offset="1" stop-color="#848E98"/></radialGradient>
<pattern id="p-cut" width="6" height="6" patternUnits="userSpaceOnUse" patternTransform="rotate(45)"><rect width="6" height="6" fill="#C9CFD5"/><line x1="0" y1="0" x2="0" y2="6" stroke="#7F8891" stroke-width="1.1"/></pattern>
</defs></svg>
<ellipse class="sh" cx="160" cy="159.3" rx="150" ry="12"/><path class="ws4 x" d="M52 78 L52 62.5 L51.5 63.2 L51.5 78.7Z"/><path class="ws2 x" d="M48.2 63 L47.3 63.6 L46 63.7 L44.7 63.2 L43.8 62.1 L43.5 60.9 L43.8 59.7 L43.3 60.4 L42.9 61.6 L43.3 62.8 L44.2 63.8 L45.5 64.4 L46.8 64.3 L47.7 63.7Z"/><path class="ws1 x" d="M43 55.9 L41.4 56.9 L40.9 57.6 L42.5 56.6Z"/><path class="ws1 x" d="M45 55.7 L43 55.9 L42.5 56.6 L44.4 56.3Z"/><path class="ws4 x" d="M52 62.5 L51.7 60.5 L51.1 61.2 L51.5 63.2Z"/><path class="ws1 x" d="M47.1 56.1 L45 55.7 L44.4 56.3 L46.5 56.7Z"/><path class="ws3 x" d="M51.7 60.5 L50.6 58.6 L50.1 59.3 L51.1 61.2Z"/><path class="ws2 x" d="M49 57.1 L47.1 56.1 L46.5 56.7 L48.5 57.8Z"/><path class="ws2 x" d="M50.6 58.6 L49 57.1 L48.5 57.8 L50.1 59.3Z"/><path class="w" fill-rule="evenodd" d="M39.5 76.4 L51.5 78.7 L51.5 63.2 L51.1 61.2 L50.1 59.3 L48.5 57.8 L46.5 56.7 L44.4 56.3 L42.5 56.6 L40.9 57.6 L39.8 59.1 L39.5 60.9ZM47.7 63.7 L46.8 64.3 L45.5 64.4 L44.2 63.8 L43.3 62.8 L42.9 61.6 L43.3 60.4 L44.2 59.8 L45.5 59.7 L46.8 60.2 L47.7 61.3 L48 62.5Z"/><path class="ws4 x" d="M303.1 126.2 L303.1 110.7 L302.6 111.4 L302.6 126.9Z"/><path class="ws2 x" d="M299.3 111.1 L298.4 111.8 L297.1 111.9 L295.8 111.3 L294.9 110.3 L294.6 109.1 L294.9 107.9 L294.4 108.6 L294 109.7 L294.4 111 L295.3 112 L296.6 112.6 L297.8 112.5 L298.8 111.8Z"/><path class="ws1 x" d="M294.1 104.1 L292.5 105.1 L292 105.8 L293.6 104.8Z"/><path class="ws1 x" d="M296.1 103.8 L294.1 104.1 L293.6 104.8 L295.5 104.5Z"/><path class="ws4 x" d="M303.1 110.7 L302.8 108.7 L302.2 109.4 L302.6 111.4Z"/><path class="ws1 x" d="M298.1 104.2 L296.1 103.8 L295.5 104.5 L297.6 104.9Z"/><path class="ws3 x" d="M302.8 108.7 L301.7 106.8 L301.2 107.5 L302.2 109.4Z"/><path class="ws2 x" d="M300.1 105.3 L298.1 104.2 L297.6 104.9 L299.6 106Z"/><path class="ws2 x" d="M301.7 106.8 L300.1 105.3 L299.6 106 L301.2 107.5Z"/><path class="w" fill-rule="evenodd" d="M290.5 124.6 L302.6 126.9 L302.6 111.4 L302.2 109.4 L301.2 107.5 L299.6 106 L297.6 104.9 L295.5 104.5 L293.6 104.8 L292 105.8 L290.9 107.2 L290.5 109.1ZM298.8 111.8 L297.8 112.5 L296.6 112.6 L295.3 112 L294.4 111 L294 109.7 L294.4 108.6 L295.3 107.9 L296.6 107.9 L297.8 108.4 L298.8 109.5 L299.1 110.7Z"/><path class="ws1 x" d="M31.2 78.2 L28.8 81.3 L306.8 134.6 L309.1 131.6Z"/><path class="ws2 x" d="M31.2 65.4 L31.2 78.2 L309.1 131.6 L309.1 118.7Z"/><path class="ws2 x" d="M28.8 81.3 L28.8 83.4 L306.8 136.8 L306.8 134.6Z"/><path class="ws1 x" d="M32.1 62 L28.8 66.2 L306.8 119.6 L310 115.4Z"/><path class="ws2 x" d="M28.8 66.2 L28.8 68.4 L306.8 121.7 L306.8 119.6Z"/><path class="ws4" fill-rule="evenodd" d="M310 132.6 L310 115.4 L306.8 119.6 L306.8 121.7 L309.1 118.7 L309.1 131.6 L306.8 134.6 L306.8 136.8Z"/><path class="ws1 x" d="M32.6 70.4 L16.9 90.7 L23.4 92 L39 71.6Z"/><path class="ws2 x" d="M16.9 90.7 L16.9 101.1 L23.4 102.3 L23.4 92Z"/><path class="ws4" fill-rule="evenodd" d="M23.4 102.3 L39 81.9 L39 71.6 L23.4 92Z"/><path class="alus2 x" d="M80 75.8 L101.3 79.9 L101.3 78.1 L80 74Z"/><path class="alus4 x" d="M101.3 79.9 L104.1 76.1 L104.1 74.4 L101.3 78.1Z"/><path class="alu" fill-rule="evenodd" d="M80 74 L101.3 78.1 L104.1 74.4 L82.8 70.3Z"/><path class="ws1 x" d="M84.4 80.3 L68.8 100.7 L75.3 102 L90.9 81.6Z"/><path class="ws2 x" d="M68.8 100.7 L68.8 111 L75.3 112.3 L75.3 102Z"/><path class="ws4" fill-rule="evenodd" d="M75.3 112.3 L90.9 91.9 L90.9 81.6 L75.3 102Z"/><path class="alus2 x" d="M163.4 91.8 L184.7 95.9 L184.7 94.1 L163.4 90.1Z"/><path class="alus4 x" d="M184.7 95.9 L187.5 92.2 L187.5 90.4 L184.7 94.1Z"/><path class="alu" fill-rule="evenodd" d="M163.4 90.1 L184.7 94.1 L187.5 90.4 L166.2 86.3Z"/><path class="ws1 x" d="M140 91 L124.4 111.4 L130.9 112.6 L146.5 92.2Z"/><path class="ws2 x" d="M124.4 111.4 L124.4 121.7 L130.9 122.9 L130.9 112.6Z"/><path class="ws4" fill-rule="evenodd" d="M130.9 122.9 L146.5 102.6 L146.5 92.2 L130.9 112.6Z"/><path class="alus4 x" d="M242.1 106.9 L245 103.2 L245 101.5 L242.1 105.2Z"/><path class="alus2 x" d="M223.6 103.3 L242.1 106.9 L242.1 105.2 L223.6 101.6Z"/><path class="alu" fill-rule="evenodd" d="M223.6 101.6 L242.1 105.2 L245 101.5 L226.4 97.9Z"/><path class="ws1 x" d="M195.6 101.7 L180 122 L186.5 123.3 L202.1 102.9Z"/><path class="ws2 x" d="M180 122 L180 132.4 L186.5 133.6 L186.5 123.3Z"/><path class="ws4" fill-rule="evenodd" d="M186.5 133.6 L202.1 113.2 L202.1 102.9 L186.5 123.3Z"/><path class="alus4 x" d="M288.4 115.8 L291.3 112.1 L291.3 110.4 L288.4 114.1Z"/><path class="alus2 x" d="M269.9 112.2 L288.4 115.8 L288.4 114.1 L269.9 110.5Z"/><path class="alu" fill-rule="evenodd" d="M269.9 110.5 L288.4 114.1 L291.3 110.4 L272.8 106.8Z"/><path class="ws1 x" d="M251.2 112.3 L235.6 132.7 L242 134 L257.7 113.6Z"/><path class="ws2 x" d="M235.6 132.7 L235.6 143 L242 144.3 L242 134Z"/><path class="ws4" fill-rule="evenodd" d="M242 144.3 L257.7 123.9 L257.7 113.6 L242 134Z"/><path class="ws1 x" d="M296.6 121 L281 141.4 L287.4 142.7 L303.1 122.3Z"/><path class="ws2 x" d="M281 141.4 L281 151.7 L287.4 153 L287.4 142.7Z"/><path class="ws4" fill-rule="evenodd" d="M287.4 153 L303.1 132.6 L303.1 122.3 L287.4 142.7Z"/><path class="ws1 x" d="M13.2 101.6 L10.9 104.7 L288.8 158 L291.2 155Z"/><path class="ws2 x" d="M10 90.8 L10 108 L287.9 161.3 L287.9 144.1Z"/><path class="ws1 x" d="M13.2 86.6 L10 90.8 L287.9 144.1 L291.2 139.9Z"/><path class="ws4" fill-rule="evenodd" d="M287.9 161.3 L291.2 157.1 L291.2 155 L288.8 158 L288.8 145.1 L291.2 142.1 L291.2 139.9 L287.9 144.1Z"/><path class="ws4 x" d="M29.5 107.4 L29.5 91.9 L28.9 92.6 L28.9 108.1Z"/><path class="ws2 x" d="M25.6 92.4 L24.7 93.1 L23.4 93.1 L22.2 92.6 L21.2 91.5 L20.9 90.3 L21.2 89.2 L20.7 89.9 L20.4 91 L20.7 92.2 L21.6 93.3 L22.9 93.8 L24.2 93.8 L25.1 93.1Z"/><path class="ws1 x" d="M20.4 85.4 L18.8 86.3 L18.3 87 L19.9 86Z"/><path class="ws1 x" d="M22.4 85.1 L20.4 85.4 L19.9 86 L21.9 85.8Z"/><path class="ws4 x" d="M29.5 91.9 L29.1 89.9 L28.6 90.6 L28.9 92.6Z"/><path class="ws1 x" d="M24.5 85.5 L22.4 85.1 L21.9 85.8 L23.9 86.2Z"/><path class="ws3 x" d="M29.1 89.9 L28 88.1 L27.5 88.8 L28.6 90.6Z"/><path class="ws2 x" d="M26.4 86.5 L24.5 85.5 L23.9 86.2 L25.9 87.2Z"/><path class="ws2 x" d="M28 88.1 L26.4 86.5 L25.9 87.2 L27.5 88.8Z"/><path class="w" fill-rule="evenodd" d="M16.9 105.8 L28.9 108.1 L28.9 92.6 L28.6 90.6 L27.5 88.8 L25.9 87.2 L23.9 86.2 L21.9 85.8 L19.9 86 L18.3 87 L17.2 88.5 L16.9 90.3ZM25.1 93.1 L24.2 93.8 L22.9 93.8 L21.6 93.3 L20.7 92.2 L20.4 91 L20.7 89.9 L21.6 89.2 L22.9 89.1 L24.2 89.7 L25.1 90.7 L25.4 92Z"/><path class="alus2 x" d="M61.1 100.3 L82.4 104.4 L82.4 102.7 L61.1 98.6Z"/><path class="alus4 x" d="M82.4 104.4 L85.3 100.7 L85.3 99 L82.4 102.7Z"/><path class="alu" fill-rule="evenodd" d="M61.1 98.6 L82.4 102.7 L85.3 99 L64 94.9Z"/><path class="alus2 x" d="M144.5 116.3 L165.8 120.4 L165.8 118.7 L144.5 114.6Z"/><path class="alus4 x" d="M165.8 120.4 L168.7 116.7 L168.7 115 L165.8 118.7Z"/><path class="alu" fill-rule="evenodd" d="M144.5 114.6 L165.8 118.7 L168.7 115 L147.4 110.9Z"/><path class="alus4 x" d="M223.3 131.4 L226.1 127.7 L226.1 126 L223.3 129.7Z"/><path class="alus2 x" d="M204.7 127.9 L223.3 131.4 L223.3 129.7 L204.7 126.2Z"/><path class="alu" fill-rule="evenodd" d="M204.7 126.2 L223.3 129.7 L226.1 126 L207.6 122.5Z"/><path class="alus4 x" d="M269.6 140.3 L272.4 136.6 L272.4 134.9 L269.6 138.6Z"/><path class="alus2 x" d="M251.1 136.8 L269.6 140.3 L269.6 138.6 L251.1 135.1Z"/><path class="alu" fill-rule="evenodd" d="M251.1 135.1 L269.6 138.6 L272.4 134.9 L253.9 131.3Z"/><path class="ws4 x" d="M280.5 155.6 L280.5 140.1 L280 140.8 L280 156.3Z"/><path class="ws2 x" d="M276.7 140.6 L275.8 141.3 L274.5 141.3 L273.2 140.8 L272.3 139.7 L272 138.5 L272.3 137.4 L271.8 138 L271.4 139.2 L271.8 140.4 L272.7 141.5 L274 142 L275.3 141.9 L276.2 141.3Z"/><path class="ws1 x" d="M271.5 133.5 L269.9 134.5 L269.4 135.2 L271 134.2Z"/><path class="ws1 x" d="M273.5 133.3 L271.5 133.5 L271 134.2 L272.9 134Z"/><path class="ws4 x" d="M280.5 140.1 L280.2 138.1 L279.6 138.8 L280 140.8Z"/><path class="ws1 x" d="M275.6 133.7 L273.5 133.3 L272.9 134 L275 134.4Z"/><path class="ws3 x" d="M280.2 138.1 L279.1 136.3 L278.6 136.9 L279.6 138.8Z"/><path class="ws2 x" d="M277.5 134.7 L275.6 133.7 L275 134.4 L277 135.4Z"/><path class="ws2 x" d="M279.1 136.3 L277.5 134.7 L277 135.4 L278.6 136.9Z"/><path class="w" fill-rule="evenodd" d="M268 154 L280 156.3 L280 140.8 L279.6 138.8 L278.6 136.9 L277 135.4 L275 134.4 L272.9 134 L271 134.2 L269.4 135.2 L268.3 136.7 L268 138.5ZM276.2 141.3 L275.3 141.9 L274 142 L272.7 141.5 L271.8 140.4 L271.4 139.2 L271.8 138 L272.7 137.4 L274 137.3 L275.3 137.9 L276.2 138.9 L276.5 140.1Z"/><path class="bg" d="M66.2 98.3 L67.1 98.3 L68 98 L68.3 97.6 L68.1 97.1 L67.3 96.8 L66.3 96.8 L65.5 97 L65.1 97.5 L65.4 98Z"/><path class="bg" d="M79.1 100.8 L80.1 100.8 L80.9 100.5 L81.3 100.1 L81 99.6 L80.3 99.3 L79.3 99.2 L78.5 99.5 L78.1 100 L78.4 100.4Z"/><path class="bg" d="M85 73.7 L86 73.7 L86.8 73.5 L87.2 73 L86.9 72.5 L86.1 72.2 L85.2 72.2 L84.3 72.5 L84 72.9 L84.2 73.4Z"/><path class="bg" d="M98 76.2 L99 76.2 L99.8 76 L100.1 75.5 L99.9 75 L99.1 74.7 L98.1 74.7 L97.3 75 L97 75.4 L97.2 75.9Z"/><path class="bg" d="M149.5 114.3 L150.5 114.3 L151.3 114 L151.7 113.6 L151.4 113.1 L150.7 112.8 L149.7 112.8 L148.9 113 L148.5 113.5 L148.8 114Z"/><path class="bg" d="M162.5 116.8 L163.5 116.8 L164.3 116.5 L164.7 116.1 L164.4 115.6 L163.7 115.3 L162.7 115.3 L161.8 115.5 L161.5 116 L161.8 116.5Z"/><path class="bg" d="M168.4 89.7 L169.4 89.7 L170.2 89.5 L170.5 89 L170.3 88.5 L169.5 88.2 L168.6 88.2 L167.7 88.5 L167.4 88.9 L167.6 89.4Z"/><path class="bg" d="M181.4 92.2 L182.3 92.2 L183.2 92 L183.5 91.5 L183.3 91 L182.5 90.7 L181.5 90.7 L180.7 91 L180.3 91.4 L180.6 91.9Z"/><path class="bg" d="M209.8 125.8 L210.7 125.9 L211.6 125.6 L211.9 125.1 L211.7 124.7 L210.9 124.3 L209.9 124.3 L209.1 124.6 L208.7 125 L209 125.5Z"/><path class="bg" d="M220 127.8 L220.9 127.8 L221.8 127.5 L222.1 127.1 L221.9 126.6 L221.1 126.3 L220.1 126.3 L219.3 126.5 L218.9 127 L219.2 127.5Z"/><path class="bg" d="M228.6 101.3 L229.6 101.3 L230.4 101 L230.8 100.6 L230.5 100.1 L229.8 99.8 L228.8 99.8 L227.9 100 L227.6 100.5 L227.9 101Z"/><path class="bg" d="M238.8 103.2 L239.8 103.3 L240.6 103 L241 102.5 L240.7 102.1 L239.9 101.7 L239 101.7 L238.1 102 L237.8 102.4 L238 102.9Z"/><path class="bg" d="M256.1 134.7 L257.1 134.7 L257.9 134.5 L258.2 134 L258 133.5 L257.2 133.2 L256.2 133.2 L255.4 133.5 L255.1 133.9 L255.3 134.4Z"/><path class="bg" d="M266.3 136.7 L267.3 136.7 L268.1 136.4 L268.4 136 L268.2 135.5 L267.4 135.2 L266.4 135.2 L265.6 135.4 L265.3 135.9 L265.5 136.4Z"/><path class="bg" d="M274.9 110.2 L275.9 110.2 L276.7 109.9 L277.1 109.5 L276.8 109 L276.1 108.7 L275.1 108.7 L274.3 108.9 L273.9 109.4 L274.2 109.9Z"/><path class="bg" d="M285.1 112.1 L286.1 112.1 L286.9 111.9 L287.3 111.4 L287 110.9 L286.3 110.6 L285.3 110.6 L284.5 110.9 L284.1 111.3 L284.4 111.8Z"/><path class="laserl" d="M73.2 98.7L261.8 134.9"/><path class="bg" d="M105.9 117.8 L105.7 116.7 L105.1 115.7 L104.3 114.9 L103.2 114.3 L102.1 114.1 L101 114.3 L100.1 114.8 L99.6 115.6 L99.4 116.5 L99.6 117.6 L100.1 118.6 L101 119.5 L102.1 120 L103.2 120.2 L104.3 120.1 L105.1 119.6 L105.7 118.8Z"/><path class="bg" d="M120.7 120.6 L120.5 119.6 L119.9 118.6 L119.1 117.7 L118 117.2 L116.9 116.9 L115.8 117.1 L115 117.6 L114.4 118.4 L114.2 119.4 L114.4 120.5 L115 121.5 L115.8 122.3 L116.9 122.9 L118 123.1 L119.1 122.9 L119.9 122.4 L120.5 121.6Z"/><path class="bg" d="M189.3 133.8 L189.1 132.7 L188.5 131.7 L187.6 130.9 L186.6 130.3 L185.5 130.1 L184.4 130.3 L183.5 130.8 L183 131.6 L182.8 132.6 L183 133.6 L183.5 134.6 L184.4 135.5 L185.5 136 L186.6 136.2 L187.6 136.1 L188.5 135.6 L189.1 134.8Z"/><rect class="void" x="192" y="4" width="122" height="66" rx="6"/><rect class="o" x="192" y="4" width="122" height="66" rx="6"/><ellipse class="sh" cx="252" cy="58" rx="50" ry="4"/><path class="ws1 x" d="M212.3 17.9 L207.2 24.5 L209.3 24.9 L214.4 18.3Z"/><path class="ws2 x" d="M207.2 24.5 L207.2 27.8 L209.3 28.2 L209.3 24.9Z"/><path class="ws4" fill-rule="evenodd" d="M209.3 28.2 L214.4 21.6 L214.4 18.3 L209.3 24.9Z"/><path class="ws2 x" d="M210.3 39.5 L290.9 55 L290.9 45.3 L210.3 29.8Z"/><path class="ws4 x" d="M290.9 55 L296.4 47.8 L296.4 38.1 L290.9 45.3Z"/><path class="w" fill-rule="evenodd" d="M210.3 29.8 L290.9 45.3 L296.4 38.1 L215.8 22.6Z"/><path class="ws1 x" d="M211.8 20.4 L211.1 21.4 L300.7 38.6 L301.4 37.6Z"/><path class="ws2 x" d="M211.8 16.3 L211.8 20.4 L301.4 37.6 L301.4 33.5Z"/><path class="ws2 x" d="M211.1 21.4 L211.1 22.1 L300.7 39.3 L300.7 38.6Z"/><path class="ws1 x" d="M212.1 15.2 L211.1 16.5 L300.7 33.7 L301.7 32.4Z"/><path class="ws2 x" d="M211.1 16.5 L211.1 17.2 L300.7 34.4 L300.7 33.7Z"/><path class="ws4" fill-rule="evenodd" d="M301.7 37.9 L301.7 32.4 L300.7 33.7 L300.7 34.4 L301.4 33.5 L301.4 37.6 L300.7 38.6 L300.7 39.3Z"/><path class="ws1 x" d="M229 21.1 L224 27.7 L226 28.1 L231.1 21.5Z"/><path class="ws2 x" d="M224 27.7 L224 31 L226 31.4 L226 28.1Z"/><path class="ws4" fill-rule="evenodd" d="M226 31.4 L231.1 24.8 L231.1 21.5 L226 28.1Z"/><path class="ms1" d="M219 22.2 L219 22.5 L219 20.5 L219 20.3Z"/><path class="el" d="M219 22.2L219 20.3M219 20.3 L219 20.5M219 22.2 L219 22.5"/><path class="ms4" d="M221.7 22.5 L221.8 22.3 L221.8 20.4 L221.7 20.6Z"/><path class="el" d="M221.8 22.3L221.8 20.4M221.7 20.6 L221.8 20.4M221.7 22.5 L221.8 22.3"/><path class="ms1" d="M219 22.5 L219.2 22.7 L219.2 20.7 L219 20.5Z"/><path class="el" d="M219 20.5 L219.2 20.7M219 22.5 L219.2 22.7"/><path class="ms4" d="M221.5 22.7 L221.7 22.5 L221.7 20.6 L221.5 20.8Z"/><path class="el" d="M221.5 20.8 L221.7 20.6M221.5 22.7 L221.7 22.5"/><path class="ms1" d="M219.2 22.7 L219.5 22.8 L219.5 20.9 L219.2 20.7Z"/><path class="el" d="M219.2 20.7 L219.5 20.9M219.2 22.7 L219.5 22.8"/><path class="ms4" d="M221.2 22.9 L221.5 22.7 L221.5 20.8 L221.2 20.9Z"/><path class="el" d="M221.2 20.9 L221.5 20.8M221.2 22.9 L221.5 22.7"/><path class="ms2" d="M219.5 22.8 L219.9 22.9 L219.9 21 L219.5 20.9Z"/><path class="el" d="M219.5 20.9 L219.9 21M219.5 22.8 L219.9 22.9"/><path class="ms3" d="M220.8 23 L221.2 22.9 L221.2 20.9 L220.8 21Z"/><path class="el" d="M220.8 21 L221.2 20.9M220.8 23 L221.2 22.9"/><path class="ms2" d="M219.9 22.9 L220.3 23 L220.8 23 L220.8 21 L220.3 21 L219.9 21Z"/><path class="el" d="M219.9 21 L220.3 21 L220.8 21M219.9 22.9 L220.3 23 L220.8 23"/><path class="m" fill-rule="evenodd" d="M219.9 21 L220.3 21 L220.8 21 L221.2 20.9 L221.5 20.8 L221.7 20.6 L221.8 20.4 L221.8 20.1 L221.6 19.9 L221.3 19.8 L220.9 19.7 L220.5 19.6 L220 19.6 L219.6 19.7 L219.3 19.9 L219 20.1 L219 20.3 L219 20.5 L219.2 20.7 L219.5 20.9Z"/><path class="m2s1" d="M218.5 20.3 L218.5 20.6 L218.5 19.9 L218.5 19.6Z"/><path class="el" d="M218.5 20.3L218.5 19.6M218.5 19.6 L218.5 19.9M218.5 20.3 L218.5 20.6"/><path class="m2s4" d="M222.2 20.7 L222.3 20.4 L222.3 19.7 L222.2 20Z"/><path class="el" d="M222.3 20.4L222.3 19.7M222.2 20 L222.3 19.7M222.2 20.7 L222.3 20.4"/><path class="m2s1" d="M218.5 20.6 L218.8 20.9 L218.8 20.2 L218.5 19.9Z"/><path class="el" d="M218.5 19.9 L218.8 20.2M218.5 20.6 L218.8 20.9"/><path class="m2s4" d="M221.9 20.9 L222.2 20.7 L222.2 20 L221.9 20.2Z"/><path class="el" d="M221.9 20.2 L222.2 20M221.9 20.9 L222.2 20.7"/><path class="m2s1" d="M218.8 20.9 L219.2 21.1 L219.2 20.4 L218.8 20.2Z"/><path class="el" d="M218.8 20.2 L219.2 20.4M218.8 20.9 L219.2 21.1"/><path class="m2s4" d="M221.4 21.1 L221.9 20.9 L221.9 20.2 L221.4 20.4Z"/><path class="el" d="M221.4 20.4 L221.9 20.2M221.4 21.1 L221.9 20.9"/><path class="m2s2" d="M219.2 21.1 L219.7 21.2 L219.7 20.5 L219.2 20.4Z"/><path class="el" d="M219.2 20.4 L219.7 20.5M219.2 21.1 L219.7 21.2"/><path class="m2s3" d="M220.9 21.3 L221.4 21.1 L221.4 20.4 L220.9 20.6Z"/><path class="el" d="M220.9 20.6 L221.4 20.4M220.9 21.3 L221.4 21.1"/><path class="m2s2" d="M219.7 21.2 L220.3 21.3 L220.9 21.3 L220.9 20.6 L220.3 20.6 L219.7 20.5Z"/><path class="el" d="M219.7 20.5 L220.3 20.6 L220.9 20.6M219.7 21.2 L220.3 21.3 L220.9 21.3"/><path class="m2" fill-rule="evenodd" d="M219.7 20.5 L220.3 20.6 L220.9 20.6 L221.4 20.4 L221.9 20.2 L222.2 20 L222.3 19.7 L222.2 19.4 L222 19.1 L221.6 18.9 L221.1 18.7 L220.5 18.7 L219.9 18.7 L219.3 18.8 L218.9 19 L218.6 19.3 L218.5 19.6 L218.5 19.9 L218.8 20.2 L219.2 20.4Z"/><path class="ws1 x" d="M246.9 24.5 L241.9 31.1 L244 31.5 L249 24.9Z"/><path class="ws2 x" d="M241.9 31.1 L241.9 34.4 L244 34.8 L244 31.5Z"/><path class="ws4" fill-rule="evenodd" d="M244 34.8 L249 28.3 L249 24.9 L244 31.5Z"/><path class="ws1 x" d="M264.9 28 L259.8 34.5 L261.9 34.9 L266.9 28.4Z"/><path class="ws2 x" d="M259.8 34.5 L259.8 37.9 L261.9 38.3 L261.9 34.9Z"/><path class="ws4" fill-rule="evenodd" d="M261.9 38.3 L266.9 31.7 L266.9 28.4 L261.9 34.9Z"/><path class="ws1 x" d="M282.8 31.4 L277.7 38 L279.8 38.4 L284.9 31.8Z"/><path class="ws2 x" d="M277.7 38 L277.7 41.3 L279.8 41.7 L279.8 38.4Z"/><path class="ws4" fill-rule="evenodd" d="M279.8 41.7 L284.9 35.1 L284.9 31.8 L279.8 38.4Z"/><path class="ws1 x" d="M297.4 34.2 L292.4 40.8 L294.5 41.2 L299.5 34.6Z"/><path class="ws2 x" d="M292.4 40.8 L292.4 44.1 L294.5 44.5 L294.5 41.2Z"/><path class="ws4" fill-rule="evenodd" d="M294.5 44.5 L299.5 37.9 L299.5 34.6 L294.5 41.2Z"/><path class="ms1" d="M289 34.7 L289.1 34.8 L289.1 25.1 L289 25Z"/><path class="el" d="M289 34.7L289 25M289 25 L289.1 25.1M289 34.7 L289.1 34.8"/><path class="ms4" d="M290.2 34.9 L290.3 34.8 L290.3 25.1 L290.2 25.2Z"/><path class="el" d="M290.3 34.8L290.3 25.1M290.2 25.2 L290.3 25.1M290.2 34.9 L290.3 34.8"/><path class="ms1" d="M289.1 34.8 L289.2 34.9 L289.2 25.2 L289.1 25.1Z"/><path class="el" d="M289.1 25.1 L289.2 25.2M289.1 34.8 L289.2 34.9"/><path class="ms4" d="M290 35 L290.2 34.9 L290.2 25.2 L290 25.3Z"/><path class="el" d="M290 25.3 L290.2 25.2M290 35 L290.2 34.9"/><path class="ms2" d="M289.2 34.9 L289.4 35 L289.4 25.3 L289.2 25.2Z"/><path class="el" d="M289.2 25.2 L289.4 25.3M289.2 34.9 L289.4 35"/><path class="ms3" d="M289.7 35 L290 35 L290 25.3 L289.7 25.3Z"/><path class="el" d="M289.7 25.3 L290 25.3M289.7 35 L290 35"/><path class="ms2" d="M289.4 35 L289.7 35 L289.7 25.3 L289.4 25.3Z"/><path class="el" d="M289.4 25.3 L289.7 25.3M289.4 35 L289.7 35"/><path class="m" fill-rule="evenodd" d="M289.4 25.3 L289.7 25.3 L290 25.3 L290.2 25.2 L290.3 25.1 L290.3 24.9 L290.1 24.8 L289.9 24.7 L289.6 24.7 L289.4 24.7 L289.1 24.8 L289 25 L289.1 25.1 L289.2 25.2Z"/><path class="m2s4" d="M291 25.3 L291.1 25 L291.1 23.9 L291 24.2Z"/><path class="el" d="M291.1 25L291.1 23.9M291 24.2 L291.1 23.9M291 25.3 L291.1 25"/><path class="m2s1" d="M288.2 25 L288.4 25.3 L288.4 24.2 L288.2 23.9Z"/><path class="el" d="M288.2 25L288.2 23.9M288.2 23.9 L288.4 24.2M288.2 25 L288.4 25.3"/><path class="m2s4" d="M290.7 25.5 L291 25.3 L291 24.2 L290.7 24.4Z"/><path class="el" d="M290.7 24.4 L291 24.2M290.7 25.5 L291 25.3"/><path class="m2s1" d="M288.4 25.3 L288.7 25.5 L288.7 24.4 L288.4 24.2Z"/><path class="el" d="M288.4 24.2 L288.7 24.4M288.4 25.3 L288.7 25.5"/><path class="m2s3" d="M290.3 25.7 L290.7 25.5 L290.7 24.4 L290.3 24.6Z"/><path class="el" d="M290.3 24.6 L290.7 24.4M290.3 25.7 L290.7 25.5"/><path class="m2s2" d="M288.7 25.5 L289.2 25.7 L289.2 24.6 L288.7 24.4Z"/><path class="el" d="M288.7 24.4 L289.2 24.6M288.7 25.5 L289.2 25.7"/><path class="m2s3" d="M289.7 25.7 L290.3 25.7 L290.3 24.6 L289.7 24.6Z"/><path class="el" d="M289.7 24.6 L290.3 24.6M289.7 25.7 L290.3 25.7"/><path class="m2s2" d="M289.2 25.7 L289.7 25.7 L289.7 24.6 L289.2 24.6Z"/><path class="el" d="M289.2 24.6 L289.7 24.6M289.2 25.7 L289.7 25.7"/><path class="m2" fill-rule="evenodd" d="M289.2 24.6 L289.7 24.6 L290.3 24.6 L290.7 24.4 L291 24.2 L291.1 23.9 L291 23.6 L290.7 23.4 L290.2 23.2 L289.6 23.2 L289.1 23.2 L288.6 23.4 L288.3 23.6 L288.2 23.9 L288.4 24.2 L288.7 24.4Z"/><path class="ws1 x" d="M206 28 L205.3 28.9 L294.9 46.1 L295.7 45.2Z"/><path class="ws2 x" d="M205 24.5 L205 30 L294.6 47.2 L294.6 41.7Z"/><path class="ws1 x" d="M206 23.1 L205 24.5 L294.6 41.7 L295.7 40.3Z"/><path class="ws4" fill-rule="evenodd" d="M294.6 47.2 L295.7 45.9 L295.7 45.2 L294.9 46.1 L294.9 42 L295.7 41 L295.7 40.3 L294.6 41.7Z"/><circle class="void" cx="46" cy="160" r="32"/><circle class="o" cx="46" cy="160" r="32"/><clipPath id="pw-gsb-l"><circle cx="46" cy="160" r="31"/></clipPath><g clip-path="url(#pw-gsb-l)"><path class="w2" fill-rule="evenodd" d="M12 162 L80 162 L80 171 L12 171Z"/><path class="hatch" d="M79.3 162L80 162.7M75 162L80 167M70.8 162L79.8 171M66.5 162L75.5 171M62.3 162L71.3 171M58.1 162L67.1 171M53.8 162L62.8 171M49.6 162L58.6 171M45.3 162L54.3 171M41.1 162L50.1 171M36.8 162L45.8 171M32.6 162L41.6 171M28.4 162L37.4 171M24.1 162L33.1 171M19.9 162L28.9 171M15.6 162L24.6 171M12 162.6L20.4 171M12 166.9L16.1 171"/><path class="w" fill-rule="evenodd" d="M31 154 L61 154 L61 162 L31 162Z"/><path class="hatch" d="M58.5 154L61 156.5M54.3 154L61 160.7M50.1 154L58.1 162M45.8 154L53.8 162M41.6 154L49.6 162M37.3 154L45.3 162M33.1 154L41.1 162M31 156.2L36.8 162M31 160.4L32.6 162"/><path class="d" d="M31 162 l4 0 l-4 -4 Z M61 162 l-4 0 l4 -4 Z"/><line class="done" x1="31" y1="154" x2="61" y2="154"/><rect class="bg" x="40" y="154" width="3.4" height="17"/><rect class="bg" x="49" y="154" width="3.4" height="17"/><path class="laserl" d="M18 154L74 154"/></g><circle class="o" cx="46" cy="160" r="32"/><circle class="o thin" cx="46" cy="160" r="33.6"/></svg>