<svg xmlns="http://www.w3.org/2000/svg" class="ilu " viewBox="0 0 320 200"><style>:root{--il-line:#252B31;--il-edge:rgba(18,22,27,.5);--il-m1:#F1F3F5;--il-m2:#C9CFD5;--il-m3:#4A5159;--il-w1:#DCE1E6;--il-w2:#B4BCC4;--il-w3:#8A949E;--il-t:#D8BE84;--il-h1:#FFC98A;--il-hot:#E4602A;--il-f:#BFE1F0;--il-fl:#2B8BBE;--il-rb:#2A2E33;--il-yel:#E7C267;--il-pcb:#2D6A4E;--il-sand:#D9CCB2;--il-gw:#E6E0D5;--il-rb2:#3A3F45;--il-gl:#CFE5F1;--il-cu:#D08652;--il-bg:#2A2F35;--il-sh:rgba(10,14,18,.16);--il-cr:#E8EBEE;--il-sec0:#FFFFFF}@media (prefers-color-scheme:dark){:root:not([data-theme="light"]){--il-line:#C7CFD6;--il-edge:rgba(0,0,0,.55);--il-bg:#0C0E10;--il-sh:rgba(0,0,0,.5);--il-cr:#2A2F35;--il-sec0:#0E1012;--il-f:#1C4A5E;--il-fl:#6CC4EC;--il-h1:#8A3E1C;--il-hot:#FF8A50;--il-gl:#27445A}}:root[data-theme="dark"]{--il-line:#C7CFD6;--il-edge:rgba(0,0,0,.55);--il-bg:#0C0E10;--il-sh:rgba(0,0,0,.5);--il-cr:#2A2F35;--il-sec0:#0E1012;--il-f:#1C4A5E;--il-fl:#6CC4EC;--il-h1:#8A3E1C;--il-hot:#FF8A50;--il-gl:#27445A}.ilu{display:block;width:100%;height:auto;stroke-width:.85;stroke-linejoin:round;stroke-linecap:round;overflow:hidden}.ilu .o{fill:none;stroke:var(--il-line)}.ilu .thin{stroke-width:.8;opacity:.7}.ilu .dash{stroke-dasharray:4 3}.ilu .m{fill:var(--il-m1);stroke:var(--il-line)}.ilu .m2{fill:var(--il-m2);stroke:var(--il-line)}.ilu .m3{fill:var(--il-m3);stroke:var(--il-line)}.ilu .w{fill:var(--il-w1);stroke:var(--il-line)}.ilu .w2{fill:var(--il-w2);stroke:var(--il-line)}.ilu .w3{fill:var(--il-w3);stroke:var(--il-line)}.ilu .t{fill:var(--il-t);stroke:var(--il-line)}.ilu .h{fill:var(--il-h1);stroke:var(--il-hot)}.ilu .hl{fill:none;stroke:var(--il-hot);stroke-width:1.5}.ilu .fl{fill:var(--il-f);stroke:var(--il-fl)}.ilu .fo{fill:none;stroke:var(--il-fl);stroke-width:1.2}.ilu .fdot{fill:var(--il-fl);stroke:none}.ilu .a{fill:none;stroke:var(--accent);stroke-width:1.8}.ilu .af{fill:var(--accent);stroke:none}.ilu .sh{fill:var(--il-sh);stroke:none}.ilu .bg{fill:var(--il-bg);stroke:var(--il-line)}.ilu .bgline{stroke:var(--il-bg);stroke-width:2}.ilu .rb{fill:var(--il-rb);stroke:var(--il-line)}.ilu .rb2{fill:var(--il-rb2);stroke:var(--il-line)}.ilu .rbline{fill:none;stroke:var(--il-bg);stroke-width:1.2}.ilu .gl{fill:var(--il-gl);stroke:var(--il-line);fill-opacity:.9}.ilu .gl2{fill:var(--il-gl);stroke:var(--il-line)}.ilu .cu{fill:var(--il-cu);stroke:var(--il-line)}.ilu .cuwire{fill:none;stroke:var(--il-cu);stroke-width:3}.ilu .cr{fill:var(--il-cr);stroke:var(--il-line)}.ilu .ball{fill:var(--il-cr);stroke:var(--il-line)}.ilu .wire{fill:none;stroke:var(--il-w3);stroke-width:7}.ilu .arm{fill:none;stroke:var(--il-m3);stroke-width:10}.ilu .arm2{fill:none;stroke:var(--il-m3);stroke-width:7}.ilu .cable{fill:none;stroke:var(--il-rb);stroke-width:4}.ilu .cable3{fill:none;stroke:var(--il-rb);stroke-width:8}.ilu .belt{fill:none;stroke:var(--il-rb);stroke-width:3}.ilu .chan{fill:none;stroke:var(--il-bg);stroke-width:4}.ilu .tube1{fill:none;stroke:var(--il-line);stroke-width:10}.ilu .tube2{fill:none;stroke:var(--il-w1);stroke-width:7}.ilu .web{fill:none;stroke:var(--il-rb2);stroke-width:12}.ilu .led{fill:none;stroke:var(--il-t);stroke-width:5}.ilu .frit{fill:none;stroke:var(--il-rb);stroke-width:7;stroke-opacity:.85}.ilu .zig{fill:none;stroke:var(--il-m3);stroke-width:3}.ilu .gridl{stroke:var(--il-cr);stroke-width:2}.ilu .fin{stroke:var(--il-w3);stroke-width:.8}.ilu .d{fill:var(--il-line);stroke:none}.ilu text{fill:var(--ink2);stroke:none;font:500 11px var(--f-body);letter-spacing:.02em}.ilu text.al{fill:var(--accent);font-weight:600}.ilu text.sm{font-size:9.5px;fill:var(--muted)}.ilu .gw,.ilu .gwr{fill:var(--il-gw);stroke:var(--il-line)}.ilu .grit{fill:none;stroke:var(--il-line);stroke-dasharray:1 3;opacity:.6}.ilu .gline{stroke:var(--il-line);stroke-width:.8;opacity:.6}.ilu .chip{fill:none;stroke:var(--il-w3);stroke-width:1.8}.ilu .grain{fill:var(--il-line);opacity:.45;stroke:none}.ilu .bub{fill:none;stroke:var(--il-fl)}.ilu .tankw{fill:none;stroke:var(--il-line);stroke-width:2.2}.ilu .hotin{fill:var(--il-h1);stroke:none;opacity:.6}.ilu .warmin{fill:var(--il-h1);stroke:none;opacity:.3}.ilu .coolin{fill:var(--il-f);stroke:none;opacity:.7}.ilu .bolt{fill:var(--il-yel);stroke:var(--il-line)}.ilu .bg2{fill:var(--il-m1);stroke:var(--il-line)}.ilu .beam{stroke:var(--il-hot);stroke-width:3;fill:none}.ilu .kerf{stroke:var(--il-bg);stroke-width:2.5;fill:none}.ilu .bgline2{stroke:var(--il-bg);stroke-width:7;fill:none}.ilu .jet{stroke:var(--il-fl);stroke-width:3;stroke-dasharray:6 3;fill:none}.ilu .jet2{stroke:var(--il-fl);stroke-width:4;fill:none}.ilu .hatch{stroke:var(--il-w3);stroke-width:.8}.ilu .pour{fill:none;stroke:var(--il-hot);stroke-width:6}.ilu .shell{fill:var(--il-m1);stroke:var(--il-line)}.ilu .sand,.ilu .board{fill:var(--il-sand);stroke:var(--il-line)}.ilu .gridbar{stroke:var(--il-m3);stroke-width:6;fill:none}.ilu .shot,.ilu .pwd{fill:var(--il-m3);stroke:none}.ilu .coilcu{fill:none;stroke:var(--il-cu);stroke-width:3.2}.ilu .wire2{fill:none;stroke:var(--il-w3);stroke-width:4}.ilu .strip{fill:none;stroke:var(--il-w2);stroke-width:5}.ilu rect.strip{fill:var(--il-w2);stroke:var(--il-line);stroke-width:1.3}.ilu .sheet{fill:none;stroke:var(--il-w3);stroke-width:5}.ilu .sheet2{fill:var(--il-w2);stroke:var(--il-line)}.ilu .hotsheet{fill:none;stroke:var(--il-hot);stroke-width:5}.ilu .mesh{fill:var(--il-m1);stroke:var(--il-line);stroke-dasharray:2 2}.ilu .paste{fill:none;stroke:var(--il-m3);stroke-width:5}.ilu .lens{fill:var(--il-gl);stroke:var(--il-line)}.ilu .uv{stroke:var(--accent);stroke-dasharray:4 3;fill:none}.ilu .basket{fill:none;stroke:var(--il-line);stroke-dasharray:3 2}.ilu .bead{fill:none;stroke:var(--il-w3);stroke-width:5}.ilu .bead2,.ilu .bead3{fill:none;stroke:var(--il-m3);stroke-width:6}.ilu .ebeam{stroke:var(--accent);stroke-width:3;stroke-dasharray:2 2;fill:none}.ilu .foil{stroke:var(--il-cu);stroke-width:2}.ilu .hplate{fill:var(--il-h1);stroke:var(--il-hot)}.ilu .crack{fill:none;stroke:var(--il-hot);stroke-width:2.2}.ilu .resin{fill:var(--il-h1);stroke:var(--il-line)}.ilu .screw{stroke:var(--il-m3);stroke-width:6;fill:none}.ilu .parison{fill:var(--il-w1);stroke:var(--il-line)}.ilu .rbx{fill:var(--il-rb);stroke:var(--il-line)}.ilu .rbstrip{fill:none;stroke:var(--il-rb);stroke-width:8}.ilu .uvwave{fill:none;stroke:var(--il-hot)}.ilu .cordl{stroke:var(--il-cu)}.ilu .beadw{fill:none;stroke:var(--il-w3);stroke-width:6}.ilu .pourf{fill:none;stroke:var(--il-w2);stroke-width:6}.ilu .foamf,.ilu .padm{fill:var(--il-w2);stroke:var(--il-line)}.ilu .skin{fill:none;stroke:var(--il-w3);stroke-width:4}.ilu .chipd{fill:var(--il-rb);stroke:var(--il-line)}.ilu .glp{fill:var(--il-gl);stroke:var(--il-line)}.ilu .glsheet{fill:none;stroke:var(--il-fl);stroke-width:4}.ilu .rail{fill:none;stroke:var(--il-m3);stroke-width:5}.ilu .needle{stroke:var(--il-line);stroke-width:2}.ilu .stitch{fill:none;stroke:var(--accent);stroke-dasharray:4 3;stroke-width:1.6}.ilu .thread{stroke:var(--il-w2);stroke-width:2.2}.ilu .thread2{stroke:var(--il-hot);stroke-width:2.2}.ilu .slurry,.ilu .slurryp{fill:var(--il-rb2);stroke:var(--il-line)}.ilu .foilstrip{fill:none;stroke:var(--il-cu);stroke-width:3}.ilu .slurryl{fill:none;stroke:var(--il-rb2);stroke-width:5}.ilu .slurryl2{fill:none;stroke:var(--il-rb2);stroke-width:9}.ilu .windl0{fill:none;stroke:var(--il-cu);stroke-width:3}.ilu .windl1{fill:none;stroke:var(--il-m1);stroke-width:3}.ilu .windl2{fill:none;stroke:var(--il-rb2);stroke-width:3}.ilu .cuwire2{fill:none;stroke:var(--il-cu);stroke-width:6}.ilu .pcb,.ilu .okl{fill:var(--il-pcb);stroke:var(--il-line)}.ilu .wafer{fill:var(--il-m2);stroke:var(--il-line)}.ilu .wirebond{fill:none;stroke:var(--il-cu);stroke-width:1.6}.ilu .fringe{stroke:var(--accent);opacity:.7}.ilu .ring{fill:var(--il-t);stroke:var(--il-line)}.ilu .laserl{stroke:var(--il-hot);stroke-width:1.4;stroke-dasharray:5 3;fill:none}.ilu .zebra,.ilu .filt{fill:var(--il-cr);stroke:var(--il-line)}.ilu .ray{stroke:var(--accent);stroke-dasharray:4 3;fill:none}.ilu .wave{fill:none;stroke:var(--accent)}.ilu .yoke{fill:none;stroke:var(--il-m3);stroke-width:10}.ilu .indic{stroke:var(--accent);stroke-width:3;fill:none}.ilu .he{fill:var(--accent);opacity:.6;stroke:none}.ilu .beamf{fill:var(--il-yel);opacity:.55;stroke:none}.ilu .loc{fill:var(--il-line);stroke:none}.ilu .clampl{stroke:var(--il-hot);stroke-width:2.4}.ilu .clamph{fill:var(--il-hot);stroke:none}.ilu .leadd{fill:var(--ink2);stroke:none}.ilu .leadl{stroke:var(--ink2);stroke-width:.8;opacity:.8}.ilu .bal{fill:var(--surface);stroke:var(--accent);stroke-width:1.4}.ilu text.balt{fill:var(--accent);font-weight:700;font-size:10.5px}.ilu text.tol{fill:var(--ink2);font-size:10.5px}.ilu text.ttl{fill:var(--ink);font-weight:600;font-size:12px}.ilu .cl{stroke:var(--il-line);stroke-dasharray:14 3 2 3;stroke-width:.8;opacity:.7}.ilu .hid{fill:none;stroke:var(--il-line);stroke-dasharray:5 3;stroke-width:.9;opacity:.8}.ilu .mf{fill:none;stroke:var(--accent);stroke-width:4;stroke-linecap:round}.ilu .mfa{fill:var(--il-t);stroke:var(--accent);stroke-width:2}.ilu .rgh{fill:var(--il-w3);stroke:none}.ilu .done{stroke:var(--il-line);stroke-width:2.6;fill:none}.ilu .cut{fill:var(--il-w2);stroke:var(--il-line)}.ilu .ins{fill:var(--il-yel);stroke:var(--il-line)}.ilu .cool{stroke:var(--il-fl);stroke-dasharray:3 3}.ilu .cutl{stroke:var(--accent);stroke-width:2.4;stroke-dasharray:5 3}.ilu .poro{fill:var(--il-hot);stroke:none}.ilu .mfring{fill:none;stroke:var(--il-hot);stroke-width:1.5;stroke-dasharray:3 2}.ilu .xim{fill:#1D242B;stroke:var(--il-line)}.ilu .ximd{fill:#FFFFFF;stroke:none}.ilu .coat{fill:none;stroke:var(--il-hot);stroke-width:5}.ilu .hatchx{stroke:var(--accent);stroke-width:.8;opacity:.8}.ilu .jetl{fill:none;stroke:var(--il-fl);stroke-width:4;stroke-dasharray:8 4}.ilu .pres{fill:none;stroke:var(--il-fl);stroke-width:4.5}.ilu .tbg{fill:var(--surface);stroke:none;opacity:.94}.ilu .tbl{stroke:var(--line);stroke-width:1}.ilu .void{fill:var(--il-sec0);stroke:var(--il-line)}.ilu .hotband{fill:var(--il-hot);opacity:.35;stroke:none}.ilu .flash{fill:var(--il-hot);opacity:.25;stroke:var(--il-hot)}.ilu .cutframe{fill:none;stroke:var(--accent);stroke-width:2.2;stroke-dasharray:5 3}.ilu .orbit{fill:none;stroke:var(--accent);stroke-dasharray:3 3}.ilu .hotarc{fill:none;stroke:var(--il-hot);stroke-width:6;opacity:.8}.ilu .mfo{fill:none;stroke:var(--accent);stroke-width:2.4}.ilu .stem{stroke:var(--il-m3);stroke-width:5}.ilu .hotgrp .w,.ilu .hotgrp .w2,.ilu .hotgrp .w3,.ilu .hotgrp .rb,.ilu .hotgrp .m{fill:var(--il-h1);stroke:var(--il-hot)}:root{--il-ws1-old:#ECD9B4;--il-ws2:#DEC38F;--il-ws3:#C9A86F;--il-ws4:#AB8A55;--il-ts1:#BCC8F4;--il-ts2:#A5B3EA;--il-ts3:#8C9ADA;--il-ts4:#7382C6;--il-gs1:#B3BDE2;--il-gs2:#9CA7D0;--il-gs3:#8591BC;--il-gs4:#6E7AA5;--il-ms1:#D9E1DC;--il-ms2:#C2CDC6;--il-ms3:#A7B4AC;--il-ms4:#8B9990;--il-hs1:#F6B592;--il-hs2:#EE9B72;--il-hs3:#DF7C52;--il-hs4:#C9613A}.ilu .el{fill:none;stroke:var(--il-line);stroke-width:.75;stroke-linejoin:round}.ilu .ws1{fill:var(--il-ws1);stroke:var(--il-ws1);stroke-width:.5}.ilu .ws2{fill:var(--il-ws2);stroke:var(--il-ws2);stroke-width:.5}.ilu .ws3{fill:var(--il-ws3);stroke:var(--il-ws3);stroke-width:.5}.ilu .ws4{fill:var(--il-ws4);stroke:var(--il-ws4);stroke-width:.5}.ilu .ts1{fill:var(--il-ts1);stroke:var(--il-ts1);stroke-width:.5}.ilu .ts2{fill:var(--il-ts2);stroke:var(--il-ts2);stroke-width:.5}.ilu .ts3{fill:var(--il-ts3);stroke:var(--il-ts3);stroke-width:.5}.ilu .ts4{fill:var(--il-ts4);stroke:var(--il-ts4);stroke-width:.5}.ilu .gws1{fill:var(--il-gs1);stroke:var(--il-gs1);stroke-width:.5}.ilu .gws2{fill:var(--il-gs2);stroke:var(--il-gs2);stroke-width:.5}.ilu .gws3{fill:var(--il-gs3);stroke:var(--il-gs3);stroke-width:.5}.ilu .gws4{fill:var(--il-gs4);stroke:var(--il-gs4);stroke-width:.5}.ilu .ms1{fill:var(--il-ms1);stroke:var(--il-ms1);stroke-width:.5}.ilu .ms2{fill:var(--il-ms2);stroke:var(--il-ms2);stroke-width:.5}.ilu .ms3{fill:var(--il-ms3);stroke:var(--il-ms3);stroke-width:.5}.ilu .ms4{fill:var(--il-ms4);stroke:var(--il-ms4);stroke-width:.5}.ilu .hs1{fill:var(--il-hs1);stroke:var(--il-hs1);stroke-width:.5}.ilu .hs2{fill:var(--il-hs2);stroke:var(--il-hs2);stroke-width:.5}.ilu .hs3{fill:var(--il-hs3);stroke:var(--il-hs3);stroke-width:.5}.ilu .hs4{fill:var(--il-hs4);stroke:var(--il-hs4);stroke-width:.5}.ilu .gw{fill:var(--il-gw);stroke:var(--il-line)}.ilu .grit2{fill:none;stroke:var(--il-line);stroke-width:1.1;opacity:.35;stroke-linecap:round}.ilu .mfe{fill:none;stroke:var(--accent);stroke-width:1.8;stroke-linejoin:round}.ilu .chbd{fill:none;stroke:var(--il-t);stroke-width:4.5;stroke-linejoin:round;opacity:.9}.ilu .probe{fill:none;stroke:var(--il-m3);stroke-width:3.2;stroke-linecap:round;stroke-linejoin:round}.ilu .x{stroke:var(--il-line);stroke-width:.7}.ilu .gr{fill:none;stroke:var(--il-line);stroke-width:.5;opacity:.55}.ilu .m,.ilu .m2,.ilu .m3,.ilu .w,.ilu .w2,.ilu .w3,.ilu .t,.ilu .gw,.ilu .gwr,.ilu .bg,.ilu .cu,.ilu .alu,.ilu .shell,.ilu .bg2,.ilu .cr,.ilu .ball,.ilu .cut,.ilu .ring,.ilu .rb,.ilu .rb2,.ilu .rbx,.ilu .chipd{stroke:var(--il-edge)}.ilu .w{fill:url(#g-st)}.ilu .w2{fill:url(#g-st2)}.ilu .w3{fill:url(#g-st3)}.ilu.mt-al .w{fill:url(#g-al)}.ilu.mt-al .w2{fill:url(#g-al2)}.ilu.mt-al .w3{fill:url(#g-al3)}.ilu.mt-fe .w{fill:url(#g-fe)}.ilu.mt-fe .w2{fill:url(#g-fe2)}.ilu.mt-fe .w3{fill:url(#g-fe3)}.ilu.mt-pl .w{fill:url(#g-pl)}.ilu.mt-pl .w2{fill:url(#g-pl2)}.ilu.mt-pl .w3{fill:url(#g-pl3)}.ilu.mt-cu .w{fill:url(#g-cu)}.ilu.mt-cu .w2{fill:url(#g-cu2)}.ilu.mt-cu .w3{fill:url(#g-cu3)}.ilu .alu{fill:url(#g-al)}.ilu .cu{fill:url(#g-cu)}.ilu .m{fill:url(#g-m)}.ilu .m2{fill:url(#g-m2)}.ilu .m3{fill:url(#g-m3)}.ilu .shell,.ilu .bg2{fill:url(#g-m)}.ilu .t,.ilu .ring{fill:url(#g-t)}.ilu .gw,.ilu .gwr{fill:url(#g-gw)}.ilu .bg{fill:url(#g-bg)}.ilu .h,.ilu .hplate{fill:url(#g-hot);stroke:var(--il-hot)}.ilu .sh{fill:url(#g-sh)}.ilu .cut{fill:url(#p-cut)}.ilu .ball,.ilu .cr{fill:url(#g-ball)}.ilu .rb,.ilu .rbx,.ilu .chipd{fill:url(#g-rb)}.ilu .fl{fill:var(--il-f);fill-opacity:.7}.ilu .gl,.ilu .gl2,.ilu .glp,.ilu .lens{fill:var(--il-gl);fill-opacity:.55}.ilu .void{fill:var(--il-sec0)}:root{--ws1:#F2F4F6;--ws2:#CAD1D8;--ws3:#9FA8B1;--ws4:#77818B;--al1:#F8F8F6;--al2:#DADBD8;--al3:#B5B7B4;--al4:#8F918E;--fe1:#B8BDC2;--fe2:#8E949A;--fe3:#6B7177;--fe4:#4F555B;--pl1:#62666C;--pl2:#44484D;--pl3:#2F3236;--pl4:#1F2124;--cu1:#F6CDA8;--cu2:#DE9D6B;--cu3:#B97540;--cu4:#8A5229;--ts1:#F7E9C4;--ts2:#E3C98E;--ts3:#C1A060;--ts4:#957842;--gs1:#F5F2EC;--gs2:#DED8CD;--gs3:#C0B8A9;--gs4:#9D9485;--ms1:#F3F5F7;--ms2:#D4D9DE;--ms3:#ABB2B9;--ms4:#80888F;--hs1:#FFDCA4;--hs2:#FFB46B;--hs3:#F2853F;--hs4:#CF622B}.ilu .ws1{fill:var(--ws1);stroke:var(--ws1)}.ilu .ws2{fill:var(--ws2);stroke:var(--ws2)}.ilu .ws3{fill:var(--ws3);stroke:var(--ws3)}.ilu .ws4{fill:var(--ws4);stroke:var(--ws4)}.ilu.mt-al .ws1,.ilu .als1{fill:var(--al1);stroke:var(--al1)}.ilu.mt-al .ws2,.ilu .als2{fill:var(--al2);stroke:var(--al2)}.ilu.mt-al .ws3,.ilu .als3{fill:var(--al3);stroke:var(--al3)}.ilu.mt-al .ws4,.ilu .als4{fill:var(--al4);stroke:var(--al4)}.ilu.mt-fe .ws1{fill:var(--fe1);stroke:var(--fe1)}.ilu.mt-fe .ws2{fill:var(--fe2);stroke:var(--fe2)}.ilu.mt-fe .ws3{fill:var(--fe3);stroke:var(--fe3)}.ilu.mt-fe .ws4{fill:var(--fe4);stroke:var(--fe4)}.ilu.mt-pl .ws1{fill:var(--pl1);stroke:var(--pl1)}.ilu.mt-pl .ws2{fill:var(--pl2);stroke:var(--pl2)}.ilu.mt-pl .ws3{fill:var(--pl3);stroke:var(--pl3)}.ilu.mt-pl .ws4{fill:var(--pl4);stroke:var(--pl4)}.ilu .cus1{fill:var(--cu1);stroke:var(--cu1)}.ilu .cus2{fill:var(--cu2);stroke:var(--cu2)}.ilu .cus3{fill:var(--cu3);stroke:var(--cu3)}.ilu .cus4{fill:var(--cu4);stroke:var(--cu4)}.ilu .ts1{fill:var(--ts1);stroke:var(--ts1)}.ilu .ts2{fill:var(--ts2);stroke:var(--ts2)}.ilu .ts3{fill:var(--ts3);stroke:var(--ts3)}.ilu .ts4{fill:var(--ts4);stroke:var(--ts4)}.ilu .gws1{fill:var(--gs1);stroke:var(--gs1)}.ilu .gws2{fill:var(--gs2);stroke:var(--gs2)}.ilu .gws3{fill:var(--gs3);stroke:var(--gs3)}.ilu .gws4{fill:var(--gs4);stroke:var(--gs4)}.ilu .ms1{fill:var(--ms1);stroke:var(--ms1)}.ilu .ms2{fill:var(--ms2);stroke:var(--ms2)}.ilu .ms3{fill:var(--ms3);stroke:var(--ms3)}.ilu .ms4{fill:var(--ms4);stroke:var(--ms4)}.ilu .hs1{fill:var(--hs1);stroke:var(--hs1)}.ilu .hs2{fill:var(--hs2);stroke:var(--hs2)}.ilu .hs3{fill:var(--hs3);stroke:var(--hs3)}.ilu .hs4{fill:var(--hs4);stroke:var(--hs4)}.ilu .ws1,.ilu .ws2,.ilu .ws3,.ilu .ws4,.ilu .ts1,.ilu .ts2,.ilu .ts3,.ilu .ts4,.ilu .gws1,.ilu .gws2,.ilu .gws3,.ilu .gws4,.ilu .ms1,.ilu .ms2,.ilu .ms3,.ilu .ms4,.ilu .hs1,.ilu .hs2,.ilu .hs3,.ilu .hs4,.ilu .als1,.ilu .als2,.ilu .als3,.ilu .als4,.ilu .cus1,.ilu .cus2,.ilu .cus3,.ilu .cus4{stroke-width:.5}.ilu .alus1{fill:var(--al1);stroke:var(--al1)}.ilu .alus2{fill:var(--al2);stroke:var(--al2)}.ilu .alus3{fill:var(--al3);stroke:var(--al3)}.ilu .alus4{fill:var(--al4);stroke:var(--al4)}.ilu .alus1,.ilu .alus2,.ilu .alus3,.ilu .alus4{stroke-width:.5}.ilu .x{stroke:var(--il-edge);stroke-width:.55}.ilu .el{stroke:var(--il-edge);stroke-width:.6}.ilu .gr{stroke:var(--il-edge);stroke-width:.45;opacity:.6}.ilu .grit2{stroke:#6B6357;opacity:.35}.ilu .wire{stroke:#B97540}.ilu .wire2,.ilu .skin,.ilu .sheet,.ilu .bead,.ilu .beadw{stroke:#9AA3AC}.ilu .hatch{stroke:var(--il-edge)}.ilu .strip{stroke:#B4BCC4}.ilu rect.strip{fill:url(#g-st2)}.ilu .sheet2{fill:url(#g-st2)}.ilu .parison,.ilu .foamf,.ilu .padm{fill:url(#g-pl)}.ilu .chip{stroke:#C1A060}.ilu .rgh{fill:#9FA8B1}.ilu .hotgrp .w,.ilu .hotgrp .w2,.ilu .hotgrp .w3,.ilu .hotgrp .rb,.ilu .hotgrp .m{fill:url(#g-hot);stroke:var(--il-hot)}:root{--pt1:#F6F5F1;--pt2:#E1E0DA;--pt3:#C3C2BB;--pt4:#9E9D96;--dk1:#6C727A;--dk2:#50555C;--dk3:#3B3F45;--dk4:#2A2D31}.ilu .pt{fill:url(#g-pt);stroke:var(--il-edge)}.ilu .dk{fill:url(#g-dk);stroke:var(--il-edge)}.ilu .pts1{fill:var(--pt1);stroke:var(--pt1)}.ilu .pts2{fill:var(--pt2);stroke:var(--pt2)}.ilu .pts3{fill:var(--pt3);stroke:var(--pt3)}.ilu .pts4{fill:var(--pt4);stroke:var(--pt4)}.ilu .dks1{fill:var(--dk1);stroke:var(--dk1)}.ilu .dks2{fill:var(--dk2);stroke:var(--dk2)}.ilu .dks3{fill:var(--dk3);stroke:var(--dk3)}.ilu .dks4{fill:var(--dk4);stroke:var(--dk4)}.ilu .pts1,.ilu .pts2,.ilu .pts3,.ilu .pts4,.ilu .dks1,.ilu .dks2,.ilu .dks3,.ilu .dks4{stroke-width:.5}.ilu .thread{fill:none;stroke:rgba(18,22,27,.35);stroke-width:.7}.ilu .wire{fill:none}.ilu .tslot{fill:none;stroke:rgba(18,22,27,.45);stroke-width:1.6}.ilu .mgrid{fill:none;stroke:rgba(255,255,255,.18);stroke-width:1}.ilu .hobt{fill:none;stroke:rgba(80,60,20,.55);stroke-width:1}.ilu .gwt{fill:none;stroke:rgba(110,95,70,.45);stroke-width:1}.ilu .spark{stroke:#FF8A3D;stroke-width:1.4;stroke-linecap:round}.ilu .kerf{fill:none;stroke:#3A3F46;stroke-width:1.6}.ilu path.wire{stroke:#B97540;stroke-width:1.4}.ilu .fl{fill:var(--il-fl);fill-opacity:.35}.ilu .fls1,.ilu .fls2,.ilu .fls3,.ilu .fls4{fill:var(--il-fl);fill-opacity:.25;stroke:none}.ilu .cutw{fill:#2B2F35;opacity:.85}.ilu .ball{fill:url(#g-ball);stroke:rgba(18,22,27,.45);stroke-width:.5}.ilu .scr{fill:none;stroke:rgba(18,22,27,.35);stroke-width:.8}.ilu .scrn{fill:#13232E;stroke:#0B0D10}.ilu .scrl{fill:#3FA7D6;opacity:.7}.ilu .scrg{fill:none;stroke:#7FD3A8;stroke-width:1.2}.ilu .key{fill:#2C3036;stroke:#6E757D;stroke-width:.6}.ilu .kbtn{fill:#E6E6E2;stroke:#555;stroke-width:.6}.ilu .mpg{fill:#2C3036;stroke:#9AA1A8}.ilu .mpg2{fill:#4A5058;stroke:#9AA1A8}.ilu .estop{fill:#D8332A;stroke:#F2C230;stroke-width:3}.ilu .knob{fill:#C9CDD2;stroke:#555}.ilu .pipe{fill:none;stroke:#7E8790;stroke-width:5;stroke-linejoin:round;stroke-linecap:round}.ilu .spray{stroke:#3F9FD1;stroke-width:1.4;opacity:.8}.ilu .chipc{fill:none;stroke:#B98A3E;stroke-width:1.6}.ilu .heatg{fill:#FF7A3D;opacity:.28}.ilu .heatg2{fill:#FF9A55;opacity:.18}.ilu .ghost{fill:none;stroke:#E4602A;stroke-width:1.4;stroke-dasharray:5 4}.ilu .sensor{fill:#2D5BFF;stroke:#fff;stroke-width:1.2}.ilu .win{fill:#1E2A33;opacity:.75;stroke:rgba(255,255,255,.4);stroke-width:.8}.ilu .fence{fill:none;stroke:#E8B931;stroke-width:3}.ilu .probeball{fill:#C8302A;stroke:#7A1A16;stroke-width:.6}text,.bal,.balt,.leadl,.leadd,.a,.af{display:none}svg{--accent:#2D5BFF;--ink2:#3A3A3F}@media (prefers-color-scheme:dark){svg{--accent:#86A0FF;--ink2:#D2D2D7}}</style><svg><defs>
<linearGradient id="g-st" x1="0" y1="0" x2=".3" y2="1"><stop offset="0" stop-color="#EEF1F4"/><stop offset=".16" stop-color="#FFFFFF"/><stop offset=".46" stop-color="#D3D9DF"/><stop offset=".84" stop-color="#9BA4AD"/><stop offset="1" stop-color="#BAC1C8"/></linearGradient>
<linearGradient id="g-st2" x1="0" y1="0" x2=".3" y2="1"><stop offset="0" stop-color="#D5DBE1"/><stop offset=".22" stop-color="#E2E6EA"/><stop offset=".6" stop-color="#A8B1BA"/><stop offset="1" stop-color="#8A949E"/></linearGradient>
<linearGradient id="g-st3" x1="0" y1="0" x2=".3" y2="1"><stop offset="0" stop-color="#A1AAB3"/><stop offset="1" stop-color="#6E7882"/></linearGradient>
<linearGradient id="g-al" x1="0" y1="0" x2=".3" y2="1"><stop offset="0" stop-color="#F6F6F4"/><stop offset=".15" stop-color="#FFFFFF"/><stop offset=".5" stop-color="#E2E3E0"/><stop offset=".86" stop-color="#B9BBB8"/><stop offset="1" stop-color="#D0D2CF"/></linearGradient>
<linearGradient id="g-al2" x1="0" y1="0" x2=".3" y2="1"><stop offset="0" stop-color="#E3E4E1"/><stop offset=".6" stop-color="#B8BAB7"/><stop offset="1" stop-color="#9EA09D"/></linearGradient>
<linearGradient id="g-al3" x1="0" y1="0" x2=".3" y2="1"><stop offset="0" stop-color="#A9ABA8"/><stop offset="1" stop-color="#7E807D"/></linearGradient>
<linearGradient id="g-fe" x1="0" y1="0" x2=".3" y2="1"><stop offset="0" stop-color="#B9BEC3"/><stop offset=".18" stop-color="#C9CDD1"/><stop offset=".55" stop-color="#8F959B"/><stop offset="1" stop-color="#6A7076"/></linearGradient>
<linearGradient id="g-fe2" x1="0" y1="0" x2=".3" y2="1"><stop offset="0" stop-color="#8E949A"/><stop offset="1" stop-color="#62686E"/></linearGradient>
<linearGradient id="g-fe3" x1="0" y1="0" x2=".3" y2="1"><stop offset="0" stop-color="#60666C"/><stop offset="1" stop-color="#43494F"/></linearGradient>
<linearGradient id="g-pl" x1="0" y1="0" x2=".3" y2="1"><stop offset="0" stop-color="#70747A"/><stop offset=".45" stop-color="#43474C"/><stop offset="1" stop-color="#26292C"/></linearGradient>
<linearGradient id="g-pl2" x1="0" y1="0" x2=".3" y2="1"><stop offset="0" stop-color="#4C5055"/><stop offset="1" stop-color="#2B2E32"/></linearGradient>
<linearGradient id="g-pl3" x1="0" y1="0" x2=".3" y2="1"><stop offset="0" stop-color="#35383C"/><stop offset="1" stop-color="#1C1E21"/></linearGradient>
<linearGradient id="g-cu" x1="0" y1="0" x2=".3" y2="1"><stop offset="0" stop-color="#FBDCC0"/><stop offset=".25" stop-color="#F2B687"/><stop offset=".7" stop-color="#C77F4E"/><stop offset="1" stop-color="#9B5B2F"/></linearGradient>
<linearGradient id="g-cu2" x1="0" y1="0" x2=".3" y2="1"><stop offset="0" stop-color="#DA9764"/><stop offset="1" stop-color="#9C5C30"/></linearGradient>
<linearGradient id="g-cu3" x1="0" y1="0" x2=".3" y2="1"><stop offset="0" stop-color="#A9693B"/><stop offset="1" stop-color="#6F3E1E"/></linearGradient>
<linearGradient id="g-pt" x1="0" y1="0" x2=".25" y2="1"><stop offset="0" stop-color="#FAFAF7"/><stop offset=".55" stop-color="#EDECE7"/><stop offset="1" stop-color="#D9D8D1"/></linearGradient>
<linearGradient id="g-dk" x1="0" y1="0" x2=".25" y2="1"><stop offset="0" stop-color="#6A7078"/><stop offset=".6" stop-color="#4A4F56"/><stop offset="1" stop-color="#35393E"/></linearGradient>
<linearGradient id="g-m" x1="0" y1="0" x2=".2" y2="1"><stop offset="0" stop-color="#FFFFFF"/><stop offset=".55" stop-color="#EEF0F2"/><stop offset="1" stop-color="#D5D9DD"/></linearGradient>
<linearGradient id="g-m2" x1="0" y1="0" x2=".2" y2="1"><stop offset="0" stop-color="#E1E5E9"/><stop offset="1" stop-color="#B5BBC1"/></linearGradient>
<linearGradient id="g-m3" x1="0" y1="0" x2=".2" y2="1"><stop offset="0" stop-color="#626970"/><stop offset=".5" stop-color="#3C4249"/><stop offset="1" stop-color="#2A2F35"/></linearGradient>
<linearGradient id="g-t" x1="0" y1="0" x2=".3" y2="1"><stop offset="0" stop-color="#F8EBC8"/><stop offset=".14" stop-color="#FFF7E3"/><stop offset=".48" stop-color="#E6CC92"/><stop offset=".86" stop-color="#BF9F62"/><stop offset="1" stop-color="#D3B97E"/></linearGradient>
<linearGradient id="g-gw" x1="0" y1="0" x2=".3" y2="1"><stop offset="0" stop-color="#F8F5F0"/><stop offset=".5" stop-color="#E4DED3"/><stop offset="1" stop-color="#C6BEAF"/></linearGradient>
<linearGradient id="g-bg" x1="0" y1="0" x2=".3" y2="1"><stop offset="0" stop-color="#3B4148"/><stop offset="1" stop-color="#16191C"/></linearGradient>
<linearGradient id="g-rb" x1="0" y1="0" x2=".3" y2="1"><stop offset="0" stop-color="#50545A"/><stop offset="1" stop-color="#1D1F22"/></linearGradient>
<linearGradient id="g-hot" x1="0" y1="0" x2=".3" y2="1"><stop offset="0" stop-color="#FFEAB5"/><stop offset=".45" stop-color="#FFB15A"/><stop offset="1" stop-color="#EE7430"/></linearGradient>
<radialGradient id="g-sh" cx=".5" cy=".5" r=".5"><stop offset="0" stop-color="#000" stop-opacity=".3"/><stop offset=".6" stop-color="#000" stop-opacity=".1"/><stop offset="1" stop-color="#000" stop-opacity="0"/></radialGradient>
<radialGradient id="g-ball" cx=".5" cy=".5" r=".55" fx=".34" fy=".3"><stop offset="0" stop-color="#FFFFFF"/><stop offset=".45" stop-color="#D6DCE1"/><stop offset="1" stop-color="#848E98"/></radialGradient>
<pattern id="p-cut" width="6" height="6" patternUnits="userSpaceOnUse" patternTransform="rotate(45)"><rect width="6" height="6" fill="#C9CFD5"/><line x1="0" y1="0" x2="0" y2="6" stroke="#7F8891" stroke-width="1.1"/></pattern>
</defs></svg>
<ellipse class="sh" cx="60" cy="188" rx="30" ry="3"/><ellipse class="sh" cx="272" cy="188" rx="26" ry="3"/><rect class="m" x="51" y="8" width="14" height="10" rx="2"/><path class="w" fill-rule="evenodd" d="M51 18 L46 18 L46 118 L51 118Z"/><path class="hatch" d="M46 19.3L47.3 18M46 23.3L51 18.3M46 27.3L51 22.3M46 31.2L51 26.2M46 35.2L51 30.2M46 39.1L51 34.1M46 43.1L51 38.1M46 47.1L51 42.1M46 51L51 46M46 55L51 50M46 58.9L51 53.9M46 62.9L51 57.9M46 66.9L51 61.9M46 70.8L51 65.8M46 74.8L51 69.8M46 78.7L51 73.7M46 82.7L51 77.7M46 86.7L51 81.7M46 90.6L51 85.6M46 94.6L51 89.6M46 98.5L51 93.5M46 102.5L51 97.5M46 106.5L51 101.5M46 110.4L51 105.4M46 114.4L51 109.4M46.3 118L51 113.3M50.3 118L51 117.3"/><path class="w" fill-rule="evenodd" d="M65 18 L70 18 L70 118 L65 118Z"/><path class="hatch" d="M67.5 18L70 20.5M65 19.5L70 24.5M65 23.4L70 28.4M65 27.4L70 32.4M65 31.3L70 36.3M65 35.3L70 40.3M65 39.3L70 44.3M65 43.2L70 48.2M65 47.2L70 52.2M65 51.1L70 56.1M65 55.1L70 60.1M65 59.1L70 64.1M65 63L70 68M65 67L70 72M65 70.9L70 75.9M65 74.9L70 79.9M65 78.9L70 83.9M65 82.8L70 87.8M65 86.8L70 91.8M65 90.7L70 95.7M65 94.7L70 99.7M65 98.7L70 103.7M65 102.6L70 107.6M65 106.6L70 111.6M65 110.5L70 115.5M65 114.5L68.5 118"/><path class="w" fill-rule="evenodd" d="M46 108 L70 108 L70 118 L46 118Z"/><path class="hatch" d="M66.4 108L70 111.6M62.5 108L70 115.5M58.5 108L68.5 118M54.5 108L64.5 118M50.6 108L60.6 118M46.6 108L56.6 118M46 111.3L52.7 118M46 115.3L48.7 118"/><rect class="m2" x="51" y="18" width="14" height="4"/><circle class="m" cx="53.5" cy="23.9" r="1.9"/><circle class="m" cx="62.5" cy="26" r="1.9"/><circle class="m" cx="53.5" cy="28.1" r="1.9"/><circle class="m" cx="62.5" cy="30.2" r="1.9"/><circle class="m" cx="53.5" cy="32.3" r="1.9"/><circle class="m" cx="62.5" cy="34.4" r="1.9"/><circle class="m" cx="53.5" cy="36.5" r="1.9"/><circle class="m" cx="62.5" cy="38.6" r="1.9"/><circle class="m" cx="53.5" cy="40.7" r="1.9"/><circle class="m" cx="62.5" cy="42.8" r="1.9"/><circle class="m" cx="53.5" cy="44.9" r="1.9"/><circle class="m" cx="62.5" cy="47" r="1.9"/><circle class="m" cx="53.5" cy="49.1" r="1.9"/><circle class="m" cx="62.5" cy="51.2" r="1.9"/><circle class="m" cx="53.5" cy="53.3" r="1.9"/><circle class="m" cx="62.5" cy="55.4" r="1.9"/><circle class="m" cx="53.5" cy="57.5" r="1.9"/><circle class="m" cx="62.5" cy="59.6" r="1.9"/><circle class="m" cx="53.5" cy="61.7" r="1.9"/><circle class="m" cx="62.5" cy="63.8" r="1.9"/><circle class="m" cx="53.5" cy="65.9" r="1.9"/><circle class="m" cx="62.5" cy="68" r="1.9"/><circle class="m" cx="53.5" cy="70.1" r="1.9"/><circle class="m" cx="62.5" cy="70.1" r="1.9"/><rect class="m2" x="52" y="74" width="12" height="4"/><rect class="m" x="55.6" y="78" width="4.8" height="30"/><rect class="m" x="70" y="34" width="14" height="10" rx="2"/><line class="fence" style="stroke-width:1.6" x1="67.5" y1="39" x2="67.5" y2="120"/><line class="fence" style="stroke-width:1.6" x1="70" y1="39" x2="67.5" y2="39"/><path class="fence" style="fill:none;stroke-width:2" d="M98 39 C96.3 39 90.2 39 88 39 C85.8 39 85.3 39 84.8 39"/><polygon class="bolt" points="82,39 86.3,36.5 86.3,41.5"/><path class="w" fill-rule="evenodd" d="M49.8 109.8 L45.8 109.8 L45.8 154.7 L48.8 162.9 L49.8 162.9Z"/><path class="hatch" d="M45.8 112.1L48 109.8M45.8 115.5L49.8 111.4M45.8 118.9L49.8 114.8M45.8 122.2L49.8 118.2M45.8 125.6L49.8 121.6M45.8 129L49.8 125M45.8 132.4L49.8 128.4M45.8 135.8L49.8 131.7M45.8 139.2L49.8 135.1M45.8 142.6L49.8 138.5M45.8 146L49.8 141.9M45.8 149.4L49.8 145.3M45.8 152.8L49.8 148.7M46.2 155.8L49.8 152.1M47.1 158.3L49.8 155.5M48 160.7L49.8 158.9M49.3 162.9L49.8 162.3"/><path class="w" fill-rule="evenodd" d="M53.7 118 L49.8 118 L49.8 162.9 L52.9 175.1 L54.5 181.2 L55.8 183.3 L55.8 173.1 L54.9 162.9 L53.7 148.6Z"/><path class="hatch" d="M51.5 118L53.7 120.2M49.8 119.1L53.7 123M49.8 122L53.7 125.8M49.8 124.8L53.7 128.7M49.8 127.6L53.7 131.5M49.8 130.5L53.7 134.3M49.8 133.3L53.7 137.2M49.8 136.1L53.7 140M49.8 138.9L53.7 142.8M49.8 141.8L53.7 145.6M49.8 144.6L53.7 148.5M49.8 147.4L54 151.5M49.8 150.2L54.2 154.6M49.8 153.1L54.5 157.7M49.8 155.9L54.8 160.8M49.8 158.7L55 163.9M49.8 161.6L55.3 167M50.3 164.9L55.5 170.1M51.3 168.7L55.8 173.1M52.2 172.4L55.8 176M53.2 176.2L55.8 178.8M54.2 180.1L55.8 181.6"/><path class="w" fill-rule="evenodd" d="M66.2 109.8 L70.2 109.8 L70.2 154.7 L67.2 162.9 L66.2 162.9Z"/><path class="hatch" d="M67.4 109.8L70.2 112.7M66.2 112L70.2 116.1M66.2 115.4L70.2 119.5M66.2 118.8L70.2 122.8M66.2 122.2L70.2 126.2M66.2 125.6L70.2 129.6M66.2 129L70.2 133M66.2 132.3L70.2 136.4M66.2 135.7L70.2 139.8M66.2 139.1L70.2 143.2M66.2 142.5L70.2 146.6M66.2 145.9L70.2 150M66.2 149.3L70.2 153.4M66.2 152.7L69.7 156.2M66.2 156.1L68.7 158.7M66.2 159.5L67.8 161.2"/><path class="w" fill-rule="evenodd" d="M62.3 118 L66.2 118 L66.2 162.9 L63.1 175.1 L61.5 181.2 L60.2 183.3 L60.2 173.1 L61.1 162.9 L62.3 148.6Z"/><path class="hatch" d="M62.3 120.1L64.4 118M62.3 123L66.2 119.1M62.3 125.8L66.2 121.9M62.3 128.6L66.2 124.8M62.3 131.5L66.2 127.6M62.3 134.3L66.2 130.4M62.3 137.1L66.2 133.2M62.3 139.9L66.2 136.1M62.3 142.8L66.2 138.9M62.3 145.6L66.2 141.7M62.3 148.4L66.2 144.6M62 151.5L66.2 147.4M61.8 154.6L66.2 150.2M61.5 157.7L66.2 153M61.2 160.8L66.2 155.9M61 163.9L66.2 158.7M60.7 167L66.2 161.5M60.5 170L65.7 164.8M60.2 173.1L64.7 168.6M60.2 175.9L63.8 172.4M60.2 178.8L62.8 176.2M60.2 181.6L61.8 180"/><path class="w" d="M55.8 173.1 L60.2 173.1 L60.2 181.2 L58 184.3 L55.8 181.2Z"/><path class="beamf" d="M53.7 140.4 L62.3 140.4 L62.3 146.6 L53.7 146.6Z"/><path class="beamf" d="M53.7 146.6 L62.3 146.6 L61.1 162.9 L60.2 173.1 L55.8 173.1 L54.9 162.9Z"/><path class="m" d="M53.9 118 L62.1 118 L62.1 140.4 L60.2 144.5 L60 169 L58 175.1 L56 169 L55.8 144.5 L53.9 140.4Z"/><path class="fence" style="stroke-width:1.6" d="M67.5 118 L62 146"/><line class="cl" x1="58" y1="4" x2="58" y2="187.3"/><line class="o thin dash" x1="121.8" y1="137.1" x2="58" y2="181.3"/><circle class="o" cx="58" cy="181.3" r="2.2"/><circle class="void" cx="158" cy="112" r="44"/><circle class="o" cx="158" cy="112" r="44"/><path class="w" fill-rule="evenodd" d="M188 79.9 L188 92 L180 114 L178.7 115.5 L177.1 119 L174.9 122.1 L172.1 124.9 L169 127.1 L165.5 128.7 L161.8 129.7 L158 130 L154.2 129.7 L150.5 128.7 L147 127.1 L143.9 124.9 L141.1 122.1 L138.9 119 L137.3 115.5 L136 114 L128 92 L128 79.9 L131.2 77.1 L136 73.9 L141.2 71.3 L146.6 69.5 L152.3 68.4 L158 68 L163.7 68.4 L169.4 69.5 L174.8 71.3 L180 73.9 L184.8 77.1Z"/><path class="hatch" d="M175.7 71.8L188 84.1M169.2 69.5L188 88.3M163.9 68.4L187.9 92.4M159.3 68.1L186.7 95.5M155.2 68.2L185.6 98.6M151.3 68.6L184.5 101.7M147.8 69.3L183.3 104.8M144.5 70.2L182.2 108M141.3 71.3L181.1 111.1M138.4 72.7L179.9 114.1M135.6 74.1L178.2 116.6M133.1 75.8L176.7 119.5M130.6 77.6L175 122M128.4 79.6L172.9 124.1M128 83.5L170.5 126M128 87.7L167.9 127.6M128 91.9L164.9 128.8M130.4 98.6L161.5 129.7M132.8 105.2L157.5 130M135.2 111.9L152.6 129.2M140.9 121.9L144.1 125.1"/><path class="beamf" d="M167 108 L166.7 110.3 L165.8 112.5 L164.4 114.4 L162.5 115.8 L160.3 116.7 L158 117 L155.7 116.7 L153.5 115.8 L151.6 114.4 L150.2 112.5 L149.3 110.3 L149 108 L149 82 L167 82Z"/><path class="o" d="M167 108 L166.7 110.3 L165.8 112.5 L164.4 114.4 L162.5 115.8 L160.3 116.7 L158 117 L155.7 116.7 L153.5 115.8 L151.6 114.4 L150.2 112.5 L149.3 110.3 L149 108 L149 82 L167 82Z"/><path class="m" d="M167 69 L167 82 L161 98 L155 98 L149 82 L149 69 L152.3 68.4 L158 68 L163.7 68.4Z"/><path class="beamf" d="M162.8 113.4 L175.9 122.6 L177.8 119.8 L164.7 110.6Z"/><circle class="beamf" cx="163.7" cy="112" r="2.4"/><path class="beamf" d="M176.8 121.2 L197.5 131.2 L196.1 134 L193.7 137.6Z"/><path class="beamf" d="M159.4 115.1 L166.2 129.6 L169.3 128.1 L162.5 113.6Z"/><circle class="beamf" cx="161" cy="114.3" r="2.4"/><path class="beamf" d="M167.7 128.8 L181.5 149.1 L180 150.1 L174.8 152.7 L174.5 152.8Z"/><path class="beamf" d="M156.3 115 L156.3 131 L159.7 131 L159.7 115Z"/><circle class="beamf" cx="158" cy="115" r="2.4"/><path class="beamf" d="M158 131 L162 155.7 L158 156 L154 155.7Z"/><path class="beamf" d="M153.5 113.6 L146.7 128.1 L149.8 129.6 L156.6 115.1Z"/><circle class="beamf" cx="155" cy="114.3" r="2.4"/><path class="beamf" d="M148.3 128.8 L141.5 152.8 L141.2 152.7 L136 150.1 L134.5 149.1Z"/><path class="beamf" d="M151.3 110.6 L138.2 119.8 L140.1 122.6 L153.2 113.4Z"/><circle class="beamf" cx="152.3" cy="112" r="2.4"/><path class="beamf" d="M139.2 121.2 L122.3 137.6 L119.9 134 L118.5 131.2Z"/><circle class="o" cx="158" cy="112" r="44"/><circle class="o thin" cx="158" cy="112" r="45.6"/><rect class="pcb" x="263" y="10" width="18" height="9" rx="2"/><rect class="cu" x="267" y="6" width="3" height="5"/><rect class="cu" x="274" y="6" width="3" height="5"/><path class="w" fill-rule="evenodd" d="M263 19 L257 19 L257 118 L263 118Z"/><path class="hatch" d="M257 22.2L260.2 19M257 26.1L263 20.1M257 30.1L263 24.1M257 34L263 28M257 38L263 32M257 42L263 36M257 45.9L263 39.9M257 49.9L263 43.9M257 53.8L263 47.8M257 57.8L263 51.8M257 61.8L263 55.8M257 65.7L263 59.7M257 69.7L263 63.7M257 73.6L263 67.6M257 77.6L263 71.6M257 81.6L263 75.6M257 85.5L263 79.5M257 89.5L263 83.5M257 93.4L263 87.4M257 97.4L263 91.4M257 101.4L263 95.4M257 105.3L263 99.3M257 109.3L263 103.3M257 113.2L263 107.2M257 117.2L263 111.2M260.2 118L263 115.2"/><path class="w" fill-rule="evenodd" d="M281 19 L287 19 L287 118 L281 118Z"/><path class="hatch" d="M286.3 19L287 19.7M282.3 19L287 23.7M281 21.6L287 27.6M281 25.6L287 31.6M281 29.6L287 35.6M281 33.5L287 39.5M281 37.5L287 43.5M281 41.4L287 47.4M281 45.4L287 51.4M281 49.4L287 55.4M281 53.3L287 59.3M281 57.3L287 63.3M281 61.2L287 67.2M281 65.2L287 71.2M281 69.2L287 75.2M281 73.1L287 79.1M281 77.1L287 83.1M281 81L287 87M281 85L287 91M281 88.9L287 94.9M281 92.9L287 98.9M281 96.9L287 102.9M281 100.8L287 106.8M281 104.8L287 110.8M281 108.7L287 114.7M281 112.7L286.3 118M281 116.7L282.3 118"/><rect class="cu" x="263" y="22" width="6" height="18"/><rect class="cu" x="275" y="22" width="6" height="18"/><rect class="m2" x="269" y="20" width="6" height="22"/><rect class="m" x="264" y="42" width="16" height="4"/><circle class="ball" cx="272" cy="50" r="2.6"/><rect class="beamf" x="263" y="54" width="18" height="6"/><rect class="o" x="263" y="54" width="18" height="6"/><rect class="m" x="269.6" y="60" width="4.8" height="58"/><circle class="m" cx="267" cy="65.7" r="1.7"/><circle class="m" cx="277" cy="67.7" r="1.7"/><circle class="m" cx="267" cy="69.7" r="1.7"/><circle class="m" cx="277" cy="71.7" r="1.7"/><circle class="m" cx="267" cy="73.7" r="1.7"/><circle class="m" cx="277" cy="75.7" r="1.7"/><circle class="m" cx="267" cy="77.7" r="1.7"/><circle class="m" cx="277" cy="79.7" r="1.7"/><circle class="m" cx="267" cy="81.7" r="1.7"/><circle class="m" cx="277" cy="83.7" r="1.7"/><circle class="m" cx="267" cy="85.7" r="1.7"/><circle class="m" cx="277" cy="87.7" r="1.7"/><circle class="m" cx="267" cy="89.7" r="1.7"/><circle class="m" cx="277" cy="91.7" r="1.7"/><circle class="m" cx="267" cy="93.7" r="1.7"/><circle class="m" cx="277" cy="95.7" r="1.7"/><circle class="m" cx="267" cy="97.7" r="1.7"/><circle class="m" cx="277" cy="97.7" r="1.7"/><rect class="m" x="287" y="74" width="12" height="9" rx="2"/><path class="fence" style="stroke-width:1.6" d="M287 78.5 L284 78.5 L284 122"/><path class="w" fill-rule="evenodd" d="M263.8 109.8 L259.8 109.8 L259.8 154.7 L262.8 162.9 L263.8 162.9Z"/><path class="hatch" d="M259.8 111.9L261.8 109.8M259.8 115.3L263.8 111.2M259.8 118.7L263.8 114.6M259.8 122.1L263.8 118M259.8 125.5L263.8 121.4M259.8 128.9L263.8 124.8M259.8 132.3L263.8 128.2M259.8 135.7L263.8 131.6M259.8 139L263.8 135M259.8 142.4L263.8 138.4M259.8 145.8L263.8 141.8M259.8 149.2L263.8 145.2M259.8 152.6L263.8 148.5M260.1 155.7L263.8 151.9M261 158.1L263.8 155.3M262 160.6L263.8 158.7M263.1 162.9L263.8 162.1"/><path class="w" fill-rule="evenodd" d="M267.7 118 L263.8 118 L263.8 162.9 L266.9 175.1 L268.5 181.2 L269.8 183.3 L269.8 173.1 L268.9 162.9 L267.7 148.6Z"/><path class="hatch" d="M266.5 118L267.7 119.2M263.8 118.2L267.7 122.1M263.8 121L267.7 124.9M263.8 123.8L267.7 127.7M263.8 126.7L267.7 130.5M263.8 129.5L267.7 133.4M263.8 132.3L267.7 136.2M263.8 135.1L267.7 139M263.8 138L267.7 141.9M263.8 140.8L267.7 144.7M263.8 143.6L267.7 147.5M263.8 146.5L267.9 150.5M263.8 149.3L268.1 153.6M263.8 152.1L268.4 156.7M263.8 154.9L268.7 159.8M263.8 157.8L268.9 162.9M263.8 160.6L269.2 165.9M264 163.6L269.4 169M265 167.4L269.7 172.1M265.9 171.2L269.8 175M266.9 174.9L269.8 177.8M267.9 178.8L269.8 180.7"/><path class="w" fill-rule="evenodd" d="M280.2 109.8 L284.2 109.8 L284.2 154.7 L281.2 162.9 L280.2 162.9Z"/><path class="hatch" d="M281.2 109.8L284.2 112.8M280.2 112.2L284.2 116.2M280.2 115.5L284.2 119.6M280.2 118.9L284.2 123M280.2 122.3L284.2 126.4M280.2 125.7L284.2 129.8M280.2 129.1L284.2 133.2M280.2 132.5L284.2 136.6M280.2 135.9L284.2 140M280.2 139.3L284.2 143.4M280.2 142.7L284.2 146.8M280.2 146.1L284.2 150.2M280.2 149.5L284.2 153.6M280.2 152.9L283.6 156.3M280.2 156.3L282.7 158.8M280.2 159.7L281.8 161.3"/><path class="w" fill-rule="evenodd" d="M276.3 118 L280.2 118 L280.2 162.9 L277.1 175.1 L275.5 181.2 L274.2 183.3 L274.2 173.1 L275.1 162.9 L276.3 148.6Z"/><path class="hatch" d="M276.3 118.3L276.6 118M276.3 121.1L279.4 118M276.3 123.9L280.2 120.1M276.3 126.8L280.2 122.9M276.3 129.6L280.2 125.7M276.3 132.4L280.2 128.5M276.3 135.3L280.2 131.4M276.3 138.1L280.2 134.2M276.3 140.9L280.2 137M276.3 143.7L280.2 139.9M276.3 146.6L280.2 142.7M276.2 149.5L280.2 145.5M275.9 152.6L280.2 148.3M275.7 155.7L280.2 151.2M275.4 158.7L280.2 154M275.1 161.8L280.2 156.8M274.9 164.9L280.2 159.7M274.7 168L280.2 162.5M274.4 171.1L279.3 166.1M274.2 174.1L278.4 169.9M274.2 176.9L277.5 173.7M274.2 179.7L276.5 177.5M274.2 182.5L275.3 181.4"/><path class="w" d="M269.8 173.1 L274.2 173.1 L274.2 181.2 L272 184.3 L269.8 181.2Z"/><path class="beamf" d="M267.7 140.4 L276.3 140.4 L276.3 146.6 L267.7 146.6Z"/><path class="beamf" d="M267.7 146.6 L276.3 146.6 L275.1 162.9 L274.2 173.1 L269.8 173.1 L268.9 162.9Z"/><path class="m" d="M267.9 118 L276.1 118 L276.1 140.4 L274.2 144.5 L274 169 L272 175.1 L270 169 L269.8 144.5 L267.9 140.4Z"/></svg>