<svg xmlns="http://www.w3.org/2000/svg" class="ilu mt-fe" viewBox="0 0 320 200"><style>:root{--il-line:#252B31;--il-edge:rgba(18,22,27,.5);--il-m1:#F1F3F5;--il-m2:#C9CFD5;--il-m3:#4A5159;--il-w1:#DCE1E6;--il-w2:#B4BCC4;--il-w3:#8A949E;--il-t:#D8BE84;--il-h1:#FFC98A;--il-hot:#E4602A;--il-f:#BFE1F0;--il-fl:#2B8BBE;--il-rb:#2A2E33;--il-yel:#E7C267;--il-pcb:#2D6A4E;--il-sand:#D9CCB2;--il-gw:#E6E0D5;--il-rb2:#3A3F45;--il-gl:#CFE5F1;--il-cu:#D08652;--il-bg:#2A2F35;--il-sh:rgba(10,14,18,.16);--il-cr:#E8EBEE;--il-sec0:#FFFFFF}@media (prefers-color-scheme:dark){:root:not([data-theme="light"]){--il-line:#C7CFD6;--il-edge:rgba(0,0,0,.55);--il-bg:#0C0E10;--il-sh:rgba(0,0,0,.5);--il-cr:#2A2F35;--il-sec0:#0E1012;--il-f:#1C4A5E;--il-fl:#6CC4EC;--il-h1:#8A3E1C;--il-hot:#FF8A50;--il-gl:#27445A}}:root[data-theme="dark"]{--il-line:#C7CFD6;--il-edge:rgba(0,0,0,.55);--il-bg:#0C0E10;--il-sh:rgba(0,0,0,.5);--il-cr:#2A2F35;--il-sec0:#0E1012;--il-f:#1C4A5E;--il-fl:#6CC4EC;--il-h1:#8A3E1C;--il-hot:#FF8A50;--il-gl:#27445A}.ilu{display:block;width:100%;height:auto;stroke-width:.85;stroke-linejoin:round;stroke-linecap:round;overflow:hidden}.ilu .o{fill:none;stroke:var(--il-line)}.ilu .thin{stroke-width:.8;opacity:.7}.ilu .dash{stroke-dasharray:4 3}.ilu .m{fill:var(--il-m1);stroke:var(--il-line)}.ilu .m2{fill:var(--il-m2);stroke:var(--il-line)}.ilu .m3{fill:var(--il-m3);stroke:var(--il-line)}.ilu .w{fill:var(--il-w1);stroke:var(--il-line)}.ilu .w2{fill:var(--il-w2);stroke:var(--il-line)}.ilu .w3{fill:var(--il-w3);stroke:var(--il-line)}.ilu .t{fill:var(--il-t);stroke:var(--il-line)}.ilu .h{fill:var(--il-h1);stroke:var(--il-hot)}.ilu .hl{fill:none;stroke:var(--il-hot);stroke-width:1.5}.ilu .fl{fill:var(--il-f);stroke:var(--il-fl)}.ilu .fo{fill:none;stroke:var(--il-fl);stroke-width:1.2}.ilu .fdot{fill:var(--il-fl);stroke:none}.ilu .a{fill:none;stroke:var(--accent);stroke-width:1.8}.ilu .af{fill:var(--accent);stroke:none}.ilu .sh{fill:var(--il-sh);stroke:none}.ilu .bg{fill:var(--il-bg);stroke:var(--il-line)}.ilu .bgline{stroke:var(--il-bg);stroke-width:2}.ilu .rb{fill:var(--il-rb);stroke:var(--il-line)}.ilu .rb2{fill:var(--il-rb2);stroke:var(--il-line)}.ilu .rbline{fill:none;stroke:var(--il-bg);stroke-width:1.2}.ilu .gl{fill:var(--il-gl);stroke:var(--il-line);fill-opacity:.9}.ilu .gl2{fill:var(--il-gl);stroke:var(--il-line)}.ilu .cu{fill:var(--il-cu);stroke:var(--il-line)}.ilu .cuwire{fill:none;stroke:var(--il-cu);stroke-width:3}.ilu .cr{fill:var(--il-cr);stroke:var(--il-line)}.ilu .ball{fill:var(--il-cr);stroke:var(--il-line)}.ilu .wire{fill:none;stroke:var(--il-w3);stroke-width:7}.ilu .arm{fill:none;stroke:var(--il-m3);stroke-width:10}.ilu .arm2{fill:none;stroke:var(--il-m3);stroke-width:7}.ilu .cable{fill:none;stroke:var(--il-rb);stroke-width:4}.ilu .cable3{fill:none;stroke:var(--il-rb);stroke-width:8}.ilu .belt{fill:none;stroke:var(--il-rb);stroke-width:3}.ilu .chan{fill:none;stroke:var(--il-bg);stroke-width:4}.ilu .tube1{fill:none;stroke:var(--il-line);stroke-width:10}.ilu .tube2{fill:none;stroke:var(--il-w1);stroke-width:7}.ilu .web{fill:none;stroke:var(--il-rb2);stroke-width:12}.ilu .led{fill:none;stroke:var(--il-t);stroke-width:5}.ilu .frit{fill:none;stroke:var(--il-rb);stroke-width:7;stroke-opacity:.85}.ilu .zig{fill:none;stroke:var(--il-m3);stroke-width:3}.ilu .gridl{stroke:var(--il-cr);stroke-width:2}.ilu .fin{stroke:var(--il-w3);stroke-width:.8}.ilu .d{fill:var(--il-line);stroke:none}.ilu text{fill:var(--ink2);stroke:none;font:500 11px var(--f-body);letter-spacing:.02em}.ilu text.al{fill:var(--accent);font-weight:600}.ilu text.sm{font-size:9.5px;fill:var(--muted)}.ilu .gw,.ilu .gwr{fill:var(--il-gw);stroke:var(--il-line)}.ilu .grit{fill:none;stroke:var(--il-line);stroke-dasharray:1 3;opacity:.6}.ilu .gline{stroke:var(--il-line);stroke-width:.8;opacity:.6}.ilu .chip{fill:none;stroke:var(--il-w3);stroke-width:1.8}.ilu .grain{fill:var(--il-line);opacity:.45;stroke:none}.ilu .bub{fill:none;stroke:var(--il-fl)}.ilu .tankw{fill:none;stroke:var(--il-line);stroke-width:2.2}.ilu .hotin{fill:var(--il-h1);stroke:none;opacity:.6}.ilu .warmin{fill:var(--il-h1);stroke:none;opacity:.3}.ilu .coolin{fill:var(--il-f);stroke:none;opacity:.7}.ilu .bolt{fill:var(--il-yel);stroke:var(--il-line)}.ilu .bg2{fill:var(--il-m1);stroke:var(--il-line)}.ilu .beam{stroke:var(--il-hot);stroke-width:3;fill:none}.ilu .kerf{stroke:var(--il-bg);stroke-width:2.5;fill:none}.ilu .bgline2{stroke:var(--il-bg);stroke-width:7;fill:none}.ilu .jet{stroke:var(--il-fl);stroke-width:3;stroke-dasharray:6 3;fill:none}.ilu .jet2{stroke:var(--il-fl);stroke-width:4;fill:none}.ilu .hatch{stroke:var(--il-w3);stroke-width:.8}.ilu .pour{fill:none;stroke:var(--il-hot);stroke-width:6}.ilu .shell{fill:var(--il-m1);stroke:var(--il-line)}.ilu .sand,.ilu .board{fill:var(--il-sand);stroke:var(--il-line)}.ilu .gridbar{stroke:var(--il-m3);stroke-width:6;fill:none}.ilu .shot,.ilu .pwd{fill:var(--il-m3);stroke:none}.ilu .coilcu{fill:none;stroke:var(--il-cu);stroke-width:3.2}.ilu .wire2{fill:none;stroke:var(--il-w3);stroke-width:4}.ilu .strip{fill:none;stroke:var(--il-w2);stroke-width:5}.ilu rect.strip{fill:var(--il-w2);stroke:var(--il-line);stroke-width:1.3}.ilu .sheet{fill:none;stroke:var(--il-w3);stroke-width:5}.ilu .sheet2{fill:var(--il-w2);stroke:var(--il-line)}.ilu .hotsheet{fill:none;stroke:var(--il-hot);stroke-width:5}.ilu .mesh{fill:var(--il-m1);stroke:var(--il-line);stroke-dasharray:2 2}.ilu .paste{fill:none;stroke:var(--il-m3);stroke-width:5}.ilu .lens{fill:var(--il-gl);stroke:var(--il-line)}.ilu .uv{stroke:var(--accent);stroke-dasharray:4 3;fill:none}.ilu .basket{fill:none;stroke:var(--il-line);stroke-dasharray:3 2}.ilu .bead{fill:none;stroke:var(--il-w3);stroke-width:5}.ilu .bead2,.ilu .bead3{fill:none;stroke:var(--il-m3);stroke-width:6}.ilu .ebeam{stroke:var(--accent);stroke-width:3;stroke-dasharray:2 2;fill:none}.ilu .foil{stroke:var(--il-cu);stroke-width:2}.ilu .hplate{fill:var(--il-h1);stroke:var(--il-hot)}.ilu .crack{fill:none;stroke:var(--il-hot);stroke-width:2.2}.ilu .resin{fill:var(--il-h1);stroke:var(--il-line)}.ilu .screw{stroke:var(--il-m3);stroke-width:6;fill:none}.ilu .parison{fill:var(--il-w1);stroke:var(--il-line)}.ilu .rbx{fill:var(--il-rb);stroke:var(--il-line)}.ilu .rbstrip{fill:none;stroke:var(--il-rb);stroke-width:8}.ilu .uvwave{fill:none;stroke:var(--il-hot)}.ilu .cordl{stroke:var(--il-cu)}.ilu .beadw{fill:none;stroke:var(--il-w3);stroke-width:6}.ilu .pourf{fill:none;stroke:var(--il-w2);stroke-width:6}.ilu .foamf,.ilu .padm{fill:var(--il-w2);stroke:var(--il-line)}.ilu .skin{fill:none;stroke:var(--il-w3);stroke-width:4}.ilu .chipd{fill:var(--il-rb);stroke:var(--il-line)}.ilu .glp{fill:var(--il-gl);stroke:var(--il-line)}.ilu .glsheet{fill:none;stroke:var(--il-fl);stroke-width:4}.ilu .rail{fill:none;stroke:var(--il-m3);stroke-width:5}.ilu .needle{stroke:var(--il-line);stroke-width:2}.ilu .stitch{fill:none;stroke:var(--accent);stroke-dasharray:4 3;stroke-width:1.6}.ilu .thread{stroke:var(--il-w2);stroke-width:2.2}.ilu .thread2{stroke:var(--il-hot);stroke-width:2.2}.ilu .slurry,.ilu .slurryp{fill:var(--il-rb2);stroke:var(--il-line)}.ilu .foilstrip{fill:none;stroke:var(--il-cu);stroke-width:3}.ilu .slurryl{fill:none;stroke:var(--il-rb2);stroke-width:5}.ilu .slurryl2{fill:none;stroke:var(--il-rb2);stroke-width:9}.ilu .windl0{fill:none;stroke:var(--il-cu);stroke-width:3}.ilu .windl1{fill:none;stroke:var(--il-m1);stroke-width:3}.ilu .windl2{fill:none;stroke:var(--il-rb2);stroke-width:3}.ilu .cuwire2{fill:none;stroke:var(--il-cu);stroke-width:6}.ilu .pcb,.ilu .okl{fill:var(--il-pcb);stroke:var(--il-line)}.ilu .wafer{fill:var(--il-m2);stroke:var(--il-line)}.ilu .wirebond{fill:none;stroke:var(--il-cu);stroke-width:1.6}.ilu .fringe{stroke:var(--accent);opacity:.7}.ilu .ring{fill:var(--il-t);stroke:var(--il-line)}.ilu .laserl{stroke:var(--il-hot);stroke-width:1.4;stroke-dasharray:5 3;fill:none}.ilu .zebra,.ilu .filt{fill:var(--il-cr);stroke:var(--il-line)}.ilu .ray{stroke:var(--accent);stroke-dasharray:4 3;fill:none}.ilu .wave{fill:none;stroke:var(--accent)}.ilu .yoke{fill:none;stroke:var(--il-m3);stroke-width:10}.ilu .indic{stroke:var(--accent);stroke-width:3;fill:none}.ilu .he{fill:var(--accent);opacity:.6;stroke:none}.ilu .beamf{fill:var(--il-yel);opacity:.55;stroke:none}.ilu .loc{fill:var(--il-line);stroke:none}.ilu .clampl{stroke:var(--il-hot);stroke-width:2.4}.ilu .clamph{fill:var(--il-hot);stroke:none}.ilu .leadd{fill:var(--ink2);stroke:none}.ilu .leadl{stroke:var(--ink2);stroke-width:.8;opacity:.8}.ilu .bal{fill:var(--surface);stroke:var(--accent);stroke-width:1.4}.ilu text.balt{fill:var(--accent);font-weight:700;font-size:10.5px}.ilu text.tol{fill:var(--ink2);font-size:10.5px}.ilu text.ttl{fill:var(--ink);font-weight:600;font-size:12px}.ilu .cl{stroke:var(--il-line);stroke-dasharray:14 3 2 3;stroke-width:.8;opacity:.7}.ilu .hid{fill:none;stroke:var(--il-line);stroke-dasharray:5 3;stroke-width:.9;opacity:.8}.ilu .mf{fill:none;stroke:var(--accent);stroke-width:4;stroke-linecap:round}.ilu .mfa{fill:var(--il-t);stroke:var(--accent);stroke-width:2}.ilu .rgh{fill:var(--il-w3);stroke:none}.ilu .done{stroke:var(--il-line);stroke-width:2.6;fill:none}.ilu .cut{fill:var(--il-w2);stroke:var(--il-line)}.ilu .ins{fill:var(--il-yel);stroke:var(--il-line)}.ilu .cool{stroke:var(--il-fl);stroke-dasharray:3 3}.ilu .cutl{stroke:var(--accent);stroke-width:2.4;stroke-dasharray:5 3}.ilu .poro{fill:var(--il-hot);stroke:none}.ilu .mfring{fill:none;stroke:var(--il-hot);stroke-width:1.5;stroke-dasharray:3 2}.ilu .xim{fill:#1D242B;stroke:var(--il-line)}.ilu .ximd{fill:#FFFFFF;stroke:none}.ilu .coat{fill:none;stroke:var(--il-hot);stroke-width:5}.ilu .hatchx{stroke:var(--accent);stroke-width:.8;opacity:.8}.ilu .jetl{fill:none;stroke:var(--il-fl);stroke-width:4;stroke-dasharray:8 4}.ilu .pres{fill:none;stroke:var(--il-fl);stroke-width:4.5}.ilu .tbg{fill:var(--surface);stroke:none;opacity:.94}.ilu .tbl{stroke:var(--line);stroke-width:1}.ilu .void{fill:var(--il-sec0);stroke:var(--il-line)}.ilu .hotband{fill:var(--il-hot);opacity:.35;stroke:none}.ilu .flash{fill:var(--il-hot);opacity:.25;stroke:var(--il-hot)}.ilu .cutframe{fill:none;stroke:var(--accent);stroke-width:2.2;stroke-dasharray:5 3}.ilu .orbit{fill:none;stroke:var(--accent);stroke-dasharray:3 3}.ilu .hotarc{fill:none;stroke:var(--il-hot);stroke-width:6;opacity:.8}.ilu .mfo{fill:none;stroke:var(--accent);stroke-width:2.4}.ilu .stem{stroke:var(--il-m3);stroke-width:5}.ilu .hotgrp .w,.ilu .hotgrp .w2,.ilu .hotgrp .w3,.ilu .hotgrp .rb,.ilu .hotgrp .m{fill:var(--il-h1);stroke:var(--il-hot)}:root{--il-ws1-old:#ECD9B4;--il-ws2:#DEC38F;--il-ws3:#C9A86F;--il-ws4:#AB8A55;--il-ts1:#BCC8F4;--il-ts2:#A5B3EA;--il-ts3:#8C9ADA;--il-ts4:#7382C6;--il-gs1:#B3BDE2;--il-gs2:#9CA7D0;--il-gs3:#8591BC;--il-gs4:#6E7AA5;--il-ms1:#D9E1DC;--il-ms2:#C2CDC6;--il-ms3:#A7B4AC;--il-ms4:#8B9990;--il-hs1:#F6B592;--il-hs2:#EE9B72;--il-hs3:#DF7C52;--il-hs4:#C9613A}.ilu .el{fill:none;stroke:var(--il-line);stroke-width:.75;stroke-linejoin:round}.ilu .ws1{fill:var(--il-ws1);stroke:var(--il-ws1);stroke-width:.5}.ilu .ws2{fill:var(--il-ws2);stroke:var(--il-ws2);stroke-width:.5}.ilu .ws3{fill:var(--il-ws3);stroke:var(--il-ws3);stroke-width:.5}.ilu .ws4{fill:var(--il-ws4);stroke:var(--il-ws4);stroke-width:.5}.ilu .ts1{fill:var(--il-ts1);stroke:var(--il-ts1);stroke-width:.5}.ilu .ts2{fill:var(--il-ts2);stroke:var(--il-ts2);stroke-width:.5}.ilu .ts3{fill:var(--il-ts3);stroke:var(--il-ts3);stroke-width:.5}.ilu .ts4{fill:var(--il-ts4);stroke:var(--il-ts4);stroke-width:.5}.ilu .gws1{fill:var(--il-gs1);stroke:var(--il-gs1);stroke-width:.5}.ilu .gws2{fill:var(--il-gs2);stroke:var(--il-gs2);stroke-width:.5}.ilu .gws3{fill:var(--il-gs3);stroke:var(--il-gs3);stroke-width:.5}.ilu .gws4{fill:var(--il-gs4);stroke:var(--il-gs4);stroke-width:.5}.ilu .ms1{fill:var(--il-ms1);stroke:var(--il-ms1);stroke-width:.5}.ilu .ms2{fill:var(--il-ms2);stroke:var(--il-ms2);stroke-width:.5}.ilu .ms3{fill:var(--il-ms3);stroke:var(--il-ms3);stroke-width:.5}.ilu .ms4{fill:var(--il-ms4);stroke:var(--il-ms4);stroke-width:.5}.ilu .hs1{fill:var(--il-hs1);stroke:var(--il-hs1);stroke-width:.5}.ilu .hs2{fill:var(--il-hs2);stroke:var(--il-hs2);stroke-width:.5}.ilu .hs3{fill:var(--il-hs3);stroke:var(--il-hs3);stroke-width:.5}.ilu .hs4{fill:var(--il-hs4);stroke:var(--il-hs4);stroke-width:.5}.ilu .gw{fill:var(--il-gw);stroke:var(--il-line)}.ilu .grit2{fill:none;stroke:var(--il-line);stroke-width:1.1;opacity:.35;stroke-linecap:round}.ilu .mfe{fill:none;stroke:var(--accent);stroke-width:1.8;stroke-linejoin:round}.ilu .chbd{fill:none;stroke:var(--il-t);stroke-width:4.5;stroke-linejoin:round;opacity:.9}.ilu .probe{fill:none;stroke:var(--il-m3);stroke-width:3.2;stroke-linecap:round;stroke-linejoin:round}.ilu .x{stroke:var(--il-line);stroke-width:.7}.ilu .gr{fill:none;stroke:var(--il-line);stroke-width:.5;opacity:.55}.ilu .m,.ilu .m2,.ilu .m3,.ilu .w,.ilu .w2,.ilu .w3,.ilu .t,.ilu .gw,.ilu .gwr,.ilu .bg,.ilu .cu,.ilu .alu,.ilu .shell,.ilu .bg2,.ilu .cr,.ilu .ball,.ilu .cut,.ilu .ring,.ilu .rb,.ilu .rb2,.ilu .rbx,.ilu .chipd{stroke:var(--il-edge)}.ilu .w{fill:url(#g-st)}.ilu .w2{fill:url(#g-st2)}.ilu .w3{fill:url(#g-st3)}.ilu.mt-al .w{fill:url(#g-al)}.ilu.mt-al .w2{fill:url(#g-al2)}.ilu.mt-al .w3{fill:url(#g-al3)}.ilu.mt-fe .w{fill:url(#g-fe)}.ilu.mt-fe .w2{fill:url(#g-fe2)}.ilu.mt-fe .w3{fill:url(#g-fe3)}.ilu.mt-pl .w{fill:url(#g-pl)}.ilu.mt-pl .w2{fill:url(#g-pl2)}.ilu.mt-pl .w3{fill:url(#g-pl3)}.ilu.mt-cu .w{fill:url(#g-cu)}.ilu.mt-cu .w2{fill:url(#g-cu2)}.ilu.mt-cu .w3{fill:url(#g-cu3)}.ilu .alu{fill:url(#g-al)}.ilu .cu{fill:url(#g-cu)}.ilu .m{fill:url(#g-m)}.ilu .m2{fill:url(#g-m2)}.ilu .m3{fill:url(#g-m3)}.ilu .shell,.ilu .bg2{fill:url(#g-m)}.ilu .t,.ilu .ring{fill:url(#g-t)}.ilu .gw,.ilu .gwr{fill:url(#g-gw)}.ilu .bg{fill:url(#g-bg)}.ilu .h,.ilu .hplate{fill:url(#g-hot);stroke:var(--il-hot)}.ilu .sh{fill:url(#g-sh)}.ilu .cut{fill:url(#p-cut)}.ilu .ball,.ilu .cr{fill:url(#g-ball)}.ilu .rb,.ilu .rbx,.ilu .chipd{fill:url(#g-rb)}.ilu .fl{fill:var(--il-f);fill-opacity:.7}.ilu .gl,.ilu .gl2,.ilu .glp,.ilu .lens{fill:var(--il-gl);fill-opacity:.55}.ilu .void{fill:var(--il-sec0)}:root{--ws1:#F2F4F6;--ws2:#CAD1D8;--ws3:#9FA8B1;--ws4:#77818B;--al1:#F8F8F6;--al2:#DADBD8;--al3:#B5B7B4;--al4:#8F918E;--fe1:#B8BDC2;--fe2:#8E949A;--fe3:#6B7177;--fe4:#4F555B;--pl1:#62666C;--pl2:#44484D;--pl3:#2F3236;--pl4:#1F2124;--cu1:#F6CDA8;--cu2:#DE9D6B;--cu3:#B97540;--cu4:#8A5229;--ts1:#F7E9C4;--ts2:#E3C98E;--ts3:#C1A060;--ts4:#957842;--gs1:#F5F2EC;--gs2:#DED8CD;--gs3:#C0B8A9;--gs4:#9D9485;--ms1:#F3F5F7;--ms2:#D4D9DE;--ms3:#ABB2B9;--ms4:#80888F;--hs1:#FFDCA4;--hs2:#FFB46B;--hs3:#F2853F;--hs4:#CF622B}.ilu .ws1{fill:var(--ws1);stroke:var(--ws1)}.ilu .ws2{fill:var(--ws2);stroke:var(--ws2)}.ilu .ws3{fill:var(--ws3);stroke:var(--ws3)}.ilu .ws4{fill:var(--ws4);stroke:var(--ws4)}.ilu.mt-al .ws1,.ilu .als1{fill:var(--al1);stroke:var(--al1)}.ilu.mt-al .ws2,.ilu .als2{fill:var(--al2);stroke:var(--al2)}.ilu.mt-al .ws3,.ilu .als3{fill:var(--al3);stroke:var(--al3)}.ilu.mt-al .ws4,.ilu .als4{fill:var(--al4);stroke:var(--al4)}.ilu.mt-fe .ws1{fill:var(--fe1);stroke:var(--fe1)}.ilu.mt-fe .ws2{fill:var(--fe2);stroke:var(--fe2)}.ilu.mt-fe .ws3{fill:var(--fe3);stroke:var(--fe3)}.ilu.mt-fe .ws4{fill:var(--fe4);stroke:var(--fe4)}.ilu.mt-pl .ws1{fill:var(--pl1);stroke:var(--pl1)}.ilu.mt-pl .ws2{fill:var(--pl2);stroke:var(--pl2)}.ilu.mt-pl .ws3{fill:var(--pl3);stroke:var(--pl3)}.ilu.mt-pl .ws4{fill:var(--pl4);stroke:var(--pl4)}.ilu .cus1{fill:var(--cu1);stroke:var(--cu1)}.ilu .cus2{fill:var(--cu2);stroke:var(--cu2)}.ilu .cus3{fill:var(--cu3);stroke:var(--cu3)}.ilu .cus4{fill:var(--cu4);stroke:var(--cu4)}.ilu .ts1{fill:var(--ts1);stroke:var(--ts1)}.ilu .ts2{fill:var(--ts2);stroke:var(--ts2)}.ilu .ts3{fill:var(--ts3);stroke:var(--ts3)}.ilu .ts4{fill:var(--ts4);stroke:var(--ts4)}.ilu .gws1{fill:var(--gs1);stroke:var(--gs1)}.ilu .gws2{fill:var(--gs2);stroke:var(--gs2)}.ilu .gws3{fill:var(--gs3);stroke:var(--gs3)}.ilu .gws4{fill:var(--gs4);stroke:var(--gs4)}.ilu .ms1{fill:var(--ms1);stroke:var(--ms1)}.ilu .ms2{fill:var(--ms2);stroke:var(--ms2)}.ilu .ms3{fill:var(--ms3);stroke:var(--ms3)}.ilu .ms4{fill:var(--ms4);stroke:var(--ms4)}.ilu .hs1{fill:var(--hs1);stroke:var(--hs1)}.ilu .hs2{fill:var(--hs2);stroke:var(--hs2)}.ilu .hs3{fill:var(--hs3);stroke:var(--hs3)}.ilu .hs4{fill:var(--hs4);stroke:var(--hs4)}.ilu .ws1,.ilu .ws2,.ilu .ws3,.ilu .ws4,.ilu .ts1,.ilu .ts2,.ilu .ts3,.ilu .ts4,.ilu .gws1,.ilu .gws2,.ilu .gws3,.ilu .gws4,.ilu .ms1,.ilu .ms2,.ilu .ms3,.ilu .ms4,.ilu .hs1,.ilu .hs2,.ilu .hs3,.ilu .hs4,.ilu .als1,.ilu .als2,.ilu .als3,.ilu .als4,.ilu .cus1,.ilu .cus2,.ilu .cus3,.ilu .cus4{stroke-width:.5}.ilu .alus1{fill:var(--al1);stroke:var(--al1)}.ilu .alus2{fill:var(--al2);stroke:var(--al2)}.ilu .alus3{fill:var(--al3);stroke:var(--al3)}.ilu .alus4{fill:var(--al4);stroke:var(--al4)}.ilu .alus1,.ilu .alus2,.ilu .alus3,.ilu .alus4{stroke-width:.5}.ilu .x{stroke:var(--il-edge);stroke-width:.55}.ilu .el{stroke:var(--il-edge);stroke-width:.6}.ilu .gr{stroke:var(--il-edge);stroke-width:.45;opacity:.6}.ilu .grit2{stroke:#6B6357;opacity:.35}.ilu .wire{stroke:#B97540}.ilu .wire2,.ilu .skin,.ilu .sheet,.ilu .bead,.ilu .beadw{stroke:#9AA3AC}.ilu .hatch{stroke:var(--il-edge)}.ilu .strip{stroke:#B4BCC4}.ilu rect.strip{fill:url(#g-st2)}.ilu .sheet2{fill:url(#g-st2)}.ilu .parison,.ilu .foamf,.ilu .padm{fill:url(#g-pl)}.ilu .chip{stroke:#C1A060}.ilu .rgh{fill:#9FA8B1}.ilu .hotgrp .w,.ilu .hotgrp .w2,.ilu .hotgrp .w3,.ilu .hotgrp .rb,.ilu .hotgrp .m{fill:url(#g-hot);stroke:var(--il-hot)}:root{--pt1:#F6F5F1;--pt2:#E1E0DA;--pt3:#C3C2BB;--pt4:#9E9D96;--dk1:#6C727A;--dk2:#50555C;--dk3:#3B3F45;--dk4:#2A2D31}.ilu .pt{fill:url(#g-pt);stroke:var(--il-edge)}.ilu .dk{fill:url(#g-dk);stroke:var(--il-edge)}.ilu .pts1{fill:var(--pt1);stroke:var(--pt1)}.ilu .pts2{fill:var(--pt2);stroke:var(--pt2)}.ilu .pts3{fill:var(--pt3);stroke:var(--pt3)}.ilu .pts4{fill:var(--pt4);stroke:var(--pt4)}.ilu .dks1{fill:var(--dk1);stroke:var(--dk1)}.ilu .dks2{fill:var(--dk2);stroke:var(--dk2)}.ilu .dks3{fill:var(--dk3);stroke:var(--dk3)}.ilu .dks4{fill:var(--dk4);stroke:var(--dk4)}.ilu .pts1,.ilu .pts2,.ilu .pts3,.ilu .pts4,.ilu .dks1,.ilu .dks2,.ilu .dks3,.ilu .dks4{stroke-width:.5}.ilu .thread{fill:none;stroke:rgba(18,22,27,.35);stroke-width:.7}.ilu .wire{fill:none}.ilu .tslot{fill:none;stroke:rgba(18,22,27,.45);stroke-width:1.6}.ilu .mgrid{fill:none;stroke:rgba(255,255,255,.18);stroke-width:1}.ilu .hobt{fill:none;stroke:rgba(80,60,20,.55);stroke-width:1}.ilu .gwt{fill:none;stroke:rgba(110,95,70,.45);stroke-width:1}.ilu .spark{stroke:#FF8A3D;stroke-width:1.4;stroke-linecap:round}.ilu .kerf{fill:none;stroke:#3A3F46;stroke-width:1.6}.ilu path.wire{stroke:#B97540;stroke-width:1.4}.ilu .fl{fill:var(--il-fl);fill-opacity:.35}.ilu .fls1,.ilu .fls2,.ilu .fls3,.ilu .fls4{fill:var(--il-fl);fill-opacity:.25;stroke:none}.ilu .cutw{fill:#2B2F35;opacity:.85}.ilu .ball{fill:url(#g-ball);stroke:rgba(18,22,27,.45);stroke-width:.5}.ilu .scr{fill:none;stroke:rgba(18,22,27,.35);stroke-width:.8}.ilu .scrn{fill:#13232E;stroke:#0B0D10}.ilu .scrl{fill:#3FA7D6;opacity:.7}.ilu .scrg{fill:none;stroke:#7FD3A8;stroke-width:1.2}.ilu .key{fill:#2C3036;stroke:#6E757D;stroke-width:.6}.ilu .kbtn{fill:#E6E6E2;stroke:#555;stroke-width:.6}.ilu .mpg{fill:#2C3036;stroke:#9AA1A8}.ilu .mpg2{fill:#4A5058;stroke:#9AA1A8}.ilu .estop{fill:#D8332A;stroke:#F2C230;stroke-width:3}.ilu .knob{fill:#C9CDD2;stroke:#555}.ilu .pipe{fill:none;stroke:#7E8790;stroke-width:5;stroke-linejoin:round;stroke-linecap:round}.ilu .spray{stroke:#3F9FD1;stroke-width:1.4;opacity:.8}.ilu .chipc{fill:none;stroke:#B98A3E;stroke-width:1.6}.ilu .heatg{fill:#FF7A3D;opacity:.28}.ilu .heatg2{fill:#FF9A55;opacity:.18}.ilu .ghost{fill:none;stroke:#E4602A;stroke-width:1.4;stroke-dasharray:5 4}.ilu .sensor{fill:#2D5BFF;stroke:#fff;stroke-width:1.2}.ilu .win{fill:#1E2A33;opacity:.75;stroke:rgba(255,255,255,.4);stroke-width:.8}.ilu .fence{fill:none;stroke:#E8B931;stroke-width:3}.ilu .probeball{fill:#C8302A;stroke:#7A1A16;stroke-width:.6}text,.bal,.balt,.leadl,.leadd,.a,.af{display:none}svg{--accent:#2D5BFF;--ink2:#3A3A3F}@media (prefers-color-scheme:dark){svg{--accent:#86A0FF;--ink2:#D2D2D7}}</style><svg><defs>
<linearGradient id="g-st" x1="0" y1="0" x2=".3" y2="1"><stop offset="0" stop-color="#EEF1F4"/><stop offset=".16" stop-color="#FFFFFF"/><stop offset=".46" stop-color="#D3D9DF"/><stop offset=".84" stop-color="#9BA4AD"/><stop offset="1" stop-color="#BAC1C8"/></linearGradient>
<linearGradient id="g-st2" x1="0" y1="0" x2=".3" y2="1"><stop offset="0" stop-color="#D5DBE1"/><stop offset=".22" stop-color="#E2E6EA"/><stop offset=".6" stop-color="#A8B1BA"/><stop offset="1" stop-color="#8A949E"/></linearGradient>
<linearGradient id="g-st3" x1="0" y1="0" x2=".3" y2="1"><stop offset="0" stop-color="#A1AAB3"/><stop offset="1" stop-color="#6E7882"/></linearGradient>
<linearGradient id="g-al" x1="0" y1="0" x2=".3" y2="1"><stop offset="0" stop-color="#F6F6F4"/><stop offset=".15" stop-color="#FFFFFF"/><stop offset=".5" stop-color="#E2E3E0"/><stop offset=".86" stop-color="#B9BBB8"/><stop offset="1" stop-color="#D0D2CF"/></linearGradient>
<linearGradient id="g-al2" x1="0" y1="0" x2=".3" y2="1"><stop offset="0" stop-color="#E3E4E1"/><stop offset=".6" stop-color="#B8BAB7"/><stop offset="1" stop-color="#9EA09D"/></linearGradient>
<linearGradient id="g-al3" x1="0" y1="0" x2=".3" y2="1"><stop offset="0" stop-color="#A9ABA8"/><stop offset="1" stop-color="#7E807D"/></linearGradient>
<linearGradient id="g-fe" x1="0" y1="0" x2=".3" y2="1"><stop offset="0" stop-color="#B9BEC3"/><stop offset=".18" stop-color="#C9CDD1"/><stop offset=".55" stop-color="#8F959B"/><stop offset="1" stop-color="#6A7076"/></linearGradient>
<linearGradient id="g-fe2" x1="0" y1="0" x2=".3" y2="1"><stop offset="0" stop-color="#8E949A"/><stop offset="1" stop-color="#62686E"/></linearGradient>
<linearGradient id="g-fe3" x1="0" y1="0" x2=".3" y2="1"><stop offset="0" stop-color="#60666C"/><stop offset="1" stop-color="#43494F"/></linearGradient>
<linearGradient id="g-pl" x1="0" y1="0" x2=".3" y2="1"><stop offset="0" stop-color="#70747A"/><stop offset=".45" stop-color="#43474C"/><stop offset="1" stop-color="#26292C"/></linearGradient>
<linearGradient id="g-pl2" x1="0" y1="0" x2=".3" y2="1"><stop offset="0" stop-color="#4C5055"/><stop offset="1" stop-color="#2B2E32"/></linearGradient>
<linearGradient id="g-pl3" x1="0" y1="0" x2=".3" y2="1"><stop offset="0" stop-color="#35383C"/><stop offset="1" stop-color="#1C1E21"/></linearGradient>
<linearGradient id="g-cu" x1="0" y1="0" x2=".3" y2="1"><stop offset="0" stop-color="#FBDCC0"/><stop offset=".25" stop-color="#F2B687"/><stop offset=".7" stop-color="#C77F4E"/><stop offset="1" stop-color="#9B5B2F"/></linearGradient>
<linearGradient id="g-cu2" x1="0" y1="0" x2=".3" y2="1"><stop offset="0" stop-color="#DA9764"/><stop offset="1" stop-color="#9C5C30"/></linearGradient>
<linearGradient id="g-cu3" x1="0" y1="0" x2=".3" y2="1"><stop offset="0" stop-color="#A9693B"/><stop offset="1" stop-color="#6F3E1E"/></linearGradient>
<linearGradient id="g-pt" x1="0" y1="0" x2=".25" y2="1"><stop offset="0" stop-color="#FAFAF7"/><stop offset=".55" stop-color="#EDECE7"/><stop offset="1" stop-color="#D9D8D1"/></linearGradient>
<linearGradient id="g-dk" x1="0" y1="0" x2=".25" y2="1"><stop offset="0" stop-color="#6A7078"/><stop offset=".6" stop-color="#4A4F56"/><stop offset="1" stop-color="#35393E"/></linearGradient>
<linearGradient id="g-m" x1="0" y1="0" x2=".2" y2="1"><stop offset="0" stop-color="#FFFFFF"/><stop offset=".55" stop-color="#EEF0F2"/><stop offset="1" stop-color="#D5D9DD"/></linearGradient>
<linearGradient id="g-m2" x1="0" y1="0" x2=".2" y2="1"><stop offset="0" stop-color="#E1E5E9"/><stop offset="1" stop-color="#B5BBC1"/></linearGradient>
<linearGradient id="g-m3" x1="0" y1="0" x2=".2" y2="1"><stop offset="0" stop-color="#626970"/><stop offset=".5" stop-color="#3C4249"/><stop offset="1" stop-color="#2A2F35"/></linearGradient>
<linearGradient id="g-t" x1="0" y1="0" x2=".3" y2="1"><stop offset="0" stop-color="#F8EBC8"/><stop offset=".14" stop-color="#FFF7E3"/><stop offset=".48" stop-color="#E6CC92"/><stop offset=".86" stop-color="#BF9F62"/><stop offset="1" stop-color="#D3B97E"/></linearGradient>
<linearGradient id="g-gw" x1="0" y1="0" x2=".3" y2="1"><stop offset="0" stop-color="#F8F5F0"/><stop offset=".5" stop-color="#E4DED3"/><stop offset="1" stop-color="#C6BEAF"/></linearGradient>
<linearGradient id="g-bg" x1="0" y1="0" x2=".3" y2="1"><stop offset="0" stop-color="#3B4148"/><stop offset="1" stop-color="#16191C"/></linearGradient>
<linearGradient id="g-rb" x1="0" y1="0" x2=".3" y2="1"><stop offset="0" stop-color="#50545A"/><stop offset="1" stop-color="#1D1F22"/></linearGradient>
<linearGradient id="g-hot" x1="0" y1="0" x2=".3" y2="1"><stop offset="0" stop-color="#FFEAB5"/><stop offset=".45" stop-color="#FFB15A"/><stop offset="1" stop-color="#EE7430"/></linearGradient>
<radialGradient id="g-sh" cx=".5" cy=".5" r=".5"><stop offset="0" stop-color="#000" stop-opacity=".3"/><stop offset=".6" stop-color="#000" stop-opacity=".1"/><stop offset="1" stop-color="#000" stop-opacity="0"/></radialGradient>
<radialGradient id="g-ball" cx=".5" cy=".5" r=".55" fx=".34" fy=".3"><stop offset="0" stop-color="#FFFFFF"/><stop offset=".45" stop-color="#D6DCE1"/><stop offset="1" stop-color="#848E98"/></radialGradient>
<pattern id="p-cut" width="6" height="6" patternUnits="userSpaceOnUse" patternTransform="rotate(45)"><rect width="6" height="6" fill="#C9CFD5"/><line x1="0" y1="0" x2="0" y2="6" stroke="#7F8891" stroke-width="1.1"/></pattern>
</defs></svg>
<ellipse class="sh" cx="160" cy="177" rx="52.4" ry="7"/><path class="ws3" d="M212.5 95.5 L210.4 95 L217.1 98.6 L219.2 99.1Z"/><path class="ws2" d="M210.4 95 L159.3 94.1 L165.9 97.8 L217.1 98.6Z"/><path class="ws3" d="M159.3 94.1 L161.4 122 L168.1 125.6 L165.9 97.8Z"/><path class="w3" fill-rule="evenodd" d="M165.9 97.8 L168.1 125.6 L216 113 L219.2 111.4 L221.5 108.3 L222.4 104.6 L221.5 101.2 L219.2 99.1 L217.1 98.6Z"/><path class="el" d="M212.5 95.5L219.2 99.1M219.2 99.1 L217.1 98.6M212.5 95.5 L210.4 95M217.1 98.6 L165.9 97.8M210.4 95 L159.3 94.1M161.4 122L168.1 125.6M165.9 97.8 L168.1 125.6M159.3 94.1 L161.4 122"/><path class="ws3" d="M221.2 111.9 L221.4 111.1 L221.4 96.9 L221.2 97.7Z"/><path class="ws2" d="M203.9 111.3 L204.3 112.1 L204.3 97.9 L203.9 97.2Z"/><path class="ws2" d="M217.3 113.8 L219.1 113.3 L220.4 112.6 L221.2 111.9 L221.2 97.7 L220.4 98.5 L219.1 99.1 L217.3 99.6Z"/><path class="ws1" d="M204.3 112.1 L205.2 112.8 L206.7 113.4 L208.5 113.9 L208.5 99.7 L206.7 99.3 L205.2 98.6 L204.3 97.9Z"/><path class="ws1" d="M213 114.2 L215.2 114.1 L217.3 113.8 L217.3 99.6 L215.2 99.9 L213 100.1Z"/><path class="ws1" d="M208.5 113.9 L210.7 114.1 L213 114.2 L213 100.1 L210.7 100 L208.5 99.7Z"/><path class="w" fill-rule="evenodd" d="M217.3 99.6 L219.1 99.1 L220.4 98.5 L221.2 97.7 L221.4 96.9 L221.1 96.2 L220.1 95.5 L218.7 94.9 L216.8 94.4 L214.6 94.1 L212.4 94 L210.1 94.2 L208 94.5 L206.2 95 L204.9 95.6 L204.1 96.4 L203.9 97.2 L204.3 97.9 L205.2 98.6 L206.7 99.3 L208.5 99.7 L210.7 100 L213 100.1 L215.2 99.9Z"/><path class="el" d="M221.4 111.1L221.4 96.9M221.2 97.7 L221.4 96.9M221.2 111.9 L221.4 111.1M203.9 111.3L203.9 97.2M203.9 97.2 L204.3 97.9M203.9 111.3 L204.3 112.1M217.3 99.6 L219.1 99.1 L220.4 98.5 L221.2 97.7M217.3 113.8 L219.1 113.3 L220.4 112.6 L221.2 111.9M204.3 97.9 L205.2 98.6 L206.7 99.3 L208.5 99.7M204.3 112.1 L205.2 112.8 L206.7 113.4 L208.5 113.9M213 100.1 L215.2 99.9 L217.3 99.6M213 114.2 L215.2 114.1 L217.3 113.8M208.5 99.7 L210.7 100 L213 100.1M208.5 113.9 L210.7 114.1 L213 114.2"/><path class="bg" d="M215 98.3 L216.2 97.9 L216.9 97.3 L217 96.7 L216.4 96.2 L215.2 95.8 L213.6 95.5 L211.9 95.5 L210.3 95.7 L209.1 96.1 L208.4 96.7 L208.3 97.2 L208.9 97.8 L210.1 98.2 L211.7 98.5 L213.4 98.5Z"/><path class="ws2" d="M157.8 35.9 L130.1 41.8 L126.9 100.4 L133.6 104 L136.8 45.5 L164.5 39.6Z"/><path class="w3" fill-rule="evenodd" d="M133.6 104 L167.7 96.7 L164.5 39.6 L136.8 45.5Z"/><path class="el" d="M157.8 35.9L164.5 39.6M126.9 100.4L133.6 104M164.5 39.6 L136.8 45.5 L133.6 104M157.8 35.9 L130.1 41.8 L126.9 100.4"/><path class="ws2" d="M152 13.6 L147.6 12 L156.9 17.1 L161.3 18.7Z"/><path class="ws2" d="M126.6 33.3 L126.6 51 L136 56.1 L136 38.4Z"/><path class="ws1" d="M147.6 12 L142.6 12.2 L137.7 14.1 L147 19.2 L151.9 17.3 L156.9 17.1Z"/><path class="ws1" d="M137.7 14.1 L133.2 17.6 L129.7 22.3 L139 27.4 L142.6 22.7 L147 19.2Z"/><path class="ws1" d="M129.7 22.3 L127.4 27.7 L126.6 33.3 L136 38.4 L136.7 32.8 L139 27.4Z"/><path class="w" fill-rule="evenodd" d="M136 56.1 L167.9 49.3 L167.9 31.6 L167.1 26.3 L164.9 21.8 L161.3 18.7 L156.9 17.1 L151.9 17.3 L147 19.2 L142.6 22.7 L139 27.4 L136.7 32.8 L136 38.4Z"/><path class="el" d="M152 13.6L161.3 18.7M161.3 18.7 L156.9 17.1M152 13.6 L147.6 12M126.6 51L136 56.1M136 38.4 L136 56.1M126.6 33.3 L126.6 51M156.9 17.1 L151.9 17.3 L147 19.2M147.6 12 L142.6 12.2 L137.7 14.1M147 19.2 L142.6 22.7 L139 27.4M137.7 14.1 L133.2 17.6 L129.7 22.3M139 27.4 L136.7 32.8 L136 38.4M129.7 22.3 L127.4 27.7 L126.6 33.3"/><path class="w3" d="M156.8 45.8 L156.5 44.2 L155.9 42.9 L154.8 41.9 L153.5 41.5 L152 41.5 L150.5 42.1 L149.2 43.1 L148.1 44.5 L147.4 46.2 L147.2 47.8 L147.4 49.4 L148.1 50.8 L149.2 51.7 L150.5 52.2 L152 52.1 L153.5 51.6 L154.8 50.5 L155.9 49.1 L156.5 47.5Z"/><path class="bg" d="M155.7 46 L155.5 44.7 L154.9 43.6 L153.9 42.9 L152.7 42.6 L151.4 42.9 L150.1 43.7 L149.2 44.8 L148.5 46.2 L148.3 47.6 L148.5 49 L149.2 50.1 L150.1 50.8 L151.4 51 L152.7 50.8 L153.9 50 L154.9 48.9 L155.5 47.5Z"/><path class="w3" d="M156.8 25.7 L156.5 24.1 L155.9 22.8 L154.8 21.9 L153.5 21.4 L152 21.4 L150.5 22 L149.2 23.1 L148.1 24.5 L147.4 26.1 L147.2 27.8 L147.4 29.4 L148.1 30.7 L149.2 31.7 L150.5 32.1 L152 32.1 L153.5 31.5 L154.8 30.4 L155.9 29 L156.5 27.4Z"/><path class="bg" d="M155.7 26 L155.5 24.6 L154.9 23.5 L153.9 22.8 L152.7 22.6 L151.4 22.8 L150.1 23.6 L149.2 24.7 L148.5 26.1 L148.3 27.6 L148.5 28.9 L149.2 30 L150.1 30.7 L151.4 31 L152.7 30.7 L153.9 30 L154.9 28.8 L155.5 27.4Z"/><path class="ws3" d="M128 122.6 L141.8 165.6 L149.1 169.6 L135.3 126.6Z"/><path class="ws2" d="M158.9 119.5 L128 122.6 L135.3 126.6 L166.2 123.5Z"/><path class="w3" fill-rule="evenodd" d="M135.3 126.6 L149.1 169.6 L160.9 167.1 L166.2 123.5Z"/><path class="el" d="M141.8 165.6L149.1 169.6M135.3 126.6 L149.1 169.6M128 122.6 L141.8 165.6M158.9 119.5L166.2 123.5M166.2 123.5 L135.3 126.6M158.9 119.5 L128 122.6"/><path class="ws3" d="M162.1 177.3 L162.7 176.4 L162.7 175.5 L162.7 161.3 L162.7 162.3 L162.1 163.1Z"/><path class="ws2" d="M139 176.4 L139.5 177.3 L139.5 163.1 L139 162.2Z"/><path class="ws2" d="M139.5 177.3 L140.7 178.1 L142.4 178.8 L144.4 179.4 L144.4 165.2 L142.4 164.7 L140.7 163.9 L139.5 163.1Z"/><path class="ws2" d="M157.1 179.4 L159.2 178.8 L160.9 178.1 L162.1 177.3 L162.1 163.1 L160.9 164 L159.2 164.7 L157.1 165.2Z"/><path class="ws2" d="M152.1 180 L154.7 179.8 L157.1 179.4 L157.1 165.2 L154.7 165.6 L152.1 165.8Z"/><path class="ws1" d="M144.4 179.4 L146.8 179.8 L149.4 180 L152.1 180 L152.1 165.8 L149.4 165.8 L146.8 165.6 L144.4 165.2Z"/><path class="w" fill-rule="evenodd" d="M157.1 165.2 L159.2 164.7 L160.9 164 L162.1 163.1 L162.7 162.3 L162.7 161.3 L162.1 160.4 L160.9 159.6 L159.3 158.9 L157.2 158.3 L154.8 157.9 L152.2 157.7 L149.5 157.7 L146.9 157.9 L144.5 158.3 L142.4 158.9 L140.7 159.6 L139.6 160.4 L139 161.3 L139 162.2 L139.5 163.1 L140.7 163.9 L142.4 164.7 L144.4 165.2 L146.8 165.6 L149.4 165.8 L152.1 165.8 L154.7 165.6Z"/><path class="el" d="M162.7 175.5L162.7 161.3M162.1 163.1 L162.7 162.3 L162.7 161.3M162.1 177.3 L162.7 176.4 L162.7 175.5M139 176.4L139 162.2M139 162.2 L139.5 163.1M139 176.4 L139.5 177.3M139.5 163.1 L140.7 163.9 L142.4 164.7 L144.4 165.2M139.5 177.3 L140.7 178.1 L142.4 178.8 L144.4 179.4M157.1 165.2 L159.2 164.7 L160.9 164 L162.1 163.1M157.1 179.4 L159.2 178.8 L160.9 178.1 L162.1 177.3M152.1 165.8 L154.7 165.6 L157.1 165.2M152.1 180 L154.7 179.8 L157.1 179.4M144.4 165.2 L146.8 165.6 L149.4 165.8 L152.1 165.8M144.4 179.4 L146.8 179.8 L149.4 180 L152.1 180"/><path class="bg" d="M153.8 163.4 L155.3 162.9 L156.2 162.3 L156.5 161.7 L156.1 161 L155 160.4 L153.5 160 L151.6 159.8 L149.6 159.8 L147.8 160.1 L146.4 160.5 L145.4 161.1 L145.2 161.8 L145.6 162.4 L146.6 163 L148.2 163.4 L150 163.6 L152 163.6Z"/><path class="ws3" d="M128 90.1 L104.5 82.1 L113.2 86.9 L136.6 94.8Z"/><path class="ws4" d="M97.6 91.3 L98.1 94.1 L99.6 96.3 L108.3 101 L106.8 98.8 L106.3 96Z"/><path class="ws2" d="M104.5 82.1 L101.9 83.3 L99.6 85.4 L108.3 90.2 L110.5 88 L113.2 86.9Z"/><path class="ws2" d="M99.6 85.4 L98.1 88.2 L97.6 91.3 L106.3 96 L106.8 93 L108.3 90.2Z"/><path class="w3" fill-rule="evenodd" d="M106.3 96 L106.8 98.8 L108.3 101 L110.5 102.2 L136.6 111.4 L136.6 94.8 L113.2 86.9 L110.5 88 L108.3 90.2 L106.8 93Z"/><path class="el" d="M128 90.1L136.6 94.8M136.6 94.8 L113.2 86.9M128 90.1 L104.5 82.1M99.6 96.3L108.3 101M106.3 96 L106.8 98.8 L108.3 101M97.6 91.3 L98.1 94.1 L99.6 96.3M113.2 86.9 L110.5 88 L108.3 90.2M104.5 82.1 L101.9 83.3 L99.6 85.4M108.3 90.2 L106.8 93 L106.3 96M99.6 85.4 L98.1 88.2 L97.6 91.3"/><path class="bg" d="M116.7 93.8 L116.4 92.4 L115.7 91.3 L114.6 90.7 L113.2 90.7 L111.9 91.3 L110.8 92.4 L110 93.8 L109.8 95.3 L110 96.7 L110.8 97.8 L111.9 98.4 L113.2 98.4 L114.6 97.8 L115.7 96.7 L116.4 95.3Z"/><path class="ws2" d="M128 117.8 L101.9 138.8 L99.6 140.9 L108.3 145.6 L110.5 143.5 L136.6 122.6Z"/><path class="ws4" d="M97.6 146.8 L98.1 149.6 L99.6 151.8 L108.3 156.5 L106.8 154.3 L106.3 151.5Z"/><path class="ws2" d="M99.6 140.9 L98.1 143.7 L97.6 146.8 L106.3 151.5 L106.8 148.4 L108.3 145.6Z"/><path class="w3" fill-rule="evenodd" d="M106.3 151.5 L106.8 154.3 L108.3 156.5 L110.5 157.7 L113.2 157.7 L136.6 139.1 L136.6 122.6 L110.5 143.5 L108.3 145.6 L106.8 148.4Z"/><path class="el" d="M128 117.8L136.6 122.6M136.6 122.6 L110.5 143.5 L108.3 145.6M128 117.8 L101.9 138.8 L99.6 140.9M99.6 151.8L108.3 156.5M106.3 151.5 L106.8 154.3 L108.3 156.5M97.6 146.8 L98.1 149.6 L99.6 151.8M108.3 145.6 L106.8 148.4 L106.3 151.5M99.6 140.9 L98.1 143.7 L97.6 146.8"/><path class="bg" d="M116.7 149.3 L116.4 147.9 L115.7 146.8 L114.6 146.2 L113.2 146.2 L111.9 146.8 L110.8 147.8 L110 149.2 L109.8 150.8 L110 152.2 L110.8 153.3 L111.9 153.9 L113.2 153.9 L114.6 153.3 L115.7 152.2 L116.4 150.8Z"/><path class="ws1" d="M151.7 123.2 L153.6 121.4 L155.4 119.3 L157 116.9 L158.3 114.5 L159.4 111.9 L160.1 109.3 L160.6 106.6 L160.7 103.9 L174 111.2 L173.9 113.9 L173.4 116.5 L172.7 119.2 L171.6 121.8 L170.3 124.2 L168.7 126.5 L167 128.6 L165 130.5Z"/><path class="ws1" d="M133.6 127.1 L135.7 127.8 L137.9 128.2 L140.3 128.2 L142.6 127.9 L145 127.2 L147.3 126.2 L149.6 124.9 L151.7 123.2 L165 130.5 L162.9 132.1 L160.6 133.5 L158.3 134.5 L155.9 135.2 L153.6 135.5 L151.2 135.5 L149 135.1 L146.9 134.4Z"/><path class="ws3" d="M160.7 103.9 L160.6 101.3 L160.1 98.9 L159.4 96.5 L158.3 94.4 L157 92.5 L155.4 90.9 L153.6 89.5 L167 96.8 L168.7 98.2 L170.3 99.8 L171.6 101.7 L172.7 103.8 L173.4 106.2 L173.9 108.6 L174 111.2Z"/><path class="ws2" d="M131.6 126.1 L133.6 127.1 L146.9 134.4 L144.9 133.4Z"/><path class="ws2" d="M160.8 77.7 L157.5 76 L154 74.8 L150.3 74.2 L163.7 81.5 L167.4 82.1 L170.8 83.3 L174.1 85Z"/><path class="ws3" d="M119 133 L121.5 135.7 L124.5 137.9 L137.8 145.2 L134.8 143 L132.3 140.3Z"/><path class="ws2" d="M112.8 114.2 L113.1 118.4 L113.8 122.5 L115.1 126.3 L116.8 129.8 L119 133 L132.3 140.3 L130.1 137.1 L128.4 133.6 L127.1 129.8 L126.4 125.7 L126.1 121.5Z"/><path class="ws1" d="M150.3 74.2 L146.5 74.2 L142.6 74.8 L138.7 75.9 L134.9 77.5 L131.2 79.7 L144.5 87 L148.2 84.8 L152 83.2 L155.9 82 L159.8 81.5 L163.7 81.5Z"/><path class="ws1" d="M116.8 96.8 L115.1 101 L113.8 105.4 L113.1 109.8 L112.8 114.2 L126.1 121.5 L126.4 117.1 L127.1 112.7 L128.4 108.3 L130.1 104.1Z"/><path class="ws1" d="M131.2 79.7 L127.7 82.4 L124.5 85.5 L121.5 88.9 L119 92.7 L116.8 96.8 L130.1 104.1 L132.3 100 L134.8 96.2 L137.8 92.7 L141 89.7 L144.5 87Z"/><path class="w" fill-rule="evenodd" d="M185.8 108.7 L185.5 104.5 L184.7 100.4 L183.5 96.5 L181.8 93 L179.6 89.9 L177 87.2 L174.1 85 L170.8 83.3 L167.4 82.1 L163.7 81.5 L159.8 81.5 L155.9 82 L152 83.2 L148.2 84.8 L144.5 87 L141 89.7 L137.8 92.7 L134.8 96.2 L132.3 100 L130.1 104.1 L128.4 108.3 L127.1 112.7 L126.4 117.1 L126.1 121.5 L126.4 125.7 L127.1 129.8 L128.4 133.6 L130.1 137.1 L132.3 140.3 L134.8 143 L137.8 145.2 L141 146.9 L144.5 148.1 L148.2 148.7 L152 148.7 L155.9 148.1 L159.8 147 L163.7 145.4 L167.4 143.2 L170.8 140.5 L174.1 137.4 L177 133.9 L179.6 130.1 L181.8 126.1 L183.5 121.8 L184.7 117.5 L185.5 113.1ZM174 111.2 L173.9 108.6 L173.4 106.2 L172.7 103.8 L171.6 101.7 L170.3 99.8 L168.7 98.2 L167 96.8 L165 95.8 L162.9 95.1 L160.6 94.7 L158.3 94.7 L155.9 95 L153.6 95.7 L151.2 96.7 L149 98 L146.9 99.6 L144.9 101.5 L143.1 103.6 L141.6 105.9 L140.3 108.4 L139.2 111 L138.4 113.6 L138 116.3 L137.8 119 L138 121.5 L138.4 124 L139.2 126.3 L140.3 128.5 L141.6 130.4 L143.1 132 L144.9 133.4 L146.9 134.4 L149 135.1 L151.2 135.5 L153.6 135.5 L155.9 135.2 L158.3 134.5 L160.6 133.5 L162.9 132.1 L165 130.5 L167 128.6 L168.7 126.5 L170.3 124.2 L171.6 121.8 L172.7 119.2 L173.4 116.5 L173.9 113.9Z"/><path class="el" d="M165 130.5 L167 128.6 L168.7 126.5 L170.3 124.2 L171.6 121.8 L172.7 119.2 L173.4 116.5 L173.9 113.9 L174 111.2M151.7 123.2 L153.6 121.4 L155.4 119.3 L157 116.9 L158.3 114.5 L159.4 111.9 L160.1 109.3 L160.6 106.6 L160.7 103.9M146.9 134.4 L149 135.1 L151.2 135.5 L153.6 135.5 L155.9 135.2 L158.3 134.5 L160.6 133.5 L162.9 132.1 L165 130.5M133.6 127.1 L135.7 127.8 L137.9 128.2 L140.3 128.2 L142.6 127.9 L145 127.2 L147.3 126.2 L149.6 124.9 L151.7 123.2M153.6 89.5L167 96.8M174 111.2 L173.9 108.6 L173.4 106.2 L172.7 103.8 L171.6 101.7 L170.3 99.8 L168.7 98.2 L167 96.8M160.7 103.9 L160.6 101.3 L160.1 98.9 L159.4 96.5 L158.3 94.4 L157 92.5 L155.4 90.9 L153.6 89.5M131.6 126.1L144.9 133.4M144.9 133.4 L146.9 134.4M131.6 126.1 L133.6 127.1M160.8 77.7L174.1 85M174.1 85 L170.8 83.3 L167.4 82.1 L163.7 81.5M160.8 77.7 L157.5 76 L154 74.8 L150.3 74.2M124.5 137.9L137.8 145.2M132.3 140.3 L134.8 143 L137.8 145.2M119 133 L121.5 135.7 L124.5 137.9M126.1 121.5 L126.4 125.7 L127.1 129.8 L128.4 133.6 L130.1 137.1 L132.3 140.3M112.8 114.2 L113.1 118.4 L113.8 122.5 L115.1 126.3 L116.8 129.8 L119 133M163.7 81.5 L159.8 81.5 L155.9 82 L152 83.2 L148.2 84.8 L144.5 87M150.3 74.2 L146.5 74.2 L142.6 74.8 L138.7 75.9 L134.9 77.5 L131.2 79.7M130.1 104.1 L128.4 108.3 L127.1 112.7 L126.4 117.1 L126.1 121.5M116.8 96.8 L115.1 101 L113.8 105.4 L113.1 109.8 L112.8 114.2M144.5 87 L141 89.7 L137.8 92.7 L134.8 96.2 L132.3 100 L130.1 104.1M131.2 79.7 L127.7 82.4 L124.5 85.5 L121.5 88.9 L119 92.7 L116.8 96.8"/><path class="w2" d="M179.4 110.1 L179.1 106.1 L178.2 102.3 L176.8 98.8 L174.9 95.8 L172.5 93.2 L169.7 91.1 L166.6 89.7 L163.2 88.9 L159.6 88.7 L156 89.1 L152.3 90.2 L148.7 91.9 L145.3 94.2 L142.2 97 L139.4 100.3 L137 103.9 L135.1 107.8 L133.7 111.8 L132.8 116 L132.5 120.1 L132.8 124.1 L133.7 127.9 L135.1 131.3 L137 134.4 L139.4 137 L142.2 139 L145.3 140.5 L148.7 141.3 L152.3 141.5 L156 141.1 L159.6 140 L163.2 138.2 L166.6 136 L169.7 133.2 L172.5 129.9 L174.9 126.3 L176.8 122.4 L178.2 118.4 L179.1 114.2Z"/><path class="bg" d="M174.1 111.2 L173.9 108.1 L173.2 105.2 L172.1 102.5 L170.6 100.2 L168.8 98.2 L166.6 96.6 L164.2 95.5 L161.6 94.8 L158.8 94.7 L156 95 L153.1 95.9 L150.4 97.2 L147.7 99 L145.3 101.1 L143.2 103.7 L141.3 106.4 L139.8 109.4 L138.7 112.6 L138.1 115.8 L137.9 119 L138.1 122.1 L138.7 125 L139.8 127.7 L141.3 130 L143.2 132 L145.3 133.6 L147.7 134.7 L150.4 135.4 L153.1 135.5 L156 135.2 L158.8 134.3 L161.6 133 L164.2 131.2 L166.6 129.1 L168.8 126.6 L170.6 123.8 L172.1 120.8 L173.2 117.6 L173.9 114.4Z"/><path class="bg" d="M176.7 90.2 L176.4 89.2 L175.8 88.5 L174.9 88.2 L173.9 88.4 L173 89.1 L172.4 90.1 L172.2 91.2 L172.4 92.2 L173 92.9 L173.9 93.2 L174.9 93 L175.8 92.4 L176.4 91.4Z"/><path class="bg" d="M139.8 98.1 L139.5 97.1 L138.9 96.4 L138 96.1 L137 96.3 L136.1 97 L135.5 98 L135.3 99.1 L135.5 100.1 L136.1 100.8 L137 101.1 L138 100.9 L138.9 100.2 L139.5 99.2Z"/><path class="bg" d="M139.8 139 L139.5 138 L138.9 137.3 L138 137 L137 137.2 L136.1 137.9 L135.5 138.9 L135.3 140 L135.5 141 L136.1 141.7 L137 142 L138 141.8 L138.9 141.1 L139.5 140.1Z"/><path class="bg" d="M176.7 131.1 L176.4 130.1 L175.8 129.4 L174.9 129.1 L173.9 129.3 L173 130 L172.4 131 L172.2 132.1 L172.4 133.1 L173 133.8 L173.9 134.1 L174.9 133.9 L175.8 133.2 L176.4 132.3Z"/></svg>