<svg xmlns="http://www.w3.org/2000/svg" class="ilu" viewBox="0 0 640 400"><style>:root{--il-line:#252B31;--il-edge:rgba(18,22,27,.5);--il-m1:#F1F3F5;--il-m2:#C9CFD5;--il-m3:#4A5159;--il-w1:#DCE1E6;--il-w2:#B4BCC4;--il-w3:#8A949E;--il-t:#D8BE84;--il-h1:#FFC98A;--il-hot:#E4602A;--il-f:#BFE1F0;--il-fl:#2B8BBE;--il-rb:#2A2E33;--il-yel:#E7C267;--il-pcb:#2D6A4E;--il-sand:#D9CCB2;--il-gw:#E6E0D5;--il-rb2:#3A3F45;--il-gl:#CFE5F1;--il-cu:#D08652;--il-bg:#2A2F35;--il-sh:rgba(10,14,18,.16);--il-cr:#E8EBEE;--il-sec0:#FFFFFF}@media (prefers-color-scheme:dark){:root:not([data-theme="light"]){--il-line:#C7CFD6;--il-edge:rgba(0,0,0,.55);--il-bg:#0C0E10;--il-sh:rgba(0,0,0,.5);--il-cr:#2A2F35;--il-sec0:#0E1012;--il-f:#1C4A5E;--il-fl:#6CC4EC;--il-h1:#8A3E1C;--il-hot:#FF8A50;--il-gl:#27445A}}:root[data-theme="dark"]{--il-line:#C7CFD6;--il-edge:rgba(0,0,0,.55);--il-bg:#0C0E10;--il-sh:rgba(0,0,0,.5);--il-cr:#2A2F35;--il-sec0:#0E1012;--il-f:#1C4A5E;--il-fl:#6CC4EC;--il-h1:#8A3E1C;--il-hot:#FF8A50;--il-gl:#27445A}.ilu{display:block;width:100%;height:auto;stroke-width:.85;stroke-linejoin:round;stroke-linecap:round;overflow:hidden}.ilu .o{fill:none;stroke:var(--il-line)}.ilu .thin{stroke-width:.8;opacity:.7}.ilu .dash{stroke-dasharray:4 3}.ilu .m{fill:var(--il-m1);stroke:var(--il-line)}.ilu .m2{fill:var(--il-m2);stroke:var(--il-line)}.ilu .m3{fill:var(--il-m3);stroke:var(--il-line)}.ilu .w{fill:var(--il-w1);stroke:var(--il-line)}.ilu .w2{fill:var(--il-w2);stroke:var(--il-line)}.ilu .w3{fill:var(--il-w3);stroke:var(--il-line)}.ilu .t{fill:var(--il-t);stroke:var(--il-line)}.ilu .h{fill:var(--il-h1);stroke:var(--il-hot)}.ilu .hl{fill:none;stroke:var(--il-hot);stroke-width:1.5}.ilu .fl{fill:var(--il-f);stroke:var(--il-fl)}.ilu .fo{fill:none;stroke:var(--il-fl);stroke-width:1.2}.ilu .fdot{fill:var(--il-fl);stroke:none}.ilu .a{fill:none;stroke:var(--accent);stroke-width:1.8}.ilu .af{fill:var(--accent);stroke:none}.ilu .sh{fill:var(--il-sh);stroke:none}.ilu .bg{fill:var(--il-bg);stroke:var(--il-line)}.ilu .bgline{stroke:var(--il-bg);stroke-width:2}.ilu .rb{fill:var(--il-rb);stroke:var(--il-line)}.ilu .rb2{fill:var(--il-rb2);stroke:var(--il-line)}.ilu .rbline{fill:none;stroke:var(--il-bg);stroke-width:1.2}.ilu .gl{fill:var(--il-gl);stroke:var(--il-line);fill-opacity:.9}.ilu .gl2{fill:var(--il-gl);stroke:var(--il-line)}.ilu .cu{fill:var(--il-cu);stroke:var(--il-line)}.ilu .cuwire{fill:none;stroke:var(--il-cu);stroke-width:3}.ilu .cr{fill:var(--il-cr);stroke:var(--il-line)}.ilu .ball{fill:var(--il-cr);stroke:var(--il-line)}.ilu .wire{fill:none;stroke:var(--il-w3);stroke-width:7}.ilu .arm{fill:none;stroke:var(--il-m3);stroke-width:10}.ilu .arm2{fill:none;stroke:var(--il-m3);stroke-width:7}.ilu .cable{fill:none;stroke:var(--il-rb);stroke-width:4}.ilu .cable3{fill:none;stroke:var(--il-rb);stroke-width:8}.ilu .belt{fill:none;stroke:var(--il-rb);stroke-width:3}.ilu .chan{fill:none;stroke:var(--il-bg);stroke-width:4}.ilu .tube1{fill:none;stroke:var(--il-line);stroke-width:10}.ilu .tube2{fill:none;stroke:var(--il-w1);stroke-width:7}.ilu .web{fill:none;stroke:var(--il-rb2);stroke-width:12}.ilu .led{fill:none;stroke:var(--il-t);stroke-width:5}.ilu .frit{fill:none;stroke:var(--il-rb);stroke-width:7;stroke-opacity:.85}.ilu .zig{fill:none;stroke:var(--il-m3);stroke-width:3}.ilu .gridl{stroke:var(--il-cr);stroke-width:2}.ilu .fin{stroke:var(--il-w3);stroke-width:.8}.ilu .d{fill:var(--il-line);stroke:none}.ilu text{fill:var(--ink2);stroke:none;font:500 11px var(--f-body);letter-spacing:.02em}.ilu text.al{fill:var(--accent);font-weight:600}.ilu text.sm{font-size:9.5px;fill:var(--muted)}.ilu .gw,.ilu .gwr{fill:var(--il-gw);stroke:var(--il-line)}.ilu .grit{fill:none;stroke:var(--il-line);stroke-dasharray:1 3;opacity:.6}.ilu .gline{stroke:var(--il-line);stroke-width:.8;opacity:.6}.ilu .chip{fill:none;stroke:var(--il-w3);stroke-width:1.8}.ilu .grain{fill:var(--il-line);opacity:.45;stroke:none}.ilu .bub{fill:none;stroke:var(--il-fl)}.ilu .tankw{fill:none;stroke:var(--il-line);stroke-width:2.2}.ilu .hotin{fill:var(--il-h1);stroke:none;opacity:.6}.ilu .warmin{fill:var(--il-h1);stroke:none;opacity:.3}.ilu .coolin{fill:var(--il-f);stroke:none;opacity:.7}.ilu .bolt{fill:var(--il-yel);stroke:var(--il-line)}.ilu .bg2{fill:var(--il-m1);stroke:var(--il-line)}.ilu .beam{stroke:var(--il-hot);stroke-width:3;fill:none}.ilu .kerf{stroke:var(--il-bg);stroke-width:2.5;fill:none}.ilu .bgline2{stroke:var(--il-bg);stroke-width:7;fill:none}.ilu .jet{stroke:var(--il-fl);stroke-width:3;stroke-dasharray:6 3;fill:none}.ilu .jet2{stroke:var(--il-fl);stroke-width:4;fill:none}.ilu .hatch{stroke:var(--il-w3);stroke-width:.8}.ilu .pour{fill:none;stroke:var(--il-hot);stroke-width:6}.ilu .shell{fill:var(--il-m1);stroke:var(--il-line)}.ilu .sand,.ilu .board{fill:var(--il-sand);stroke:var(--il-line)}.ilu .gridbar{stroke:var(--il-m3);stroke-width:6;fill:none}.ilu .shot,.ilu .pwd{fill:var(--il-m3);stroke:none}.ilu .coilcu{fill:none;stroke:var(--il-cu);stroke-width:3.2}.ilu .wire2{fill:none;stroke:var(--il-w3);stroke-width:4}.ilu .strip{fill:none;stroke:var(--il-w2);stroke-width:5}.ilu rect.strip{fill:var(--il-w2);stroke:var(--il-line);stroke-width:1.3}.ilu .sheet{fill:none;stroke:var(--il-w3);stroke-width:5}.ilu .sheet2{fill:var(--il-w2);stroke:var(--il-line)}.ilu .hotsheet{fill:none;stroke:var(--il-hot);stroke-width:5}.ilu .mesh{fill:var(--il-m1);stroke:var(--il-line);stroke-dasharray:2 2}.ilu .paste{fill:none;stroke:var(--il-m3);stroke-width:5}.ilu .lens{fill:var(--il-gl);stroke:var(--il-line)}.ilu .uv{stroke:var(--accent);stroke-dasharray:4 3;fill:none}.ilu .basket{fill:none;stroke:var(--il-line);stroke-dasharray:3 2}.ilu .bead{fill:none;stroke:var(--il-w3);stroke-width:5}.ilu .bead2,.ilu .bead3{fill:none;stroke:var(--il-m3);stroke-width:6}.ilu .ebeam{stroke:var(--accent);stroke-width:3;stroke-dasharray:2 2;fill:none}.ilu .foil{stroke:var(--il-cu);stroke-width:2}.ilu .hplate{fill:var(--il-h1);stroke:var(--il-hot)}.ilu .crack{fill:none;stroke:var(--il-hot);stroke-width:2.2}.ilu .resin{fill:var(--il-h1);stroke:var(--il-line)}.ilu .screw{stroke:var(--il-m3);stroke-width:6;fill:none}.ilu .parison{fill:var(--il-w1);stroke:var(--il-line)}.ilu .rbx{fill:var(--il-rb);stroke:var(--il-line)}.ilu .rbstrip{fill:none;stroke:var(--il-rb);stroke-width:8}.ilu .uvwave{fill:none;stroke:var(--il-hot)}.ilu .cordl{stroke:var(--il-cu)}.ilu .beadw{fill:none;stroke:var(--il-w3);stroke-width:6}.ilu .pourf{fill:none;stroke:var(--il-w2);stroke-width:6}.ilu .foamf,.ilu .padm{fill:var(--il-w2);stroke:var(--il-line)}.ilu .skin{fill:none;stroke:var(--il-w3);stroke-width:4}.ilu .chipd{fill:var(--il-rb);stroke:var(--il-line)}.ilu .glp{fill:var(--il-gl);stroke:var(--il-line)}.ilu .glsheet{fill:none;stroke:var(--il-fl);stroke-width:4}.ilu .rail{fill:none;stroke:var(--il-m3);stroke-width:5}.ilu .needle{stroke:var(--il-line);stroke-width:2}.ilu .stitch{fill:none;stroke:var(--accent);stroke-dasharray:4 3;stroke-width:1.6}.ilu .thread{stroke:var(--il-w2);stroke-width:2.2}.ilu .thread2{stroke:var(--il-hot);stroke-width:2.2}.ilu .slurry,.ilu .slurryp{fill:var(--il-rb2);stroke:var(--il-line)}.ilu .foilstrip{fill:none;stroke:var(--il-cu);stroke-width:3}.ilu .slurryl{fill:none;stroke:var(--il-rb2);stroke-width:5}.ilu .slurryl2{fill:none;stroke:var(--il-rb2);stroke-width:9}.ilu .windl0{fill:none;stroke:var(--il-cu);stroke-width:3}.ilu .windl1{fill:none;stroke:var(--il-m1);stroke-width:3}.ilu .windl2{fill:none;stroke:var(--il-rb2);stroke-width:3}.ilu .cuwire2{fill:none;stroke:var(--il-cu);stroke-width:6}.ilu .pcb,.ilu .okl{fill:var(--il-pcb);stroke:var(--il-line)}.ilu .wafer{fill:var(--il-m2);stroke:var(--il-line)}.ilu .wirebond{fill:none;stroke:var(--il-cu);stroke-width:1.6}.ilu .fringe{stroke:var(--accent);opacity:.7}.ilu .ring{fill:var(--il-t);stroke:var(--il-line)}.ilu .laserl{stroke:var(--il-hot);stroke-width:1.4;stroke-dasharray:5 3;fill:none}.ilu .zebra,.ilu .filt{fill:var(--il-cr);stroke:var(--il-line)}.ilu .ray{stroke:var(--accent);stroke-dasharray:4 3;fill:none}.ilu .wave{fill:none;stroke:var(--accent)}.ilu .yoke{fill:none;stroke:var(--il-m3);stroke-width:10}.ilu .indic{stroke:var(--accent);stroke-width:3;fill:none}.ilu .he{fill:var(--accent);opacity:.6;stroke:none}.ilu .beamf{fill:var(--il-yel);opacity:.55;stroke:none}.ilu .loc{fill:var(--il-line);stroke:none}.ilu .clampl{stroke:var(--il-hot);stroke-width:2.4}.ilu .clamph{fill:var(--il-hot);stroke:none}.ilu .leadd{fill:var(--ink2);stroke:none}.ilu .leadl{stroke:var(--ink2);stroke-width:.8;opacity:.8}.ilu .bal{fill:var(--surface);stroke:var(--accent);stroke-width:1.4}.ilu text.balt{fill:var(--accent);font-weight:700;font-size:10.5px}.ilu text.tol{fill:var(--ink2);font-size:10.5px}.ilu text.ttl{fill:var(--ink);font-weight:600;font-size:12px}.ilu .cl{stroke:var(--il-line);stroke-dasharray:14 3 2 3;stroke-width:.8;opacity:.7}.ilu .hid{fill:none;stroke:var(--il-line);stroke-dasharray:5 3;stroke-width:.9;opacity:.8}.ilu .mf{fill:none;stroke:var(--accent);stroke-width:4;stroke-linecap:round}.ilu .mfa{fill:var(--il-t);stroke:var(--accent);stroke-width:2}.ilu .rgh{fill:var(--il-w3);stroke:none}.ilu .done{stroke:var(--il-line);stroke-width:2.6;fill:none}.ilu .cut{fill:var(--il-w2);stroke:var(--il-line)}.ilu .ins{fill:var(--il-yel);stroke:var(--il-line)}.ilu .cool{stroke:var(--il-fl);stroke-dasharray:3 3}.ilu .cutl{stroke:var(--accent);stroke-width:2.4;stroke-dasharray:5 3}.ilu .poro{fill:var(--il-hot);stroke:none}.ilu .mfring{fill:none;stroke:var(--il-hot);stroke-width:1.5;stroke-dasharray:3 2}.ilu .xim{fill:#1D242B;stroke:var(--il-line)}.ilu .ximd{fill:#FFFFFF;stroke:none}.ilu .coat{fill:none;stroke:var(--il-hot);stroke-width:5}.ilu .hatchx{stroke:var(--accent);stroke-width:.8;opacity:.8}.ilu .jetl{fill:none;stroke:var(--il-fl);stroke-width:4;stroke-dasharray:8 4}.ilu .pres{fill:none;stroke:var(--il-fl);stroke-width:4.5}.ilu .tbg{fill:var(--surface);stroke:none;opacity:.94}.ilu .tbl{stroke:var(--line);stroke-width:1}.ilu .void{fill:var(--il-sec0);stroke:var(--il-line)}.ilu .hotband{fill:var(--il-hot);opacity:.35;stroke:none}.ilu .flash{fill:var(--il-hot);opacity:.25;stroke:var(--il-hot)}.ilu .cutframe{fill:none;stroke:var(--accent);stroke-width:2.2;stroke-dasharray:5 3}.ilu .orbit{fill:none;stroke:var(--accent);stroke-dasharray:3 3}.ilu .hotarc{fill:none;stroke:var(--il-hot);stroke-width:6;opacity:.8}.ilu .mfo{fill:none;stroke:var(--accent);stroke-width:2.4}.ilu .stem{stroke:var(--il-m3);stroke-width:5}.ilu .hotgrp .w,.ilu .hotgrp .w2,.ilu .hotgrp .w3,.ilu .hotgrp .rb,.ilu .hotgrp .m{fill:var(--il-h1);stroke:var(--il-hot)}:root{--il-ws1-old:#ECD9B4;--il-ws2:#DEC38F;--il-ws3:#C9A86F;--il-ws4:#AB8A55;--il-ts1:#BCC8F4;--il-ts2:#A5B3EA;--il-ts3:#8C9ADA;--il-ts4:#7382C6;--il-gs1:#B3BDE2;--il-gs2:#9CA7D0;--il-gs3:#8591BC;--il-gs4:#6E7AA5;--il-ms1:#D9E1DC;--il-ms2:#C2CDC6;--il-ms3:#A7B4AC;--il-ms4:#8B9990;--il-hs1:#F6B592;--il-hs2:#EE9B72;--il-hs3:#DF7C52;--il-hs4:#C9613A}.ilu .el{fill:none;stroke:var(--il-line);stroke-width:.75;stroke-linejoin:round}.ilu .ws1{fill:var(--il-ws1);stroke:var(--il-ws1);stroke-width:.5}.ilu .ws2{fill:var(--il-ws2);stroke:var(--il-ws2);stroke-width:.5}.ilu .ws3{fill:var(--il-ws3);stroke:var(--il-ws3);stroke-width:.5}.ilu .ws4{fill:var(--il-ws4);stroke:var(--il-ws4);stroke-width:.5}.ilu .ts1{fill:var(--il-ts1);stroke:var(--il-ts1);stroke-width:.5}.ilu .ts2{fill:var(--il-ts2);stroke:var(--il-ts2);stroke-width:.5}.ilu .ts3{fill:var(--il-ts3);stroke:var(--il-ts3);stroke-width:.5}.ilu .ts4{fill:var(--il-ts4);stroke:var(--il-ts4);stroke-width:.5}.ilu .gws1{fill:var(--il-gs1);stroke:var(--il-gs1);stroke-width:.5}.ilu .gws2{fill:var(--il-gs2);stroke:var(--il-gs2);stroke-width:.5}.ilu .gws3{fill:var(--il-gs3);stroke:var(--il-gs3);stroke-width:.5}.ilu .gws4{fill:var(--il-gs4);stroke:var(--il-gs4);stroke-width:.5}.ilu .ms1{fill:var(--il-ms1);stroke:var(--il-ms1);stroke-width:.5}.ilu .ms2{fill:var(--il-ms2);stroke:var(--il-ms2);stroke-width:.5}.ilu .ms3{fill:var(--il-ms3);stroke:var(--il-ms3);stroke-width:.5}.ilu .ms4{fill:var(--il-ms4);stroke:var(--il-ms4);stroke-width:.5}.ilu .hs1{fill:var(--il-hs1);stroke:var(--il-hs1);stroke-width:.5}.ilu .hs2{fill:var(--il-hs2);stroke:var(--il-hs2);stroke-width:.5}.ilu .hs3{fill:var(--il-hs3);stroke:var(--il-hs3);stroke-width:.5}.ilu .hs4{fill:var(--il-hs4);stroke:var(--il-hs4);stroke-width:.5}.ilu .gw{fill:var(--il-gw);stroke:var(--il-line)}.ilu .grit2{fill:none;stroke:var(--il-line);stroke-width:1.1;opacity:.35;stroke-linecap:round}.ilu .mfe{fill:none;stroke:var(--accent);stroke-width:1.8;stroke-linejoin:round}.ilu .chbd{fill:none;stroke:var(--il-t);stroke-width:4.5;stroke-linejoin:round;opacity:.9}.ilu .probe{fill:none;stroke:var(--il-m3);stroke-width:3.2;stroke-linecap:round;stroke-linejoin:round}.ilu .x{stroke:var(--il-line);stroke-width:.7}.ilu .gr{fill:none;stroke:var(--il-line);stroke-width:.5;opacity:.55}.ilu .m,.ilu .m2,.ilu .m3,.ilu .w,.ilu .w2,.ilu .w3,.ilu .t,.ilu .gw,.ilu .gwr,.ilu .bg,.ilu .cu,.ilu .alu,.ilu .shell,.ilu .bg2,.ilu .cr,.ilu .ball,.ilu .cut,.ilu .ring,.ilu .rb,.ilu .rb2,.ilu .rbx,.ilu .chipd{stroke:var(--il-edge)}.ilu .w{fill:url(#g-st)}.ilu .w2{fill:url(#g-st2)}.ilu .w3{fill:url(#g-st3)}.ilu.mt-al .w{fill:url(#g-al)}.ilu.mt-al .w2{fill:url(#g-al2)}.ilu.mt-al .w3{fill:url(#g-al3)}.ilu.mt-fe .w{fill:url(#g-fe)}.ilu.mt-fe .w2{fill:url(#g-fe2)}.ilu.mt-fe .w3{fill:url(#g-fe3)}.ilu.mt-pl .w{fill:url(#g-pl)}.ilu.mt-pl .w2{fill:url(#g-pl2)}.ilu.mt-pl .w3{fill:url(#g-pl3)}.ilu.mt-cu .w{fill:url(#g-cu)}.ilu.mt-cu .w2{fill:url(#g-cu2)}.ilu.mt-cu .w3{fill:url(#g-cu3)}.ilu .alu{fill:url(#g-al)}.ilu .cu{fill:url(#g-cu)}.ilu .m{fill:url(#g-m)}.ilu .m2{fill:url(#g-m2)}.ilu .m3{fill:url(#g-m3)}.ilu .shell,.ilu .bg2{fill:url(#g-m)}.ilu .t,.ilu .ring{fill:url(#g-t)}.ilu .gw,.ilu .gwr{fill:url(#g-gw)}.ilu .bg{fill:url(#g-bg)}.ilu .h,.ilu .hplate{fill:url(#g-hot);stroke:var(--il-hot)}.ilu .sh{fill:url(#g-sh)}.ilu .cut{fill:url(#p-cut)}.ilu .ball,.ilu .cr{fill:url(#g-ball)}.ilu .rb,.ilu .rbx,.ilu .chipd{fill:url(#g-rb)}.ilu .fl{fill:var(--il-f);fill-opacity:.7}.ilu .gl,.ilu .gl2,.ilu .glp,.ilu .lens{fill:var(--il-gl);fill-opacity:.55}.ilu .void{fill:var(--il-sec0)}:root{--ws1:#F2F4F6;--ws2:#CAD1D8;--ws3:#9FA8B1;--ws4:#77818B;--al1:#F8F8F6;--al2:#DADBD8;--al3:#B5B7B4;--al4:#8F918E;--fe1:#B8BDC2;--fe2:#8E949A;--fe3:#6B7177;--fe4:#4F555B;--pl1:#62666C;--pl2:#44484D;--pl3:#2F3236;--pl4:#1F2124;--cu1:#F6CDA8;--cu2:#DE9D6B;--cu3:#B97540;--cu4:#8A5229;--ts1:#F7E9C4;--ts2:#E3C98E;--ts3:#C1A060;--ts4:#957842;--gs1:#F5F2EC;--gs2:#DED8CD;--gs3:#C0B8A9;--gs4:#9D9485;--ms1:#F3F5F7;--ms2:#D4D9DE;--ms3:#ABB2B9;--ms4:#80888F;--hs1:#FFDCA4;--hs2:#FFB46B;--hs3:#F2853F;--hs4:#CF622B}.ilu .ws1{fill:var(--ws1);stroke:var(--ws1)}.ilu .ws2{fill:var(--ws2);stroke:var(--ws2)}.ilu .ws3{fill:var(--ws3);stroke:var(--ws3)}.ilu .ws4{fill:var(--ws4);stroke:var(--ws4)}.ilu.mt-al .ws1,.ilu .als1{fill:var(--al1);stroke:var(--al1)}.ilu.mt-al .ws2,.ilu .als2{fill:var(--al2);stroke:var(--al2)}.ilu.mt-al .ws3,.ilu .als3{fill:var(--al3);stroke:var(--al3)}.ilu.mt-al .ws4,.ilu .als4{fill:var(--al4);stroke:var(--al4)}.ilu.mt-fe .ws1{fill:var(--fe1);stroke:var(--fe1)}.ilu.mt-fe .ws2{fill:var(--fe2);stroke:var(--fe2)}.ilu.mt-fe .ws3{fill:var(--fe3);stroke:var(--fe3)}.ilu.mt-fe .ws4{fill:var(--fe4);stroke:var(--fe4)}.ilu.mt-pl .ws1{fill:var(--pl1);stroke:var(--pl1)}.ilu.mt-pl .ws2{fill:var(--pl2);stroke:var(--pl2)}.ilu.mt-pl .ws3{fill:var(--pl3);stroke:var(--pl3)}.ilu.mt-pl .ws4{fill:var(--pl4);stroke:var(--pl4)}.ilu .cus1{fill:var(--cu1);stroke:var(--cu1)}.ilu .cus2{fill:var(--cu2);stroke:var(--cu2)}.ilu .cus3{fill:var(--cu3);stroke:var(--cu3)}.ilu .cus4{fill:var(--cu4);stroke:var(--cu4)}.ilu .ts1{fill:var(--ts1);stroke:var(--ts1)}.ilu .ts2{fill:var(--ts2);stroke:var(--ts2)}.ilu .ts3{fill:var(--ts3);stroke:var(--ts3)}.ilu .ts4{fill:var(--ts4);stroke:var(--ts4)}.ilu .gws1{fill:var(--gs1);stroke:var(--gs1)}.ilu .gws2{fill:var(--gs2);stroke:var(--gs2)}.ilu .gws3{fill:var(--gs3);stroke:var(--gs3)}.ilu .gws4{fill:var(--gs4);stroke:var(--gs4)}.ilu .ms1{fill:var(--ms1);stroke:var(--ms1)}.ilu .ms2{fill:var(--ms2);stroke:var(--ms2)}.ilu .ms3{fill:var(--ms3);stroke:var(--ms3)}.ilu .ms4{fill:var(--ms4);stroke:var(--ms4)}.ilu .hs1{fill:var(--hs1);stroke:var(--hs1)}.ilu .hs2{fill:var(--hs2);stroke:var(--hs2)}.ilu .hs3{fill:var(--hs3);stroke:var(--hs3)}.ilu .hs4{fill:var(--hs4);stroke:var(--hs4)}.ilu .ws1,.ilu .ws2,.ilu .ws3,.ilu .ws4,.ilu .ts1,.ilu .ts2,.ilu .ts3,.ilu .ts4,.ilu .gws1,.ilu .gws2,.ilu .gws3,.ilu .gws4,.ilu .ms1,.ilu .ms2,.ilu .ms3,.ilu .ms4,.ilu .hs1,.ilu .hs2,.ilu .hs3,.ilu .hs4,.ilu .als1,.ilu .als2,.ilu .als3,.ilu .als4,.ilu .cus1,.ilu .cus2,.ilu .cus3,.ilu .cus4{stroke-width:.5}.ilu .alus1{fill:var(--al1);stroke:var(--al1)}.ilu .alus2{fill:var(--al2);stroke:var(--al2)}.ilu .alus3{fill:var(--al3);stroke:var(--al3)}.ilu .alus4{fill:var(--al4);stroke:var(--al4)}.ilu .alus1,.ilu .alus2,.ilu .alus3,.ilu .alus4{stroke-width:.5}.ilu .x{stroke:var(--il-edge);stroke-width:.55}.ilu .el{stroke:var(--il-edge);stroke-width:.6}.ilu .gr{stroke:var(--il-edge);stroke-width:.45;opacity:.6}.ilu .grit2{stroke:#6B6357;opacity:.35}.ilu .wire{stroke:#B97540}.ilu .wire2,.ilu .skin,.ilu .sheet,.ilu .bead,.ilu .beadw{stroke:#9AA3AC}.ilu .hatch{stroke:var(--il-edge)}.ilu .strip{stroke:#B4BCC4}.ilu rect.strip{fill:url(#g-st2)}.ilu .sheet2{fill:url(#g-st2)}.ilu .parison,.ilu .foamf,.ilu .padm{fill:url(#g-pl)}.ilu .chip{stroke:#C1A060}.ilu .rgh{fill:#9FA8B1}.ilu .hotgrp .w,.ilu .hotgrp .w2,.ilu .hotgrp .w3,.ilu .hotgrp .rb,.ilu .hotgrp .m{fill:url(#g-hot);stroke:var(--il-hot)}:root{--pt1:#F6F5F1;--pt2:#E1E0DA;--pt3:#C3C2BB;--pt4:#9E9D96;--dk1:#6C727A;--dk2:#50555C;--dk3:#3B3F45;--dk4:#2A2D31}.ilu .pt{fill:url(#g-pt);stroke:var(--il-edge)}.ilu .dk{fill:url(#g-dk);stroke:var(--il-edge)}.ilu .pts1{fill:var(--pt1);stroke:var(--pt1)}.ilu .pts2{fill:var(--pt2);stroke:var(--pt2)}.ilu .pts3{fill:var(--pt3);stroke:var(--pt3)}.ilu .pts4{fill:var(--pt4);stroke:var(--pt4)}.ilu .dks1{fill:var(--dk1);stroke:var(--dk1)}.ilu .dks2{fill:var(--dk2);stroke:var(--dk2)}.ilu .dks3{fill:var(--dk3);stroke:var(--dk3)}.ilu .dks4{fill:var(--dk4);stroke:var(--dk4)}.ilu .pts1,.ilu .pts2,.ilu .pts3,.ilu .pts4,.ilu .dks1,.ilu .dks2,.ilu .dks3,.ilu .dks4{stroke-width:.5}.ilu .thread{fill:none;stroke:rgba(18,22,27,.35);stroke-width:.7}.ilu .wire{fill:none}.ilu .tslot{fill:none;stroke:rgba(18,22,27,.45);stroke-width:1.6}.ilu .mgrid{fill:none;stroke:rgba(255,255,255,.18);stroke-width:1}.ilu .hobt{fill:none;stroke:rgba(80,60,20,.55);stroke-width:1}.ilu .gwt{fill:none;stroke:rgba(110,95,70,.45);stroke-width:1}.ilu .spark{stroke:#FF8A3D;stroke-width:1.4;stroke-linecap:round}.ilu .kerf{fill:none;stroke:#3A3F46;stroke-width:1.6}.ilu path.wire{stroke:#B97540;stroke-width:1.4}.ilu .fl{fill:var(--il-fl);fill-opacity:.35}.ilu .fls1,.ilu .fls2,.ilu .fls3,.ilu .fls4{fill:var(--il-fl);fill-opacity:.25;stroke:none}.ilu .cutw{fill:#2B2F35;opacity:.85}.ilu .ball{fill:url(#g-ball);stroke:rgba(18,22,27,.45);stroke-width:.5}.ilu .scr{fill:none;stroke:rgba(18,22,27,.35);stroke-width:.8}.ilu .scrn{fill:#13232E;stroke:#0B0D10}.ilu .scrl{fill:#3FA7D6;opacity:.7}.ilu .scrg{fill:none;stroke:#7FD3A8;stroke-width:1.2}.ilu .key{fill:#2C3036;stroke:#6E757D;stroke-width:.6}.ilu .kbtn{fill:#E6E6E2;stroke:#555;stroke-width:.6}.ilu .mpg{fill:#2C3036;stroke:#9AA1A8}.ilu .mpg2{fill:#4A5058;stroke:#9AA1A8}.ilu .estop{fill:#D8332A;stroke:#F2C230;stroke-width:3}.ilu .knob{fill:#C9CDD2;stroke:#555}.ilu .pipe{fill:none;stroke:#7E8790;stroke-width:5;stroke-linejoin:round;stroke-linecap:round}.ilu .spray{stroke:#3F9FD1;stroke-width:1.4;opacity:.8}.ilu .chipc{fill:none;stroke:#B98A3E;stroke-width:1.6}.ilu .heatg{fill:#FF7A3D;opacity:.28}.ilu .heatg2{fill:#FF9A55;opacity:.18}.ilu .ghost{fill:none;stroke:#E4602A;stroke-width:1.4;stroke-dasharray:5 4}.ilu .sensor{fill:#2D5BFF;stroke:#fff;stroke-width:1.2}.ilu .win{fill:#1E2A33;opacity:.75;stroke:rgba(255,255,255,.4);stroke-width:.8}.ilu .fence{fill:none;stroke:#E8B931;stroke-width:3}.ilu .probeball{fill:#C8302A;stroke:#7A1A16;stroke-width:.6}text,.bal,.balt,.leadl,.leadd,.a,.af{display:none}</style><svg><defs>
<linearGradient id="g-st" x1="0" y1="0" x2=".3" y2="1"><stop offset="0" stop-color="#EEF1F4"/><stop offset=".16" stop-color="#FFFFFF"/><stop offset=".46" stop-color="#D3D9DF"/><stop offset=".84" stop-color="#9BA4AD"/><stop offset="1" stop-color="#BAC1C8"/></linearGradient>
<linearGradient id="g-st2" x1="0" y1="0" x2=".3" y2="1"><stop offset="0" stop-color="#D5DBE1"/><stop offset=".22" stop-color="#E2E6EA"/><stop offset=".6" stop-color="#A8B1BA"/><stop offset="1" stop-color="#8A949E"/></linearGradient>
<linearGradient id="g-st3" x1="0" y1="0" x2=".3" y2="1"><stop offset="0" stop-color="#A1AAB3"/><stop offset="1" stop-color="#6E7882"/></linearGradient>
<linearGradient id="g-al" x1="0" y1="0" x2=".3" y2="1"><stop offset="0" stop-color="#F6F6F4"/><stop offset=".15" stop-color="#FFFFFF"/><stop offset=".5" stop-color="#E2E3E0"/><stop offset=".86" stop-color="#B9BBB8"/><stop offset="1" stop-color="#D0D2CF"/></linearGradient>
<linearGradient id="g-al2" x1="0" y1="0" x2=".3" y2="1"><stop offset="0" stop-color="#E3E4E1"/><stop offset=".6" stop-color="#B8BAB7"/><stop offset="1" stop-color="#9EA09D"/></linearGradient>
<linearGradient id="g-al3" x1="0" y1="0" x2=".3" y2="1"><stop offset="0" stop-color="#A9ABA8"/><stop offset="1" stop-color="#7E807D"/></linearGradient>
<linearGradient id="g-fe" x1="0" y1="0" x2=".3" y2="1"><stop offset="0" stop-color="#B9BEC3"/><stop offset=".18" stop-color="#C9CDD1"/><stop offset=".55" stop-color="#8F959B"/><stop offset="1" stop-color="#6A7076"/></linearGradient>
<linearGradient id="g-fe2" x1="0" y1="0" x2=".3" y2="1"><stop offset="0" stop-color="#8E949A"/><stop offset="1" stop-color="#62686E"/></linearGradient>
<linearGradient id="g-fe3" x1="0" y1="0" x2=".3" y2="1"><stop offset="0" stop-color="#60666C"/><stop offset="1" stop-color="#43494F"/></linearGradient>
<linearGradient id="g-pl" x1="0" y1="0" x2=".3" y2="1"><stop offset="0" stop-color="#70747A"/><stop offset=".45" stop-color="#43474C"/><stop offset="1" stop-color="#26292C"/></linearGradient>
<linearGradient id="g-pl2" x1="0" y1="0" x2=".3" y2="1"><stop offset="0" stop-color="#4C5055"/><stop offset="1" stop-color="#2B2E32"/></linearGradient>
<linearGradient id="g-pl3" x1="0" y1="0" x2=".3" y2="1"><stop offset="0" stop-color="#35383C"/><stop offset="1" stop-color="#1C1E21"/></linearGradient>
<linearGradient id="g-cu" x1="0" y1="0" x2=".3" y2="1"><stop offset="0" stop-color="#FBDCC0"/><stop offset=".25" stop-color="#F2B687"/><stop offset=".7" stop-color="#C77F4E"/><stop offset="1" stop-color="#9B5B2F"/></linearGradient>
<linearGradient id="g-cu2" x1="0" y1="0" x2=".3" y2="1"><stop offset="0" stop-color="#DA9764"/><stop offset="1" stop-color="#9C5C30"/></linearGradient>
<linearGradient id="g-cu3" x1="0" y1="0" x2=".3" y2="1"><stop offset="0" stop-color="#A9693B"/><stop offset="1" stop-color="#6F3E1E"/></linearGradient>
<linearGradient id="g-pt" x1="0" y1="0" x2=".25" y2="1"><stop offset="0" stop-color="#FAFAF7"/><stop offset=".55" stop-color="#EDECE7"/><stop offset="1" stop-color="#D9D8D1"/></linearGradient>
<linearGradient id="g-dk" x1="0" y1="0" x2=".25" y2="1"><stop offset="0" stop-color="#6A7078"/><stop offset=".6" stop-color="#4A4F56"/><stop offset="1" stop-color="#35393E"/></linearGradient>
<linearGradient id="g-m" x1="0" y1="0" x2=".2" y2="1"><stop offset="0" stop-color="#FFFFFF"/><stop offset=".55" stop-color="#EEF0F2"/><stop offset="1" stop-color="#D5D9DD"/></linearGradient>
<linearGradient id="g-m2" x1="0" y1="0" x2=".2" y2="1"><stop offset="0" stop-color="#E1E5E9"/><stop offset="1" stop-color="#B5BBC1"/></linearGradient>
<linearGradient id="g-m3" x1="0" y1="0" x2=".2" y2="1"><stop offset="0" stop-color="#626970"/><stop offset=".5" stop-color="#3C4249"/><stop offset="1" stop-color="#2A2F35"/></linearGradient>
<linearGradient id="g-t" x1="0" y1="0" x2=".3" y2="1"><stop offset="0" stop-color="#F8EBC8"/><stop offset=".14" stop-color="#FFF7E3"/><stop offset=".48" stop-color="#E6CC92"/><stop offset=".86" stop-color="#BF9F62"/><stop offset="1" stop-color="#D3B97E"/></linearGradient>
<linearGradient id="g-gw" x1="0" y1="0" x2=".3" y2="1"><stop offset="0" stop-color="#F8F5F0"/><stop offset=".5" stop-color="#E4DED3"/><stop offset="1" stop-color="#C6BEAF"/></linearGradient>
<linearGradient id="g-bg" x1="0" y1="0" x2=".3" y2="1"><stop offset="0" stop-color="#3B4148"/><stop offset="1" stop-color="#16191C"/></linearGradient>
<linearGradient id="g-rb" x1="0" y1="0" x2=".3" y2="1"><stop offset="0" stop-color="#50545A"/><stop offset="1" stop-color="#1D1F22"/></linearGradient>
<linearGradient id="g-hot" x1="0" y1="0" x2=".3" y2="1"><stop offset="0" stop-color="#FFEAB5"/><stop offset=".45" stop-color="#FFB15A"/><stop offset="1" stop-color="#EE7430"/></linearGradient>
<radialGradient id="g-sh" cx=".5" cy=".5" r=".5"><stop offset="0" stop-color="#000" stop-opacity=".3"/><stop offset=".6" stop-color="#000" stop-opacity=".1"/><stop offset="1" stop-color="#000" stop-opacity="0"/></radialGradient>
<radialGradient id="g-ball" cx=".5" cy=".5" r=".55" fx=".34" fy=".3"><stop offset="0" stop-color="#FFFFFF"/><stop offset=".45" stop-color="#D6DCE1"/><stop offset="1" stop-color="#848E98"/></radialGradient>
<pattern id="p-cut" width="6" height="6" patternUnits="userSpaceOnUse" patternTransform="rotate(45)"><rect width="6" height="6" fill="#C9CFD5"/><line x1="0" y1="0" x2="0" y2="6" stroke="#7F8891" stroke-width="1.1"/></pattern>
</defs></svg>
<ellipse class="sh" cx="320" cy="364" rx="204.6" ry="16"/><path class="dks4" d="M126.6 237 L130.4 241 L134.6 243.8 L139.1 245.3 L196 256.5 L191.5 255 L187.4 252.3 L183.6 248.3Z"/><path class="el" d="M139.1 245.3L196 256.5M183.6 248.3 L187.4 252.3 L191.5 255 L196 256.5M126.6 237 L130.4 241 L134.6 243.8 L139.1 245.3"/><path class="dks1" d="M168.4 94.7 L163.7 94.5 L158.8 95.6 L153.8 97.9 L210.7 109.2 L215.7 106.8 L220.6 105.8 L225.4 106Z"/><path class="el" d="M168.4 94.7L225.4 106M225.4 106 L220.6 105.8 L215.7 106.8 L210.7 109.2M168.4 94.7 L163.7 94.5 L158.8 95.6 L153.8 97.9"/><path class="dks3" d="M118.3 218.6 L120.5 225.7 L123.3 231.9 L126.6 237 L183.6 248.3 L180.3 243.2 L177.5 237 L175.3 229.8Z"/><path class="el" d="M175.3 229.8 L177.5 237 L180.3 243.2 L183.6 248.3M118.3 218.6 L120.5 225.7 L123.3 231.9 L126.6 237"/><path class="dks1" d="M153.8 97.9 L148.8 101.5 L143.8 106.3 L139.1 112.1 L196 123.4 L200.8 117.5 L205.7 112.8 L210.7 109.2Z"/><path class="el" d="M210.7 109.2 L205.7 112.8 L200.8 117.5 L196 123.4M153.8 97.9 L148.8 101.5 L143.8 106.3 L139.1 112.1"/><path class="dks2" d="M115.4 192.7 L115.7 202 L116.7 210.6 L118.3 218.6 L175.3 229.8 L173.7 221.9 L172.7 213.2 L172.3 204Z"/><path class="el" d="M172.3 204 L172.7 213.2 L173.7 221.9 L175.3 229.8M115.4 192.7 L115.7 202 L116.7 210.6 L118.3 218.6"/><path class="dks1" d="M139.1 112.1 L134.6 119 L130.4 126.7 L126.6 135.1 L183.6 146.4 L187.4 137.9 L191.5 130.2 L196 123.4Z"/><path class="el" d="M196 123.4 L191.5 130.2 L187.4 137.9 L183.6 146.4M139.1 112.1 L134.6 119 L130.4 126.7 L126.6 135.1"/><path class="dks1" d="M118.3 163.4 L116.7 173.3 L115.7 183.1 L115.4 192.7 L172.3 204 L172.7 194.4 L173.7 184.6 L175.3 174.7Z"/><path class="el" d="M175.3 174.7 L173.7 184.6 L172.7 194.4 L172.3 204M118.3 163.4 L116.7 173.3 L115.7 183.1 L115.4 192.7"/><path class="dks1" d="M126.6 135.1 L123.3 144.2 L120.5 153.7 L118.3 163.4 L175.3 174.7 L177.5 164.9 L180.3 155.4 L183.6 146.4Z"/><path class="el" d="M183.6 146.4 L180.3 155.4 L177.5 164.9 L175.3 174.7M126.6 135.1 L123.3 144.2 L120.5 153.7 L118.3 163.4"/><path class="dks4" fill-rule="evenodd" d="M249 158.5 L248.7 149.3 L247.7 140.7 L246.1 132.7 L243.9 125.5 L241.1 119.4 L237.8 114.2 L234 110.3 L229.9 107.5 L225.4 106 L220.6 105.8 L215.7 106.8 L210.7 109.2 L205.7 112.8 L200.8 117.5 L196 123.4 L191.5 130.2 L187.4 137.9 L183.6 146.4 L180.3 155.4 L177.5 164.9 L175.3 174.7 L173.7 184.6 L172.7 194.4 L172.3 204 L172.7 213.2 L173.7 221.9 L175.3 229.8 L177.5 237 L180.3 243.2 L183.6 248.3 L187.4 252.3 L191.5 255 L196 256.5 L200.8 256.8 L205.7 255.7 L210.7 253.3 L215.7 249.8 L220.6 245 L225.4 239.2 L229.9 232.3 L234 224.6 L237.8 216.2 L241.1 207.1 L243.9 197.6 L246.1 187.9 L247.7 178 L248.7 168.1Z"/><path class="ws4" d="M199.1 210 L200.7 211.7 L202.5 212.9 L204.4 213.5 L261.3 224.8 L259.4 224.1 L257.6 222.9 L256 221.2Z"/><path class="el" d="M204.4 213.5L261.3 224.8M256 221.2 L257.6 222.9 L259.4 224.1 L261.3 224.8M199.1 210 L200.7 211.7 L202.5 212.9 L204.4 213.5"/><path class="ws1" d="M217 149 L215 148.9 L212.8 149.4 L210.7 150.4 L267.6 161.6 L269.8 160.6 L271.9 160.1 L273.9 160.2Z"/><path class="el" d="M217 149L273.9 160.2M273.9 160.2 L271.9 160.1 L269.8 160.6 L267.6 161.6M217 149 L215 148.9 L212.8 149.4 L210.7 150.4"/><path class="ws3" d="M195.5 202.1 L196.5 205.1 L197.7 207.8 L199.1 210 L256 221.2 L254.6 219 L253.4 216.4 L252.4 213.3Z"/><path class="el" d="M252.4 213.3 L253.4 216.4 L254.6 219 L256 221.2M195.5 202.1 L196.5 205.1 L197.7 207.8 L199.1 210"/><path class="ws1" d="M210.7 150.4 L208.6 151.9 L206.4 153.9 L204.4 156.4 L261.3 167.7 L263.4 165.2 L265.5 163.2 L267.6 161.6Z"/><path class="el" d="M267.6 161.6 L265.5 163.2 L263.4 165.2 L261.3 167.7M210.7 150.4 L208.6 151.9 L206.4 153.9 L204.4 156.4"/><path class="ws2" d="M194.3 191 L194.4 194.9 L194.8 198.7 L195.5 202.1 L252.4 213.3 L251.8 209.9 L251.3 206.2 L251.2 202.2Z"/><path class="el" d="M251.2 202.2 L251.3 206.2 L251.8 209.9 L252.4 213.3M194.3 191 L194.4 194.9 L194.8 198.7 L195.5 202.1"/><path class="ws1" d="M204.4 156.4 L202.5 159.4 L200.7 162.7 L199.1 166.3 L256 177.5 L257.6 173.9 L259.4 170.6 L261.3 167.7Z"/><path class="el" d="M261.3 167.7 L259.4 170.6 L257.6 173.9 L256 177.5M204.4 156.4 L202.5 159.4 L200.7 162.7 L199.1 166.3"/><path class="ws1" d="M195.5 178.4 L194.8 182.7 L194.4 186.9 L194.3 191 L251.2 202.2 L251.3 198.1 L251.8 193.9 L252.4 189.7Z"/><path class="el" d="M252.4 189.7 L251.8 193.9 L251.3 198.1 L251.2 202.2M195.5 178.4 L194.8 182.7 L194.4 186.9 L194.3 191"/><path class="ws1" d="M199.1 166.3 L197.7 170.2 L196.5 174.2 L195.5 178.4 L252.4 189.7 L253.4 185.5 L254.6 181.4 L256 177.5Z"/><path class="el" d="M256 177.5 L254.6 181.4 L253.4 185.5 L252.4 189.7M199.1 166.3 L197.7 170.2 L196.5 174.2 L195.5 178.4"/><path class="ws4" fill-rule="evenodd" d="M284.1 182.8 L283.9 178.8 L283.5 175.1 L282.8 171.7 L281.9 168.6 L280.7 166 L279.3 163.8 L277.6 162.1 L275.9 160.9 L273.9 160.2 L271.9 160.1 L269.8 160.6 L267.6 161.6 L265.5 163.2 L263.4 165.2 L261.3 167.7 L259.4 170.6 L257.6 173.9 L256 177.5 L254.6 181.4 L253.4 185.5 L252.4 189.7 L251.8 193.9 L251.3 198.1 L251.2 202.2 L251.3 206.2 L251.8 209.9 L252.4 213.3 L253.4 216.4 L254.6 219 L256 221.2 L257.6 222.9 L259.4 224.1 L261.3 224.8 L263.4 224.9 L265.5 224.4 L267.6 223.4 L269.8 221.9 L271.9 219.8 L273.9 217.3 L275.9 214.4 L277.6 211.1 L279.3 207.5 L280.7 203.6 L281.9 199.5 L282.8 195.3 L283.5 191.1 L283.9 186.9Z"/><path class="ws4" d="M221.1 307.4 L227.6 314.2 L234.8 319 L242.5 321.6 L318.4 336.6 L310.7 334 L303.5 329.2 L297.1 322.4Z"/><path class="el" d="M242.5 321.6L318.4 336.6M297.1 322.4 L303.5 329.2 L310.7 334 L318.4 336.6M221.1 307.4 L227.6 314.2 L234.8 319 L242.5 321.6"/><path class="ws1" d="M292.8 63.4 L284.6 63.1 L276.2 64.9 L267.6 68.9 L343.5 83.9 L352.1 79.9 L360.6 78.1 L368.7 78.4Z"/><path class="el" d="M292.8 63.4L368.7 78.4M368.7 78.4 L360.6 78.1 L352.1 79.9 L343.5 83.9M292.8 63.4 L284.6 63.1 L276.2 64.9 L267.6 68.9"/><path class="ws3" d="M206.9 275.8 L210.7 288 L215.5 298.6 L221.1 307.4 L297.1 322.4 L291.4 313.6 L286.6 303 L282.8 290.8Z"/><path class="el" d="M282.8 290.8 L286.6 303 L291.4 313.6 L297.1 322.4M206.9 275.8 L210.7 288 L215.5 298.6 L221.1 307.4"/><path class="ws1" d="M267.6 68.9 L259.1 75.1 L250.6 83.2 L242.5 93.3 L318.4 108.2 L326.5 98.2 L335 90.1 L343.5 83.9Z"/><path class="el" d="M343.5 83.9 L335 90.1 L326.5 98.2 L318.4 108.2M267.6 68.9 L259.1 75.1 L250.6 83.2 L242.5 93.3"/><path class="ws2" d="M201.9 231.5 L202.5 247.2 L204.1 262.1 L206.9 275.8 L282.8 290.8 L280 277.1 L278.4 262.2 L277.8 246.4Z"/><path class="el" d="M277.8 246.4 L278.4 262.2 L280 277.1 L282.8 290.8M201.9 231.5 L202.5 247.2 L204.1 262.1 L206.9 275.8"/><path class="ws1" d="M242.5 93.3 L234.8 105 L227.6 118.2 L221.1 132.7 L297.1 147.7 L303.5 133.2 L310.7 120 L318.4 108.2Z"/><path class="el" d="M318.4 108.2 L310.7 120 L303.5 133.2 L297.1 147.7M242.5 93.3 L234.8 105 L227.6 118.2 L221.1 132.7"/><path class="ws1" d="M206.9 181.2 L204.1 198.1 L202.5 215 L201.9 231.5 L277.8 246.4 L278.4 230 L280 213.1 L282.8 196.2Z"/><path class="el" d="M282.8 196.2 L280 213.1 L278.4 230 L277.8 246.4M206.9 181.2 L204.1 198.1 L202.5 215 L201.9 231.5"/><path class="ws1" d="M221.1 132.7 L215.5 148.2 L210.7 164.5 L206.9 181.2 L282.8 196.2 L286.6 179.4 L291.4 163.2 L297.1 147.7Z"/><path class="el" d="M297.1 147.7 L291.4 163.2 L286.6 179.4 L282.8 196.2M221.1 132.7 L215.5 148.2 L210.7 164.5 L206.9 181.2"/><path class="ws4" fill-rule="evenodd" d="M409.3 168.5 L408.7 152.8 L407.1 137.9 L404.3 124.2 L400.5 112 L395.7 101.4 L390 92.6 L383.6 85.8 L376.4 81 L368.7 78.4 L360.6 78.1 L352.1 79.9 L343.5 83.9 L335 90.1 L326.5 98.2 L318.4 108.2 L310.7 120 L303.5 133.2 L297.1 147.7 L291.4 163.2 L286.6 179.4 L282.8 196.2 L280 213.1 L278.4 230 L277.8 246.4 L278.4 262.2 L280 277.1 L282.8 290.8 L286.6 303 L291.4 313.6 L297.1 322.4 L303.5 329.2 L310.7 334 L318.4 336.6 L326.5 336.9 L335 335.1 L343.5 331.1 L352.1 324.9 L360.6 316.8 L368.7 306.7 L376.4 295 L383.6 281.8 L390 267.3 L395.7 251.8 L400.5 235.5 L404.3 218.8 L407.1 201.9 L408.7 185Z"/><path class="ws4 x" d="M355.6 231.3 L388.8 247.6 L407.8 251.4 L374.5 235Z"/><path class="ws1 x" d="M363.8 199.6 L355.6 231.3 L374.5 235 L382.8 203.4Z"/><path class="ws4" fill-rule="evenodd" d="M374.5 235 L407.8 251.4 L416 219.7 L382.8 203.4Z"/><circle class="bolt" cx="396.1" cy="176.3" r="3.4"/><circle class="bolt" cx="369.8" cy="106.3" r="3.4"/><circle class="bolt" cx="317.3" cy="137.5" r="3.4"/><circle class="bolt" cx="291" cy="238.7" r="3.4"/><circle class="bolt" cx="317.3" cy="308.7" r="3.4"/><circle class="bolt" cx="369.8" cy="277.5" r="3.4"/><path class="alus4 x" d="M377 233.8 L402.6 246.5 L434.9 252.8 L409.3 240.2Z"/><path class="alus1 x" d="M384.1 206.4 L377 233.8 L409.3 240.2 L416.4 212.8Z"/><path class="alus4" fill-rule="evenodd" d="M409.3 240.2 L434.9 252.8 L442 225.4 L416.4 212.8Z"/><path class="ws1 x" d="M351.8 95.5 L335.3 105.3 L354.3 109 L370.7 99.3Z"/><path class="ws2 x" d="M335.3 105.3 L335.3 177.4 L354.3 181.1 L354.3 109Z"/><path class="ws4" fill-rule="evenodd" d="M370.7 171.4 L370.7 99.3 L354.3 109 L354.3 181.1Z"/><path class="ws1 x" d="M323.3 223.6 L290.1 279.3 L309.1 283.1 L342.3 227.4Z"/><path class="ws3 x" d="M290.1 279.3 L298.3 301.2 L317.3 305 L309.1 283.1Z"/><path class="ws4" fill-rule="evenodd" d="M342.3 227.4 L309.1 283.1 L317.3 305 L350.5 249.2Z"/><path class="alus1 x" d="M340.9 232 L315.3 275 L347.6 281.4 L373.2 238.4Z"/><path class="alus3 x" d="M315.3 275 L322.4 293.9 L354.7 300.3 L347.6 281.4Z"/><path class="alus4" fill-rule="evenodd" d="M373.2 238.4 L347.6 281.4 L354.7 300.3 L380.3 257.3Z"/><path class="ws4" d="M348.6 245.7 L350.5 247.8 L352.7 249.2 L355 250 L497.3 278.1 L495 277.3 L492.9 275.9 L490.9 273.8Z"/><path class="el" d="M355 250L497.3 278.1M490.9 273.8 L492.9 275.9 L495 277.3 L497.3 278.1M348.6 245.7 L350.5 247.8 L352.7 249.2 L355 250"/><path class="ws1" d="M370.1 172.5 L367.6 172.4 L365.1 173 L362.5 174.2 L504.9 202.3 L507.4 201.1 L510 200.5 L512.4 200.6Z"/><path class="el" d="M370.1 172.5L512.4 200.6M512.4 200.6 L510 200.5 L507.4 201.1 L504.9 202.3M370.1 172.5 L367.6 172.4 L365.1 173 L362.5 174.2"/><path class="ws3" d="M344.3 236.2 L345.4 239.9 L346.9 243.1 L348.6 245.7 L490.9 273.8 L489.2 271.2 L487.8 268 L486.6 264.3Z"/><path class="el" d="M486.6 264.3 L487.8 268 L489.2 271.2 L490.9 273.8M344.3 236.2 L345.4 239.9 L346.9 243.1 L348.6 245.7"/><path class="ws1" d="M362.5 174.2 L360 176 L357.4 178.5 L355 181.5 L497.3 209.6 L499.8 206.6 L502.3 204.1 L504.9 202.3Z"/><path class="el" d="M504.9 202.3 L502.3 204.1 L499.8 206.6 L497.3 209.6M362.5 174.2 L360 176 L357.4 178.5 L355 181.5"/><path class="ws2" d="M342.8 222.9 L343 227.7 L343.5 232.1 L344.3 236.2 L486.6 264.3 L485.8 260.2 L485.3 255.8 L485.1 251Z"/><path class="el" d="M485.1 251 L485.3 255.8 L485.8 260.2 L486.6 264.3M342.8 222.9 L343 227.7 L343.5 232.1 L344.3 236.2"/><path class="ws1" d="M355 181.5 L352.7 185 L350.5 188.9 L348.6 193.3 L490.9 221.4 L492.9 217.1 L495 213.1 L497.3 209.6Z"/><path class="el" d="M497.3 209.6 L495 213.1 L492.9 217.1 L490.9 221.4M355 181.5 L352.7 185 L350.5 188.9 L348.6 193.3"/><path class="ws1" d="M344.3 207.9 L343.5 212.9 L343 218 L342.8 222.9 L485.1 251 L485.3 246.1 L485.8 241 L486.6 236Z"/><path class="el" d="M486.6 236 L485.8 241 L485.3 246.1 L485.1 251M344.3 207.9 L343.5 212.9 L343 218 L342.8 222.9"/><path class="ws1" d="M348.6 193.3 L346.9 197.9 L345.4 202.8 L344.3 207.9 L486.6 236 L487.8 230.9 L489.2 226.1 L490.9 221.4Z"/><path class="el" d="M490.9 221.4 L489.2 226.1 L487.8 230.9 L486.6 236M348.6 193.3 L346.9 197.9 L345.4 202.8 L344.3 207.9"/><path class="ws4" fill-rule="evenodd" d="M524.6 227.7 L524.4 222.9 L523.9 218.5 L523.1 214.4 L521.9 210.7 L520.5 207.5 L518.8 204.9 L516.9 202.8 L514.7 201.4 L512.4 200.6 L510 200.5 L507.4 201.1 L504.9 202.3 L502.3 204.1 L499.8 206.6 L497.3 209.6 L495 213.1 L492.9 217.1 L490.9 221.4 L489.2 226.1 L487.8 230.9 L486.6 236 L485.8 241 L485.3 246.1 L485.1 251 L485.3 255.8 L485.8 260.2 L486.6 264.3 L487.8 268 L489.2 271.2 L490.9 273.8 L492.9 275.9 L495 277.3 L497.3 278.1 L499.8 278.2 L502.3 277.6 L504.9 276.4 L507.4 274.6 L510 272.1 L512.4 269.1 L514.7 265.6 L516.9 261.6 L518.8 257.3 L520.5 252.6 L521.9 247.8 L523.1 242.7 L523.9 237.7 L524.4 232.6Z"/><path class="alus1 x" d="M369.6 112.3 L355.4 120.7 L387.7 127.1 L401.9 118.7Z"/><path class="alus2 x" d="M355.4 120.7 L355.4 176.3 L387.7 182.7 L387.7 127.1Z"/><path class="alus4" fill-rule="evenodd" d="M401.9 174.3 L401.9 118.7 L387.7 127.1 L387.7 182.7Z"/><line class="a" x1="209.9" y1="118.1" x2="209.9" y2="196.5"/><polygon class="af" points="209.9,200.5 206.3,194.5 213.5,194.5"/><text x="209.9" y="149.3" text-anchor="middle" class="al">把握</text><line class="leadl" x1="245.3" y1="173.9" x2="24" y2="173.9"/><circle class="leadd" cx="245.3" cy="173.9" r="2.2"/><circle class="bal" cx="24" cy="173.9" r="9"/><text x="24" y="177.9" text-anchor="middle" class="balt">1</text><line class="leadl" x1="391.4" y1="124.9" x2="616" y2="124.9"/><circle class="leadd" cx="391.4" cy="124.9" r="2.2"/><circle class="bal" cx="616" cy="124.9" r="9"/><text x="616" y="128.9" text-anchor="middle" class="balt">3</text><line class="leadl" x1="354.1" y1="159.1" x2="616" y2="159.1"/><circle class="leadd" cx="354.1" cy="159.1" r="2.2"/><circle class="bal" cx="616" cy="159.1" r="9"/><text x="616" y="163.1" text-anchor="middle" class="balt">4</text><line class="leadl" x1="485.9" y1="198.5" x2="616" y2="198.5"/><circle class="leadd" cx="485.9" cy="198.5" r="2.2"/><circle class="bal" cx="616" cy="198.5" r="9"/><text x="616" y="202.5" text-anchor="middle" class="balt">5</text><line class="leadl" x1="182.2" y1="247.7" x2="24" y2="247.7"/><circle class="leadd" cx="182.2" cy="247.7" r="2.2"/><circle class="bal" cx="24" cy="247.7" r="9"/><text x="24" y="251.7" text-anchor="middle" class="balt">2</text></svg>