<svg xmlns="http://www.w3.org/2000/svg" class="ilu" viewBox="0 0 640 400"><style>:root{--il-line:#252B31;--il-edge:rgba(18,22,27,.5);--il-m1:#F1F3F5;--il-m2:#C9CFD5;--il-m3:#4A5159;--il-w1:#DCE1E6;--il-w2:#B4BCC4;--il-w3:#8A949E;--il-t:#D8BE84;--il-h1:#FFC98A;--il-hot:#E4602A;--il-f:#BFE1F0;--il-fl:#2B8BBE;--il-rb:#2A2E33;--il-yel:#E7C267;--il-pcb:#2D6A4E;--il-sand:#D9CCB2;--il-gw:#E6E0D5;--il-rb2:#3A3F45;--il-gl:#CFE5F1;--il-cu:#D08652;--il-bg:#2A2F35;--il-sh:rgba(10,14,18,.16);--il-cr:#E8EBEE;--il-sec0:#FFFFFF}@media (prefers-color-scheme:dark){:root:not([data-theme="light"]){--il-line:#C7CFD6;--il-edge:rgba(0,0,0,.55);--il-bg:#0C0E10;--il-sh:rgba(0,0,0,.5);--il-cr:#2A2F35;--il-sec0:#0E1012;--il-f:#1C4A5E;--il-fl:#6CC4EC;--il-h1:#8A3E1C;--il-hot:#FF8A50;--il-gl:#27445A}}:root[data-theme="dark"]{--il-line:#C7CFD6;--il-edge:rgba(0,0,0,.55);--il-bg:#0C0E10;--il-sh:rgba(0,0,0,.5);--il-cr:#2A2F35;--il-sec0:#0E1012;--il-f:#1C4A5E;--il-fl:#6CC4EC;--il-h1:#8A3E1C;--il-hot:#FF8A50;--il-gl:#27445A}.ilu{display:block;width:100%;height:auto;stroke-width:.85;stroke-linejoin:round;stroke-linecap:round;overflow:hidden}.ilu .o{fill:none;stroke:var(--il-line)}.ilu .thin{stroke-width:.8;opacity:.7}.ilu .dash{stroke-dasharray:4 3}.ilu .m{fill:var(--il-m1);stroke:var(--il-line)}.ilu .m2{fill:var(--il-m2);stroke:var(--il-line)}.ilu .m3{fill:var(--il-m3);stroke:var(--il-line)}.ilu .w{fill:var(--il-w1);stroke:var(--il-line)}.ilu .w2{fill:var(--il-w2);stroke:var(--il-line)}.ilu .w3{fill:var(--il-w3);stroke:var(--il-line)}.ilu .t{fill:var(--il-t);stroke:var(--il-line)}.ilu .h{fill:var(--il-h1);stroke:var(--il-hot)}.ilu .hl{fill:none;stroke:var(--il-hot);stroke-width:1.5}.ilu .fl{fill:var(--il-f);stroke:var(--il-fl)}.ilu .fo{fill:none;stroke:var(--il-fl);stroke-width:1.2}.ilu .fdot{fill:var(--il-fl);stroke:none}.ilu .a{fill:none;stroke:var(--accent);stroke-width:1.8}.ilu .af{fill:var(--accent);stroke:none}.ilu .sh{fill:var(--il-sh);stroke:none}.ilu .bg{fill:var(--il-bg);stroke:var(--il-line)}.ilu .bgline{stroke:var(--il-bg);stroke-width:2}.ilu .rb{fill:var(--il-rb);stroke:var(--il-line)}.ilu .rb2{fill:var(--il-rb2);stroke:var(--il-line)}.ilu .rbline{fill:none;stroke:var(--il-bg);stroke-width:1.2}.ilu .gl{fill:var(--il-gl);stroke:var(--il-line);fill-opacity:.9}.ilu .gl2{fill:var(--il-gl);stroke:var(--il-line)}.ilu .cu{fill:var(--il-cu);stroke:var(--il-line)}.ilu .cuwire{fill:none;stroke:var(--il-cu);stroke-width:3}.ilu .cr{fill:var(--il-cr);stroke:var(--il-line)}.ilu .ball{fill:var(--il-cr);stroke:var(--il-line)}.ilu .wire{fill:none;stroke:var(--il-w3);stroke-width:7}.ilu .arm{fill:none;stroke:var(--il-m3);stroke-width:10}.ilu .arm2{fill:none;stroke:var(--il-m3);stroke-width:7}.ilu .cable{fill:none;stroke:var(--il-rb);stroke-width:4}.ilu .cable3{fill:none;stroke:var(--il-rb);stroke-width:8}.ilu .belt{fill:none;stroke:var(--il-rb);stroke-width:3}.ilu .chan{fill:none;stroke:var(--il-bg);stroke-width:4}.ilu .tube1{fill:none;stroke:var(--il-line);stroke-width:10}.ilu .tube2{fill:none;stroke:var(--il-w1);stroke-width:7}.ilu .web{fill:none;stroke:var(--il-rb2);stroke-width:12}.ilu .led{fill:none;stroke:var(--il-t);stroke-width:5}.ilu .frit{fill:none;stroke:var(--il-rb);stroke-width:7;stroke-opacity:.85}.ilu .zig{fill:none;stroke:var(--il-m3);stroke-width:3}.ilu .gridl{stroke:var(--il-cr);stroke-width:2}.ilu .fin{stroke:var(--il-w3);stroke-width:.8}.ilu .d{fill:var(--il-line);stroke:none}.ilu text{fill:var(--ink2);stroke:none;font:500 11px var(--f-body);letter-spacing:.02em}.ilu text.al{fill:var(--accent);font-weight:600}.ilu text.sm{font-size:9.5px;fill:var(--muted)}.ilu .gw,.ilu .gwr{fill:var(--il-gw);stroke:var(--il-line)}.ilu .grit{fill:none;stroke:var(--il-line);stroke-dasharray:1 3;opacity:.6}.ilu .gline{stroke:var(--il-line);stroke-width:.8;opacity:.6}.ilu .chip{fill:none;stroke:var(--il-w3);stroke-width:1.8}.ilu .grain{fill:var(--il-line);opacity:.45;stroke:none}.ilu .bub{fill:none;stroke:var(--il-fl)}.ilu .tankw{fill:none;stroke:var(--il-line);stroke-width:2.2}.ilu .hotin{fill:var(--il-h1);stroke:none;opacity:.6}.ilu .warmin{fill:var(--il-h1);stroke:none;opacity:.3}.ilu .coolin{fill:var(--il-f);stroke:none;opacity:.7}.ilu .bolt{fill:var(--il-yel);stroke:var(--il-line)}.ilu .bg2{fill:var(--il-m1);stroke:var(--il-line)}.ilu .beam{stroke:var(--il-hot);stroke-width:3;fill:none}.ilu .kerf{stroke:var(--il-bg);stroke-width:2.5;fill:none}.ilu .bgline2{stroke:var(--il-bg);stroke-width:7;fill:none}.ilu .jet{stroke:var(--il-fl);stroke-width:3;stroke-dasharray:6 3;fill:none}.ilu .jet2{stroke:var(--il-fl);stroke-width:4;fill:none}.ilu .hatch{stroke:var(--il-w3);stroke-width:.8}.ilu .pour{fill:none;stroke:var(--il-hot);stroke-width:6}.ilu .shell{fill:var(--il-m1);stroke:var(--il-line)}.ilu .sand,.ilu .board{fill:var(--il-sand);stroke:var(--il-line)}.ilu .gridbar{stroke:var(--il-m3);stroke-width:6;fill:none}.ilu .shot,.ilu .pwd{fill:var(--il-m3);stroke:none}.ilu .coilcu{fill:none;stroke:var(--il-cu);stroke-width:3.2}.ilu .wire2{fill:none;stroke:var(--il-w3);stroke-width:4}.ilu .strip{fill:none;stroke:var(--il-w2);stroke-width:5}.ilu rect.strip{fill:var(--il-w2);stroke:var(--il-line);stroke-width:1.3}.ilu .sheet{fill:none;stroke:var(--il-w3);stroke-width:5}.ilu .sheet2{fill:var(--il-w2);stroke:var(--il-line)}.ilu .hotsheet{fill:none;stroke:var(--il-hot);stroke-width:5}.ilu .mesh{fill:var(--il-m1);stroke:var(--il-line);stroke-dasharray:2 2}.ilu .paste{fill:none;stroke:var(--il-m3);stroke-width:5}.ilu .lens{fill:var(--il-gl);stroke:var(--il-line)}.ilu .uv{stroke:var(--accent);stroke-dasharray:4 3;fill:none}.ilu .basket{fill:none;stroke:var(--il-line);stroke-dasharray:3 2}.ilu .bead{fill:none;stroke:var(--il-w3);stroke-width:5}.ilu .bead2,.ilu .bead3{fill:none;stroke:var(--il-m3);stroke-width:6}.ilu .ebeam{stroke:var(--accent);stroke-width:3;stroke-dasharray:2 2;fill:none}.ilu .foil{stroke:var(--il-cu);stroke-width:2}.ilu .hplate{fill:var(--il-h1);stroke:var(--il-hot)}.ilu .crack{fill:none;stroke:var(--il-hot);stroke-width:2.2}.ilu .resin{fill:var(--il-h1);stroke:var(--il-line)}.ilu .screw{stroke:var(--il-m3);stroke-width:6;fill:none}.ilu .parison{fill:var(--il-w1);stroke:var(--il-line)}.ilu .rbx{fill:var(--il-rb);stroke:var(--il-line)}.ilu .rbstrip{fill:none;stroke:var(--il-rb);stroke-width:8}.ilu .uvwave{fill:none;stroke:var(--il-hot)}.ilu .cordl{stroke:var(--il-cu)}.ilu .beadw{fill:none;stroke:var(--il-w3);stroke-width:6}.ilu .pourf{fill:none;stroke:var(--il-w2);stroke-width:6}.ilu .foamf,.ilu .padm{fill:var(--il-w2);stroke:var(--il-line)}.ilu .skin{fill:none;stroke:var(--il-w3);stroke-width:4}.ilu .chipd{fill:var(--il-rb);stroke:var(--il-line)}.ilu .glp{fill:var(--il-gl);stroke:var(--il-line)}.ilu .glsheet{fill:none;stroke:var(--il-fl);stroke-width:4}.ilu .rail{fill:none;stroke:var(--il-m3);stroke-width:5}.ilu .needle{stroke:var(--il-line);stroke-width:2}.ilu .stitch{fill:none;stroke:var(--accent);stroke-dasharray:4 3;stroke-width:1.6}.ilu .thread{stroke:var(--il-w2);stroke-width:2.2}.ilu .thread2{stroke:var(--il-hot);stroke-width:2.2}.ilu .slurry,.ilu .slurryp{fill:var(--il-rb2);stroke:var(--il-line)}.ilu .foilstrip{fill:none;stroke:var(--il-cu);stroke-width:3}.ilu .slurryl{fill:none;stroke:var(--il-rb2);stroke-width:5}.ilu .slurryl2{fill:none;stroke:var(--il-rb2);stroke-width:9}.ilu .windl0{fill:none;stroke:var(--il-cu);stroke-width:3}.ilu .windl1{fill:none;stroke:var(--il-m1);stroke-width:3}.ilu .windl2{fill:none;stroke:var(--il-rb2);stroke-width:3}.ilu .cuwire2{fill:none;stroke:var(--il-cu);stroke-width:6}.ilu .pcb,.ilu .okl{fill:var(--il-pcb);stroke:var(--il-line)}.ilu .wafer{fill:var(--il-m2);stroke:var(--il-line)}.ilu .wirebond{fill:none;stroke:var(--il-cu);stroke-width:1.6}.ilu .fringe{stroke:var(--accent);opacity:.7}.ilu .ring{fill:var(--il-t);stroke:var(--il-line)}.ilu .laserl{stroke:var(--il-hot);stroke-width:1.4;stroke-dasharray:5 3;fill:none}.ilu .zebra,.ilu .filt{fill:var(--il-cr);stroke:var(--il-line)}.ilu .ray{stroke:var(--accent);stroke-dasharray:4 3;fill:none}.ilu .wave{fill:none;stroke:var(--accent)}.ilu .yoke{fill:none;stroke:var(--il-m3);stroke-width:10}.ilu .indic{stroke:var(--accent);stroke-width:3;fill:none}.ilu .he{fill:var(--accent);opacity:.6;stroke:none}.ilu .beamf{fill:var(--il-yel);opacity:.55;stroke:none}.ilu .loc{fill:var(--il-line);stroke:none}.ilu .clampl{stroke:var(--il-hot);stroke-width:2.4}.ilu .clamph{fill:var(--il-hot);stroke:none}.ilu .leadd{fill:var(--ink2);stroke:none}.ilu .leadl{stroke:var(--ink2);stroke-width:.8;opacity:.8}.ilu .bal{fill:var(--surface);stroke:var(--accent);stroke-width:1.4}.ilu text.balt{fill:var(--accent);font-weight:700;font-size:10.5px}.ilu text.tol{fill:var(--ink2);font-size:10.5px}.ilu text.ttl{fill:var(--ink);font-weight:600;font-size:12px}.ilu .cl{stroke:var(--il-line);stroke-dasharray:14 3 2 3;stroke-width:.8;opacity:.7}.ilu .hid{fill:none;stroke:var(--il-line);stroke-dasharray:5 3;stroke-width:.9;opacity:.8}.ilu .mf{fill:none;stroke:var(--accent);stroke-width:4;stroke-linecap:round}.ilu .mfa{fill:var(--il-t);stroke:var(--accent);stroke-width:2}.ilu .rgh{fill:var(--il-w3);stroke:none}.ilu .done{stroke:var(--il-line);stroke-width:2.6;fill:none}.ilu .cut{fill:var(--il-w2);stroke:var(--il-line)}.ilu .ins{fill:var(--il-yel);stroke:var(--il-line)}.ilu .cool{stroke:var(--il-fl);stroke-dasharray:3 3}.ilu .cutl{stroke:var(--accent);stroke-width:2.4;stroke-dasharray:5 3}.ilu .poro{fill:var(--il-hot);stroke:none}.ilu .mfring{fill:none;stroke:var(--il-hot);stroke-width:1.5;stroke-dasharray:3 2}.ilu .xim{fill:#1D242B;stroke:var(--il-line)}.ilu .ximd{fill:#FFFFFF;stroke:none}.ilu .coat{fill:none;stroke:var(--il-hot);stroke-width:5}.ilu .hatchx{stroke:var(--accent);stroke-width:.8;opacity:.8}.ilu .jetl{fill:none;stroke:var(--il-fl);stroke-width:4;stroke-dasharray:8 4}.ilu .pres{fill:none;stroke:var(--il-fl);stroke-width:4.5}.ilu .tbg{fill:var(--surface);stroke:none;opacity:.94}.ilu .tbl{stroke:var(--line);stroke-width:1}.ilu .void{fill:var(--il-sec0);stroke:var(--il-line)}.ilu .hotband{fill:var(--il-hot);opacity:.35;stroke:none}.ilu .flash{fill:var(--il-hot);opacity:.25;stroke:var(--il-hot)}.ilu .cutframe{fill:none;stroke:var(--accent);stroke-width:2.2;stroke-dasharray:5 3}.ilu .orbit{fill:none;stroke:var(--accent);stroke-dasharray:3 3}.ilu .hotarc{fill:none;stroke:var(--il-hot);stroke-width:6;opacity:.8}.ilu .mfo{fill:none;stroke:var(--accent);stroke-width:2.4}.ilu .stem{stroke:var(--il-m3);stroke-width:5}.ilu .hotgrp .w,.ilu .hotgrp .w2,.ilu .hotgrp .w3,.ilu .hotgrp .rb,.ilu .hotgrp .m{fill:var(--il-h1);stroke:var(--il-hot)}:root{--il-ws1-old:#ECD9B4;--il-ws2:#DEC38F;--il-ws3:#C9A86F;--il-ws4:#AB8A55;--il-ts1:#BCC8F4;--il-ts2:#A5B3EA;--il-ts3:#8C9ADA;--il-ts4:#7382C6;--il-gs1:#B3BDE2;--il-gs2:#9CA7D0;--il-gs3:#8591BC;--il-gs4:#6E7AA5;--il-ms1:#D9E1DC;--il-ms2:#C2CDC6;--il-ms3:#A7B4AC;--il-ms4:#8B9990;--il-hs1:#F6B592;--il-hs2:#EE9B72;--il-hs3:#DF7C52;--il-hs4:#C9613A}.ilu .el{fill:none;stroke:var(--il-line);stroke-width:.75;stroke-linejoin:round}.ilu .ws1{fill:var(--il-ws1);stroke:var(--il-ws1);stroke-width:.5}.ilu .ws2{fill:var(--il-ws2);stroke:var(--il-ws2);stroke-width:.5}.ilu .ws3{fill:var(--il-ws3);stroke:var(--il-ws3);stroke-width:.5}.ilu .ws4{fill:var(--il-ws4);stroke:var(--il-ws4);stroke-width:.5}.ilu .ts1{fill:var(--il-ts1);stroke:var(--il-ts1);stroke-width:.5}.ilu .ts2{fill:var(--il-ts2);stroke:var(--il-ts2);stroke-width:.5}.ilu .ts3{fill:var(--il-ts3);stroke:var(--il-ts3);stroke-width:.5}.ilu .ts4{fill:var(--il-ts4);stroke:var(--il-ts4);stroke-width:.5}.ilu .gws1{fill:var(--il-gs1);stroke:var(--il-gs1);stroke-width:.5}.ilu .gws2{fill:var(--il-gs2);stroke:var(--il-gs2);stroke-width:.5}.ilu .gws3{fill:var(--il-gs3);stroke:var(--il-gs3);stroke-width:.5}.ilu .gws4{fill:var(--il-gs4);stroke:var(--il-gs4);stroke-width:.5}.ilu .ms1{fill:var(--il-ms1);stroke:var(--il-ms1);stroke-width:.5}.ilu .ms2{fill:var(--il-ms2);stroke:var(--il-ms2);stroke-width:.5}.ilu .ms3{fill:var(--il-ms3);stroke:var(--il-ms3);stroke-width:.5}.ilu .ms4{fill:var(--il-ms4);stroke:var(--il-ms4);stroke-width:.5}.ilu .hs1{fill:var(--il-hs1);stroke:var(--il-hs1);stroke-width:.5}.ilu .hs2{fill:var(--il-hs2);stroke:var(--il-hs2);stroke-width:.5}.ilu .hs3{fill:var(--il-hs3);stroke:var(--il-hs3);stroke-width:.5}.ilu .hs4{fill:var(--il-hs4);stroke:var(--il-hs4);stroke-width:.5}.ilu .gw{fill:var(--il-gw);stroke:var(--il-line)}.ilu .grit2{fill:none;stroke:var(--il-line);stroke-width:1.1;opacity:.35;stroke-linecap:round}.ilu .mfe{fill:none;stroke:var(--accent);stroke-width:1.8;stroke-linejoin:round}.ilu .chbd{fill:none;stroke:var(--il-t);stroke-width:4.5;stroke-linejoin:round;opacity:.9}.ilu .probe{fill:none;stroke:var(--il-m3);stroke-width:3.2;stroke-linecap:round;stroke-linejoin:round}.ilu .x{stroke:var(--il-line);stroke-width:.7}.ilu .gr{fill:none;stroke:var(--il-line);stroke-width:.5;opacity:.55}.ilu .m,.ilu .m2,.ilu .m3,.ilu .w,.ilu .w2,.ilu .w3,.ilu .t,.ilu .gw,.ilu .gwr,.ilu .bg,.ilu .cu,.ilu .alu,.ilu .shell,.ilu .bg2,.ilu .cr,.ilu .ball,.ilu .cut,.ilu .ring,.ilu .rb,.ilu .rb2,.ilu .rbx,.ilu .chipd{stroke:var(--il-edge)}.ilu .w{fill:url(#g-st)}.ilu .w2{fill:url(#g-st2)}.ilu .w3{fill:url(#g-st3)}.ilu.mt-al .w{fill:url(#g-al)}.ilu.mt-al .w2{fill:url(#g-al2)}.ilu.mt-al .w3{fill:url(#g-al3)}.ilu.mt-fe .w{fill:url(#g-fe)}.ilu.mt-fe .w2{fill:url(#g-fe2)}.ilu.mt-fe .w3{fill:url(#g-fe3)}.ilu.mt-pl .w{fill:url(#g-pl)}.ilu.mt-pl .w2{fill:url(#g-pl2)}.ilu.mt-pl .w3{fill:url(#g-pl3)}.ilu.mt-cu .w{fill:url(#g-cu)}.ilu.mt-cu .w2{fill:url(#g-cu2)}.ilu.mt-cu .w3{fill:url(#g-cu3)}.ilu .alu{fill:url(#g-al)}.ilu .cu{fill:url(#g-cu)}.ilu .m{fill:url(#g-m)}.ilu .m2{fill:url(#g-m2)}.ilu .m3{fill:url(#g-m3)}.ilu .shell,.ilu .bg2{fill:url(#g-m)}.ilu .t,.ilu .ring{fill:url(#g-t)}.ilu .gw,.ilu .gwr{fill:url(#g-gw)}.ilu .bg{fill:url(#g-bg)}.ilu .h,.ilu .hplate{fill:url(#g-hot);stroke:var(--il-hot)}.ilu .sh{fill:url(#g-sh)}.ilu .cut{fill:url(#p-cut)}.ilu .ball,.ilu .cr{fill:url(#g-ball)}.ilu .rb,.ilu .rbx,.ilu .chipd{fill:url(#g-rb)}.ilu .fl{fill:var(--il-f);fill-opacity:.7}.ilu .gl,.ilu .gl2,.ilu .glp,.ilu .lens{fill:var(--il-gl);fill-opacity:.55}.ilu .void{fill:var(--il-sec0)}:root{--ws1:#F2F4F6;--ws2:#CAD1D8;--ws3:#9FA8B1;--ws4:#77818B;--al1:#F8F8F6;--al2:#DADBD8;--al3:#B5B7B4;--al4:#8F918E;--fe1:#B8BDC2;--fe2:#8E949A;--fe3:#6B7177;--fe4:#4F555B;--pl1:#62666C;--pl2:#44484D;--pl3:#2F3236;--pl4:#1F2124;--cu1:#F6CDA8;--cu2:#DE9D6B;--cu3:#B97540;--cu4:#8A5229;--ts1:#F7E9C4;--ts2:#E3C98E;--ts3:#C1A060;--ts4:#957842;--gs1:#F5F2EC;--gs2:#DED8CD;--gs3:#C0B8A9;--gs4:#9D9485;--ms1:#F3F5F7;--ms2:#D4D9DE;--ms3:#ABB2B9;--ms4:#80888F;--hs1:#FFDCA4;--hs2:#FFB46B;--hs3:#F2853F;--hs4:#CF622B}.ilu .ws1{fill:var(--ws1);stroke:var(--ws1)}.ilu .ws2{fill:var(--ws2);stroke:var(--ws2)}.ilu .ws3{fill:var(--ws3);stroke:var(--ws3)}.ilu .ws4{fill:var(--ws4);stroke:var(--ws4)}.ilu.mt-al .ws1,.ilu .als1{fill:var(--al1);stroke:var(--al1)}.ilu.mt-al .ws2,.ilu .als2{fill:var(--al2);stroke:var(--al2)}.ilu.mt-al .ws3,.ilu .als3{fill:var(--al3);stroke:var(--al3)}.ilu.mt-al .ws4,.ilu .als4{fill:var(--al4);stroke:var(--al4)}.ilu.mt-fe .ws1{fill:var(--fe1);stroke:var(--fe1)}.ilu.mt-fe .ws2{fill:var(--fe2);stroke:var(--fe2)}.ilu.mt-fe .ws3{fill:var(--fe3);stroke:var(--fe3)}.ilu.mt-fe .ws4{fill:var(--fe4);stroke:var(--fe4)}.ilu.mt-pl .ws1{fill:var(--pl1);stroke:var(--pl1)}.ilu.mt-pl .ws2{fill:var(--pl2);stroke:var(--pl2)}.ilu.mt-pl .ws3{fill:var(--pl3);stroke:var(--pl3)}.ilu.mt-pl .ws4{fill:var(--pl4);stroke:var(--pl4)}.ilu .cus1{fill:var(--cu1);stroke:var(--cu1)}.ilu .cus2{fill:var(--cu2);stroke:var(--cu2)}.ilu .cus3{fill:var(--cu3);stroke:var(--cu3)}.ilu .cus4{fill:var(--cu4);stroke:var(--cu4)}.ilu .ts1{fill:var(--ts1);stroke:var(--ts1)}.ilu .ts2{fill:var(--ts2);stroke:var(--ts2)}.ilu .ts3{fill:var(--ts3);stroke:var(--ts3)}.ilu .ts4{fill:var(--ts4);stroke:var(--ts4)}.ilu .gws1{fill:var(--gs1);stroke:var(--gs1)}.ilu .gws2{fill:var(--gs2);stroke:var(--gs2)}.ilu .gws3{fill:var(--gs3);stroke:var(--gs3)}.ilu .gws4{fill:var(--gs4);stroke:var(--gs4)}.ilu .ms1{fill:var(--ms1);stroke:var(--ms1)}.ilu .ms2{fill:var(--ms2);stroke:var(--ms2)}.ilu .ms3{fill:var(--ms3);stroke:var(--ms3)}.ilu .ms4{fill:var(--ms4);stroke:var(--ms4)}.ilu .hs1{fill:var(--hs1);stroke:var(--hs1)}.ilu .hs2{fill:var(--hs2);stroke:var(--hs2)}.ilu .hs3{fill:var(--hs3);stroke:var(--hs3)}.ilu .hs4{fill:var(--hs4);stroke:var(--hs4)}.ilu .ws1,.ilu .ws2,.ilu .ws3,.ilu .ws4,.ilu .ts1,.ilu .ts2,.ilu .ts3,.ilu .ts4,.ilu .gws1,.ilu .gws2,.ilu .gws3,.ilu .gws4,.ilu .ms1,.ilu .ms2,.ilu .ms3,.ilu .ms4,.ilu .hs1,.ilu .hs2,.ilu .hs3,.ilu .hs4,.ilu .als1,.ilu .als2,.ilu .als3,.ilu .als4,.ilu .cus1,.ilu .cus2,.ilu .cus3,.ilu .cus4{stroke-width:.5}.ilu .alus1{fill:var(--al1);stroke:var(--al1)}.ilu .alus2{fill:var(--al2);stroke:var(--al2)}.ilu .alus3{fill:var(--al3);stroke:var(--al3)}.ilu .alus4{fill:var(--al4);stroke:var(--al4)}.ilu .alus1,.ilu .alus2,.ilu .alus3,.ilu .alus4{stroke-width:.5}.ilu .x{stroke:var(--il-edge);stroke-width:.55}.ilu .el{stroke:var(--il-edge);stroke-width:.6}.ilu .gr{stroke:var(--il-edge);stroke-width:.45;opacity:.6}.ilu .grit2{stroke:#6B6357;opacity:.35}.ilu .wire{stroke:#B97540}.ilu .wire2,.ilu .skin,.ilu .sheet,.ilu .bead,.ilu .beadw{stroke:#9AA3AC}.ilu .hatch{stroke:var(--il-edge)}.ilu .strip{stroke:#B4BCC4}.ilu rect.strip{fill:url(#g-st2)}.ilu .sheet2{fill:url(#g-st2)}.ilu .parison,.ilu .foamf,.ilu .padm{fill:url(#g-pl)}.ilu .chip{stroke:#C1A060}.ilu .rgh{fill:#9FA8B1}.ilu .hotgrp .w,.ilu .hotgrp .w2,.ilu .hotgrp .w3,.ilu .hotgrp .rb,.ilu .hotgrp .m{fill:url(#g-hot);stroke:var(--il-hot)}:root{--pt1:#F6F5F1;--pt2:#E1E0DA;--pt3:#C3C2BB;--pt4:#9E9D96;--dk1:#6C727A;--dk2:#50555C;--dk3:#3B3F45;--dk4:#2A2D31}.ilu .pt{fill:url(#g-pt);stroke:var(--il-edge)}.ilu .dk{fill:url(#g-dk);stroke:var(--il-edge)}.ilu .pts1{fill:var(--pt1);stroke:var(--pt1)}.ilu .pts2{fill:var(--pt2);stroke:var(--pt2)}.ilu .pts3{fill:var(--pt3);stroke:var(--pt3)}.ilu .pts4{fill:var(--pt4);stroke:var(--pt4)}.ilu .dks1{fill:var(--dk1);stroke:var(--dk1)}.ilu .dks2{fill:var(--dk2);stroke:var(--dk2)}.ilu .dks3{fill:var(--dk3);stroke:var(--dk3)}.ilu .dks4{fill:var(--dk4);stroke:var(--dk4)}.ilu .pts1,.ilu .pts2,.ilu .pts3,.ilu .pts4,.ilu .dks1,.ilu .dks2,.ilu .dks3,.ilu .dks4{stroke-width:.5}.ilu .thread{fill:none;stroke:rgba(18,22,27,.35);stroke-width:.7}.ilu .wire{fill:none}.ilu .tslot{fill:none;stroke:rgba(18,22,27,.45);stroke-width:1.6}.ilu .mgrid{fill:none;stroke:rgba(255,255,255,.18);stroke-width:1}.ilu .hobt{fill:none;stroke:rgba(80,60,20,.55);stroke-width:1}.ilu .gwt{fill:none;stroke:rgba(110,95,70,.45);stroke-width:1}.ilu .spark{stroke:#FF8A3D;stroke-width:1.4;stroke-linecap:round}.ilu .kerf{fill:none;stroke:#3A3F46;stroke-width:1.6}.ilu path.wire{stroke:#B97540;stroke-width:1.4}.ilu .fl{fill:var(--il-fl);fill-opacity:.35}.ilu .fls1,.ilu .fls2,.ilu .fls3,.ilu .fls4{fill:var(--il-fl);fill-opacity:.25;stroke:none}.ilu .cutw{fill:#2B2F35;opacity:.85}.ilu .ball{fill:url(#g-ball);stroke:rgba(18,22,27,.45);stroke-width:.5}.ilu .scr{fill:none;stroke:rgba(18,22,27,.35);stroke-width:.8}.ilu .scrn{fill:#13232E;stroke:#0B0D10}.ilu .scrl{fill:#3FA7D6;opacity:.7}.ilu .scrg{fill:none;stroke:#7FD3A8;stroke-width:1.2}.ilu .key{fill:#2C3036;stroke:#6E757D;stroke-width:.6}.ilu .kbtn{fill:#E6E6E2;stroke:#555;stroke-width:.6}.ilu .mpg{fill:#2C3036;stroke:#9AA1A8}.ilu .mpg2{fill:#4A5058;stroke:#9AA1A8}.ilu .estop{fill:#D8332A;stroke:#F2C230;stroke-width:3}.ilu .knob{fill:#C9CDD2;stroke:#555}.ilu .pipe{fill:none;stroke:#7E8790;stroke-width:5;stroke-linejoin:round;stroke-linecap:round}.ilu .spray{stroke:#3F9FD1;stroke-width:1.4;opacity:.8}.ilu .chipc{fill:none;stroke:#B98A3E;stroke-width:1.6}.ilu .heatg{fill:#FF7A3D;opacity:.28}.ilu .heatg2{fill:#FF9A55;opacity:.18}.ilu .ghost{fill:none;stroke:#E4602A;stroke-width:1.4;stroke-dasharray:5 4}.ilu .sensor{fill:#2D5BFF;stroke:#fff;stroke-width:1.2}.ilu .win{fill:#1E2A33;opacity:.75;stroke:rgba(255,255,255,.4);stroke-width:.8}.ilu .fence{fill:none;stroke:#E8B931;stroke-width:3}.ilu .probeball{fill:#C8302A;stroke:#7A1A16;stroke-width:.6}text,.bal,.balt,.leadl,.leadd,.a,.af{display:none}</style><svg><defs>
<linearGradient id="g-st" x1="0" y1="0" x2=".3" y2="1"><stop offset="0" stop-color="#EEF1F4"/><stop offset=".16" stop-color="#FFFFFF"/><stop offset=".46" stop-color="#D3D9DF"/><stop offset=".84" stop-color="#9BA4AD"/><stop offset="1" stop-color="#BAC1C8"/></linearGradient>
<linearGradient id="g-st2" x1="0" y1="0" x2=".3" y2="1"><stop offset="0" stop-color="#D5DBE1"/><stop offset=".22" stop-color="#E2E6EA"/><stop offset=".6" stop-color="#A8B1BA"/><stop offset="1" stop-color="#8A949E"/></linearGradient>
<linearGradient id="g-st3" x1="0" y1="0" x2=".3" y2="1"><stop offset="0" stop-color="#A1AAB3"/><stop offset="1" stop-color="#6E7882"/></linearGradient>
<linearGradient id="g-al" x1="0" y1="0" x2=".3" y2="1"><stop offset="0" stop-color="#F6F6F4"/><stop offset=".15" stop-color="#FFFFFF"/><stop offset=".5" stop-color="#E2E3E0"/><stop offset=".86" stop-color="#B9BBB8"/><stop offset="1" stop-color="#D0D2CF"/></linearGradient>
<linearGradient id="g-al2" x1="0" y1="0" x2=".3" y2="1"><stop offset="0" stop-color="#E3E4E1"/><stop offset=".6" stop-color="#B8BAB7"/><stop offset="1" stop-color="#9EA09D"/></linearGradient>
<linearGradient id="g-al3" x1="0" y1="0" x2=".3" y2="1"><stop offset="0" stop-color="#A9ABA8"/><stop offset="1" stop-color="#7E807D"/></linearGradient>
<linearGradient id="g-fe" x1="0" y1="0" x2=".3" y2="1"><stop offset="0" stop-color="#B9BEC3"/><stop offset=".18" stop-color="#C9CDD1"/><stop offset=".55" stop-color="#8F959B"/><stop offset="1" stop-color="#6A7076"/></linearGradient>
<linearGradient id="g-fe2" x1="0" y1="0" x2=".3" y2="1"><stop offset="0" stop-color="#8E949A"/><stop offset="1" stop-color="#62686E"/></linearGradient>
<linearGradient id="g-fe3" x1="0" y1="0" x2=".3" y2="1"><stop offset="0" stop-color="#60666C"/><stop offset="1" stop-color="#43494F"/></linearGradient>
<linearGradient id="g-pl" x1="0" y1="0" x2=".3" y2="1"><stop offset="0" stop-color="#70747A"/><stop offset=".45" stop-color="#43474C"/><stop offset="1" stop-color="#26292C"/></linearGradient>
<linearGradient id="g-pl2" x1="0" y1="0" x2=".3" y2="1"><stop offset="0" stop-color="#4C5055"/><stop offset="1" stop-color="#2B2E32"/></linearGradient>
<linearGradient id="g-pl3" x1="0" y1="0" x2=".3" y2="1"><stop offset="0" stop-color="#35383C"/><stop offset="1" stop-color="#1C1E21"/></linearGradient>
<linearGradient id="g-cu" x1="0" y1="0" x2=".3" y2="1"><stop offset="0" stop-color="#FBDCC0"/><stop offset=".25" stop-color="#F2B687"/><stop offset=".7" stop-color="#C77F4E"/><stop offset="1" stop-color="#9B5B2F"/></linearGradient>
<linearGradient id="g-cu2" x1="0" y1="0" x2=".3" y2="1"><stop offset="0" stop-color="#DA9764"/><stop offset="1" stop-color="#9C5C30"/></linearGradient>
<linearGradient id="g-cu3" x1="0" y1="0" x2=".3" y2="1"><stop offset="0" stop-color="#A9693B"/><stop offset="1" stop-color="#6F3E1E"/></linearGradient>
<linearGradient id="g-pt" x1="0" y1="0" x2=".25" y2="1"><stop offset="0" stop-color="#FAFAF7"/><stop offset=".55" stop-color="#EDECE7"/><stop offset="1" stop-color="#D9D8D1"/></linearGradient>
<linearGradient id="g-dk" x1="0" y1="0" x2=".25" y2="1"><stop offset="0" stop-color="#6A7078"/><stop offset=".6" stop-color="#4A4F56"/><stop offset="1" stop-color="#35393E"/></linearGradient>
<linearGradient id="g-m" x1="0" y1="0" x2=".2" y2="1"><stop offset="0" stop-color="#FFFFFF"/><stop offset=".55" stop-color="#EEF0F2"/><stop offset="1" stop-color="#D5D9DD"/></linearGradient>
<linearGradient id="g-m2" x1="0" y1="0" x2=".2" y2="1"><stop offset="0" stop-color="#E1E5E9"/><stop offset="1" stop-color="#B5BBC1"/></linearGradient>
<linearGradient id="g-m3" x1="0" y1="0" x2=".2" y2="1"><stop offset="0" stop-color="#626970"/><stop offset=".5" stop-color="#3C4249"/><stop offset="1" stop-color="#2A2F35"/></linearGradient>
<linearGradient id="g-t" x1="0" y1="0" x2=".3" y2="1"><stop offset="0" stop-color="#F8EBC8"/><stop offset=".14" stop-color="#FFF7E3"/><stop offset=".48" stop-color="#E6CC92"/><stop offset=".86" stop-color="#BF9F62"/><stop offset="1" stop-color="#D3B97E"/></linearGradient>
<linearGradient id="g-gw" x1="0" y1="0" x2=".3" y2="1"><stop offset="0" stop-color="#F8F5F0"/><stop offset=".5" stop-color="#E4DED3"/><stop offset="1" stop-color="#C6BEAF"/></linearGradient>
<linearGradient id="g-bg" x1="0" y1="0" x2=".3" y2="1"><stop offset="0" stop-color="#3B4148"/><stop offset="1" stop-color="#16191C"/></linearGradient>
<linearGradient id="g-rb" x1="0" y1="0" x2=".3" y2="1"><stop offset="0" stop-color="#50545A"/><stop offset="1" stop-color="#1D1F22"/></linearGradient>
<linearGradient id="g-hot" x1="0" y1="0" x2=".3" y2="1"><stop offset="0" stop-color="#FFEAB5"/><stop offset=".45" stop-color="#FFB15A"/><stop offset="1" stop-color="#EE7430"/></linearGradient>
<radialGradient id="g-sh" cx=".5" cy=".5" r=".5"><stop offset="0" stop-color="#000" stop-opacity=".3"/><stop offset=".6" stop-color="#000" stop-opacity=".1"/><stop offset="1" stop-color="#000" stop-opacity="0"/></radialGradient>
<radialGradient id="g-ball" cx=".5" cy=".5" r=".55" fx=".34" fy=".3"><stop offset="0" stop-color="#FFFFFF"/><stop offset=".45" stop-color="#D6DCE1"/><stop offset="1" stop-color="#848E98"/></radialGradient>
<pattern id="p-cut" width="6" height="6" patternUnits="userSpaceOnUse" patternTransform="rotate(45)"><rect width="6" height="6" fill="#C9CFD5"/><line x1="0" y1="0" x2="0" y2="6" stroke="#7F8891" stroke-width="1.1"/></pattern>
</defs></svg>
<ellipse class="sh" cx="320" cy="364" rx="150.7" ry="16"/><path class="pts1 x" d="M172.2 321.3 L174.3 324.5 L174.3 290.8 L172.2 287.6Z"/><path class="pts4 x" d="M371 368 L467.8 299.8 L467.8 266.1 L371 334.3Z"/><path class="pts2 x" d="M174.3 324.5 L363.2 368.8 L363.2 335.1 L174.3 290.8Z"/><path class="pts3 x" d="M363.2 368.8 L371 368 L371 334.3 L363.2 335.1Z"/><path class="pt" fill-rule="evenodd" d="M174.3 290.8 L363.2 335.1 L371 334.3 L467.8 266.1 L465.7 262.9 L276.8 218.6 L269 219.4 L172.2 287.6Z"/><path class="pts1 x" d="M307.2 239.2 L308.7 241.5 L308.7 46.7 L307.2 44.4Z"/><path class="pts2 x" d="M308.7 241.5 L386.8 259.8 L386.8 65.1 L308.7 46.7Z"/><path class="pts4 x" d="M392.4 259.2 L410.8 246.2 L410.8 51.5 L392.4 64.4Z"/><path class="pts3 x" d="M386.8 259.8 L392.4 259.2 L392.4 64.4 L386.8 65.1Z"/><path class="pt" fill-rule="evenodd" d="M308.7 46.7 L386.8 65.1 L392.4 64.4 L410.8 51.5 L409.3 49.2 L331.2 30.8 L325.6 31.4 L307.2 44.4Z"/><path class="ws4" d="M377.8 288 L378.5 283.8 L378.5 271.1 L377.8 275.2Z"/><path class="el" d="M378.5 283.8L378.5 271.1M377.8 275.2 L378.5 271.1M377.8 288 L378.5 283.8"/><path class="ws1" d="M222.7 283.8 L223.4 288 L225.4 292 L225.4 279.3 L223.4 275.2 L222.7 271.1Z"/><path class="el" d="M222.7 283.8L222.7 271.1M222.7 271.1 L223.4 275.2 L225.4 279.3M222.7 283.8 L223.4 288 L225.4 292"/><path class="ws4" d="M368.1 299.7 L372.6 296 L375.8 292 L377.8 288 L377.8 275.2 L375.8 279.3 L372.6 283.2 L368.1 287Z"/><path class="el" d="M368.1 287 L372.6 283.2 L375.8 279.3 L377.8 275.2M368.1 299.7 L372.6 296 L375.8 292 L377.8 288"/><path class="ws1" d="M225.4 292 L228.6 296 L233.1 299.7 L238.8 303.1 L238.8 290.4 L233.1 287 L228.6 283.2 L225.4 279.3Z"/><path class="el" d="M225.4 279.3 L228.6 283.2 L233.1 287 L238.8 290.4M225.4 292 L228.6 296 L233.1 299.7 L238.8 303.1"/><path class="ws4" d="M348 309 L355.7 306.2 L362.4 303.1 L368.1 299.7 L368.1 287 L362.4 290.4 L355.7 293.5 L348 296.2Z"/><path class="el" d="M348 296.2 L355.7 293.5 L362.4 290.4 L368.1 287M348 309 L355.7 306.2 L362.4 303.1 L368.1 299.7"/><path class="ws2" d="M238.8 303.1 L245.5 306.2 L253.2 309 L261.7 311.3 L261.7 298.5 L253.2 296.2 L245.5 293.5 L238.8 290.4Z"/><path class="el" d="M238.8 290.4 L245.5 293.5 L253.2 296.2 L261.7 298.5M238.8 303.1 L245.5 306.2 L253.2 309 L261.7 311.3"/><path class="ws3" d="M320.8 314.4 L330.4 313.1 L339.5 311.3 L348 309 L348 296.2 L339.5 298.5 L330.4 300.4 L320.8 301.7Z"/><path class="el" d="M320.8 301.7 L330.4 300.4 L339.5 298.5 L348 296.2M320.8 314.4 L330.4 313.1 L339.5 311.3 L348 309"/><path class="ws2" d="M261.7 311.3 L270.8 313.1 L280.4 314.4 L290.4 315.3 L290.4 302.5 L280.4 301.7 L270.8 300.4 L261.7 298.5Z"/><path class="el" d="M261.7 298.5 L270.8 300.4 L280.4 301.7 L290.4 302.5M261.7 311.3 L270.8 313.1 L280.4 314.4 L290.4 315.3"/><path class="ws3" d="M290.4 315.3 L300.6 315.5 L310.8 315.3 L320.8 314.4 L320.8 301.7 L310.8 302.5 L300.6 302.8 L290.4 302.5Z"/><path class="el" d="M290.4 302.5 L300.6 302.8 L310.8 302.5 L320.8 301.7M290.4 315.3 L300.6 315.5 L310.8 315.3 L320.8 314.4"/><path class="w" fill-rule="evenodd" d="M261.7 298.5 L270.8 300.4 L280.4 301.7 L290.4 302.5 L300.6 302.8 L310.8 302.5 L320.8 301.7 L330.4 300.4 L339.5 298.5 L348 296.2 L355.7 293.5 L362.4 290.4 L368.1 287 L372.6 283.2 L375.8 279.3 L377.8 275.2 L378.5 271.1 L377.8 267 L375.8 262.9 L372.6 259 L368.1 255.3 L362.4 251.8 L355.7 248.7 L348 246 L339.5 243.7 L330.4 241.8 L320.8 240.5 L310.8 239.7 L300.6 239.4 L290.4 239.7 L280.4 240.5 L270.8 241.8 L261.7 243.7 L253.2 246 L245.5 248.7 L238.8 251.8 L233.1 255.3 L228.6 259 L225.4 262.9 L223.4 267 L222.7 271.1 L223.4 275.2 L225.4 279.3 L228.6 283.2 L233.1 287 L238.8 290.4 L245.5 293.5 L253.2 296.2Z"/><path class="pts1 x" d="M243.5 121.2 L244.4 122.6 L244.4 94.1 L243.5 92.8Z"/><path class="pts2 x" d="M244.4 122.6 L417.7 163.3 L417.7 134.8 L244.4 94.1Z"/><path class="pts4 x" d="M421.1 162.9 L431.7 155.4 L431.7 126.9 L421.1 134.5Z"/><path class="pts3 x" d="M417.7 163.3 L421.1 162.9 L421.1 134.5 L417.7 134.8Z"/><path class="pt" fill-rule="evenodd" d="M244.4 94.1 L417.7 134.8 L421.1 134.5 L431.7 126.9 L430.8 125.6 L257.6 84.9 L254.2 85.3 L243.5 92.8Z"/><path class="ws2 x" d="M245 120.5 L415.5 160.5 L415.5 157.5 L245 117.5Z"/><path class="ws4 x" d="M415.5 160.5 L416.3 160 L416.3 157 L415.5 157.5Z"/><path class="w" fill-rule="evenodd" d="M245.9 116.9 L245 117.5 L415.5 157.5 L416.3 157Z"/><path class="dks1 x" d="M253.9 246.7 L254.8 248.1 L254.8 203.1 L253.9 201.8Z"/><path class="dks4 x" d="M296.5 256.7 L312.5 245.4 L312.5 200.5 L296.5 211.8Z"/><path class="dks2 x" d="M254.8 248.1 L293.2 257.1 L293.2 212.1 L254.8 203.1Z"/><path class="dks3 x" d="M293.2 257.1 L296.5 256.7 L296.5 211.8 L293.2 212.1Z"/><path class="dk" fill-rule="evenodd" d="M254.8 203.1 L293.2 212.1 L296.5 211.8 L312.5 200.5 L311.6 199.1 L273.3 190.1 L269.9 190.5 L253.9 201.8Z"/><path class="ws2 x" d="M245 102.5 L415.5 142.6 L415.5 139.6 L245 99.5Z"/><path class="ws4 x" d="M415.5 142.6 L416.3 142 L416.3 139 L415.5 139.6Z"/><path class="w" fill-rule="evenodd" d="M245.9 99 L245 99.5 L415.5 139.6 L416.3 139Z"/><path class="ws4 x" d="M285.7 248.5 L291.5 244.5 L291.5 234.8 L285.7 238.8Z"/><path class="ws2 x" d="M275.8 246.2 L285.7 248.5 L285.7 238.8 L275.8 236.5Z"/><path class="w" fill-rule="evenodd" d="M281.5 232.4 L275.8 236.5 L285.7 238.8 L291.5 234.8Z"/><path class="ws4 x" d="M366.1 267.4 L371.8 263.4 L371.8 253.6 L366.1 257.7Z"/><path class="ws2 x" d="M356.1 265.1 L366.1 267.4 L366.1 257.7 L356.1 255.3Z"/><path class="w" fill-rule="evenodd" d="M361.9 251.3 L356.1 255.3 L366.1 257.7 L371.8 253.6Z"/><path class="ts4 x" d="M304.7 261.2 L310.8 256.8 L310.8 249.4 L304.7 253.7Z"/><path class="ts2 x" d="M299 259.8 L304.7 261.2 L304.7 253.7 L299 252.4Z"/><path class="t" fill-rule="evenodd" d="M305.1 248 L299 252.4 L304.7 253.7 L310.8 249.4Z"/><path class="ws4 x" d="M308.3 254.5 L316.5 248.7 L316.5 236 L308.3 241.8Z"/><path class="ws2 x" d="M297 251.9 L308.3 254.5 L308.3 241.8 L297 239.1Z"/><path class="w" fill-rule="evenodd" d="M305.2 233.3 L297 239.1 L308.3 241.8 L316.5 236Z"/><path class="ws3" d="M302.4 257.5 L297.1 257.5 L297.1 229.8 L302.4 229.7Z"/><path class="el" d="M302.4 257.5L302.4 229.7M297.1 257.5L297.1 229.8M302.4 229.7 L297.1 229.8M302.4 257.5 L297.1 257.5"/><path class="ws2" d="M307.6 257.7 L302.4 257.5 L302.4 229.7 L307.6 230Z"/><path class="el" d="M307.6 257.7L307.6 230M302.4 257.5L302.4 229.7M307.6 230 L302.4 229.7M307.6 257.7 L302.4 257.5"/><path class="ws3" d="M297.1 257.5 L291.9 257.9 L291.9 230.2 L297.1 229.8Z"/><path class="el" d="M297.1 257.5L297.1 229.8M291.9 257.9L291.9 230.2M297.1 229.8 L291.9 230.2M297.1 257.5 L291.9 257.9"/><path class="ws2" d="M312.6 258.3 L307.6 257.7 L307.6 230 L312.6 230.6Z"/><path class="el" d="M312.6 258.3L312.6 230.6M307.6 257.7L307.6 230M312.6 230.6 L307.6 230M312.6 258.3 L307.6 257.7"/><path class="ws3" d="M291.9 257.9 L286.9 258.6 L286.9 230.9 L291.9 230.2Z"/><path class="el" d="M291.9 257.9L291.9 230.2M286.9 258.6L286.9 230.9M291.9 230.2 L286.9 230.9M291.9 257.9 L286.9 258.6"/><path class="ws2" d="M317.4 259.3 L312.6 258.3 L312.6 230.6 L317.4 231.6Z"/><path class="el" d="M317.4 259.3L317.4 231.6M312.6 258.3L312.6 230.6M317.4 231.6 L312.6 230.6M317.4 259.3 L312.6 258.3"/><path class="ws3" d="M286.9 258.6 L282.3 259.6 L282.3 231.9 L286.9 230.9Z"/><path class="el" d="M286.9 258.6L286.9 230.9M282.3 259.6L282.3 231.9M286.9 230.9 L282.3 231.9M286.9 258.6 L282.3 259.6"/><path class="ws2" d="M321.8 260.5 L317.4 259.3 L317.4 231.6 L321.8 232.8Z"/><path class="el" d="M321.8 260.5L321.8 232.8M317.4 259.3L317.4 231.6M321.8 232.8 L317.4 231.6M321.8 260.5 L317.4 259.3"/><path class="ws4" d="M282.3 259.6 L278.1 261 L278.1 233.2 L282.3 231.9Z"/><path class="el" d="M282.3 259.6L282.3 231.9M278.1 261L278.1 233.2M282.3 231.9 L278.1 233.2M282.3 259.6 L278.1 261"/><path class="ws1" d="M325.6 262 L321.8 260.5 L321.8 232.8 L325.6 234.3Z"/><path class="el" d="M325.6 262L325.6 234.3M321.8 260.5L321.8 232.8M325.6 234.3 L321.8 232.8M325.6 262 L321.8 260.5"/><path class="ws4" d="M278.1 261 L274.5 262.5 L274.5 234.8 L278.1 233.2Z"/><path class="el" d="M278.1 261L278.1 233.2M274.5 262.5L274.5 234.8M278.1 233.2 L274.5 234.8M278.1 261 L274.5 262.5"/><path class="ws1" d="M328.8 263.7 L325.6 262 L325.6 234.3 L328.8 236Z"/><path class="el" d="M328.8 263.7L328.8 236M325.6 262L325.6 234.3M328.8 236 L325.6 234.3M328.8 263.7 L325.6 262"/><path class="ws4" d="M274.5 262.5 L271.5 264.3 L271.5 236.6 L274.5 234.8Z"/><path class="el" d="M274.5 262.5L274.5 234.8M271.5 264.3L271.5 236.6M274.5 234.8 L271.5 236.6M274.5 262.5 L271.5 264.3"/><path class="ws1" d="M331.3 265.6 L328.8 263.7 L328.8 236 L331.3 237.8Z"/><path class="el" d="M331.3 265.6L331.3 237.8M328.8 263.7L328.8 236M331.3 237.8 L328.8 236M331.3 265.6 L328.8 263.7"/><path class="ws4" d="M271.5 264.3 L269.2 266.2 L269.2 238.5 L271.5 236.6Z"/><path class="el" d="M271.5 264.3L271.5 236.6M269.2 266.2L269.2 238.5M271.5 236.6 L269.2 238.5M271.5 264.3 L269.2 266.2"/><path class="ws1" d="M333.1 267.6 L331.3 265.6 L331.3 237.8 L333.1 239.9Z"/><path class="el" d="M333.1 267.6L333.1 239.9M331.3 265.6L331.3 237.8M333.1 239.9 L331.3 237.8M333.1 267.6 L331.3 265.6"/><path class="ws4" d="M269.2 266.2 L267.7 268.3 L267.7 240.6 L269.2 238.5Z"/><path class="el" d="M269.2 266.2L269.2 238.5M267.7 268.3L267.7 240.6M269.2 238.5 L267.7 240.6M269.2 266.2 L267.7 268.3"/><path class="ws1" d="M334 269.7 L333.1 267.6 L333.1 239.9 L334 242Z"/><path class="el" d="M334 269.7L334 242M333.1 267.6L333.1 239.9M334 242 L333.1 239.9M334 269.7 L333.1 267.6"/><path class="ws4" d="M267.7 268.3 L267 270.4 L267 242.7 L267.7 240.6Z"/><path class="el" d="M267.7 268.3L267.7 240.6M267 270.4L267 242.7M267.7 240.6 L267 242.7M267.7 268.3 L267 270.4"/><path class="ws1" d="M334.2 271.8 L334 269.7 L334 242 L334.2 244.1Z"/><path class="el" d="M334.2 271.8L334.2 244.1M334 269.7L334 242M334.2 244.1 L334 242M334.2 271.8 L334 269.7"/><path class="ws1" d="M246.5 271.9 L247.1 274.4 L247.1 246.7 L246.5 244.2Z"/><path class="el" d="M246.5 271.9L246.5 244.2M246.5 244.2 L247.1 246.7M246.5 271.9 L247.1 274.4"/><path class="ws4" d="M352.3 277.6 L353.8 275.2 L354.6 272.8 L354.7 270.3 L354.7 242.6 L354.6 245 L353.8 247.5 L352.3 249.9Z"/><path class="el" d="M354.7 270.3L354.7 242.6M352.3 249.9 L353.8 247.5 L354.6 245 L354.7 242.6M352.3 277.6 L353.8 275.2 L354.6 272.8 L354.7 270.3"/><path class="ws1" d="M247.1 274.4 L248.3 276.8 L250.2 279.2 L252.8 281.4 L255.9 283.5 L255.9 255.8 L252.8 253.7 L250.2 251.4 L248.3 249.1 L247.1 246.7Z"/><path class="el" d="M247.1 246.7 L248.3 249.1 L250.2 251.4 L252.8 253.7 L255.9 255.8M247.1 274.4 L248.3 276.8 L250.2 279.2 L252.8 281.4 L255.9 283.5"/><path class="ws4" d="M340.3 286.1 L344.1 284.2 L347.5 282.1 L350.2 279.9 L352.3 277.6 L352.3 249.9 L350.2 252.2 L347.5 254.4 L344.1 256.5 L340.3 258.4Z"/><path class="el" d="M340.3 258.4 L344.1 256.5 L347.5 254.4 L350.2 252.2 L352.3 249.9M340.3 286.1 L344.1 284.2 L347.5 282.1 L350.2 279.9 L352.3 277.6"/><path class="ws2" d="M255.9 283.5 L259.6 285.5 L263.8 287.2 L268.5 288.8 L273.5 290.2 L273.5 262.5 L268.5 261.1 L263.8 259.5 L259.6 257.8 L255.9 255.8Z"/><path class="el" d="M255.9 255.8 L259.6 257.8 L263.8 259.5 L268.5 261.1 L273.5 262.5M255.9 283.5 L259.6 285.5 L263.8 287.2 L268.5 288.8 L273.5 290.2"/><path class="ws4" d="M320.4 291.6 L325.9 290.6 L331.1 289.3 L335.9 287.8 L340.3 286.1 L340.3 258.4 L335.9 260.1 L331.1 261.6 L325.9 262.9 L320.4 263.9Z"/><path class="el" d="M320.4 263.9 L325.9 262.9 L331.1 261.6 L335.9 260.1 L340.3 258.4M320.4 291.6 L325.9 290.6 L331.1 289.3 L335.9 287.8 L340.3 286.1"/><path class="ws2" d="M273.5 290.2 L279 291.3 L284.7 292.1 L290.5 292.7 L296.6 293.1 L296.6 265.3 L290.5 265 L284.7 264.4 L279 263.6 L273.5 262.5Z"/><path class="el" d="M273.5 262.5 L279 263.6 L284.7 264.4 L290.5 265 L296.6 265.3M273.5 290.2 L279 291.3 L284.7 292.1 L290.5 292.7 L296.6 293.1"/><path class="ws3" d="M296.6 293.1 L302.6 293.1 L308.7 292.9 L314.6 292.4 L320.4 291.6 L320.4 263.9 L314.6 264.7 L308.7 265.2 L302.6 265.4 L296.6 265.3Z"/><path class="el" d="M296.6 265.3 L302.6 265.4 L308.7 265.2 L314.6 264.7 L320.4 263.9M296.6 293.1 L302.6 293.1 L308.7 292.9 L314.6 292.4 L320.4 291.6"/><path class="w" fill-rule="evenodd" d="M273.5 262.5 L279 263.6 L284.7 264.4 L290.5 265 L296.6 265.3 L302.6 265.4 L308.7 265.2 L314.6 264.7 L320.4 263.9 L325.9 262.9 L331.1 261.6 L335.9 260.1 L340.3 258.4 L344.1 256.5 L347.5 254.4 L350.2 252.2 L352.3 249.9 L353.8 247.5 L354.6 245 L354.7 242.6 L354.1 240.1 L352.9 237.7 L351 235.4 L348.4 233.1 L345.3 231 L341.6 229 L337.4 227.3 L332.7 225.7 L327.7 224.3 L322.2 223.2 L316.6 222.4 L310.7 221.8 L304.6 221.5 L298.6 221.4 L292.5 221.6 L286.6 222.1 L280.8 222.9 L275.3 223.9 L270.1 225.2 L265.3 226.7 L260.9 228.4 L257.1 230.3 L253.7 232.4 L251 234.6 L248.9 236.9 L247.4 239.3 L246.6 241.8 L246.5 244.2 L247.1 246.7 L248.3 249.1 L250.2 251.4 L252.8 253.7 L255.9 255.8 L259.6 257.8 L263.8 259.5 L268.5 261.1ZM283.8 255.2 L288.6 256.2 L293.6 256.8 L298.8 257.1 L304.1 257 L309.3 256.6 L314.3 255.9 L318.9 254.9 L323.1 253.6 L326.7 252 L329.7 250.2 L332 248.3 L333.5 246.2 L334.2 244.1 L334 242 L333.1 239.9 L331.3 237.8 L328.8 236 L325.6 234.3 L321.8 232.8 L317.4 231.6 L312.6 230.6 L307.6 230 L302.4 229.7 L297.1 229.8 L291.9 230.2 L286.9 230.9 L282.3 231.9 L278.1 233.2 L274.5 234.8 L271.5 236.6 L269.2 238.5 L267.7 240.6 L267 242.7 L267.2 244.8 L268.1 246.9 L269.9 249 L272.4 250.8 L275.6 252.5 L279.4 254Z"/><path class="ws4 x" d="M239.3 281.2 L245.1 277.2 L245.1 267.4 L239.3 271.5Z"/><path class="ws2 x" d="M229.4 278.9 L239.3 281.2 L239.3 271.5 L229.4 269.1Z"/><path class="w" fill-rule="evenodd" d="M235.1 265.1 L229.4 269.1 L239.3 271.5 L245.1 267.4Z"/><path class="pts4 x" d="M325.7 174.2 L351.1 156.3 L351.1 115.1 L325.7 133Z"/><path class="pts1 x" d="M290.2 165.9 L291.1 167.2 L291.1 126 L290.2 124.7Z"/><path class="pts2 x" d="M291.1 167.2 L322.4 174.6 L322.4 133.4 L291.1 126Z"/><path class="pts3 x" d="M322.4 174.6 L325.7 174.2 L325.7 133 L322.4 133.4Z"/><path class="pt" fill-rule="evenodd" d="M291.1 126 L322.4 133.4 L325.7 133 L351.1 115.1 L350.2 113.7 L319 106.4 L315.6 106.8 L290.2 124.7Z"/><path class="pts1 x" d="M296 236.6 L296.6 237.5 L296.6 128.9 L296 128Z"/><path class="pts4 x" d="M315.9 241.2 L325.7 234.3 L325.7 125.7 L315.9 132.6Z"/><path class="pts2 x" d="M296.6 237.5 L313.6 241.5 L313.6 132.9 L296.6 128.9Z"/><path class="pts3 x" d="M313.6 241.5 L315.9 241.2 L315.9 132.6 L313.6 132.9Z"/><path class="pt" fill-rule="evenodd" d="M296.6 128.9 L313.6 132.9 L315.9 132.6 L325.7 125.7 L325.1 124.8 L308.1 120.8 L305.8 121 L296 128Z"/><path class="dks2" d="M428.2 137.8 L427.8 137.7 L439.9 140.5 L440.3 140.6Z"/><path class="el" d="M428.2 137.8L440.3 140.6M440.3 140.6 L439.9 140.5M428.2 137.8 L427.8 137.7"/><path class="dks4" d="M423.8 151.5 L424.1 151.9 L424.5 152.1 L436.6 154.9 L436.2 154.7 L435.9 154.4Z"/><path class="el" d="M424.5 152.1L436.6 154.9M435.9 154.4 L436.2 154.7 L436.6 154.9M423.8 151.5 L424.1 151.9 L424.5 152.1"/><path class="dks1" d="M427.8 137.7 L427.3 137.8 L426.9 137.9 L426.4 138.2 L438.5 141 L438.9 140.7 L439.4 140.6 L439.9 140.5Z"/><path class="el" d="M439.9 140.5 L439.4 140.6 L438.9 140.7 L438.5 141M427.8 137.7 L427.3 137.8 L426.9 137.9 L426.4 138.2"/><path class="dks3" d="M423 149.9 L423.2 150.6 L423.5 151.1 L423.8 151.5 L435.9 154.4 L435.5 153.9 L435.3 153.4 L435.1 152.8Z"/><path class="el" d="M435.1 152.8 L435.3 153.4 L435.5 153.9 L435.9 154.4M423 149.9 L423.2 150.6 L423.5 151.1 L423.8 151.5"/><path class="dks1" d="M426.4 138.2 L425.9 138.6 L425.4 139.1 L425 139.7 L437.1 142.5 L437.5 141.9 L438 141.4 L438.5 141Z"/><path class="el" d="M438.5 141 L438 141.4 L437.5 141.9 L437.1 142.5M426.4 138.2 L425.9 138.6 L425.4 139.1 L425 139.7"/><path class="dks2" d="M422.7 147.5 L422.7 148.4 L422.8 149.2 L423 149.9 L435.1 152.8 L434.9 152 L434.8 151.2 L434.8 150.4Z"/><path class="el" d="M434.8 150.4 L434.8 151.2 L434.9 152 L435.1 152.8M422.7 147.5 L422.7 148.4 L422.8 149.2 L423 149.9"/><path class="dks1" d="M425 139.7 L424.5 140.4 L424.1 141.2 L423.8 142 L435.9 144.8 L436.2 144 L436.6 143.2 L437.1 142.5Z"/><path class="el" d="M437.1 142.5 L436.6 143.2 L436.2 144 L435.9 144.8M425 139.7 L424.5 140.4 L424.1 141.2 L423.8 142"/><path class="dks1" d="M423 144.8 L422.8 145.7 L422.7 146.6 L422.7 147.5 L434.8 150.4 L434.8 149.5 L434.9 148.5 L435.1 147.6Z"/><path class="el" d="M435.1 147.6 L434.9 148.5 L434.8 149.5 L434.8 150.4M423 144.8 L422.8 145.7 L422.7 146.6 L422.7 147.5"/><path class="dks1" d="M423.8 142 L423.5 142.9 L423.2 143.8 L423 144.8 L435.1 147.6 L435.3 146.6 L435.5 145.7 L435.9 144.8Z"/><path class="el" d="M435.9 144.8 L435.5 145.7 L435.3 146.6 L435.1 147.6M423.8 142 L423.5 142.9 L423.2 143.8 L423 144.8"/><path class="dks4" fill-rule="evenodd" d="M442.2 145.2 L442.1 144.3 L442 143.5 L441.9 142.8 L441.7 142.1 L441.4 141.6 L441.1 141.2 L440.7 140.8 L440.3 140.6 L439.9 140.5 L439.4 140.6 L438.9 140.7 L438.5 141 L438 141.4 L437.5 141.9 L437.1 142.5 L436.6 143.2 L436.2 144 L435.9 144.8 L435.5 145.7 L435.3 146.6 L435.1 147.6 L434.9 148.5 L434.8 149.5 L434.8 150.4 L434.8 151.2 L434.9 152 L435.1 152.8 L435.3 153.4 L435.5 153.9 L435.9 154.4 L436.2 154.7 L436.6 154.9 L437.1 155 L437.5 155 L438 154.8 L438.5 154.5 L438.9 154.1 L439.4 153.6 L439.9 153 L440.3 152.3 L440.7 151.5 L441.1 150.7 L441.4 149.8 L441.7 148.9 L441.9 147.9 L442 147 L442.1 146.1Z"/><path class="dks2" d="M439.6 143.3 L439.3 143.3 L442.9 144.1 L443.2 144.2Z"/><path class="el" d="M439.6 143.3L443.2 144.2M443.2 144.2 L442.9 144.1M439.6 143.3 L439.3 143.3"/><path class="dks4" d="M436.8 151.9 L437.1 152.1 L437.3 152.2 L440.9 153 L440.6 152.9 L440.4 152.7Z"/><path class="el" d="M437.3 152.2L440.9 153M440.4 152.7 L440.6 152.9 L440.9 153M436.8 151.9 L437.1 152.1 L437.3 152.2"/><path class="dks1" d="M439.3 143.3 L439.1 143.3 L438.8 143.4 L438.5 143.6 L442 144.4 L442.3 144.2 L442.6 144.1 L442.9 144.1Z"/><path class="el" d="M442.9 144.1 L442.6 144.1 L442.3 144.2 L442 144.4M439.3 143.3 L439.1 143.3 L438.8 143.4 L438.5 143.6"/><path class="dks3" d="M436.4 150.9 L436.5 151.3 L436.6 151.6 L436.8 151.9 L440.4 152.7 L440.2 152.4 L440 152.1 L439.9 151.7Z"/><path class="el" d="M439.9 151.7 L440 152.1 L440.2 152.4 L440.4 152.7M436.4 150.9 L436.5 151.3 L436.6 151.6 L436.8 151.9"/><path class="dks1" d="M438.5 143.6 L438.2 143.8 L437.9 144.1 L437.6 144.5 L441.1 145.4 L441.4 145 L441.7 144.7 L442 144.4Z"/><path class="el" d="M442 144.4 L441.7 144.7 L441.4 145 L441.1 145.4M438.5 143.6 L438.2 143.8 L437.9 144.1 L437.6 144.5"/><path class="dks2" d="M436.2 149.4 L436.2 149.9 L436.3 150.4 L436.4 150.9 L439.9 151.7 L439.8 151.2 L439.7 150.7 L439.7 150.2Z"/><path class="el" d="M439.7 150.2 L439.7 150.7 L439.8 151.2 L439.9 151.7M436.2 149.4 L436.2 149.9 L436.3 150.4 L436.4 150.9"/><path class="dks1" d="M437.6 144.5 L437.3 145 L437.1 145.4 L436.8 146 L440.4 146.8 L440.6 146.3 L440.9 145.8 L441.1 145.4Z"/><path class="el" d="M441.1 145.4 L440.9 145.8 L440.6 146.3 L440.4 146.8M437.6 144.5 L437.3 145 L437.1 145.4 L436.8 146"/><path class="dks1" d="M436.4 147.7 L436.3 148.2 L436.2 148.8 L436.2 149.4 L439.7 150.2 L439.7 149.7 L439.8 149.1 L439.9 148.5Z"/><path class="el" d="M439.9 148.5 L439.8 149.1 L439.7 149.7 L439.7 150.2M436.4 147.7 L436.3 148.2 L436.2 148.8 L436.2 149.4"/><path class="dks1" d="M436.8 146 L436.6 146.5 L436.5 147.1 L436.4 147.7 L439.9 148.5 L440 147.9 L440.2 147.3 L440.4 146.8Z"/><path class="el" d="M440.4 146.8 L440.2 147.3 L440 147.9 L439.9 148.5M436.8 146 L436.6 146.5 L436.5 147.1 L436.4 147.7"/><path class="dks4" fill-rule="evenodd" d="M444.3 147 L444.3 146.5 L444.2 146 L444.1 145.5 L444 145.1 L443.8 144.8 L443.6 144.5 L443.4 144.3 L443.2 144.2 L442.9 144.1 L442.6 144.1 L442.3 144.2 L442 144.4 L441.7 144.7 L441.4 145 L441.1 145.4 L440.9 145.8 L440.6 146.3 L440.4 146.8 L440.2 147.3 L440 147.9 L439.9 148.5 L439.8 149.1 L439.7 149.7 L439.7 150.2 L439.7 150.7 L439.8 151.2 L439.9 151.7 L440 152.1 L440.2 152.4 L440.4 152.7 L440.6 152.9 L440.9 153 L441.1 153.1 L441.4 153.1 L441.7 153 L442 152.8 L442.3 152.5 L442.6 152.2 L442.9 151.8 L443.2 151.4 L443.4 150.9 L443.6 150.4 L443.8 149.9 L444 149.3 L444.1 148.7 L444.2 148.1 L444.3 147.6Z"/><path class="dks4" d="M323.1 124.4 L323.1 123.9 L323.1 111.2 L323.1 111.6Z"/><path class="el" d="M323.1 123.9L323.1 111.2M323.1 111.6 L323.1 111.2M323.1 124.4 L323.1 123.9"/><path class="dks1" d="M306.8 123.9 L306.8 124.4 L307 124.8 L307 112.1 L306.8 111.6 L306.8 111.2Z"/><path class="el" d="M306.8 123.9L306.8 111.2M306.8 111.2 L306.8 111.6 L307 112.1M306.8 123.9 L306.8 124.4 L307 124.8"/><path class="dks4" d="M322 125.6 L322.5 125.2 L322.9 124.8 L323.1 124.4 L323.1 111.6 L322.9 112.1 L322.5 112.5 L322 112.9Z"/><path class="el" d="M322 112.9 L322.5 112.5 L322.9 112.1 L323.1 111.6M322 125.6 L322.5 125.2 L322.9 124.8 L323.1 124.4"/><path class="dks1" d="M307 124.8 L307.4 125.2 L307.8 125.6 L308.4 126 L308.4 113.2 L307.8 112.9 L307.4 112.5 L307 112.1Z"/><path class="el" d="M307 112.1 L307.4 112.5 L307.8 112.9 L308.4 113.2M307 124.8 L307.4 125.2 L307.8 125.6 L308.4 126"/><path class="dks4" d="M319.9 126.6 L320.7 126.3 L321.5 126 L322 125.6 L322 112.9 L321.5 113.2 L320.7 113.6 L319.9 113.8Z"/><path class="el" d="M319.9 113.8 L320.7 113.6 L321.5 113.2 L322 112.9M319.9 126.6 L320.7 126.3 L321.5 126 L322 125.6"/><path class="dks2" d="M308.4 126 L309.2 126.3 L310 126.6 L310.8 126.8 L310.8 114.1 L310 113.8 L309.2 113.6 L308.4 113.2Z"/><path class="el" d="M308.4 113.2 L309.2 113.6 L310 113.8 L310.8 114.1M308.4 126 L309.2 126.3 L310 126.6 L310.8 126.8"/><path class="dks3" d="M317.1 127.2 L318.1 127 L319 126.8 L319.9 126.6 L319.9 113.8 L319 114.1 L318.1 114.3 L317.1 114.4Z"/><path class="el" d="M317.1 114.4 L318.1 114.3 L319 114.1 L319.9 113.8M317.1 127.2 L318.1 127 L319 126.8 L319.9 126.6"/><path class="dks2" d="M310.8 126.8 L311.8 127 L312.8 127.2 L313.9 127.2 L313.9 114.5 L312.8 114.4 L311.8 114.3 L310.8 114.1Z"/><path class="el" d="M310.8 114.1 L311.8 114.3 L312.8 114.4 L313.9 114.5M310.8 126.8 L311.8 127 L312.8 127.2 L313.9 127.2"/><path class="dks3" d="M313.9 127.2 L314.9 127.3 L316 127.2 L317.1 127.2 L317.1 114.4 L316 114.5 L314.9 114.5 L313.9 114.5Z"/><path class="el" d="M313.9 114.5 L314.9 114.5 L316 114.5 L317.1 114.4M313.9 127.2 L314.9 127.3 L316 127.2 L317.1 127.2"/><path class="dk" fill-rule="evenodd" d="M310.8 114.1 L311.8 114.3 L312.8 114.4 L313.9 114.5 L314.9 114.5 L316 114.5 L317.1 114.4 L318.1 114.3 L319 114.1 L319.9 113.8 L320.7 113.6 L321.5 113.2 L322 112.9 L322.5 112.5 L322.9 112.1 L323.1 111.6 L323.1 111.2 L323.1 110.8 L322.9 110.3 L322.5 109.9 L322 109.5 L321.5 109.2 L320.7 108.8 L319.9 108.6 L319 108.3 L318.1 108.1 L317.1 108 L316 107.9 L314.9 107.9 L313.9 107.9 L312.8 108 L311.8 108.1 L310.8 108.3 L310 108.6 L309.2 108.8 L308.4 109.2 L307.8 109.5 L307.4 109.9 L307 110.3 L306.8 110.8 L306.8 111.2 L306.8 111.6 L307 112.1 L307.4 112.5 L307.8 112.9 L308.4 113.2 L309.2 113.6 L310 113.8Z"/><path class="dks4" d="M320 111.5 L320 111.2 L320 107.5 L320 107.7Z"/><path class="el" d="M320 111.2L320 107.5M320 107.7 L320 107.5M320 111.5 L320 111.2"/><path class="dks1" d="M309.9 111.2 L309.9 111.5 L310 111.7 L310 108 L309.9 107.7 L309.9 107.5Z"/><path class="el" d="M309.9 111.2L309.9 107.5M309.9 107.5 L309.9 107.7 L310 108M309.9 111.2 L309.9 111.5 L310 111.7"/><path class="dks4" d="M319.4 112.2 L319.6 112 L319.9 111.7 L320 111.5 L320 107.7 L319.9 108 L319.6 108.2 L319.4 108.5Z"/><path class="el" d="M319.4 108.5 L319.6 108.2 L319.9 108 L320 107.7M319.4 112.2 L319.6 112 L319.9 111.7 L320 111.5"/><path class="dks1" d="M310 111.7 L310.3 112 L310.5 112.2 L310.9 112.5 L310.9 108.7 L310.5 108.5 L310.3 108.2 L310 108Z"/><path class="el" d="M310 108 L310.3 108.2 L310.5 108.5 L310.9 108.7M310 111.7 L310.3 112 L310.5 112.2 L310.9 112.5"/><path class="dks4" d="M318 112.8 L318.5 112.7 L319 112.5 L319.4 112.2 L319.4 108.5 L319 108.7 L318.5 108.9 L318 109.1Z"/><path class="el" d="M318 109.1 L318.5 108.9 L319 108.7 L319.4 108.5M318 112.8 L318.5 112.7 L319 112.5 L319.4 112.2"/><path class="dks2" d="M310.9 112.5 L311.4 112.7 L311.9 112.8 L312.4 113 L312.4 109.2 L311.9 109.1 L311.4 108.9 L310.9 108.7Z"/><path class="el" d="M310.9 108.7 L311.4 108.9 L311.9 109.1 L312.4 109.2M310.9 112.5 L311.4 112.7 L311.9 112.8 L312.4 113"/><path class="dks3" d="M316.3 113.2 L316.9 113.1 L317.5 113 L318 112.8 L318 109.1 L317.5 109.2 L316.9 109.4 L316.3 109.5Z"/><path class="el" d="M316.3 109.5 L316.9 109.4 L317.5 109.2 L318 109.1M316.3 113.2 L316.9 113.1 L317.5 113 L318 112.8"/><path class="dks2" d="M312.4 113 L313 113.1 L313.6 113.2 L314.3 113.3 L314.3 109.5 L313.6 109.5 L313 109.4 L312.4 109.2Z"/><path class="el" d="M312.4 109.2 L313 109.4 L313.6 109.5 L314.3 109.5M312.4 113 L313 113.1 L313.6 113.2 L314.3 113.3"/><path class="dks3" d="M314.3 113.3 L314.9 113.3 L315.6 113.3 L316.3 113.2 L316.3 109.5 L315.6 109.5 L314.9 109.5 L314.3 109.5Z"/><path class="el" d="M314.3 109.5 L314.9 109.5 L315.6 109.5 L316.3 109.5M314.3 113.3 L314.9 113.3 L315.6 113.3 L316.3 113.2"/><path class="dk" fill-rule="evenodd" d="M312.4 109.2 L313 109.4 L313.6 109.5 L314.3 109.5 L314.9 109.5 L315.6 109.5 L316.3 109.5 L316.9 109.4 L317.5 109.2 L318 109.1 L318.5 108.9 L319 108.7 L319.4 108.5 L319.6 108.2 L319.9 108 L320 107.7 L320 107.5 L320 107.2 L319.9 106.9 L319.6 106.7 L319.4 106.4 L319 106.2 L318.5 106 L318 105.8 L317.5 105.7 L316.9 105.5 L316.3 105.5 L315.6 105.4 L314.9 105.4 L314.3 105.4 L313.6 105.5 L313 105.5 L312.4 105.7 L311.9 105.8 L311.4 106 L310.9 106.2 L310.5 106.4 L310.3 106.7 L310 106.9 L309.9 107.2 L309.9 107.5 L309.9 107.7 L310 108 L310.3 108.2 L310.5 108.5 L310.9 108.7 L311.4 108.9 L311.9 109.1Z"/><path class="ws4 x" d="M319.7 300.1 L325.4 296 L325.4 286.3 L319.7 290.3Z"/><path class="ws2 x" d="M309.7 297.7 L319.7 300.1 L319.7 290.3 L309.7 288Z"/><path class="w" fill-rule="evenodd" d="M315.5 284 L309.7 288 L319.7 290.3 L325.4 286.3Z"/></svg>